<svg width="55" height="67" viewBox="0 0 55 67" fill="none" xmlns="http://www.w3.org/2000/svg">
<path d="M13.2256 1H2.11173C1.70253 1 1.37082 1.32995 1.37082 1.73697V12.423C1.37082 12.83 1.70253 13.16 2.11173 13.16H13.2256C13.6348 13.16 13.9665 12.83 13.9665 12.423V1.73697C13.9665 1.32995 13.6348 1 13.2256 1Z" fill="#B2C1D5" fill-opacity="0.29917" stroke="#6F7A88" stroke-width="0.370462"/>
<path d="M13.2256 14.2654H2.11173C1.70253 14.2654 1.37082 14.5953 1.37082 15.0023V25.6884C1.37082 26.0954 1.70253 26.4254 2.11173 26.4254H13.2256C13.6348 26.4254 13.9665 26.0954 13.9665 25.6884V15.0023C13.9665 14.5953 13.6348 14.2654 13.2256 14.2654Z" fill="#B2C1D5" fill-opacity="0.29917" stroke="#6F7A88" stroke-width="0.370462"/>
<path d="M13.2256 27.531H2.11173C1.70253 27.531 1.37082 27.8609 1.37082 28.2679V38.954C1.37082 39.361 1.70253 39.691 2.11173 39.691H13.2256C13.6348 39.691 13.9665 39.361 13.9665 38.954V28.2679C13.9665 27.8609 13.6348 27.531 13.2256 27.531Z" fill="#B2C1D5" fill-opacity="0.29917" stroke="#6F7A88" stroke-width="0.370462"/>
<path d="M12.8548 40.7963H1.74094C1.33174 40.7963 1 41.1263 1 41.5333V52.2193C1 52.6264 1.33174 52.9563 1.74094 52.9563H12.8548C13.264 52.9563 13.5957 52.6264 13.5957 52.2193V41.5333C13.5957 41.1263 13.264 40.7963 12.8548 40.7963Z" fill="#B2C1D5" fill-opacity="0.29917" stroke="#6F7A88" stroke-width="0.370462"/>
<path d="M26.1914 54.0619H1.74094C1.33174 54.0619 1 54.3919 1 54.7989V65.485C1 65.892 1.33174 66.2219 1.74094 66.2219H26.1914C26.6006 66.2219 26.9323 65.892 26.9323 65.485V54.7989C26.9323 54.3919 26.6006 54.0619 26.1914 54.0619Z" fill="#B2C1D5" fill-opacity="0.29917" stroke="#6F7A88" stroke-width="0.370462"/>
<path d="M26.5617 1H15.4478C15.0386 1 14.7069 1.32995 14.7069 1.73697V12.423C14.7069 12.83 15.0386 13.16 15.4478 13.16H26.5617C26.9709 13.16 27.3026 12.83 27.3026 12.423V1.73697C27.3026 1.32995 26.9709 1 26.5617 1Z" fill="#B2C1D5" fill-opacity="0.29917" stroke="#6F7A88" stroke-width="0.370462"/>
<path d="M26.5617 14.2654H15.4478C15.0386 14.2654 14.7069 14.5953 14.7069 15.0023V25.6884C14.7069 26.0954 15.0386 26.4254 15.4478 26.4254H26.5617C26.9709 26.4254 27.3026 26.0954 27.3026 25.6884V15.0023C27.3026 14.5953 26.9709 14.2654 26.5617 14.2654Z" fill="#B2C1D5" fill-opacity="0.29917" stroke="#6F7A88" stroke-width="0.370462"/>
<path d="M26.5617 27.531H15.4478C15.0386 27.531 14.7069 27.8609 14.7069 28.2679V38.954C14.7069 39.361 15.0386 39.691 15.4478 39.691H26.5617C26.9709 39.691 27.3026 39.361 27.3026 38.954V28.2679C27.3026 27.8609 26.9709 27.531 26.5617 27.531Z" fill="#B2C1D5" fill-opacity="0.29917" stroke="#6F7A88" stroke-width="0.370462"/>
<path d="M26.1917 40.7963H15.0779C14.6687 40.7963 14.337 41.1263 14.337 41.5333V52.2193C14.337 52.6264 14.6687 52.9563 15.0779 52.9563H26.1917C26.6009 52.9563 26.9326 52.6264 26.9326 52.2193V41.5333C26.9326 41.1263 26.6009 40.7963 26.1917 40.7963Z" fill="#B2C1D5" fill-opacity="0.29917" stroke="#6F7A88" stroke-width="0.370462"/>
<path d="M39.8986 1H28.7848C28.3756 1 28.0439 1.32995 28.0439 1.73697V12.423C28.0439 12.83 28.3756 13.16 28.7848 13.16H39.8986C40.3078 13.16 40.6396 12.83 40.6396 12.423V1.73697C40.6396 1.32995 40.3078 1 39.8986 1Z" fill="#B2C1D5" fill-opacity="0.29917" stroke="#6F7A88" stroke-width="0.370462"/>
<path d="M39.8986 14.2654H28.7848C28.3756 14.2654 28.0439 14.5953 28.0439 15.0023V25.6884C28.0439 26.0954 28.3756 26.4254 28.7848 26.4254H39.8986C40.3078 26.4254 40.6396 26.0954 40.6396 25.6884V15.0023C40.6396 14.5953 40.3078 14.2654 39.8986 14.2654Z" fill="#B2C1D5" fill-opacity="0.29917" stroke="#6F7A88" stroke-width="0.370462"/>
<path d="M39.8986 27.531H28.7848C28.3756 27.531 28.0439 27.8609 28.0439 28.2679V38.954C28.0439 39.361 28.3756 39.691 28.7848 39.691H39.8986C40.3078 39.691 40.6396 39.361 40.6396 38.954V28.2679C40.6396 27.8609 40.3078 27.531 39.8986 27.531Z" fill="#B2C1D5" fill-opacity="0.29917" stroke="#6F7A88" stroke-width="0.370462"/>
<path d="M39.5278 40.7963H28.414C28.0048 40.7963 27.673 41.1263 27.673 41.5333V52.2193C27.673 52.6264 28.0048 52.9563 28.414 52.9563H39.5278C39.937 52.9563 40.2688 52.6264 40.2688 52.2193V41.5333C40.2688 41.1263 39.937 40.7963 39.5278 40.7963Z" fill="#B2C1D5" fill-opacity="0.29917" stroke="#6F7A88" stroke-width="0.370462"/>
<path d="M39.5278 54.0619H28.414C28.0048 54.0619 27.673 54.3919 27.673 54.7989V65.485C27.673 65.892 28.0048 66.2219 28.414 66.2219H39.5278C39.937 66.2219 40.2688 65.892 40.2688 65.485V54.7989C40.2688 54.3919 39.937 54.0619 39.5278 54.0619Z" fill="#B2C1D5" fill-opacity="0.29917" stroke="#6F7A88" stroke-width="0.370462"/>
<path d="M53.2356 1H42.1218C41.7126 1 41.3808 1.32995 41.3808 1.73697V12.423C41.3808 12.83 41.7126 13.16 42.1218 13.16H53.2356C53.6448 13.16 53.9765 12.83 53.9765 12.423V1.73697C53.9765 1.32995 53.6448 1 53.2356 1Z" fill="#B2C1D5" fill-opacity="0.29917" stroke="#6F7A88" stroke-width="0.370462"/>
<path d="M53.2356 14.2654H42.1218C41.7126 14.2654 41.3808 14.5953 41.3808 15.0023V38.9538C41.3808 39.3609 41.7126 39.6908 42.1218 39.6908H53.2356C53.6448 39.6908 53.9765 39.3609 53.9765 38.9538V15.0023C53.9765 14.5953 53.6448 14.2654 53.2356 14.2654Z" fill="#B2C1D5" fill-opacity="0.29917" stroke="#6F7A88" stroke-width="0.370462"/>
<path d="M52.8648 40.7963H41.7509C41.3417 40.7963 41.01 41.1263 41.01 41.5333V65.4848C41.01 65.8918 41.3417 66.2218 41.7509 66.2218H52.8648C53.274 66.2218 53.6057 65.8918 53.6057 65.4848V41.5333C53.6057 41.1263 53.274 40.7963 52.8648 40.7963Z" fill="#B2C1D5" fill-opacity="0.29917" stroke="#6F7A88" stroke-width="0.370462"/>
</svg>
