<?xml version="1.0" encoding="UTF-8"?>
<svg width="828px" height="530px" viewBox="0 0 828 530" version="1.1" xmlns="http://www.w3.org/2000/svg" xmlns:xlink="http://www.w3.org/1999/xlink">
    <!-- Generator: Sketch 63 (92445) - https://sketch.com -->
    <title>empty-base-kit-illu</title>
    <desc>Created with Sketch.</desc>
    <g id="empty-base-kit-illu" stroke="none" stroke-width="1" fill="none" fill-rule="evenodd">
        <g id="base-kit-illu" transform="translate(90.000000, 101.000000)" fill="#B2C1D5" fill-opacity="0.29916958" stroke="#6F7A88" stroke-width="0.8">
            <rect id="Rectangle" x="0" y="0" width="27.2" height="26.4" rx="1.6"></rect>
            <rect id="Rectangle-Copy-16" x="0" y="36" width="27.2" height="26.4" rx="1.6"></rect>
            <rect id="Rectangle-Copy" x="57.6" y="0" width="27.2" height="26.4" rx="1.6"></rect>
            <rect id="Rectangle-Copy-17" x="57.6" y="36" width="27.2" height="26.4" rx="1.6"></rect>
            <rect id="Rectangle-Copy-37" x="44" y="64.8" width="27.2" height="26.4" rx="1.6"></rect>
            <rect id="Rectangle-Copy-46" x="0" y="64.8" width="42.4" height="26.4" rx="1.6"></rect>
            <rect id="Rectangle-Copy-32" x="28.8" y="36" width="27.2" height="26.4" rx="1.6"></rect>
            <rect id="Rectangle-Copy-5" x="187.2" y="0" width="27.2" height="26.4" rx="1.6"></rect>
            <rect id="Rectangle-Copy-18" x="172.8" y="36" width="27.2" height="26.4" rx="1.6"></rect>
            <rect id="Rectangle-Copy-38" x="159.2" y="64.8" width="27.2" height="26.4" rx="1.6"></rect>
            <rect id="Rectangle-Copy-51" x="165.6" y="93.6" width="27.2" height="26.4" rx="1.6"></rect>
            <rect id="Rectangle-Copy-64" x="151.2" y="122.4" width="27.2" height="26.4" rx="1.6"></rect>
            <rect id="Rectangle-Copy-76" x="72" y="151.2" width="34.4" height="26.4" rx="1.6"></rect>
            <rect id="Rectangle-Copy-79" x="108" y="151.2" width="178.4" height="26.4" rx="1.6"></rect>
            <rect id="Rectangle-Copy-61" x="79.2" y="93.6" width="27.2" height="26.4" rx="1.6"></rect>
            <rect id="Rectangle-Copy-65" x="64.8" y="122.4" width="27.2" height="26.4" rx="1.6"></rect>
            <rect id="Rectangle-Copy-72" x="0" y="122.4" width="63.2" height="26.4" rx="1.6"></rect>
            <rect id="Rectangle-Copy-9" x="316.8" y="0" width="27.2" height="26.4" rx="1.6"></rect>
            <rect id="Rectangle-Copy-33" x="534.4" y="36" width="27.2" height="26.4" rx="1.6"></rect>
            <rect id="Rectangle-Copy-84" x="534.4" y="64.8" width="27.2" height="26.4" rx="1.6"></rect>
            <rect id="Rectangle-Copy-128" x="440" y="215.2" width="27.2" height="26.4" rx="1.6"></rect>
            <rect id="Rectangle-Copy-88" x="534.4" y="93.6" width="27.2" height="26.4" rx="1.6"></rect>
            <rect id="Rectangle-Copy-129" x="440" y="244" width="27.2" height="26.4" rx="1.6"></rect>
            <rect id="Rectangle-Copy-131" x="497.6" y="244" width="27.2" height="26.4" rx="1.6"></rect>
            <rect id="Rectangle-Copy-92" x="533.6" y="122.4" width="27.2" height="26.4" rx="1.6"></rect>
            <rect id="Rectangle-Copy-130" x="440" y="272.8" width="27.2" height="26.4" rx="1.6"></rect>
            <rect id="Rectangle-Copy-134" x="468.8" y="301.6" width="27.2" height="26.4" rx="1.6"></rect>
            <rect id="Rectangle-Copy-133" x="440" y="301.6" width="27.2" height="26.4" rx="1.6"></rect>
            <rect id="Rectangle-Copy-132" x="497.6" y="272.8" width="27.2" height="26.4" rx="1.6"></rect>
            <rect id="Rectangle-Copy-96" x="533.6" y="151.2" width="56" height="26.4" rx="1.6"></rect>
            <rect id="Rectangle-Copy-19" x="288" y="36" width="27.2" height="26.4" rx="1.6"></rect>
            <rect id="Rectangle-Copy-39" x="274.4" y="64.8" width="27.2" height="26.4" rx="1.6"></rect>
            <rect id="Rectangle-Copy-52" x="280.8" y="93.6" width="27.2" height="26.4" rx="1.6"></rect>
            <rect id="Rectangle-Copy-66" x="266.4" y="122.4" width="27.2" height="26.4" rx="1.6"></rect>
            <rect id="Rectangle-Copy-126" x="202.4" y="244" width="27.2" height="26.4" rx="1.6"></rect>
            <rect id="Rectangle-Copy-80" x="324" y="151.2" width="35.2" height="26.4" rx="1.6"></rect>
            <rect id="Rectangle-Copy-73" x="324" y="122.4" width="27.2" height="26.4" rx="1.6"></rect>
            <rect id="Rectangle-Copy-81" x="396.8" y="151.2" width="33.6" height="26.4" rx="1.6"></rect>
            <rect id="Rectangle-Copy-75" x="352.8" y="122.4" width="77.6" height="26.4" rx="1.6"></rect>
            <rect id="Rectangle-Copy-47" x="389.6" y="64.8" width="40.8" height="26.4" rx="1.6"></rect>
            <rect id="Rectangle-Copy-13" x="440" y="0" width="27.2" height="26.4" rx="1.6"></rect>
            <rect id="Rectangle-Copy-20" x="440" y="36" width="27.2" height="26.4" rx="1.6"></rect>
            <rect id="Rectangle-Copy-91" x="440" y="64.8" width="27.2" height="26.4" rx="1.6"></rect>
            <rect id="Rectangle-Copy-100" x="440" y="151.2" width="27.2" height="26.4" rx="1.6"></rect>
            <rect id="Rectangle-Copy-104" x="440" y="186.4" width="27.2" height="26.4" rx="1.6"></rect>
            <rect id="Rectangle-Copy-107" x="403.2" y="186.4" width="27.2" height="26.4" rx="1.6"></rect>
            <rect id="Rectangle-Copy-108" x="368" y="244" width="27.2" height="26.4" rx="1.6"></rect>
            <rect id="Rectangle-Copy-112" x="403.2" y="272.8" width="27.2" height="26.4" rx="1.6"></rect>
            <rect id="Rectangle-Copy-115" x="353.6" y="272.8" width="48" height="26.4" rx="1.6"></rect>
            <rect id="Rectangle-Copy-116" x="288" y="272.8" width="64" height="26.4" rx="1.6"></rect>
            <rect id="Rectangle-Copy-113" x="360" y="301.6" width="27.2" height="26.4" rx="1.6"></rect>
            <rect id="Rectangle-Copy-121" x="44" y="301.6" width="27.2" height="26.4" rx="1.6"></rect>
            <rect id="Rectangle-Copy-123" x="0.8" y="272.8" width="33.6" height="26.4" rx="1.6"></rect>
            <rect id="Rectangle-Copy-124" x="0.8" y="244" width="48.8" height="26.4" rx="1.6"></rect>
            <rect id="Rectangle-Copy-125" x="51.2" y="244" width="48.8" height="26.4" rx="1.6"></rect>
            <rect id="Rectangle-Copy-122" x="36" y="272.8" width="27.2" height="26.4" rx="1.6"></rect>
            <rect id="Rectangle-Copy-114" x="388.8" y="301.6" width="41.6" height="26.4" rx="1.6"></rect>
            <rect id="Rectangle-Copy-117" x="316.8" y="301.6" width="41.6" height="26.4" rx="1.6"></rect>
            <rect id="Rectangle-Copy-119" x="72.8" y="301.6" width="41.6" height="26.4" rx="1.6"></rect>
            <rect id="Rectangle-Copy-120" x="0.8" y="301.6" width="41.6" height="26.4" rx="1.6"></rect>
            <rect id="Rectangle-Copy-118" x="116" y="301.6" width="199.2" height="26.4" rx="1.6"></rect>
            <rect id="Rectangle-Copy-109" x="345.6" y="215.2" width="41.6" height="26.4" rx="1.6"></rect>
            <path d="M428.8,215.2 C429.683656,215.2 430.4,215.916344 430.4,216.8 L430.4,240 L430.397937,240.074025 C430.399307,240.102511 430.4,240.131175 430.4,240.16 L430.4,268.64 C430.4,269.612021 429.612021,270.4 428.64,270.4 L398.56,270.4 C397.587979,270.4 396.8,269.612021 396.8,268.64 L396.8,241.6 L390.4,241.6 C389.516344,241.6 388.8,240.883656 388.8,240 L388.8,216.8 C388.8,215.916344 389.516344,215.2 390.4,215.2 L428.8,215.2 Z" id="Combined-Shape"></path>
            <rect id="Rectangle-Copy-2" x="86.4" y="0" width="27.2" height="26.4" rx="1.6"></rect>
            <rect id="Rectangle-Copy-21" x="86.4" y="36" width="27.2" height="26.4" rx="1.6"></rect>
            <rect id="Rectangle-Copy-40" x="72.8" y="64.8" width="27.2" height="26.4" rx="1.6"></rect>
            <rect id="Rectangle-Copy-6" x="216" y="0" width="27.2" height="26.4" rx="1.6"></rect>
            <rect id="Rectangle-Copy-22" x="201.6" y="36" width="27.2" height="26.4" rx="1.6"></rect>
            <rect id="Rectangle-Copy-41" x="188" y="64.8" width="27.2" height="26.4" rx="1.6"></rect>
            <rect id="Rectangle-Copy-53" x="194.4" y="93.6" width="27.2" height="26.4" rx="1.6"></rect>
            <rect id="Rectangle-Copy-67" x="180" y="122.4" width="27.2" height="26.4" rx="1.6"></rect>
            <rect id="Rectangle-Copy-48" x="303.2" y="64.8" width="27.2" height="26.4" rx="1.6"></rect>
            <rect id="Rectangle-Copy-54" x="309.6" y="93.6" width="27.2" height="26.4" rx="1.6"></rect>
            <rect id="Rectangle-Copy-10" x="345.6" y="0" width="27.2" height="26.4" rx="1.6"></rect>
            <rect id="Rectangle-Copy-34" x="563.2" y="36" width="27.2" height="26.4" rx="1.6"></rect>
            <rect id="Rectangle-Copy-85" x="563.2" y="64.8" width="27.2" height="26.4" rx="1.6"></rect>
            <rect id="Rectangle-Copy-89" x="563.2" y="93.6" width="27.2" height="26.4" rx="1.6"></rect>
            <rect id="Rectangle-Copy-93" x="562.4" y="122.4" width="27.2" height="26.4" rx="1.6"></rect>
            <rect id="Rectangle-Copy-23" x="316.8" y="36" width="27.2" height="26.4" rx="1.6"></rect>
            <rect id="Rectangle-Copy-14" x="468.8" y="0" width="27.2" height="26.4" rx="1.6"></rect>
            <rect id="Rectangle-Copy-24" x="468.8" y="36" width="27.2" height="26.4" rx="1.6"></rect>
            <rect id="Rectangle-Copy-97" x="468.8" y="64.8" width="27.2" height="26.4" rx="1.6"></rect>
            <rect id="Rectangle-Copy-101" x="468.8" y="151.2" width="27.2" height="26.4" rx="1.6"></rect>
            <rect id="Rectangle-Copy-135" x="562.4" y="272.8" width="27.2" height="26.4" rx="1.6"></rect>
            <rect id="Rectangle-Copy-137" x="591.2" y="244" width="27.2" height="26.4" rx="1.6"></rect>
            <rect id="Rectangle-Copy-105" x="468.8" y="186.4" width="27.2" height="26.4" rx="1.6"></rect>
            <rect id="Rectangle-Copy-3" x="115.2" y="0" width="27.2" height="26.4" rx="1.6"></rect>
            <rect id="Rectangle-Copy-25" x="115.2" y="36" width="27.2" height="26.4" rx="1.6"></rect>
            <rect id="Rectangle-Copy-42" x="101.6" y="64.8" width="27.2" height="26.4" rx="1.6"></rect>
            <rect id="Rectangle-Copy-55" x="108" y="93.6" width="27.2" height="26.4" rx="1.6"></rect>
            <rect id="Rectangle-Copy-68" x="93.6" y="122.4" width="27.2" height="26.4" rx="1.6"></rect>
            <rect id="Rectangle-Copy-77" x="0" y="151.2" width="34.4" height="26.4" rx="1.6"></rect>
            <rect id="Rectangle-Copy-62" x="0" y="93.6" width="48.8" height="26.4" rx="1.6"></rect>
            <rect id="Rectangle-Copy-7" x="244.8" y="0" width="27.2" height="26.4" rx="1.6"></rect>
            <rect id="Rectangle-Copy-26" x="230.4" y="36" width="27.2" height="26.4" rx="1.6"></rect>
            <rect id="Rectangle-Copy-43" x="216.8" y="64.8" width="27.2" height="26.4" rx="1.6"></rect>
            <rect id="Rectangle-Copy-56" x="223.2" y="93.6" width="27.2" height="26.4" rx="1.6"></rect>
            <rect id="Rectangle-Copy-69" x="208.8" y="122.4" width="27.2" height="26.4" rx="1.6"></rect>
            <rect id="Rectangle-Copy-49" x="332" y="64.8" width="27.2" height="26.4" rx="1.6"></rect>
            <rect id="Rectangle-Copy-57" x="338.4" y="93.6" width="27.2" height="26.4" rx="1.6"></rect>
            <rect id="Rectangle-Copy-60" x="367.2" y="93.6" width="63.2" height="26.4" rx="1.6"></rect>
            <rect id="Rectangle-Copy-11" x="374.4" y="0" width="27.2" height="26.4" rx="1.6"></rect>
            <rect id="Rectangle-Copy-35" x="592" y="36" width="27.2" height="26.4" rx="1.6"></rect>
            <rect id="Rectangle-Copy-86" x="592" y="64.8" width="27.2" height="26.4" rx="1.6"></rect>
            <rect id="Rectangle-Copy-90" x="592" y="93.6" width="27.2" height="26.4" rx="1.6"></rect>
            <rect id="Rectangle-Copy-94" x="591.2" y="122.4" width="27.2" height="26.4" rx="1.6"></rect>
            <rect id="Rectangle-Copy-98" x="591.2" y="151.2" width="27.2" height="26.4" rx="1.6"></rect>
            <rect id="Rectangle-Copy-27" x="345.6" y="36" width="27.2" height="26.4" rx="1.6"></rect>
            <rect id="Rectangle-Copy-15" x="497.6" y="0" width="27.2" height="26.4" rx="1.6"></rect>
            <rect id="Rectangle-Copy-28" x="497.6" y="36" width="27.2" height="26.4" rx="1.6"></rect>
            <rect id="Rectangle-Copy-99" x="497.6" y="64.8" width="27.2" height="26.4" rx="1.6"></rect>
            <rect id="Rectangle-Copy-102" x="497.6" y="151.2" width="27.2" height="26.4" rx="1.6"></rect>
            <rect id="Rectangle-Copy-106" x="497.6" y="186.4" width="27.2" height="26.4" rx="1.6"></rect>
            <rect id="Rectangle-Copy-103" x="468.8" y="122.4" width="27.2" height="26.4" rx="1.6"></rect>
            <rect id="Rectangle-Copy-136" x="562.4" y="244" width="27.2" height="26.4" rx="1.6"></rect>
            <rect id="Rectangle-Copy-138" x="591.2" y="215.2" width="27.2" height="26.4" rx="1.6"></rect>
            <rect id="Rectangle-Copy-4" x="144" y="0" width="27.2" height="26.4" rx="1.6"></rect>
            <rect id="Rectangle-Copy-29" x="144" y="36" width="27.2" height="26.4" rx="1.6"></rect>
            <rect id="Rectangle-Copy-44" x="130.4" y="64.8" width="27.2" height="26.4" rx="1.6"></rect>
            <rect id="Rectangle-Copy-58" x="136.8" y="93.6" width="27.2" height="26.4" rx="1.6"></rect>
            <rect id="Rectangle-Copy-70" x="122.4" y="122.4" width="27.2" height="26.4" rx="1.6"></rect>
            <rect id="Rectangle-Copy-78" x="36" y="151.2" width="34.4" height="26.4" rx="1.6"></rect>
            <rect id="Rectangle-Copy-63" x="50.4" y="93.6" width="27.2" height="26.4" rx="1.6"></rect>
            <rect id="Rectangle-Copy-8" x="273.6" y="0" width="27.2" height="26.4" rx="1.6"></rect>
            <rect id="Rectangle-Copy-30" x="259.2" y="36" width="27.2" height="26.4" rx="1.6"></rect>
            <rect id="Rectangle-Copy-45" x="245.6" y="64.8" width="27.2" height="26.4" rx="1.6"></rect>
            <rect id="Rectangle-Copy-59" x="252" y="93.6" width="27.2" height="26.4" rx="1.6"></rect>
            <rect id="Rectangle-Copy-71" x="237.6" y="122.4" width="27.2" height="26.4" rx="1.6"></rect>
            <rect id="Rectangle-Copy-127" x="173.6" y="244" width="27.2" height="26.4" rx="1.6"></rect>
            <rect id="Rectangle-Copy-82" x="288" y="151.2" width="34.4" height="26.4" rx="1.6"></rect>
            <rect id="Rectangle-Copy-74" x="295.2" y="122.4" width="27.2" height="26.4" rx="1.6"></rect>
            <rect id="Rectangle-Copy-83" x="360.8" y="151.2" width="34.4" height="26.4" rx="1.6"></rect>
            <rect id="Rectangle-Copy-50" x="360.8" y="64.8" width="27.2" height="26.4" rx="1.6"></rect>
            <rect id="Rectangle-Copy-12" x="403.2" y="0" width="27.2" height="26.4" rx="1.6"></rect>
            <rect id="Rectangle-Copy-36" x="620.8" y="36" width="27.2" height="26.4" rx="1.6"></rect>
            <rect id="Rectangle-Copy-87" x="620.8" y="64.8" width="27.2" height="55.2" rx="1.6"></rect>
            <rect id="Rectangle-Copy-95" x="620" y="122.4" width="27.2" height="55.2" rx="1.6"></rect>
            <rect id="Rectangle-Copy-31" x="374.4" y="36" width="56" height="26.4" rx="1.6"></rect>
        </g>
        <text id="base-kit-illustratio" font-family="Rubik-Italic, Rubik" font-size="10" font-style="italic" font-weight="normal" fill="#6F7A88">
            <tspan x="328.46" y="515">base kit illustration by noudadrichem</tspan>
        </text>
    </g>
</svg>