<svg width="93" height="66" viewBox="0 0 93 66" fill="none" xmlns="http://www.w3.org/2000/svg">
<path d="M12.2941 1H1.70587C1.31602 1 1 1.32561 1 1.72727V12.2727C1 12.6744 1.31602 13 1.70587 13H12.2941C12.684 13 13 12.6744 13 12.2727V1.72727C13 1.32561 12.684 1 12.2941 1Z" fill="#B2C1D5" fill-opacity="0.29917" stroke="#6F7A88" stroke-width="0.370462"/>
<path d="M12.2941 14H1.70587C1.31602 14 1 14.3256 1 14.7273V25.2727C1 25.6744 1.31602 26 1.70587 26H12.2941C12.684 26 13 25.6744 13 25.2727V14.7273C13 14.3256 12.684 14 12.2941 14Z" fill="#B2C1D5" fill-opacity="0.29917" stroke="#6F7A88" stroke-width="0.370462"/>
<path d="M25.2941 1H14.7059C14.316 1 14 1.32561 14 1.72727V12.2727C14 12.6744 14.316 13 14.7059 13H25.2941C25.684 13 26 12.6744 26 12.2727V1.72727C26 1.32561 25.684 1 25.2941 1Z" fill="#B2C1D5" fill-opacity="0.29917" stroke="#6F7A88" stroke-width="0.370462"/>
<path d="M25.2941 14H14.7059C14.316 14 14 14.3256 14 14.7273V25.2727C14 25.6744 14.316 26 14.7059 26H25.2941C25.684 26 26 25.6744 26 25.2727V14.7273C26 14.3256 25.684 14 25.2941 14Z" fill="#B2C1D5" fill-opacity="0.29917" stroke="#6F7A88" stroke-width="0.370462"/>
<path d="M12.2941 27H1.70587C1.31602 27 1 27.3256 1 27.7273V38.2727C1 38.6744 1.31602 39 1.70587 39H12.2941C12.684 39 13 38.6744 13 38.2727V27.7273C13 27.3256 12.684 27 12.2941 27Z" fill="#B2C1D5" fill-opacity="0.29917" stroke="#6F7A88" stroke-width="0.370462"/>
<path d="M12.2941 40H1.7059C1.31605 40 1 40.3256 1 40.7273V51.2727C1 51.6744 1.31605 52 1.7059 52H12.2941C12.684 52 13 51.6744 13 51.2727V40.7273C13 40.3256 12.684 40 12.2941 40Z" fill="#B2C1D5" fill-opacity="0.29917" stroke="#6F7A88" stroke-width="0.370462"/>
<path d="M25.2857 53H1.7143C1.31981 53 1 53.3256 1 53.7273V64.2727C1 64.6744 1.31981 65 1.7143 65H25.2857C25.6802 65 26 64.6744 26 64.2727V53.7273C26 53.3256 25.6802 53 25.2857 53Z" fill="#B2C1D5" fill-opacity="0.29917" stroke="#6F7A88" stroke-width="0.370462"/>
<path d="M48.2783 40H14.7217C14.3231 40 14 40.3256 14 40.7273V51.2727C14 51.6744 14.3231 52 14.7217 52H48.2783C48.6769 52 49 51.6744 49 51.2727V40.7273C49 40.3256 48.6769 40 48.2783 40Z" fill="#B2C1D5" fill-opacity="0.29917" stroke="#6F7A88" stroke-width="0.370462"/>
<path d="M61.2783 53H27.7217C27.3231 53 27 53.3256 27 53.7273V64.2727C27 64.6744 27.3231 65 27.7217 65H61.2783C61.6769 65 62 64.6744 62 64.2727V53.7273C62 53.3256 61.6769 53 61.2783 53Z" fill="#B2C1D5" fill-opacity="0.29917" stroke="#6F7A88" stroke-width="0.370462"/>
<path d="M41.9633 14H27.7299C27.3268 14 27 14.3256 27 14.7273V25.2727C27 25.6744 27.3268 26 27.7299 26H41.9633C42.3664 26 42.6932 25.6744 42.6932 25.2727V14.7273C42.6932 14.3256 42.3664 14 41.9633 14Z" fill="#B2C1D5" fill-opacity="0.29917" stroke="#6F7A88" stroke-width="0.370462"/>
<path d="M28.3023 27H14.6977C14.3124 27 14 27.3256 14 27.7273V38.2727C14 38.6744 14.3124 39 14.6977 39H28.3023C28.6876 39 29 38.6744 29 38.2727V27.7273C29 27.3256 28.6876 27 28.3023 27Z" fill="#B2C1D5" fill-opacity="0.29917" stroke="#6F7A88" stroke-width="0.370462"/>
<path d="M44.3023 27H30.6977C30.3124 27 30 27.3256 30 27.7273V38.2727C30 38.6744 30.3124 39 30.6977 39H44.3023C44.6876 39 45 38.6744 45 38.2727V27.7273C45 27.3256 44.6876 27 44.3023 27Z" fill="#B2C1D5" fill-opacity="0.29917" stroke="#6F7A88" stroke-width="0.370462"/>
<path d="M78.5255 40H50.7409C50.3317 40 50 40.33 50 40.737V51.423C50 51.83 50.3317 52.16 50.7409 52.16H78.5255C78.9347 52.16 79.2665 51.83 79.2665 51.423V40.737C79.2665 40.33 78.9347 40 78.5255 40Z" fill="#B2C1D5" fill-opacity="0.29917" stroke="#6F7A88" stroke-width="0.370462"/>
<path d="M67.8572 27H46.7409C46.3317 27 46 27.33 46 27.737V38.423C46 38.83 46.3317 39.16 46.7409 39.16H67.8572C68.2664 39.16 68.5982 38.83 68.5982 38.423V27.737C68.5982 27.33 68.2664 27 67.8572 27Z" fill="#B2C1D5" fill-opacity="0.29917" stroke="#6F7A88" stroke-width="0.370462"/>
<path d="M91.1956 27H70.0793C69.6701 27 69.3383 27.33 69.3383 27.737V38.423C69.3383 38.83 69.6701 39.16 70.0793 39.16H91.1956C91.6048 39.16 91.9365 38.83 91.9365 38.423V27.737C91.9365 27.33 91.6048 27 91.1956 27Z" fill="#B2C1D5" fill-opacity="0.29917" stroke="#6F7A88" stroke-width="0.370462"/>
</svg>
