<svg width="94" height="53" viewBox="0 0 94 53" fill="none" xmlns="http://www.w3.org/2000/svg">
<path d="M75.3976 14H1.60241C1.26971 14 1 14.3256 1 14.7273V25.2727C1 25.6744 1.26971 26 1.60241 26H75.3976C75.7303 26 76 25.6744 76 25.2727V14.7273C76 14.3256 75.7303 14 75.3976 14Z" fill="#B2C1D5" fill-opacity="0.29917" stroke="#6F7A88" stroke-width="0.370462"/>
<path d="M72.4217 1H1.57831C1.25892 1 1 1.32561 1 1.72728V12.2727C1 12.6744 1.25892 13 1.57831 13H72.4217C72.7411 13 73 12.6744 73 12.2727V1.72728C73 1.32561 72.7411 1 72.4217 1Z" fill="#B2C1D5" fill-opacity="0.29917" stroke="#6F7A88" stroke-width="0.370462"/>
<path d="M84.3253 27H1.6747C1.30207 27 1 27.3256 1 27.7273V38.2727C1 38.6744 1.30207 39 1.6747 39H84.3253C84.6979 39 85 38.6744 85 38.2727V27.7273C85 27.3256 84.6979 27 84.3253 27Z" fill="#B2C1D5" fill-opacity="0.29917" stroke="#6F7A88" stroke-width="0.370462"/>
<path d="M36.7108 40H1.28916C1.12946 40 1 40.3256 1 40.7273V51.2727C1 51.6744 1.12946 52 1.28916 52H36.7108C36.8705 52 37 51.6744 37 51.2727V40.7273C37 40.3256 36.8705 40 36.7108 40Z" fill="#B2C1D5" fill-opacity="0.29917" stroke="#6F7A88" stroke-width="0.370462"/>
<path d="M58.8313 40H38.1687C38.0755 40 38 40.3256 38 40.7273V51.2727C38 51.6744 38.0755 52 38.1687 52H58.8313C58.9245 52 59 51.6744 59 51.2727V40.7273C59 40.3256 58.9245 40 58.8313 40Z" fill="#B2C1D5" fill-opacity="0.29917" stroke="#6F7A88" stroke-width="0.370462"/>
<path d="M92.7349 40H60.2651C60.1187 40 60 40.3256 60 40.7273V51.2727C60 51.6744 60.1187 52 60.2651 52H92.7349C92.8813 52 93 51.6744 93 51.2727V40.7273C93 40.3256 92.8813 40 92.7349 40Z" fill="#B2C1D5" fill-opacity="0.29917" stroke="#6F7A88" stroke-width="0.370462"/>
</svg>
