<?xml version="1.0" encoding="UTF-8"?>
<svg width="16px" height="16px" viewBox="0 0 16 16" version="1.1" xmlns="http://www.w3.org/2000/svg" xmlns:xlink="http://www.w3.org/1999/xlink">
    <!-- Generator: Sketch 63.1 (92452) - https://sketch.com -->
    <title>icon-check</title>
    <desc>Created with Sketch.</desc>
    <g id="Page-1" stroke="none" stroke-width="1" fill="none" fill-rule="evenodd">
        <g id="Desktop-HD" transform="translate(-344.000000, -568.000000)" fill="#FFFFFF">
            <g id="Group-5-+-Perestroika-+-label-+-Bitmap-Mask" transform="translate(224.000000, 424.000000)">
                <g id="label" transform="translate(112.000000, 136.000000)">
                    <g id="icon-check" transform="translate(8.000000, 8.000000)">
                        <g id="checkbox-selected">
                            <path d="M8,0 C12.3349143,0 15.8645429,3.45649202 15.9961932,7.75131053 L16,8 C16,12.3349143 12.543508,15.8645429 8.24868947,15.9961932 L8,16 C3.581722,16 0,12.4092877 0,8 C0,3.66508574 3.45649202,0.135457134 7.75131053,0.00380682464 L8,0 Z M12.2070436,5.18829416 C11.8104877,4.91333353 11.2568051,4.97453255 10.9256292,5.35462489 L10.9256292,5.35462489 L6.89612118,9.97841673 L5.60292489,8.49726535 C5.28831146,8.13698374 4.74985092,8.07636659 4.35900258,8.3474305 L4.35900258,8.3474305 L4.29912118,8.39441673 L4.24318981,8.45128794 C3.92790512,8.81324404 3.92179573,9.35621426 4.24076324,9.72110539 L4.24076324,9.72110539 L6.19496372,11.9566636 C6.20683698,11.9702463 6.2190273,11.9834031 6.23121964,11.995936 C6.23810079,12.0044446 6.24514135,12.0128595 6.25234099,12.0211766 L6.25234099,12.0211766 L6.29512118,12.0644167 L6.33871535,12.0988416 C6.40867829,12.1473519 6.483532,12.1853989 6.56132611,12.212399 C6.84504609,12.3212145 7.17513361,12.2891636 7.43797125,12.1064505 L7.43797125,12.1064505 L7.49712118,12.0594167 L7.55350049,12.0025782 C7.5571242,11.9984062 7.56070692,11.9942102 7.5642486,11.9899906 L7.5642486,11.9899906 L7.62012983,11.9325109 L12.2850035,6.578611 C12.6191169,6.19514722 12.6124173,5.63446852 12.293418,5.26595919 L12.293418,5.26595919 L12.2541212,5.22541673 Z" id="Combined-Shape"></path>
                        </g>
                    </g>
                </g>
            </g>
        </g>
    </g>
</svg>