<?xml version="1.0" encoding="UTF-8"?>
<svg width="16px" height="16px" viewBox="0 0 16 16" version="1.1" xmlns="http://www.w3.org/2000/svg" xmlns:xlink="http://www.w3.org/1999/xlink">
    <!-- Generator: Sketch 63.1 (92452) - https://sketch.com -->
    <title>icon-arrow</title>
    <desc>Created with Sketch.</desc>
    <g id="Page-1" stroke="none" stroke-width="1" fill="none" fill-rule="evenodd">
        <g id="Desktop-HD" transform="translate(-1184.000000, -664.000000)">
            <g id="Group-5-+-Perestroika-+-label-+-Bitmap-Mask" transform="translate(896.000000, 424.000000)">
                <g id="Group-5" transform="translate(190.000000, 238.000000)">
                    <g id="icon-arrow" transform="translate(98.000000, 2.000000)">
                        <g id="icon-default-publish">
                            <g>
                                <rect id="bounding-box" fill="#E3E3E3" opacity="0" x="0" y="0" width="16" height="16"></rect>
                                <path d="M8,-8.8817842e-16 C12.418278,-8.8817842e-16 16,3.581722 16,8 C16,12.418278 12.418278,16 8,16 C3.581722,16 0,12.418278 0,8 C0,3.581722 3.581722,-8.8817842e-16 8,-8.8817842e-16 Z M7.5960772,4.83761088 C7.20212662,4.53067628 6.63806886,4.55987233 6.27861903,4.91932216 L6.27861903,4.91932216 L4.03192135,7.16601984 C3.9847613,7.21317988 3.94332523,7.26371979 3.9075918,7.31682421 C3.73451913,7.49692721 3.6268423,7.74297097 3.6268423,8.01424311 C3.6268423,8.3256592 3.76688342,8.60187173 3.9868631,8.78465843 L4.03192135,8.83353572 L6.27861903,11.0802334 C6.67191598,11.4735304 7.3002798,11.4687292 7.69080409,11.0782049 L7.69080409,11.0782049 L7.77454387,10.983478 C8.08147847,10.5895274 8.05228242,10.0254697 7.69283259,9.66601984 L7.69283259,9.66601984 L7.04,9.014 L11.6292977,9.01424311 C12.1411571,9.01424311 12.5625482,8.62820292 12.6201354,8.13086424 L12.6268423,8.01424311 L12.6201311,7.89691056 C12.5625078,7.39696329 12.1408743,7.01424311 11.6292977,7.01424311 L11.6292977,7.01424311 L7.011,7.014 L7.69283259,6.33353572 C8.05587593,5.97049239 8.07971141,5.40715538 7.7740723,5.0154784 L7.69080409,4.92135066 Z" id="icon-export" fill="#0476FF" transform="translate(8.000000, 8.000000) scale(1, -1) rotate(-180.000000) translate(-8.000000, -8.000000) "></path>
                            </g>
                        </g>
                    </g>
                </g>
            </g>
        </g>
    </g>
</svg>