<?xml version="1.0" encoding="UTF-8"?>
<svg width="16px" height="16px" viewBox="0 0 16 16" version="1.1" xmlns="http://www.w3.org/2000/svg" xmlns:xlink="http://www.w3.org/1999/xlink">
    <g id="Page-1" stroke="none" stroke-width="1" fill="none" fill-rule="evenodd">
        <g id="Desktop-HD" transform="translate(-728.000000, -568.000000)">
            <g id="Group-5-+-Perestroika-+-label-+-Bitmap-Mask" transform="translate(560.000000, 424.000000)">
                <g id="label" transform="translate(160.000000, 136.000000)">
                    <g id="icon-cross" transform="translate(8.000000, 8.000000)">
                        <g id="icon-default-notification-error">
                            <g>
                                <rect id="bounding-box" fill="#E3E3E3" opacity="0" x="0" y="0" width="16" height="16"></rect>
                                <path d="M8,0 C12.418278,0 16,3.581722 16,8 C16,12.418278 12.418278,16 8,16 C3.581722,16 0,12.418278 0,8 C0,3.581722 3.581722,0 8,0 Z M10.6833232,5.28175664 C10.3004197,4.89885311 9.66521158,4.89596268 9.27520991,5.28596435 L9.27520991,5.28596435 L7.999,6.561 L6.72356084,5.28596435 C6.36868931,4.93109283 5.79948175,4.89745444 5.40909209,5.19929823 L5.31544756,5.28175664 L5.28175664,5.31544756 C4.89885311,5.69835109 4.89596268,6.33355917 5.28596435,6.72356084 L5.28596435,6.72356084 L6.561,7.999 L5.28596435,9.27520991 C4.93109283,9.63008143 4.89745444,10.199289 5.19929823,10.5896787 L5.28175664,10.6833232 L5.31544756,10.7170141 C5.69835109,11.0999176 6.33355917,11.1028081 6.72356084,10.7128064 L6.72356084,10.7128064 L7.999,9.436 L9.27520991,10.7128064 C9.63008143,11.0676779 10.199289,11.1013163 10.5896787,10.7994725 L10.6833232,10.7170141 L10.7170141,10.6833232 C11.0999176,10.3004197 11.1028081,9.66521158 10.7128064,9.27520991 L10.7128064,9.27520991 L9.436,7.999 L10.7128064,6.72356084 C11.0676779,6.36868931 11.1013163,5.79948175 10.7994725,5.40909209 L10.7170141,5.31544756 Z" id="Combined-Shape" fill="#FFFFFF"></path>
                            </g>
                        </g>
                    </g>
                </g>
            </g>
        </g>
    </g>
</svg>
