<?xml version="1.0" encoding="UTF-8"?>
<svg width="432px" height="179px" viewBox="0 0 432 179" version="1.1" xmlns="http://www.w3.org/2000/svg" xmlns:xlink="http://www.w3.org/1999/xlink">
    <!-- Generator: Sketch 63 (92445) - https://sketch.com -->
    <title>small-keeb-illu</title>
    <desc>Created with Sketch.</desc>
    <g id="Page-1" stroke="none" stroke-width="1" fill="none" fill-rule="evenodd" fill-opacity="0.29916958">
        <g id="empty-base-kit-illu-copy" transform="translate(-198.000000, -175.000000)" fill="#B2C1D5" stroke="#6F7A88" stroke-width="0.8">
            <g id="small-keeb-illu" transform="translate(199.000000, 176.000000)">
                <rect id="Rectangle" x="0" y="0" width="27.2" height="26.4" rx="1.6"></rect>
                <rect id="Rectangle-Copy-16" x="0" y="36" width="27.2" height="26.4" rx="1.6"></rect>
                <rect id="Rectangle-Copy" x="57.6" y="0" width="27.2" height="26.4" rx="1.6"></rect>
                <rect id="Rectangle-Copy-17" x="57.6" y="36" width="27.2" height="26.4" rx="1.6"></rect>
                <rect id="Rectangle-Copy-37" x="44" y="64.8" width="27.2" height="26.4" rx="1.6"></rect>
                <rect id="Rectangle-Copy-46" x="0" y="64.8" width="42.4" height="26.4" rx="1.6"></rect>
                <rect id="Rectangle-Copy-32" x="28.8" y="36" width="27.2" height="26.4" rx="1.6"></rect>
                <rect id="Rectangle-Copy-5" x="187.2" y="0" width="27.2" height="26.4" rx="1.6"></rect>
                <rect id="Rectangle-Copy-18" x="172.8" y="36" width="27.2" height="26.4" rx="1.6"></rect>
                <rect id="Rectangle-Copy-38" x="159.2" y="64.8" width="27.2" height="26.4" rx="1.6"></rect>
                <rect id="Rectangle-Copy-51" x="165.6" y="93.6" width="27.2" height="26.4" rx="1.6"></rect>
                <rect id="Rectangle-Copy-64" x="151.2" y="122.4" width="27.2" height="26.4" rx="1.6"></rect>
                <rect id="Rectangle-Copy-76" x="72" y="151.2" width="34.4" height="26.4" rx="1.6"></rect>
                <rect id="Rectangle-Copy-79" x="108" y="151.2" width="178.4" height="26.4" rx="1.6"></rect>
                <rect id="Rectangle-Copy-61" x="79.2" y="93.6" width="27.2" height="26.4" rx="1.6"></rect>
                <rect id="Rectangle-Copy-65" x="64.8" y="122.4" width="27.2" height="26.4" rx="1.6"></rect>
                <rect id="Rectangle-Copy-72" x="0" y="122.4" width="63.2" height="26.4" rx="1.6"></rect>
                <rect id="Rectangle-Copy-9" x="316.8" y="0" width="27.2" height="26.4" rx="1.6"></rect>
                <rect id="Rectangle-Copy-19" x="288" y="36" width="27.2" height="26.4" rx="1.6"></rect>
                <rect id="Rectangle-Copy-39" x="274.4" y="64.8" width="27.2" height="26.4" rx="1.6"></rect>
                <rect id="Rectangle-Copy-52" x="280.8" y="93.6" width="27.2" height="26.4" rx="1.6"></rect>
                <rect id="Rectangle-Copy-66" x="266.4" y="122.4" width="27.2" height="26.4" rx="1.6"></rect>
                <rect id="Rectangle-Copy-80" x="324" y="151.2" width="35.2" height="26.4" rx="1.6"></rect>
                <rect id="Rectangle-Copy-73" x="324" y="122.4" width="27.2" height="26.4" rx="1.6"></rect>
                <rect id="Rectangle-Copy-81" x="396.8" y="151.2" width="33.6" height="26.4" rx="1.6"></rect>
                <rect id="Rectangle-Copy-75" x="352.8" y="122.4" width="77.6" height="26.4" rx="1.6"></rect>
                <rect id="Rectangle-Copy-47" x="389.6" y="64.8" width="40.8" height="26.4" rx="1.6"></rect>
                <rect id="Rectangle-Copy-2" x="86.4" y="0" width="27.2" height="26.4" rx="1.6"></rect>
                <rect id="Rectangle-Copy-21" x="86.4" y="36" width="27.2" height="26.4" rx="1.6"></rect>
                <rect id="Rectangle-Copy-40" x="72.8" y="64.8" width="27.2" height="26.4" rx="1.6"></rect>
                <rect id="Rectangle-Copy-6" x="216" y="0" width="27.2" height="26.4" rx="1.6"></rect>
                <rect id="Rectangle-Copy-22" x="201.6" y="36" width="27.2" height="26.4" rx="1.6"></rect>
                <rect id="Rectangle-Copy-41" x="188" y="64.8" width="27.2" height="26.4" rx="1.6"></rect>
                <rect id="Rectangle-Copy-53" x="194.4" y="93.6" width="27.2" height="26.4" rx="1.6"></rect>
                <rect id="Rectangle-Copy-67" x="180" y="122.4" width="27.2" height="26.4" rx="1.6"></rect>
                <rect id="Rectangle-Copy-48" x="303.2" y="64.8" width="27.2" height="26.4" rx="1.6"></rect>
                <rect id="Rectangle-Copy-54" x="309.6" y="93.6" width="27.2" height="26.4" rx="1.6"></rect>
                <rect id="Rectangle-Copy-10" x="345.6" y="0" width="27.2" height="26.4" rx="1.6"></rect>
                <rect id="Rectangle-Copy-23" x="316.8" y="36" width="27.2" height="26.4" rx="1.6"></rect>
                <rect id="Rectangle-Copy-3" x="115.2" y="0" width="27.2" height="26.4" rx="1.6"></rect>
                <rect id="Rectangle-Copy-25" x="115.2" y="36" width="27.2" height="26.4" rx="1.6"></rect>
                <rect id="Rectangle-Copy-42" x="101.6" y="64.8" width="27.2" height="26.4" rx="1.6"></rect>
                <rect id="Rectangle-Copy-55" x="108" y="93.6" width="27.2" height="26.4" rx="1.6"></rect>
                <rect id="Rectangle-Copy-68" x="93.6" y="122.4" width="27.2" height="26.4" rx="1.6"></rect>
                <rect id="Rectangle-Copy-77" x="0" y="151.2" width="34.4" height="26.4" rx="1.6"></rect>
                <rect id="Rectangle-Copy-62" x="0" y="93.6" width="48.8" height="26.4" rx="1.6"></rect>
                <rect id="Rectangle-Copy-7" x="244.8" y="0" width="27.2" height="26.4" rx="1.6"></rect>
                <rect id="Rectangle-Copy-26" x="230.4" y="36" width="27.2" height="26.4" rx="1.6"></rect>
                <rect id="Rectangle-Copy-43" x="216.8" y="64.8" width="27.2" height="26.4" rx="1.6"></rect>
                <rect id="Rectangle-Copy-56" x="223.2" y="93.6" width="27.2" height="26.4" rx="1.6"></rect>
                <rect id="Rectangle-Copy-69" x="208.8" y="122.4" width="27.2" height="26.4" rx="1.6"></rect>
                <rect id="Rectangle-Copy-49" x="332" y="64.8" width="27.2" height="26.4" rx="1.6"></rect>
                <rect id="Rectangle-Copy-57" x="338.4" y="93.6" width="27.2" height="26.4" rx="1.6"></rect>
                <rect id="Rectangle-Copy-60" x="367.2" y="93.6" width="63.2" height="26.4" rx="1.6"></rect>
                <rect id="Rectangle-Copy-11" x="374.4" y="0" width="27.2" height="26.4" rx="1.6"></rect>
                <rect id="Rectangle-Copy-27" x="345.6" y="36" width="27.2" height="26.4" rx="1.6"></rect>
                <rect id="Rectangle-Copy-4" x="144" y="0" width="27.2" height="26.4" rx="1.6"></rect>
                <rect id="Rectangle-Copy-29" x="144" y="36" width="27.2" height="26.4" rx="1.6"></rect>
                <rect id="Rectangle-Copy-44" x="130.4" y="64.8" width="27.2" height="26.4" rx="1.6"></rect>
                <rect id="Rectangle-Copy-58" x="136.8" y="93.6" width="27.2" height="26.4" rx="1.6"></rect>
                <rect id="Rectangle-Copy-70" x="122.4" y="122.4" width="27.2" height="26.4" rx="1.6"></rect>
                <rect id="Rectangle-Copy-78" x="36" y="151.2" width="34.4" height="26.4" rx="1.6"></rect>
                <rect id="Rectangle-Copy-63" x="50.4" y="93.6" width="27.2" height="26.4" rx="1.6"></rect>
                <rect id="Rectangle-Copy-8" x="273.6" y="0" width="27.2" height="26.4" rx="1.6"></rect>
                <rect id="Rectangle-Copy-30" x="259.2" y="36" width="27.2" height="26.4" rx="1.6"></rect>
                <rect id="Rectangle-Copy-45" x="245.6" y="64.8" width="27.2" height="26.4" rx="1.6"></rect>
                <rect id="Rectangle-Copy-59" x="252" y="93.6" width="27.2" height="26.4" rx="1.6"></rect>
                <rect id="Rectangle-Copy-71" x="237.6" y="122.4" width="27.2" height="26.4" rx="1.6"></rect>
                <rect id="Rectangle-Copy-82" x="288" y="151.2" width="34.4" height="26.4" rx="1.6"></rect>
                <rect id="Rectangle-Copy-74" x="295.2" y="122.4" width="27.2" height="26.4" rx="1.6"></rect>
                <rect id="Rectangle-Copy-83" x="360.8" y="151.2" width="34.4" height="26.4" rx="1.6"></rect>
                <rect id="Rectangle-Copy-50" x="360.8" y="64.8" width="27.2" height="26.4" rx="1.6"></rect>
                <rect id="Rectangle-Copy-12" x="403.2" y="0" width="27.2" height="26.4" rx="1.6"></rect>
                <rect id="Rectangle-Copy-31" x="374.4" y="36" width="56" height="26.4" rx="1.6"></rect>
            </g>
        </g>
    </g>
</svg>
