<svg width="770" height="403" viewBox="0 0 770 403" fill="none" xmlns="http://www.w3.org/2000/svg">
<rect width="770" height="403" fill="white"/>
<rect width="770" height="403" fill="url(#paint0_linear)"/>
<path d="M151.272 182C150.845 182 150.483 181.872 150.184 181.616C149.928 181.317 149.8 180.955 149.8 180.528V138.032C149.8 137.605 149.928 137.264 150.184 137.008C150.483 136.709 150.845 136.56 151.272 136.56H154.28C154.707 136.56 155.048 136.709 155.304 137.008C155.603 137.264 155.752 137.605 155.752 138.032V160.304L168.36 149.808C168.488 149.723 168.701 149.552 169 149.296C169.299 149.083 169.576 148.933 169.832 148.848C170.131 148.763 170.493 148.72 170.92 148.72H174.312C174.696 148.72 175.016 148.848 175.272 149.104C175.528 149.36 175.656 149.68 175.656 150.064C175.656 150.533 175.4 150.939 174.888 151.28L160.104 163.568L176.488 179.504C177 179.931 177.256 180.315 177.256 180.656C177.256 181.04 177.128 181.36 176.872 181.616C176.616 181.872 176.296 182 175.912 182H172.584C171.944 182 171.475 181.936 171.176 181.808C170.92 181.68 170.536 181.381 170.024 180.912L155.752 167.28V180.528C155.752 180.955 155.603 181.317 155.304 181.616C155.048 181.872 154.707 182 154.28 182H151.272ZM194.486 182.64C190.091 182.64 186.571 181.296 183.926 178.608C181.323 175.877 179.894 172.165 179.638 167.472L179.574 165.296L179.638 163.184C179.936 158.576 181.387 154.907 183.99 152.176C186.635 149.445 190.112 148.08 194.422 148.08C199.158 148.08 202.827 149.595 205.43 152.624C208.032 155.611 209.333 159.664 209.333 164.784V165.872C209.333 166.299 209.184 166.661 208.886 166.96C208.63 167.216 208.288 167.344 207.862 167.344H185.718V167.92C185.846 170.693 186.678 173.061 188.214 175.024C189.792 176.944 191.862 177.904 194.422 177.904C196.384 177.904 197.984 177.52 199.222 176.752C200.502 175.941 201.44 175.109 202.038 174.256C202.422 173.744 202.699 173.445 202.87 173.36C203.083 173.232 203.446 173.168 203.958 173.168H207.094C207.478 173.168 207.798 173.275 208.054 173.488C208.31 173.701 208.438 174 208.438 174.384C208.438 175.323 207.84 176.453 206.646 177.776C205.494 179.099 203.851 180.251 201.718 181.232C199.627 182.171 197.216 182.64 194.486 182.64ZM203.254 162.928V162.736C203.254 159.792 202.443 157.403 200.822 155.568C199.243 153.691 197.11 152.752 194.422 152.752C191.734 152.752 189.6 153.691 188.022 155.568C186.486 157.403 185.718 159.792 185.718 162.736V162.928H203.254ZM221.56 194.16C221.219 194.16 220.92 194.032 220.664 193.776C220.408 193.52 220.28 193.221 220.28 192.88C220.28 192.581 220.387 192.197 220.6 191.728L225.528 180.016L213.304 151.152C213.091 150.597 212.984 150.235 212.984 150.064C212.984 149.68 213.112 149.36 213.368 149.104C213.624 148.848 213.944 148.72 214.328 148.72H217.464C218.147 148.72 218.659 149.083 219 149.808L228.728 173.104L238.712 149.808C239.053 149.083 239.587 148.72 240.312 148.72H243.32C243.704 148.72 244.024 148.848 244.28 149.104C244.536 149.36 244.664 149.659 244.664 150C244.664 150.128 244.557 150.512 244.344 151.152L226.168 193.072C225.827 193.797 225.293 194.16 224.568 194.16H221.56ZM263.364 182.64C258.798 182.64 255.214 181.36 252.612 178.8C250.052 176.197 248.686 172.571 248.516 167.92L248.452 165.36L248.516 162.8C248.686 158.149 250.052 154.544 252.612 151.984C255.214 149.381 258.798 148.08 263.364 148.08C266.436 148.08 269.038 148.635 271.172 149.744C273.305 150.853 274.884 152.219 275.908 153.84C276.974 155.461 277.55 157.083 277.636 158.704C277.678 159.131 277.55 159.472 277.252 159.728C276.953 159.984 276.59 160.112 276.164 160.112H273.092C272.665 160.112 272.345 160.027 272.132 159.856C271.918 159.685 271.705 159.344 271.492 158.832C270.766 156.784 269.742 155.333 268.42 154.48C267.097 153.584 265.433 153.136 263.428 153.136C260.782 153.136 258.67 153.968 257.092 155.632C255.556 157.253 254.724 159.749 254.595 163.12L254.532 165.424L254.595 167.6C254.724 171.013 255.556 173.531 257.092 175.152C258.628 176.773 260.74 177.584 263.428 177.584C265.433 177.584 267.097 177.157 268.42 176.304C269.742 175.408 270.766 173.936 271.492 171.888C271.705 171.376 271.918 171.035 272.132 170.864C272.345 170.651 272.665 170.544 273.092 170.544H276.164C276.59 170.544 276.953 170.693 277.252 170.992C277.55 171.248 277.678 171.589 277.636 172.016C277.55 173.595 276.974 175.216 275.908 176.88C274.884 178.501 273.305 179.867 271.172 180.976C269.081 182.085 266.478 182.64 263.364 182.64ZM294.516 182.64C292.425 182.64 290.484 182.213 288.692 181.36C286.9 180.507 285.471 179.355 284.404 177.904C283.38 176.411 282.868 174.768 282.868 172.976C282.868 170.16 284.02 167.856 286.324 166.064C288.671 164.229 291.828 163.035 295.796 162.48L305.332 161.136V159.28C305.332 154.928 302.836 152.752 297.844 152.752C295.967 152.752 294.431 153.157 293.236 153.968C292.041 154.736 291.145 155.653 290.548 156.72C290.42 157.104 290.249 157.381 290.036 157.552C289.865 157.723 289.609 157.808 289.268 157.808H286.516C286.132 157.808 285.791 157.68 285.492 157.424C285.236 157.125 285.108 156.784 285.108 156.4C285.151 155.376 285.62 154.224 286.516 152.944C287.455 151.621 288.884 150.491 290.804 149.552C292.724 148.571 295.092 148.08 297.908 148.08C302.687 148.08 306.121 149.211 308.212 151.472C310.303 153.691 311.348 156.464 311.348 159.792V180.528C311.348 180.955 311.199 181.317 310.9 181.616C310.644 181.872 310.303 182 309.876 182H306.932C306.505 182 306.143 181.872 305.844 181.616C305.588 181.317 305.46 180.955 305.46 180.528V177.776C304.521 179.141 303.156 180.293 301.364 181.232C299.572 182.171 297.289 182.64 294.516 182.64ZM295.86 177.84C298.633 177.84 300.895 176.944 302.644 175.152C304.436 173.317 305.332 170.693 305.332 167.28V165.488L297.908 166.576C294.879 167.003 292.596 167.728 291.06 168.752C289.524 169.733 288.756 170.992 288.756 172.528C288.756 174.235 289.46 175.557 290.868 176.496C292.276 177.392 293.94 177.84 295.86 177.84ZM322.085 194.16C321.658 194.16 321.295 194.011 320.997 193.712C320.741 193.456 320.613 193.115 320.613 192.688V150.192C320.613 149.765 320.741 149.424 320.997 149.168C321.295 148.869 321.658 148.72 322.085 148.72H325.029C325.455 148.72 325.797 148.869 326.053 149.168C326.351 149.424 326.501 149.765 326.501 150.192V153.008C328.89 149.723 332.389 148.08 336.997 148.08C341.477 148.08 344.826 149.488 347.045 152.304C349.306 155.12 350.522 158.747 350.693 163.184C350.735 163.653 350.757 164.379 350.757 165.36C350.757 166.341 350.735 167.067 350.693 167.536C350.522 171.931 349.306 175.557 347.045 178.416C344.783 181.232 341.434 182.64 336.997 182.64C332.559 182.64 329.103 181.04 326.629 177.84V192.688C326.629 193.115 326.501 193.456 326.245 193.712C325.989 194.011 325.647 194.16 325.22 194.16H322.085ZM335.653 177.456C338.682 177.456 340.879 176.517 342.245 174.64C343.653 172.763 344.421 170.288 344.549 167.216C344.591 166.789 344.613 166.171 344.613 165.36C344.613 157.296 341.626 153.264 335.653 153.264C332.709 153.264 330.49 154.245 328.997 156.208C327.546 158.128 326.757 160.432 326.629 163.12L326.565 165.552L326.629 168.048C326.714 170.565 327.525 172.763 329.061 174.64C330.597 176.517 332.794 177.456 335.653 177.456ZM370.194 182.64C367.207 182.64 364.69 182.171 362.642 181.232C360.636 180.251 359.122 179.141 358.098 177.904C357.116 176.667 356.626 175.643 356.626 174.832C356.626 174.405 356.775 174.085 357.074 173.872C357.415 173.616 357.756 173.488 358.098 173.488H360.978C361.404 173.488 361.788 173.701 362.13 174.128C363.154 175.323 364.263 176.261 365.458 176.944C366.652 177.627 368.252 177.968 370.258 177.968C372.476 177.968 374.268 177.541 375.634 176.688C377.042 175.792 377.746 174.576 377.746 173.04C377.746 172.016 377.447 171.184 376.85 170.544C376.295 169.861 375.314 169.285 373.906 168.816C372.54 168.304 370.492 167.749 367.762 167.152C364.05 166.341 361.404 165.168 359.826 163.632C358.29 162.096 357.522 160.112 357.522 157.68C357.522 156.059 357.991 154.523 358.93 153.072C359.911 151.579 361.319 150.384 363.154 149.488C365.031 148.549 367.271 148.08 369.874 148.08C372.604 148.08 374.93 148.528 376.85 149.424C378.77 150.32 380.199 151.387 381.138 152.624C382.119 153.819 382.61 154.821 382.61 155.632C382.61 156.016 382.46 156.336 382.162 156.592C381.906 156.848 381.586 156.976 381.202 156.976H378.514C378.002 156.976 377.575 156.763 377.234 156.336C376.551 155.525 375.954 154.907 375.442 154.48C374.972 154.011 374.268 153.605 373.33 153.264C372.434 152.923 371.282 152.752 369.874 152.752C367.826 152.752 366.247 153.2 365.138 154.096C364.028 154.949 363.474 156.08 363.474 157.488C363.474 158.384 363.708 159.152 364.178 159.792C364.647 160.389 365.543 160.944 366.866 161.456C368.231 161.968 370.194 162.501 372.753 163.056C376.807 163.909 379.666 165.147 381.33 166.768C383.036 168.347 383.89 170.373 383.89 172.848C383.89 174.683 383.356 176.347 382.29 177.84C381.223 179.333 379.644 180.507 377.554 181.36C375.506 182.213 373.052 182.64 370.194 182.64ZM404.611 182.64C400.216 182.64 396.696 181.296 394.051 178.608C391.448 175.877 390.019 172.165 389.763 167.472L389.699 165.296L389.763 163.184C390.061 158.576 391.512 154.907 394.115 152.176C396.76 149.445 400.237 148.08 404.547 148.08C409.283 148.08 412.952 149.595 415.555 152.624C418.157 155.611 419.458 159.664 419.458 164.784V165.872C419.458 166.299 419.309 166.661 419.011 166.96C418.755 167.216 418.413 167.344 417.987 167.344H395.843V167.92C395.971 170.693 396.803 173.061 398.339 175.024C399.917 176.944 401.987 177.904 404.547 177.904C406.509 177.904 408.109 177.52 409.347 176.752C410.627 175.941 411.565 175.109 412.163 174.256C412.547 173.744 412.824 173.445 412.995 173.36C413.208 173.232 413.571 173.168 414.083 173.168H417.219C417.603 173.168 417.923 173.275 418.179 173.488C418.435 173.701 418.562 174 418.562 174.384C418.562 175.323 417.965 176.453 416.771 177.776C415.619 179.099 413.976 180.251 411.843 181.232C409.752 182.171 407.341 182.64 404.611 182.64ZM413.379 162.928V162.736C413.379 159.792 412.568 157.403 410.947 155.568C409.368 153.691 407.235 152.752 404.547 152.752C401.859 152.752 399.725 153.691 398.147 155.568C396.611 157.403 395.843 159.792 395.843 162.736V162.928H413.379ZM439.916 182C433.174 182 429.804 178.245 429.804 170.736V153.84H424.812C424.385 153.84 424.022 153.712 423.724 153.456C423.468 153.157 423.34 152.795 423.34 152.368V150.192C423.34 149.765 423.468 149.424 423.724 149.168C424.022 148.869 424.385 148.72 424.812 148.72H429.804V138.032C429.804 137.605 429.932 137.264 430.188 137.008C430.486 136.709 430.849 136.56 431.276 136.56H434.284C434.71 136.56 435.052 136.709 435.308 137.008C435.606 137.264 435.756 137.605 435.756 138.032V148.72H443.692C444.118 148.72 444.46 148.869 444.716 149.168C445.014 149.424 445.164 149.765 445.164 150.192V152.368C445.164 152.795 445.014 153.157 444.716 153.456C444.46 153.712 444.118 153.84 443.692 153.84H435.756V170.288C435.756 172.421 436.118 174.043 436.844 175.152C437.569 176.219 438.764 176.752 440.428 176.752H444.332C444.758 176.752 445.1 176.901 445.356 177.2C445.654 177.456 445.804 177.797 445.804 178.224V180.528C445.804 180.955 445.654 181.317 445.356 181.616C445.1 181.872 444.758 182 444.332 182H439.916ZM463.444 182.64C460.457 182.64 457.94 182.171 455.892 181.232C453.886 180.251 452.372 179.141 451.348 177.904C450.366 176.667 449.876 175.643 449.876 174.832C449.876 174.405 450.025 174.085 450.324 173.872C450.665 173.616 451.006 173.488 451.348 173.488H454.228C454.654 173.488 455.038 173.701 455.38 174.128C456.404 175.323 457.513 176.261 458.708 176.944C459.902 177.627 461.502 177.968 463.508 177.968C465.726 177.968 467.518 177.541 468.884 176.688C470.292 175.792 470.996 174.576 470.996 173.04C470.996 172.016 470.697 171.184 470.1 170.544C469.545 169.861 468.564 169.285 467.156 168.816C465.79 168.304 463.742 167.749 461.012 167.152C457.3 166.341 454.654 165.168 453.076 163.632C451.54 162.096 450.772 160.112 450.772 157.68C450.772 156.059 451.241 154.523 452.18 153.072C453.161 151.579 454.569 150.384 456.404 149.488C458.281 148.549 460.521 148.08 463.124 148.08C465.854 148.08 468.18 148.528 470.1 149.424C472.02 150.32 473.449 151.387 474.388 152.624C475.369 153.819 475.86 154.821 475.86 155.632C475.86 156.016 475.71 156.336 475.412 156.592C475.156 156.848 474.836 156.976 474.452 156.976H471.764C471.252 156.976 470.825 156.763 470.484 156.336C469.801 155.525 469.204 154.907 468.692 154.48C468.222 154.011 467.518 153.605 466.58 153.264C465.684 152.923 464.532 152.752 463.124 152.752C461.076 152.752 459.497 153.2 458.388 154.096C457.278 154.949 456.724 156.08 456.724 157.488C456.724 158.384 456.958 159.152 457.428 159.792C457.897 160.389 458.793 160.944 460.116 161.456C461.481 161.968 463.444 162.501 466.003 163.056C470.057 163.909 472.916 165.147 474.58 166.768C476.286 168.347 477.14 170.373 477.14 172.848C477.14 174.683 476.606 176.347 475.54 177.84C474.473 179.333 472.894 180.507 470.804 181.36C468.756 182.213 466.302 182.64 463.444 182.64ZM485.573 182C485.146 182 484.783 181.872 484.485 181.616C484.229 181.317 484.101 180.955 484.101 180.528V175.92C484.101 175.493 484.229 175.152 484.485 174.896C484.783 174.597 485.146 174.448 485.573 174.448H490.181C490.607 174.448 490.97 174.597 491.269 174.896C491.567 175.152 491.717 175.493 491.717 175.92V180.528C491.717 180.955 491.567 181.317 491.269 181.616C490.97 181.872 490.607 182 490.181 182H485.573ZM513.489 182.64C508.923 182.64 505.339 181.36 502.737 178.8C500.177 176.197 498.811 172.571 498.641 167.92L498.577 165.36L498.641 162.8C498.811 158.149 500.177 154.544 502.737 151.984C505.339 149.381 508.923 148.08 513.489 148.08C516.561 148.08 519.163 148.635 521.297 149.744C523.43 150.853 525.009 152.219 526.033 153.84C527.099 155.461 527.675 157.083 527.761 158.704C527.803 159.131 527.675 159.472 527.377 159.728C527.078 159.984 526.715 160.112 526.289 160.112H523.217C522.79 160.112 522.47 160.027 522.257 159.856C522.043 159.685 521.83 159.344 521.617 158.832C520.891 156.784 519.867 155.333 518.545 154.48C517.222 153.584 515.558 153.136 513.553 153.136C510.907 153.136 508.795 153.968 507.217 155.632C505.681 157.253 504.849 159.749 504.72 163.12L504.657 165.424L504.72 167.6C504.849 171.013 505.681 173.531 507.217 175.152C508.753 176.773 510.865 177.584 513.553 177.584C515.558 177.584 517.222 177.157 518.545 176.304C519.867 175.408 520.891 173.936 521.617 171.888C521.83 171.376 522.043 171.035 522.257 170.864C522.47 170.651 522.79 170.544 523.217 170.544H526.289C526.715 170.544 527.078 170.693 527.377 170.992C527.675 171.248 527.803 171.589 527.761 172.016C527.675 173.595 527.099 175.216 526.033 176.88C525.009 178.501 523.43 179.867 521.297 180.976C519.206 182.085 516.603 182.64 513.489 182.64ZM548.993 182.64C544.3 182.64 540.652 181.317 538.049 178.672C535.489 176.027 534.124 172.507 533.953 168.112L533.889 165.36L533.953 162.608C534.124 158.256 535.51 154.757 538.113 152.112C540.716 149.424 544.342 148.08 548.993 148.08C553.644 148.08 557.27 149.424 559.873 152.112C562.476 154.757 563.862 158.256 564.033 162.608C564.076 163.077 564.097 163.995 564.097 165.36C564.097 166.725 564.076 167.643 564.033 168.112C563.862 172.507 562.476 176.027 559.873 178.672C557.313 181.317 553.686 182.64 548.993 182.64ZM548.993 177.712C551.681 177.712 553.793 176.859 555.329 175.152C556.908 173.445 557.761 170.992 557.889 167.792C557.932 167.365 557.953 166.555 557.953 165.36C557.953 164.165 557.932 163.355 557.889 162.928C557.761 159.728 556.908 157.275 555.329 155.568C553.793 153.861 551.681 153.008 548.993 153.008C546.305 153.008 544.172 153.861 542.593 155.568C541.014 157.275 540.182 159.728 540.097 162.928L540.033 165.36L540.097 167.792C540.182 170.992 541.014 173.445 542.593 175.152C544.172 176.859 546.305 177.712 548.993 177.712ZM573.583 182C573.156 182 572.794 181.872 572.495 181.616C572.239 181.317 572.111 180.955 572.111 180.528V150.192C572.111 149.765 572.239 149.424 572.495 149.168C572.794 148.869 573.156 148.72 573.583 148.72H576.463C576.89 148.72 577.231 148.869 577.487 149.168C577.786 149.424 577.935 149.765 577.935 150.192V152.432C580.154 149.531 583.247 148.08 587.215 148.08C591.951 148.08 595.3 150.043 597.263 153.968C598.287 152.176 599.738 150.747 601.615 149.68C603.492 148.613 605.604 148.08 607.951 148.08C611.45 148.08 614.308 149.275 616.527 151.664C618.746 154.053 619.855 157.509 619.855 162.032V180.528C619.855 180.955 619.706 181.317 619.407 181.616C619.151 181.872 618.81 182 618.383 182H615.375C614.948 182 614.586 181.872 614.287 181.616C614.031 181.317 613.903 180.955 613.903 180.528V162.608C613.903 159.28 613.199 156.891 611.791 155.44C610.426 153.989 608.612 153.264 606.351 153.264C604.346 153.264 602.618 154.011 601.167 155.504C599.716 156.955 598.991 159.323 598.991 162.608V180.528C598.991 180.955 598.842 181.317 598.543 181.616C598.287 181.872 597.946 182 597.519 182H594.511C594.084 182 593.722 181.872 593.423 181.616C593.167 181.317 593.039 180.955 593.039 180.528V162.608C593.039 159.28 592.314 156.891 590.863 155.44C589.455 153.989 587.663 153.264 585.487 153.264C583.482 153.264 581.754 154.011 580.303 155.504C578.852 156.955 578.127 159.301 578.127 162.544V180.528C578.127 180.955 577.978 181.317 577.679 181.616C577.423 181.872 577.082 182 576.655 182H573.583Z" fill="#242424"/>
<path d="M215.472 244C215.259 244 215.099 243.925 214.992 243.776C214.907 243.691 214.864 243.573 214.864 243.424C214.864 243.381 214.875 243.328 214.896 243.264L219.344 222.368C219.387 222.133 219.483 221.952 219.632 221.824C219.803 221.675 219.995 221.6 220.208 221.6H233.296C233.509 221.6 233.669 221.664 233.776 221.792C233.861 221.899 233.904 222.027 233.904 222.176C233.904 222.24 233.893 222.304 233.872 222.368L233.616 223.648C233.573 223.861 233.467 224.043 233.296 224.192C233.147 224.32 232.955 224.384 232.72 224.384H222.032L220.432 231.84H230.48C230.715 231.84 230.885 231.904 230.992 232.032C231.056 232.139 231.088 232.256 231.088 232.384C231.088 232.448 231.077 232.523 231.056 232.608L230.8 233.888C230.757 234.101 230.651 234.283 230.48 234.432C230.309 234.56 230.117 234.624 229.904 234.624H219.856L218 243.264C217.957 243.477 217.851 243.659 217.68 243.808C217.509 243.936 217.317 244 217.104 244H215.472ZM237.712 224.256C237.499 224.256 237.328 224.192 237.2 224.064C237.094 223.915 237.062 223.733 237.104 223.52L237.52 221.792C237.563 221.579 237.659 221.397 237.808 221.248C237.979 221.099 238.171 221.024 238.384 221.024H240.368C240.582 221.024 240.752 221.099 240.88 221.248C240.987 221.355 241.04 221.483 241.04 221.632C241.04 221.675 241.03 221.728 241.008 221.792L240.624 223.52C240.582 223.733 240.475 223.915 240.304 224.064C240.134 224.192 239.942 224.256 239.728 224.256H237.712ZM233.776 244C233.563 244 233.392 243.936 233.264 243.808C233.158 243.659 233.126 243.477 233.168 243.264L236.4 228.096C236.443 227.883 236.55 227.712 236.72 227.584C236.891 227.435 237.083 227.36 237.296 227.36H238.832C239.046 227.36 239.206 227.424 239.312 227.552C239.376 227.659 239.408 227.776 239.408 227.904C239.408 227.968 239.398 228.032 239.376 228.096L236.176 243.264C236.134 243.477 236.027 243.659 235.856 243.808C235.707 243.936 235.526 244 235.312 244H233.776ZM241.558 244C241.344 244 241.174 243.936 241.046 243.808C240.939 243.659 240.907 243.477 240.95 243.264L244.182 228.096C244.224 227.883 244.331 227.712 244.502 227.584C244.672 227.435 244.864 227.36 245.078 227.36H246.582C246.795 227.36 246.955 227.424 247.062 227.552C247.147 227.659 247.19 227.787 247.19 227.936C247.19 227.979 247.179 228.032 247.158 228.096L246.838 229.504C247.542 228.757 248.363 228.16 249.302 227.712C250.262 227.264 251.307 227.04 252.438 227.04C254.294 227.04 255.67 227.488 256.566 228.384C257.483 229.259 257.942 230.485 257.942 232.064C257.942 232.704 257.856 233.429 257.686 234.24L255.734 243.264C255.691 243.477 255.584 243.659 255.414 243.808C255.264 243.936 255.083 244 254.87 244H253.27C253.056 244 252.886 243.936 252.758 243.808C252.651 243.659 252.619 243.477 252.662 243.264L254.55 234.4C254.72 233.547 254.806 232.853 254.806 232.32C254.806 231.403 254.56 230.731 254.07 230.304C253.579 229.856 252.779 229.632 251.67 229.632C250.198 229.632 248.95 230.059 247.926 230.912C246.902 231.744 246.219 232.907 245.878 234.4L244.022 243.264C243.979 243.477 243.872 243.659 243.702 243.808C243.552 243.936 243.371 244 243.158 244H241.558ZM266.468 244.32C264.548 244.32 263.118 243.776 262.18 242.688C261.262 241.579 260.804 240.149 260.804 238.4C260.804 237.909 260.857 237.323 260.964 236.64C261.028 236.341 261.166 235.701 261.38 234.72C261.956 232.48 262.916 230.645 264.26 229.216C265.625 227.765 267.438 227.04 269.7 227.04C272.025 227.04 273.625 227.819 274.5 229.376L276.1 222.016C276.142 221.803 276.238 221.632 276.388 221.504C276.558 221.355 276.75 221.28 276.964 221.28H278.5C278.713 221.28 278.884 221.344 279.012 221.472C279.097 221.579 279.14 221.707 279.14 221.856C279.14 221.899 279.129 221.952 279.108 222.016L274.596 243.264C274.553 243.477 274.446 243.659 274.276 243.808C274.105 243.936 273.913 244 273.7 244H272.26C272.046 244 271.876 243.936 271.748 243.808C271.641 243.659 271.609 243.477 271.652 243.264L271.94 241.92C271.172 242.709 270.372 243.307 269.54 243.712C268.729 244.117 267.705 244.32 266.468 244.32ZM267.14 241.728C268.612 241.728 269.86 241.237 270.884 240.256C271.929 239.275 272.612 238.123 272.932 236.8C273.102 236.181 273.284 235.36 273.476 234.336C273.54 233.952 273.572 233.579 273.572 233.216C273.572 232.171 273.284 231.317 272.708 230.656C272.132 229.973 271.246 229.632 270.052 229.632C268.622 229.632 267.438 230.112 266.5 231.072C265.582 232.032 264.9 233.259 264.452 234.752C264.302 235.221 264.174 235.84 264.068 236.608C263.982 237.099 263.94 237.632 263.94 238.208C263.94 240.555 265.006 241.728 267.14 241.728ZM287.858 250.08C287.687 250.08 287.548 250.027 287.442 249.92C287.356 249.835 287.314 249.717 287.314 249.568C287.314 249.397 287.378 249.216 287.506 249.024L291.442 242.88L288.306 228.224C288.263 227.989 288.295 227.787 288.402 227.616C288.53 227.445 288.743 227.36 289.042 227.36H290.45C290.855 227.36 291.09 227.541 291.154 227.904L293.618 239.584L301.106 227.904C301.34 227.541 301.65 227.36 302.034 227.36H303.698C303.847 227.36 303.975 227.413 304.082 227.52C304.21 227.605 304.274 227.723 304.274 227.872C304.274 228 304.231 228.139 304.146 228.288L290.418 249.536C290.183 249.899 289.874 250.08 289.49 250.08H287.858ZM310.42 244.32C308.415 244.32 306.858 243.797 305.748 242.752C304.66 241.707 304.116 240.32 304.116 238.592C304.116 238.059 304.159 237.547 304.244 237.056C304.308 236.629 304.394 236.149 304.5 235.616C304.628 235.083 304.746 234.645 304.852 234.304C305.386 232.085 306.399 230.325 307.892 229.024C309.386 227.701 311.306 227.04 313.652 227.04C315.679 227.04 317.236 227.563 318.324 228.608C319.434 229.653 319.988 231.04 319.988 232.768C319.988 233.301 319.946 233.813 319.86 234.304C319.732 235.029 319.54 235.947 319.284 237.056C318.708 239.275 317.674 241.045 316.18 242.368C314.708 243.669 312.788 244.32 310.42 244.32ZM310.548 241.856C311.914 241.856 313.108 241.429 314.132 240.576C315.156 239.701 315.86 238.475 316.244 236.896C316.436 236.128 316.618 235.317 316.788 234.464C316.874 233.973 316.916 233.483 316.916 232.992C316.916 231.861 316.628 230.997 316.052 230.4C315.476 229.803 314.634 229.504 313.524 229.504C312.159 229.504 310.964 229.941 309.94 230.816C308.938 231.669 308.244 232.885 307.86 234.464C307.668 235.125 307.498 235.936 307.348 236.896C307.242 237.536 307.188 238.059 307.188 238.464C307.188 239.573 307.466 240.416 308.02 240.992C308.596 241.568 309.439 241.856 310.548 241.856ZM328.317 244.32C326.503 244.32 325.138 243.883 324.221 243.008C323.325 242.112 322.877 240.875 322.877 239.296C322.877 238.656 322.962 237.931 323.133 237.12L325.053 228.096C325.095 227.883 325.202 227.712 325.373 227.584C325.543 227.435 325.735 227.36 325.949 227.36H327.549C327.762 227.36 327.922 227.424 328.029 227.552C328.093 227.659 328.125 227.776 328.125 227.904C328.125 227.968 328.114 228.032 328.093 228.096L326.237 236.96C326.066 237.813 325.981 238.517 325.981 239.072C325.981 239.968 326.215 240.64 326.685 241.088C327.175 241.515 327.975 241.728 329.085 241.728C330.493 241.728 331.709 241.312 332.733 240.48C333.778 239.627 334.461 238.453 334.781 236.96L336.669 228.096C336.711 227.883 336.818 227.712 336.989 227.584C337.159 227.435 337.351 227.36 337.565 227.36H339.133C339.346 227.36 339.506 227.424 339.613 227.552C339.698 227.659 339.741 227.787 339.741 227.936C339.741 227.979 339.73 228.032 339.709 228.096L336.477 243.264C336.434 243.477 336.327 243.659 336.157 243.808C336.007 243.936 335.826 244 335.613 244H334.141C333.927 244 333.757 243.936 333.629 243.808C333.522 243.659 333.49 243.477 333.533 243.264L333.821 241.856C332.989 242.709 332.189 243.339 331.421 243.744C330.674 244.128 329.639 244.32 328.317 244.32ZM341.839 244C341.625 244 341.455 243.936 341.327 243.808C341.22 243.659 341.188 243.477 341.231 243.264L344.463 228.128C344.505 227.915 344.612 227.733 344.783 227.584C344.953 227.435 345.145 227.36 345.359 227.36H346.831C347.044 227.36 347.215 227.435 347.343 227.584C347.428 227.691 347.471 227.819 347.471 227.968C347.471 228.011 347.46 228.064 347.439 228.128L347.119 229.536C348.164 228.085 349.775 227.36 351.951 227.36H353.327C353.54 227.36 353.7 227.424 353.807 227.552C353.871 227.659 353.903 227.776 353.903 227.904C353.903 227.968 353.892 228.032 353.871 228.096L353.615 229.408C353.593 229.621 353.497 229.792 353.327 229.92C353.156 230.048 352.953 230.112 352.719 230.112H350.831C349.679 230.112 348.697 230.453 347.887 231.136C347.076 231.797 346.543 232.704 346.287 233.856L344.303 243.264C344.26 243.477 344.153 243.659 343.983 243.808C343.812 243.936 343.62 244 343.407 244H341.839ZM362.282 244C362.068 244 361.898 243.936 361.77 243.808C361.663 243.659 361.631 243.477 361.674 243.264L364.522 229.92H361.802C361.588 229.92 361.428 229.845 361.322 229.696C361.236 229.611 361.194 229.493 361.194 229.344C361.194 229.301 361.204 229.248 361.226 229.184L361.45 228.096C361.492 227.883 361.599 227.712 361.77 227.584C361.94 227.435 362.132 227.36 362.346 227.36H365.066L365.418 225.76C365.78 224.053 366.495 222.72 367.562 221.76C368.628 220.8 370.036 220.32 371.786 220.32H373.962C374.175 220.32 374.335 220.384 374.442 220.512C374.527 220.619 374.57 220.747 374.57 220.896C374.57 220.939 374.559 220.992 374.538 221.056L374.314 222.144C374.271 222.357 374.164 222.539 373.994 222.688C373.823 222.816 373.631 222.88 373.418 222.88H371.754C370.772 222.88 370.004 223.136 369.45 223.648C368.916 224.16 368.543 224.917 368.33 225.92L368.042 227.36H372.138C372.351 227.36 372.511 227.424 372.618 227.552C372.703 227.659 372.746 227.787 372.746 227.936C372.746 227.979 372.735 228.032 372.714 228.096L372.49 229.184C372.447 229.397 372.34 229.579 372.17 229.728C371.999 229.856 371.807 229.92 371.594 229.92H367.498L364.65 243.264C364.607 243.477 364.5 243.659 364.33 243.808C364.18 243.936 363.999 244 363.786 244H362.282ZM378.121 244.32C376.244 244.32 374.857 243.787 373.961 242.72C373.065 241.653 372.617 240.245 372.617 238.496C372.617 237.963 372.67 237.344 372.777 236.64C372.841 236.341 372.98 235.701 373.193 234.72C373.79 232.437 374.74 230.592 376.041 229.184C377.364 227.755 379.166 227.04 381.449 227.04C382.729 227.04 383.721 227.253 384.425 227.68C385.15 228.085 385.726 228.661 386.153 229.408L386.409 228.096C386.452 227.883 386.558 227.712 386.729 227.584C386.9 227.435 387.092 227.36 387.305 227.36H388.745C388.958 227.36 389.129 227.424 389.257 227.552C389.342 227.659 389.385 227.787 389.385 227.936C389.385 227.979 389.374 228.032 389.353 228.096L386.121 243.264C386.078 243.477 385.972 243.659 385.801 243.808C385.652 243.936 385.47 244 385.257 244H383.785C383.572 244 383.412 243.925 383.305 243.776C383.22 243.691 383.177 243.573 383.177 243.424C383.177 243.381 383.188 243.328 383.209 243.264L383.497 241.92C382.708 242.731 381.918 243.339 381.129 243.744C380.361 244.128 379.358 244.32 378.121 244.32ZM378.793 241.728C380.286 241.728 381.524 241.237 382.505 240.256C383.508 239.275 384.169 238.123 384.489 236.8C384.66 236.032 384.83 235.211 385.001 234.336C385.086 233.973 385.129 233.557 385.129 233.088C385.129 232.085 384.852 231.264 384.297 230.624C383.742 229.963 382.878 229.632 381.705 229.632C380.297 229.632 379.145 230.112 378.249 231.072C377.374 232.011 376.713 233.237 376.265 234.752C376.116 235.221 375.988 235.84 375.881 236.608C375.774 237.291 375.721 237.877 375.721 238.368C375.721 239.413 375.956 240.235 376.425 240.832C376.894 241.429 377.684 241.728 378.793 241.728ZM396.423 244C396.124 244 395.911 243.936 395.783 243.808C395.655 243.659 395.559 243.456 395.495 243.2L392.711 228.16V228C392.711 227.573 392.935 227.36 393.383 227.36H394.823C395.271 227.36 395.527 227.595 395.591 228.064L397.767 240.512L405.319 227.904C405.554 227.541 405.852 227.36 406.215 227.36H407.911C408.06 227.36 408.188 227.413 408.295 227.52C408.402 227.605 408.455 227.723 408.455 227.872C408.455 228.021 408.402 228.181 408.295 228.352L399.207 243.2C399.036 243.456 398.855 243.659 398.663 243.808C398.492 243.936 398.258 244 397.959 244H396.423ZM414.733 244.32C412.727 244.32 411.17 243.797 410.061 242.752C408.973 241.707 408.429 240.32 408.429 238.592C408.429 238.059 408.471 237.547 408.557 237.056C408.621 236.629 408.706 236.149 408.813 235.616C408.941 235.083 409.058 234.645 409.165 234.304C409.698 232.085 410.711 230.325 412.205 229.024C413.698 227.701 415.618 227.04 417.965 227.04C419.991 227.04 421.549 227.563 422.637 228.608C423.746 229.653 424.301 231.04 424.301 232.768C424.301 233.301 424.258 233.813 424.173 234.304C424.045 235.029 423.853 235.947 423.597 237.056C423.021 239.275 421.986 241.045 420.493 242.368C419.021 243.669 417.101 244.32 414.733 244.32ZM414.861 241.856C416.226 241.856 417.421 241.429 418.445 240.576C419.469 239.701 420.173 238.475 420.557 236.896C420.749 236.128 420.93 235.317 421.101 234.464C421.186 233.973 421.229 233.483 421.229 232.992C421.229 231.861 420.941 230.997 420.365 230.4C419.789 229.803 418.946 229.504 417.837 229.504C416.471 229.504 415.277 229.941 414.253 230.816C413.25 231.669 412.557 232.885 412.173 234.464C411.981 235.125 411.81 235.936 411.661 236.896C411.554 237.536 411.501 238.059 411.501 238.464C411.501 239.573 411.778 240.416 412.333 240.992C412.909 241.568 413.751 241.856 414.861 241.856ZM426.901 244C426.688 244 426.517 243.936 426.389 243.808C426.283 243.659 426.251 243.477 426.293 243.264L429.525 228.128C429.568 227.915 429.675 227.733 429.845 227.584C430.016 227.435 430.208 227.36 430.421 227.36H431.893C432.107 227.36 432.277 227.435 432.405 227.584C432.491 227.691 432.533 227.819 432.533 227.968C432.533 228.011 432.523 228.064 432.501 228.128L432.181 229.536C433.227 228.085 434.837 227.36 437.013 227.36H438.389C438.603 227.36 438.763 227.424 438.869 227.552C438.933 227.659 438.965 227.776 438.965 227.904C438.965 227.968 438.955 228.032 438.933 228.096L438.677 229.408C438.656 229.621 438.56 229.792 438.389 229.92C438.219 230.048 438.016 230.112 437.781 230.112H435.893C434.741 230.112 433.76 230.453 432.949 231.136C432.139 231.797 431.605 232.704 431.349 233.856L429.365 243.264C429.323 243.477 429.216 243.659 429.045 243.808C428.875 243.936 428.683 244 428.469 244H426.901ZM443.056 224.256C442.843 224.256 442.672 224.192 442.544 224.064C442.437 223.915 442.405 223.733 442.448 223.52L442.864 221.792C442.907 221.579 443.003 221.397 443.152 221.248C443.323 221.099 443.515 221.024 443.728 221.024H445.712C445.925 221.024 446.096 221.099 446.224 221.248C446.331 221.355 446.384 221.483 446.384 221.632C446.384 221.675 446.373 221.728 446.352 221.792L445.968 223.52C445.925 223.733 445.819 223.915 445.648 224.064C445.477 224.192 445.285 224.256 445.072 224.256H443.056ZM439.12 244C438.907 244 438.736 243.936 438.608 243.808C438.501 243.659 438.469 243.477 438.512 243.264L441.744 228.096C441.787 227.883 441.893 227.712 442.064 227.584C442.235 227.435 442.427 227.36 442.64 227.36H444.176C444.389 227.36 444.549 227.424 444.656 227.552C444.72 227.659 444.752 227.776 444.752 227.904C444.752 227.968 444.741 228.032 444.72 228.096L441.52 243.264C441.477 243.477 441.371 243.659 441.2 243.808C441.051 243.936 440.869 244 440.656 244H439.12ZM452.757 244C451.179 244 450.048 243.701 449.365 243.104C448.683 242.507 448.341 241.632 448.341 240.48C448.341 239.883 448.427 239.179 448.597 238.368L450.389 229.92H447.893C447.68 229.92 447.52 229.845 447.413 229.696C447.328 229.611 447.285 229.493 447.285 229.344C447.285 229.301 447.296 229.248 447.317 229.184L447.541 228.096C447.584 227.883 447.691 227.712 447.861 227.584C448.032 227.435 448.224 227.36 448.437 227.36H450.933L452.085 222.016C452.128 221.803 452.224 221.632 452.373 221.504C452.544 221.355 452.736 221.28 452.949 221.28H454.453C454.667 221.28 454.827 221.344 454.933 221.472C455.019 221.579 455.061 221.707 455.061 221.856C455.061 221.899 455.051 221.952 455.029 222.016L453.909 227.36H457.877C458.091 227.36 458.251 227.424 458.357 227.552C458.443 227.659 458.485 227.787 458.485 227.936C458.485 227.979 458.475 228.032 458.453 228.096L458.229 229.184C458.187 229.397 458.08 229.579 457.909 229.728C457.739 229.856 457.547 229.92 457.333 229.92H453.365L451.605 238.144C451.413 239.019 451.317 239.627 451.317 239.968C451.317 240.437 451.445 240.789 451.701 241.024C451.979 241.259 452.448 241.376 453.109 241.376H455.221C455.435 241.376 455.595 241.44 455.701 241.568C455.765 241.675 455.797 241.792 455.797 241.92C455.797 241.984 455.787 242.048 455.765 242.112L455.541 243.264C455.499 243.477 455.392 243.659 455.221 243.808C455.072 243.936 454.891 244 454.677 244H452.757ZM465.455 244.32C463.535 244.32 462.063 243.808 461.039 242.784C460.015 241.739 459.503 240.288 459.503 238.432C459.503 237.813 459.545 237.248 459.631 236.736C459.78 235.883 459.94 235.168 460.111 234.592C460.751 232.288 461.86 230.453 463.439 229.088C465.039 227.723 466.927 227.04 469.103 227.04C471.044 227.04 472.527 227.563 473.551 228.608C474.575 229.632 475.087 231.061 475.087 232.896C475.087 233.664 474.991 234.496 474.799 235.392L474.671 235.936C474.628 236.149 474.521 236.331 474.351 236.48C474.18 236.608 473.977 236.672 473.743 236.672H462.703C462.703 236.779 462.681 236.875 462.639 236.96C462.575 237.344 462.543 237.728 462.543 238.112C462.543 239.243 462.831 240.171 463.407 240.896C463.983 241.6 464.825 241.952 465.935 241.952C466.916 241.952 467.759 241.76 468.463 241.376C469.188 240.971 469.732 240.555 470.095 240.128C470.351 239.872 470.532 239.723 470.639 239.68C470.767 239.616 470.959 239.584 471.215 239.584H472.751C472.943 239.584 473.092 239.648 473.199 239.776C473.284 239.861 473.327 239.968 473.327 240.096C473.327 240.139 473.316 240.192 473.295 240.256C473.167 240.725 472.74 241.291 472.015 241.952C471.289 242.592 470.351 243.147 469.199 243.616C468.047 244.085 466.799 244.32 465.455 244.32ZM471.919 234.464L471.951 234.368C472.057 233.835 472.111 233.365 472.111 232.96C472.111 231.872 471.801 231.008 471.183 230.368C470.585 229.707 469.732 229.376 468.623 229.376C467.279 229.376 466.116 229.845 465.135 230.784C464.175 231.701 463.535 232.896 463.215 234.368L463.183 234.464H471.919ZM490.402 244.32C488.994 244.32 487.842 244.107 486.946 243.68C486.072 243.253 485.432 242.752 485.026 242.176C484.642 241.6 484.45 241.088 484.45 240.64C484.45 240.384 484.546 240.171 484.738 240C484.93 239.829 485.122 239.744 485.314 239.744H486.754C486.882 239.744 486.978 239.765 487.042 239.808C487.106 239.851 487.181 239.936 487.266 240.064C487.693 240.683 488.162 241.163 488.674 241.504C489.186 241.824 489.944 241.984 490.946 241.984C492.056 241.984 492.994 241.771 493.762 241.344C494.552 240.917 495.032 240.309 495.202 239.52C495.245 239.307 495.266 239.147 495.266 239.04C495.266 238.464 494.946 238.016 494.306 237.696C493.688 237.355 492.525 236.981 490.818 236.576C489.325 236.213 488.248 235.733 487.586 235.136C486.925 234.539 486.594 233.792 486.594 232.896C486.594 232.661 486.637 232.309 486.722 231.84C486.893 231.029 487.298 230.261 487.938 229.536C488.578 228.789 489.41 228.192 490.434 227.744C491.458 227.275 492.621 227.04 493.922 227.04C495.181 227.04 496.226 227.243 497.058 227.648C497.912 228.032 498.53 228.501 498.914 229.056C499.32 229.589 499.522 230.08 499.522 230.528C499.522 230.805 499.426 231.04 499.234 231.232C499.064 231.403 498.861 231.488 498.626 231.488H497.314C497.037 231.488 496.845 231.381 496.738 231.168C496.461 230.763 496.226 230.453 496.034 230.24C495.842 230.005 495.533 229.803 495.106 229.632C494.68 229.461 494.125 229.376 493.442 229.376C492.418 229.376 491.576 229.6 490.914 230.048C490.274 230.475 489.88 231.04 489.73 231.744C489.688 231.957 489.666 232.117 489.666 232.224C489.666 232.736 489.954 233.163 490.53 233.504C491.128 233.845 492.205 234.187 493.762 234.528C495.405 234.912 496.589 235.424 497.314 236.064C498.061 236.683 498.434 237.461 498.434 238.4C498.434 238.613 498.392 238.955 498.306 239.424C498.114 240.341 497.666 241.173 496.962 241.92C496.28 242.667 495.373 243.253 494.242 243.68C493.112 244.107 491.832 244.32 490.402 244.32ZM507.611 244.32C505.691 244.32 504.219 243.808 503.195 242.784C502.171 241.739 501.659 240.288 501.659 238.432C501.659 237.813 501.701 237.248 501.787 236.736C501.936 235.883 502.096 235.168 502.267 234.592C502.907 232.288 504.016 230.453 505.595 229.088C507.195 227.723 509.083 227.04 511.259 227.04C513.2 227.04 514.683 227.563 515.707 228.608C516.731 229.632 517.243 231.061 517.243 232.896C517.243 233.664 517.147 234.496 516.955 235.392L516.827 235.936C516.784 236.149 516.677 236.331 516.507 236.48C516.336 236.608 516.133 236.672 515.899 236.672H504.859C504.859 236.779 504.837 236.875 504.795 236.96C504.731 237.344 504.699 237.728 504.699 238.112C504.699 239.243 504.987 240.171 505.563 240.896C506.139 241.6 506.981 241.952 508.091 241.952C509.072 241.952 509.915 241.76 510.619 241.376C511.344 240.971 511.888 240.555 512.251 240.128C512.507 239.872 512.688 239.723 512.795 239.68C512.923 239.616 513.115 239.584 513.371 239.584H514.907C515.099 239.584 515.248 239.648 515.355 239.776C515.44 239.861 515.483 239.968 515.483 240.096C515.483 240.139 515.472 240.192 515.451 240.256C515.323 240.725 514.896 241.291 514.171 241.952C513.445 242.592 512.507 243.147 511.355 243.616C510.203 244.085 508.955 244.32 507.611 244.32ZM514.075 234.464L514.107 234.368C514.213 233.835 514.267 233.365 514.267 232.96C514.267 231.872 513.957 231.008 513.339 230.368C512.741 229.707 511.888 229.376 510.779 229.376C509.435 229.376 508.272 229.845 507.291 230.784C506.331 231.701 505.691 232.896 505.371 234.368L505.339 234.464H514.075ZM524.882 244C523.304 244 522.173 243.701 521.49 243.104C520.808 242.507 520.466 241.632 520.466 240.48C520.466 239.883 520.552 239.179 520.722 238.368L522.514 229.92H520.018C519.805 229.92 519.645 229.845 519.538 229.696C519.453 229.611 519.41 229.493 519.41 229.344C519.41 229.301 519.421 229.248 519.442 229.184L519.666 228.096C519.709 227.883 519.816 227.712 519.986 227.584C520.157 227.435 520.349 227.36 520.562 227.36H523.058L524.21 222.016C524.253 221.803 524.349 221.632 524.498 221.504C524.669 221.355 524.861 221.28 525.074 221.28H526.578C526.792 221.28 526.952 221.344 527.058 221.472C527.144 221.579 527.186 221.707 527.186 221.856C527.186 221.899 527.176 221.952 527.154 222.016L526.034 227.36H530.002C530.216 227.36 530.376 227.424 530.482 227.552C530.568 227.659 530.61 227.787 530.61 227.936C530.61 227.979 530.6 228.032 530.578 228.096L530.354 229.184C530.312 229.397 530.205 229.579 530.034 229.728C529.864 229.856 529.672 229.92 529.458 229.92H525.49L523.73 238.144C523.538 239.019 523.442 239.627 523.442 239.968C523.442 240.437 523.57 240.789 523.826 241.024C524.104 241.259 524.573 241.376 525.234 241.376H527.346C527.56 241.376 527.72 241.44 527.826 241.568C527.89 241.675 527.922 241.792 527.922 241.92C527.922 241.984 527.912 242.048 527.89 242.112L527.666 243.264C527.624 243.477 527.517 243.659 527.346 243.808C527.197 243.936 527.016 244 526.802 244H524.882ZM536.684 244.32C535.276 244.32 534.124 244.107 533.228 243.68C532.353 243.253 531.713 242.752 531.308 242.176C530.924 241.6 530.732 241.088 530.732 240.64C530.732 240.384 530.828 240.171 531.02 240C531.212 239.829 531.404 239.744 531.596 239.744H533.036C533.164 239.744 533.26 239.765 533.324 239.808C533.388 239.851 533.462 239.936 533.548 240.064C533.974 240.683 534.444 241.163 534.956 241.504C535.468 241.824 536.225 241.984 537.228 241.984C538.337 241.984 539.276 241.771 540.044 241.344C540.833 240.917 541.313 240.309 541.484 239.52C541.526 239.307 541.548 239.147 541.548 239.04C541.548 238.464 541.228 238.016 540.588 237.696C539.969 237.355 538.806 236.981 537.1 236.576C535.606 236.213 534.529 235.733 533.868 235.136C533.206 234.539 532.876 233.792 532.876 232.896C532.876 232.661 532.918 232.309 533.004 231.84C533.174 231.029 533.58 230.261 534.22 229.536C534.86 228.789 535.692 228.192 536.716 227.744C537.74 227.275 538.902 227.04 540.204 227.04C541.462 227.04 542.508 227.243 543.34 227.648C544.193 228.032 544.812 228.501 545.196 229.056C545.601 229.589 545.804 230.08 545.804 230.528C545.804 230.805 545.708 231.04 545.516 231.232C545.345 231.403 545.142 231.488 544.908 231.488H543.596C543.318 231.488 543.126 231.381 543.02 231.168C542.742 230.763 542.508 230.453 542.316 230.24C542.124 230.005 541.814 229.803 541.388 229.632C540.961 229.461 540.406 229.376 539.724 229.376C538.7 229.376 537.857 229.6 537.196 230.048C536.556 230.475 536.161 231.04 536.012 231.744C535.969 231.957 535.948 232.117 535.948 232.224C535.948 232.736 536.236 233.163 536.812 233.504C537.409 233.845 538.486 234.187 540.044 234.528C541.686 234.912 542.87 235.424 543.596 236.064C544.342 236.683 544.716 237.461 544.716 238.4C544.716 238.613 544.673 238.955 544.588 239.424C544.396 240.341 543.948 241.173 543.244 241.92C542.561 242.667 541.654 243.253 540.524 243.68C539.393 244.107 538.113 244.32 536.684 244.32ZM548.836 238.688C548.623 238.688 548.463 238.613 548.356 238.464C548.271 238.379 548.228 238.261 548.228 238.112C548.228 238.069 548.239 238.016 548.26 237.952L551.588 222.336C551.631 222.123 551.727 221.952 551.876 221.824C552.047 221.675 552.239 221.6 552.452 221.6H553.924C554.137 221.6 554.308 221.664 554.436 221.792C554.521 221.899 554.564 222.027 554.564 222.176C554.564 222.219 554.553 222.272 554.532 222.336L551.204 237.952C551.161 238.165 551.055 238.347 550.884 238.496C550.713 238.624 550.521 238.688 550.308 238.688H548.836ZM547.428 244C547.215 244 547.044 243.936 546.916 243.808C546.809 243.659 546.777 243.477 546.82 243.264L547.268 241.248C547.311 241.013 547.417 240.832 547.588 240.704C547.759 240.555 547.951 240.48 548.164 240.48H550.18C550.415 240.48 550.585 240.555 550.692 240.704C550.777 240.811 550.82 240.939 550.82 241.088C550.82 241.131 550.809 241.184 550.788 241.248L550.34 243.264C550.297 243.477 550.191 243.659 550.02 243.808C549.849 243.936 549.657 244 549.444 244H547.428Z" fill="#242424"/>
<rect x="293" y="284" width="183" height="52" rx="4" fill="#D4E4FA"/>
<g clip-path="url(#clip0)">
<path fill-rule="evenodd" clip-rule="evenodd" d="M322 303C325.314 303 328 305.686 328 309C328 310.305 327.583 311.513 326.875 312.498L329.711 315.334C330.064 315.687 330.095 316.238 329.796 316.622L329.715 316.715C329.334 317.095 328.722 317.099 328.334 316.711L325.498 313.875C324.513 314.583 323.305 315 322 315C318.686 315 316 312.314 316 309C316 305.686 318.686 303 322 303ZM322 305C319.791 305 318 306.791 318 309C318 311.209 319.791 313 322 313C324.209 313 326 311.209 326 309C326 306.791 324.209 305 322 305Z" fill="#539BFB"/>
</g>
<path d="M343.136 315.16C342.187 315.16 341.371 315.016 340.688 314.728C340.005 314.44 339.488 314.061 339.136 313.592C338.784 313.123 338.597 312.616 338.576 312.072C338.576 311.976 338.608 311.896 338.672 311.832C338.736 311.768 338.816 311.736 338.912 311.736H340.336C340.464 311.736 340.56 311.763 340.624 311.816C340.699 311.859 340.768 311.933 340.832 312.04C340.939 312.403 341.184 312.707 341.568 312.952C341.952 313.197 342.475 313.32 343.136 313.32C343.893 313.32 344.464 313.197 344.848 312.952C345.232 312.696 345.424 312.344 345.424 311.896C345.424 311.597 345.323 311.352 345.12 311.16C344.928 310.968 344.635 310.803 344.24 310.664C343.856 310.525 343.28 310.355 342.512 310.152C341.253 309.853 340.331 309.459 339.744 308.968C339.168 308.467 338.88 307.757 338.88 306.84C338.88 306.221 339.045 305.672 339.376 305.192C339.717 304.712 340.203 304.333 340.832 304.056C341.472 303.779 342.213 303.64 343.056 303.64C343.931 303.64 344.688 303.795 345.328 304.104C345.968 304.413 346.453 304.803 346.784 305.272C347.125 305.731 347.307 306.189 347.328 306.648C347.328 306.744 347.296 306.824 347.232 306.888C347.168 306.952 347.088 306.984 346.992 306.984H345.504C345.28 306.984 345.125 306.883 345.04 306.68C344.976 306.339 344.763 306.056 344.4 305.832C344.037 305.597 343.589 305.48 343.056 305.48C342.459 305.48 341.989 305.592 341.648 305.816C341.307 306.04 341.136 306.365 341.136 306.792C341.136 307.091 341.221 307.336 341.392 307.528C341.563 307.72 341.829 307.891 342.192 308.04C342.565 308.189 343.099 308.355 343.792 308.536C344.731 308.749 345.477 308.989 346.032 309.256C346.597 309.523 347.013 309.859 347.28 310.264C347.547 310.669 347.68 311.187 347.68 311.816C347.68 312.499 347.488 313.096 347.104 313.608C346.731 314.109 346.197 314.493 345.504 314.76C344.821 315.027 344.032 315.16 343.136 315.16ZM353.082 315C352.111 315 351.38 314.749 350.89 314.248C350.41 313.736 350.17 312.989 350.17 312.008V308.376H348.906C348.799 308.376 348.708 308.339 348.634 308.264C348.559 308.179 348.522 308.083 348.522 307.976V307.064C348.522 306.957 348.559 306.867 348.634 306.792C348.708 306.717 348.799 306.68 348.906 306.68H350.17V304.024C350.17 303.907 350.207 303.816 350.282 303.752C350.356 303.677 350.447 303.64 350.554 303.64H351.85C351.967 303.64 352.058 303.677 352.122 303.752C352.196 303.816 352.234 303.907 352.234 304.024V306.68H354.234C354.351 306.68 354.442 306.717 354.506 306.792C354.58 306.856 354.618 306.947 354.618 307.064V307.976C354.618 308.093 354.58 308.189 354.506 308.264C354.431 308.339 354.34 308.376 354.234 308.376H352.234V311.848C352.234 312.307 352.314 312.653 352.474 312.888C352.634 313.123 352.9 313.24 353.274 313.24H354.378C354.484 313.24 354.575 313.277 354.65 313.352C354.724 313.427 354.762 313.517 354.762 313.624V314.616C354.762 314.723 354.724 314.813 354.65 314.888C354.586 314.963 354.495 315 354.378 315H353.082ZM358.597 315.16C358.053 315.16 357.552 315.053 357.093 314.84C356.645 314.616 356.288 314.317 356.021 313.944C355.765 313.571 355.637 313.16 355.637 312.712C355.637 311.987 355.93 311.4 356.517 310.952C357.104 310.504 357.909 310.2 358.933 310.04L361.125 309.72V309.384C361.125 308.915 361.008 308.563 360.773 308.328C360.538 308.093 360.16 307.976 359.637 307.976C359.285 307.976 358.997 308.045 358.773 308.184C358.56 308.312 358.389 308.44 358.261 308.568C358.133 308.707 358.048 308.797 358.005 308.84C357.962 308.968 357.882 309.032 357.765 309.032H356.533C356.437 309.032 356.352 309 356.277 308.936C356.213 308.872 356.181 308.787 356.181 308.68C356.192 308.413 356.32 308.109 356.565 307.768C356.821 307.427 357.21 307.133 357.733 306.888C358.256 306.643 358.896 306.52 359.653 306.52C360.912 306.52 361.829 306.803 362.405 307.368C362.981 307.933 363.269 308.675 363.269 309.592V314.616C363.269 314.723 363.232 314.813 363.157 314.888C363.093 314.963 363.002 315 362.885 315H361.589C361.482 315 361.392 314.963 361.317 314.888C361.242 314.813 361.205 314.723 361.205 314.616V313.992C360.97 314.333 360.634 314.616 360.197 314.84C359.77 315.053 359.237 315.16 358.597 315.16ZM359.141 313.64C359.728 313.64 360.208 313.448 360.581 313.064C360.954 312.68 361.141 312.12 361.141 311.384V311.048L359.541 311.304C358.922 311.4 358.453 311.555 358.133 311.768C357.824 311.981 357.669 312.243 357.669 312.552C357.669 312.893 357.813 313.16 358.101 313.352C358.389 313.544 358.736 313.64 359.141 313.64ZM365.706 315C365.599 315 365.508 314.963 365.434 314.888C365.359 314.813 365.322 314.723 365.322 314.616V307.08C365.322 306.973 365.359 306.883 365.434 306.808C365.508 306.723 365.599 306.68 365.706 306.68H367.002C367.119 306.68 367.215 306.717 367.29 306.792C367.364 306.867 367.402 306.963 367.402 307.08V307.736C367.658 307.395 367.978 307.133 368.362 306.952C368.756 306.771 369.204 306.68 369.706 306.68H370.362C370.479 306.68 370.57 306.717 370.634 306.792C370.708 306.856 370.746 306.947 370.746 307.064V308.216C370.746 308.323 370.708 308.413 370.634 308.488C370.57 308.563 370.479 308.6 370.362 308.6H369.114C368.612 308.6 368.218 308.744 367.93 309.032C367.642 309.32 367.498 309.715 367.498 310.216V314.616C367.498 314.723 367.46 314.813 367.386 314.888C367.311 314.963 367.215 315 367.098 315H365.706ZM375.754 315C374.783 315 374.052 314.749 373.562 314.248C373.082 313.736 372.842 312.989 372.842 312.008V308.376H371.578C371.471 308.376 371.38 308.339 371.306 308.264C371.231 308.179 371.194 308.083 371.194 307.976V307.064C371.194 306.957 371.231 306.867 371.306 306.792C371.38 306.717 371.471 306.68 371.578 306.68H372.842V304.024C372.842 303.907 372.879 303.816 372.954 303.752C373.028 303.677 373.119 303.64 373.226 303.64H374.522C374.639 303.64 374.73 303.677 374.794 303.752C374.868 303.816 374.906 303.907 374.906 304.024V306.68H376.906C377.023 306.68 377.114 306.717 377.178 306.792C377.252 306.856 377.29 306.947 377.29 307.064V307.976C377.29 308.093 377.252 308.189 377.178 308.264C377.103 308.339 377.012 308.376 376.906 308.376H374.906V311.848C374.906 312.307 374.986 312.653 375.146 312.888C375.306 313.123 375.572 313.24 375.946 313.24H377.05C377.156 313.24 377.247 313.277 377.322 313.352C377.396 313.427 377.434 313.517 377.434 313.624V314.616C377.434 314.723 377.396 314.813 377.322 314.888C377.258 314.963 377.167 315 377.05 315H375.754ZM385.661 315.16C384.861 315.16 384.189 315.043 383.645 314.808C383.101 314.563 382.696 314.28 382.429 313.96C382.173 313.629 382.045 313.347 382.045 313.112C382.045 313.005 382.082 312.92 382.157 312.856C382.232 312.792 382.317 312.76 382.413 312.76H383.677C383.773 312.76 383.853 312.797 383.917 312.872C383.96 312.904 384.072 313 384.253 313.16C384.434 313.331 384.648 313.464 384.893 313.56C385.138 313.656 385.41 313.704 385.709 313.704C386.136 313.704 386.488 313.619 386.765 313.448C387.042 313.277 387.181 313.043 387.181 312.744C387.181 312.52 387.117 312.339 386.989 312.2C386.872 312.061 386.653 311.939 386.333 311.832C386.013 311.715 385.538 311.592 384.909 311.464C384.002 311.272 383.33 310.979 382.893 310.584C382.466 310.189 382.253 309.667 382.253 309.016C382.253 308.589 382.381 308.189 382.637 307.816C382.893 307.432 383.272 307.123 383.773 306.888C384.285 306.643 384.893 306.52 385.597 306.52C386.312 306.52 386.93 306.637 387.453 306.872C387.976 307.096 388.37 307.368 388.637 307.688C388.914 307.997 389.053 308.275 389.053 308.52C389.053 308.616 389.016 308.701 388.941 308.776C388.877 308.84 388.797 308.872 388.701 308.872H387.517C387.432 308.872 387.341 308.835 387.245 308.76C387.17 308.707 387.053 308.605 386.893 308.456C386.733 308.307 386.546 308.189 386.333 308.104C386.12 308.019 385.869 307.976 385.581 307.976C385.186 307.976 384.877 308.061 384.653 308.232C384.44 308.403 384.333 308.627 384.333 308.904C384.333 309.107 384.386 309.272 384.493 309.4C384.6 309.528 384.808 309.651 385.117 309.768C385.426 309.885 385.89 310.003 386.509 310.12C387.533 310.323 388.264 310.637 388.701 311.064C389.149 311.491 389.373 312.013 389.373 312.632C389.373 313.379 389.048 313.987 388.397 314.456C387.746 314.925 386.834 315.16 385.661 315.16ZM394.609 315.16C393.425 315.16 392.481 314.819 391.777 314.136C391.083 313.443 390.715 312.472 390.673 311.224L390.657 310.824L390.673 310.424C390.726 309.208 391.099 308.253 391.793 307.56C392.497 306.867 393.435 306.52 394.609 306.52C395.867 306.52 396.838 306.904 397.521 307.672C398.214 308.44 398.561 309.464 398.561 310.744V311.08C398.561 311.187 398.523 311.277 398.449 311.352C398.374 311.427 398.278 311.464 398.161 311.464H392.849V311.592C392.87 312.179 393.03 312.675 393.329 313.08C393.638 313.475 394.059 313.672 394.593 313.672C395.222 313.672 395.729 313.427 396.113 312.936C396.209 312.819 396.283 312.744 396.337 312.712C396.401 312.68 396.491 312.664 396.609 312.664H397.985C398.081 312.664 398.161 312.696 398.225 312.76C398.299 312.813 398.337 312.883 398.337 312.968C398.337 313.224 398.182 313.528 397.873 313.88C397.574 314.221 397.142 314.52 396.577 314.776C396.011 315.032 395.355 315.16 394.609 315.16ZM396.385 310.12V310.072C396.385 309.443 396.225 308.936 395.905 308.552C395.595 308.168 395.163 307.976 394.609 307.976C394.054 307.976 393.622 308.168 393.313 308.552C393.003 308.936 392.849 309.443 392.849 310.072V310.12H396.385ZM402.675 315.16C402.131 315.16 401.63 315.053 401.171 314.84C400.723 314.616 400.366 314.317 400.099 313.944C399.843 313.571 399.715 313.16 399.715 312.712C399.715 311.987 400.008 311.4 400.595 310.952C401.182 310.504 401.987 310.2 403.011 310.04L405.203 309.72V309.384C405.203 308.915 405.086 308.563 404.851 308.328C404.616 308.093 404.238 307.976 403.715 307.976C403.363 307.976 403.075 308.045 402.851 308.184C402.638 308.312 402.467 308.44 402.339 308.568C402.211 308.707 402.126 308.797 402.083 308.84C402.04 308.968 401.96 309.032 401.843 309.032H400.611C400.515 309.032 400.43 309 400.355 308.936C400.291 308.872 400.259 308.787 400.259 308.68C400.27 308.413 400.398 308.109 400.643 307.768C400.899 307.427 401.288 307.133 401.811 306.888C402.334 306.643 402.974 306.52 403.731 306.52C404.99 306.52 405.907 306.803 406.483 307.368C407.059 307.933 407.347 308.675 407.347 309.592V314.616C407.347 314.723 407.31 314.813 407.235 314.888C407.171 314.963 407.08 315 406.963 315H405.667C405.56 315 405.47 314.963 405.395 314.888C405.32 314.813 405.283 314.723 405.283 314.616V313.992C405.048 314.333 404.712 314.616 404.275 314.84C403.848 315.053 403.315 315.16 402.675 315.16ZM403.219 313.64C403.806 313.64 404.286 313.448 404.659 313.064C405.032 312.68 405.219 312.12 405.219 311.384V311.048L403.619 311.304C403 311.4 402.531 311.555 402.211 311.768C401.902 311.981 401.747 312.243 401.747 312.552C401.747 312.893 401.891 313.16 402.179 313.352C402.467 313.544 402.814 313.64 403.219 313.64ZM409.784 315C409.677 315 409.586 314.963 409.512 314.888C409.437 314.813 409.4 314.723 409.4 314.616V307.08C409.4 306.973 409.437 306.883 409.512 306.808C409.586 306.723 409.677 306.68 409.784 306.68H411.08C411.197 306.68 411.293 306.717 411.368 306.792C411.442 306.867 411.48 306.963 411.48 307.08V307.736C411.736 307.395 412.056 307.133 412.44 306.952C412.834 306.771 413.282 306.68 413.784 306.68H414.44C414.557 306.68 414.648 306.717 414.712 306.792C414.786 306.856 414.824 306.947 414.824 307.064V308.216C414.824 308.323 414.786 308.413 414.712 308.488C414.648 308.563 414.557 308.6 414.44 308.6H413.192C412.69 308.6 412.296 308.744 412.008 309.032C411.72 309.32 411.576 309.715 411.576 310.216V314.616C411.576 314.723 411.538 314.813 411.464 314.888C411.389 314.963 411.293 315 411.176 315H409.784ZM419.562 315.16C418.389 315.16 417.45 314.835 416.746 314.184C416.053 313.533 415.685 312.632 415.642 311.48L415.626 310.84L415.642 310.2C415.685 309.048 416.053 308.147 416.746 307.496C417.45 306.845 418.389 306.52 419.562 306.52C420.394 306.52 421.098 306.669 421.674 306.968C422.261 307.267 422.693 307.635 422.97 308.072C423.258 308.499 423.413 308.904 423.434 309.288C423.445 309.395 423.408 309.485 423.322 309.56C423.248 309.635 423.157 309.672 423.05 309.672H421.642C421.536 309.672 421.45 309.651 421.386 309.608C421.333 309.555 421.28 309.469 421.226 309.352C421.066 308.936 420.853 308.637 420.586 308.456C420.33 308.275 420 308.184 419.594 308.184C419.05 308.184 418.624 308.36 418.314 308.712C418.005 309.053 417.84 309.576 417.818 310.28L417.802 310.872L417.818 311.4C417.861 312.797 418.453 313.496 419.594 313.496C420.01 313.496 420.346 313.405 420.602 313.224C420.858 313.043 421.066 312.744 421.226 312.328C421.28 312.211 421.333 312.131 421.386 312.088C421.45 312.035 421.536 312.008 421.642 312.008H423.05C423.157 312.008 423.248 312.045 423.322 312.12C423.408 312.195 423.445 312.285 423.434 312.392C423.413 312.765 423.264 313.165 422.986 313.592C422.709 314.019 422.282 314.387 421.706 314.696C421.13 315.005 420.416 315.16 419.562 315.16ZM425.503 315C425.396 315 425.306 314.963 425.231 314.888C425.156 314.813 425.119 314.723 425.119 314.616V304.024C425.119 303.907 425.156 303.816 425.231 303.752C425.306 303.677 425.396 303.64 425.503 303.64H426.927C427.044 303.64 427.135 303.677 427.199 303.752C427.274 303.816 427.311 303.907 427.311 304.024V307.672C427.951 306.904 428.815 306.52 429.903 306.52C430.884 306.52 431.668 306.845 432.255 307.496C432.842 308.136 433.135 309.011 433.135 310.12V314.616C433.135 314.723 433.098 314.813 433.023 314.888C432.959 314.963 432.868 315 432.751 315H431.311C431.204 315 431.114 314.963 431.039 314.888C430.964 314.813 430.927 314.723 430.927 314.616V310.216C430.927 309.587 430.772 309.101 430.463 308.76C430.164 308.408 429.727 308.232 429.151 308.232C428.586 308.232 428.138 308.408 427.807 308.76C427.476 309.112 427.311 309.597 427.311 310.216V314.616C427.311 314.723 427.274 314.813 427.199 314.888C427.135 314.963 427.044 315 426.927 315H425.503ZM435.485 305.304C435.379 305.304 435.288 305.267 435.213 305.192C435.139 305.117 435.101 305.027 435.101 304.92V303.768C435.101 303.661 435.139 303.571 435.213 303.496C435.288 303.421 435.379 303.384 435.485 303.384H436.941C437.048 303.384 437.139 303.421 437.213 303.496C437.299 303.571 437.341 303.661 437.341 303.768V304.92C437.341 305.027 437.304 305.117 437.229 305.192C437.155 305.267 437.059 305.304 436.941 305.304H435.485ZM435.549 315C435.443 315 435.352 314.963 435.277 314.888C435.203 314.813 435.165 314.723 435.165 314.616V307.064C435.165 306.957 435.203 306.867 435.277 306.792C435.352 306.717 435.443 306.68 435.549 306.68H436.877C436.995 306.68 437.085 306.717 437.149 306.792C437.224 306.856 437.261 306.947 437.261 307.064V314.616C437.261 314.723 437.224 314.813 437.149 314.888C437.085 314.963 436.995 315 436.877 315H435.549ZM439.768 315C439.661 315 439.571 314.963 439.496 314.888C439.421 314.813 439.384 314.723 439.384 314.616V307.064C439.384 306.957 439.421 306.867 439.496 306.792C439.571 306.717 439.661 306.68 439.768 306.68H441.08C441.187 306.68 441.277 306.717 441.352 306.792C441.427 306.867 441.464 306.957 441.464 307.064V307.72C442.093 306.92 442.984 306.52 444.136 306.52C445.117 306.52 445.896 306.845 446.472 307.496C447.048 308.136 447.336 309.011 447.336 310.12V314.616C447.336 314.723 447.299 314.813 447.224 314.888C447.16 314.963 447.069 315 446.952 315H445.544C445.437 315 445.347 314.963 445.272 314.888C445.197 314.813 445.16 314.723 445.16 314.616V310.216C445.16 309.587 445.005 309.101 444.696 308.76C444.397 308.408 443.96 308.232 443.384 308.232C442.819 308.232 442.371 308.408 442.04 308.76C441.72 309.112 441.56 309.597 441.56 310.216V314.616C441.56 314.723 441.523 314.813 441.448 314.888C441.384 314.963 441.293 315 441.176 315H439.768ZM453.129 318.52C452.179 318.52 451.411 318.36 450.825 318.04C450.238 317.731 449.822 317.373 449.577 316.968C449.331 316.563 449.209 316.216 449.209 315.928C449.209 315.832 449.246 315.747 449.321 315.672C449.406 315.597 449.497 315.56 449.593 315.56H450.985C451.081 315.56 451.161 315.581 451.225 315.624C451.299 315.677 451.358 315.768 451.401 315.896C451.507 316.184 451.678 316.424 451.913 316.616C452.158 316.819 452.537 316.92 453.049 316.92C453.689 316.92 454.158 316.776 454.457 316.488C454.766 316.2 454.921 315.704 454.921 315V313.912C454.334 314.605 453.513 314.952 452.457 314.952C451.347 314.952 450.51 314.611 449.945 313.928C449.39 313.245 449.091 312.328 449.049 311.176L449.033 310.744L449.049 310.312C449.091 309.181 449.395 308.269 449.961 307.576C450.526 306.872 451.358 306.52 452.457 306.52C453.022 306.52 453.518 306.627 453.945 306.84C454.371 307.053 454.729 307.347 455.017 307.72V307.08C455.017 306.963 455.054 306.867 455.129 306.792C455.203 306.717 455.294 306.68 455.401 306.68H456.697C456.803 306.68 456.894 306.723 456.969 306.808C457.043 306.883 457.081 306.973 457.081 307.08L457.097 314.792C457.097 315.976 456.766 316.893 456.105 317.544C455.443 318.195 454.451 318.52 453.129 318.52ZM453.049 313.256C453.657 313.256 454.11 313.064 454.409 312.68C454.718 312.296 454.889 311.827 454.921 311.272C454.931 311.187 454.937 311.011 454.937 310.744C454.937 310.488 454.931 310.317 454.921 310.232C454.889 309.667 454.718 309.192 454.409 308.808C454.11 308.424 453.657 308.232 453.049 308.232C451.897 308.232 451.289 308.941 451.225 310.36L451.209 310.744C451.209 311.501 451.342 312.109 451.609 312.568C451.886 313.027 452.366 313.256 453.049 313.256Z" fill="#539BFB"/>
<g clip-path="url(#clip1)">
<g filter="url(#filter0_d)">
<path d="M332 56C332 54.8954 332.895 54 334 54H436C437.105 54 438 54.8954 438 56V94C438 95.1046 437.105 96 436 96H334C332.895 96 332 95.1046 332 94V56Z" fill="#595959"/>
</g>
<path d="M404 59C404 57.8954 404.895 57 406 57H432C433.105 57 434 57.8954 434 59V90C434 91.1046 433.105 92 432 92H406C404.895 92 404 91.1046 404 90V59Z" fill="white"/>
<path d="M370 59C370 57.8954 370.895 57 372 57H398C399.105 57 400 57.8954 400 59V90C400 91.1046 399.105 92 398 92H372C370.895 92 370 91.1046 370 90V59Z" fill="white"/>
<path d="M336 59C336 57.8954 336.895 57 338 57H364C365.105 57 366 57.8954 366 59V90C366 91.1046 365.105 92 364 92H338C336.895 92 336 91.1046 336 90V59Z" fill="white"/>
<g filter="url(#filter1_d)">
<path d="M344.04 86C343.827 86 343.635 85.9253 343.464 85.776C343.315 85.6053 343.24 85.4133 343.24 85.2V64.4C343.24 64.1653 343.315 63.9733 343.464 63.824C343.635 63.6747 343.827 63.6 344.04 63.6H348.072C348.307 63.6 348.499 63.6747 348.648 63.824C348.797 63.9733 348.872 64.1653 348.872 64.4V71.504L354.792 64.208C355.048 63.8027 355.464 63.6 356.04 63.6H360.648C360.84 63.6 361 63.6747 361.128 63.824C361.256 63.952 361.32 64.1013 361.32 64.272C361.32 64.4213 361.288 64.5493 361.224 64.656L353.544 74.32L361.8 84.944C361.885 85.0293 361.928 85.1573 361.928 85.328C361.928 85.4987 361.864 85.6587 361.736 85.808C361.608 85.936 361.448 86 361.256 86H356.488C355.976 86 355.549 85.7867 355.208 85.36L348.872 77.456V85.2C348.872 85.4347 348.797 85.6267 348.648 85.776C348.499 85.9253 348.307 86 348.072 86H344.04Z" fill="#242424"/>
</g>
<g filter="url(#filter2_d)">
<path d="M385.424 86.32C382.373 86.32 379.984 85.584 378.256 84.112C376.549 82.6187 375.643 80.464 375.536 77.648C375.515 77.072 375.504 76.1333 375.504 74.832C375.504 73.5093 375.515 72.5493 375.536 71.952C375.643 69.1787 376.571 67.0453 378.32 65.552C380.069 64.0373 382.437 63.28 385.424 63.28C387.301 63.28 388.987 63.6 390.48 64.24C391.973 64.8587 393.147 65.7547 394 66.928C394.875 68.08 395.323 69.4347 395.344 70.992V71.056C395.344 71.2267 395.269 71.376 395.12 71.504C394.992 71.6107 394.843 71.664 394.672 71.664H390.352C390.075 71.664 389.861 71.6107 389.712 71.504C389.563 71.376 389.435 71.152 389.328 70.832C389.029 69.744 388.56 68.9867 387.92 68.56C387.28 68.112 386.437 67.888 385.392 67.888C382.875 67.888 381.573 69.296 381.488 72.112C381.467 72.688 381.456 73.5733 381.456 74.768C381.456 75.9627 381.467 76.8693 381.488 77.488C381.573 80.304 382.875 81.712 385.392 81.712C386.437 81.712 387.291 81.488 387.952 81.04C388.613 80.5707 389.072 79.8133 389.328 78.768C389.413 78.448 389.531 78.2347 389.68 78.128C389.829 78 390.053 77.936 390.352 77.936H394.672C394.864 77.936 395.024 78 395.152 78.128C395.301 78.256 395.365 78.416 395.344 78.608C395.323 80.1653 394.875 81.5307 394 82.704C393.147 83.856 391.973 84.752 390.48 85.392C388.987 86.0107 387.301 86.32 385.424 86.32Z" fill="#242424"/>
</g>
<g filter="url(#filter3_d)">
<path d="M418.592 86.32C416.565 86.32 414.827 86.0213 413.376 85.424C411.925 84.8267 410.827 84.048 410.08 83.088C409.355 82.1067 408.971 81.04 408.928 79.888C408.928 79.7173 408.992 79.568 409.12 79.44C409.269 79.2907 409.44 79.216 409.632 79.216H413.664C413.92 79.216 414.123 79.2693 414.272 79.376C414.443 79.4613 414.613 79.6 414.784 79.792C415.061 80.3467 415.509 80.8053 416.128 81.168C416.747 81.5307 417.568 81.712 418.592 81.712C419.808 81.712 420.736 81.52 421.376 81.136C422.016 80.752 422.336 80.2293 422.336 79.568C422.336 79.0987 422.165 78.7147 421.824 78.416C421.504 78.1173 420.992 77.8507 420.288 77.616C419.584 77.3813 418.539 77.1147 417.152 76.816C414.592 76.2827 412.672 75.504 411.392 74.48C410.133 73.4347 409.504 71.952 409.504 70.032C409.504 68.7307 409.867 67.568 410.592 66.544C411.317 65.52 412.352 64.72 413.696 64.144C415.04 63.568 416.608 63.28 418.4 63.28C420.256 63.28 421.867 63.6 423.232 64.24C424.597 64.88 425.632 65.6907 426.336 66.672C427.061 67.632 427.445 68.5813 427.488 69.52C427.488 69.712 427.424 69.872 427.296 70C427.168 70.128 427.008 70.192 426.816 70.192H422.592C422.336 70.192 422.123 70.1493 421.952 70.064C421.803 69.9787 421.664 69.84 421.536 69.648C421.408 69.1573 421.056 68.7413 420.48 68.4C419.925 68.0587 419.232 67.888 418.4 67.888C417.44 67.888 416.704 68.0587 416.192 68.4C415.68 68.7413 415.424 69.2427 415.424 69.904C415.424 70.352 415.563 70.7253 415.84 71.024C416.139 71.3227 416.608 71.6 417.248 71.856C417.909 72.0907 418.848 72.336 420.064 72.592C422.048 72.9547 423.627 73.4133 424.8 73.968C425.995 74.5013 426.869 75.2053 427.424 76.08C427.979 76.9333 428.256 78.0107 428.256 79.312C428.256 80.7413 427.84 81.9893 427.008 83.056C426.197 84.1013 425.056 84.912 423.584 85.488C422.133 86.0427 420.469 86.32 418.592 86.32Z" fill="#242424"/>
</g>
</g>
<defs>
<filter id="filter0_d" x="329" y="51" width="114" height="50" filterUnits="userSpaceOnUse" color-interpolation-filters="sRGB">
<feFlood flood-opacity="0" result="BackgroundImageFix"/>
<feColorMatrix in="SourceAlpha" type="matrix" values="0 0 0 0 0 0 0 0 0 0 0 0 0 0 0 0 0 0 127 0"/>
<feOffset dx="1" dy="1"/>
<feGaussianBlur stdDeviation="2"/>
<feColorMatrix type="matrix" values="0 0 0 0 0 0 0 0 0 0 0 0 0 0 0 0 0 0 0.5 0"/>
<feBlend mode="normal" in2="BackgroundImageFix" result="effect1_dropShadow"/>
<feBlend mode="normal" in="SourceGraphic" in2="effect1_dropShadow" result="shape"/>
</filter>
<filter id="filter1_d" x="343.24" y="63.6" width="18.688" height="23.4" filterUnits="userSpaceOnUse" color-interpolation-filters="sRGB">
<feFlood flood-opacity="0" result="BackgroundImageFix"/>
<feColorMatrix in="SourceAlpha" type="matrix" values="0 0 0 0 0 0 0 0 0 0 0 0 0 0 0 0 0 0 127 0"/>
<feOffset dy="1"/>
<feColorMatrix type="matrix" values="0 0 0 0 0.561707 0 0 0 0 0.561707 0 0 0 0 0.561707 0 0 0 0.493034 0"/>
<feBlend mode="normal" in2="BackgroundImageFix" result="effect1_dropShadow"/>
<feBlend mode="normal" in="SourceGraphic" in2="effect1_dropShadow" result="shape"/>
</filter>
<filter id="filter2_d" x="375.504" y="63.28" width="19.844" height="24.04" filterUnits="userSpaceOnUse" color-interpolation-filters="sRGB">
<feFlood flood-opacity="0" result="BackgroundImageFix"/>
<feColorMatrix in="SourceAlpha" type="matrix" values="0 0 0 0 0 0 0 0 0 0 0 0 0 0 0 0 0 0 127 0"/>
<feOffset dy="1"/>
<feColorMatrix type="matrix" values="0 0 0 0 0.561707 0 0 0 0 0.561707 0 0 0 0 0.561707 0 0 0 0.493034 0"/>
<feBlend mode="normal" in2="BackgroundImageFix" result="effect1_dropShadow"/>
<feBlend mode="normal" in="SourceGraphic" in2="effect1_dropShadow" result="shape"/>
</filter>
<filter id="filter3_d" x="408.928" y="63.28" width="19.328" height="24.04" filterUnits="userSpaceOnUse" color-interpolation-filters="sRGB">
<feFlood flood-opacity="0" result="BackgroundImageFix"/>
<feColorMatrix in="SourceAlpha" type="matrix" values="0 0 0 0 0 0 0 0 0 0 0 0 0 0 0 0 0 0 127 0"/>
<feOffset dy="1"/>
<feColorMatrix type="matrix" values="0 0 0 0 0.561707 0 0 0 0 0.561707 0 0 0 0 0.561707 0 0 0 0.493034 0"/>
<feBlend mode="normal" in2="BackgroundImageFix" result="effect1_dropShadow"/>
<feBlend mode="normal" in="SourceGraphic" in2="effect1_dropShadow" result="shape"/>
</filter>
<linearGradient id="paint0_linear" x1="-27.0013" y1="-40.6874" x2="-27.0013" y2="390.576" gradientUnits="userSpaceOnUse">
<stop stop-color="#FAFCFE"/>
<stop offset="1" stop-color="#FAFCFE" stop-opacity="0.01"/>
</linearGradient>
<clipPath id="clip0">
<rect x="316" y="303" width="14" height="14" fill="white"/>
</clipPath>
<clipPath id="clip1">
<rect x="332" y="54" width="106" height="42" fill="white"/>
</clipPath>
</defs>
</svg>
