<?xml version="1.0" standalone="no"?>
<!DOCTYPE svg PUBLIC "-//W3C//DTD SVG 1.1//EN" "http://www.w3.org/Graphics/SVG/1.1/DTD/svg11.dtd" >
<svg>
<metadata>
Created by FontForge 20090622 at Fri Jun  5 14:48:09 2020
 By deploy user
2002, Fredrick Nader. All rights reserved. apostrophe@apostrophiclab.com
</metadata>
<defs>
<font id="DayRoman" horiz-adv-x="480" >
  <font-face 
    font-family="Day Roman"
    font-weight="400"
    font-stretch="normal"
    units-per-em="1000"
    panose-1="2 2 5 0 6 4 11 2 4 3"
    ascent="800"
    descent="-200"
    x-height="449"
    cap-height="724"
    bbox="-141.947 -290.545 1119 1001.5"
    underline-thickness="40"
    underline-position="-107"
    unicode-range="U+0005-U+2122"
  />
<missing-glyph horiz-adv-x="289" 
 />
    <glyph glyph-name=".notdef" horiz-adv-x="289" 
 />
    <glyph glyph-name=".null" horiz-adv-x="0" 
 />
    <glyph glyph-name="nonmarkingreturn" horiz-adv-x="289" 
 />
    <glyph glyph-name="space" unicode=" " horiz-adv-x="285" 
 />
    <glyph glyph-name="breve" horiz-adv-x="469" 
d="M240 572q16 0 30.5 6t25.5 16.5t17.5 24t6.5 29.5h41q0 -26 -10.5 -48t-27.5 -38.5t-39.5 -26t-47.5 -9.5q-4 0 -10 2q-20 1 -38.5 12.5t-33 29t-23.5 38t-10 40.5h47q1 -13 6.5 -26t14.5 -23.5t20.5 -17.5t24.5 -8q2 -1 6 -1z" />
    <glyph glyph-name="dotaccent" horiz-adv-x="455" 
d="M308 623q0 -27 -19.5 -46t-46.5 -19q-4 0 -5 1q-11 1 -21 7.5t-17.5 16t-12 21t-4.5 22.5q0 23 18 42t41 19q26 0 46.5 -19t20.5 -45z" />
    <glyph glyph-name="ring" horiz-adv-x="463" 
d="M297 620q0 25 -18.5 42.5t-42.5 17.5q-22 0 -38 -17t-16 -39q0 -10 4 -20.5t11 -19.5t16 -15t19 -7q1 -1 5 -1q25 0 42.5 17t17.5 42zM329 620q0 -20 -7.5 -37t-20.5 -29.5t-30.5 -20t-36.5 -7.5q-6 0 -8 2q-16 1 -30.5 10.5t-25.5 23.5t-17.5 30.5t-6.5 32.5q0 17 7 33
t19 28.5t27.5 20t32.5 7.5q43 0 70 -27t27 -67z" />
    <glyph glyph-name="hungarumlaut" unicode="&#xa;" horiz-adv-x="520" 
d="M254 701q6 -5 9 -6.5t5.5 -3.5t7 -5l13.5 -9q8 -3 7.5 -10.5t-5.5 -11.5q-7 -8 -25 -30.5l-38 -47l-37.5 -44.5t-22.5 -23q-9 -6 -16.5 -0.5t-1.5 16.5q5 13 16 36.5l23 49l23.5 48.5t18.5 35q5 8 9.5 10t13.5 -4zM387 701q6 -5 9 -6.5t5.5 -3.5t7 -5l13.5 -9
q8 -3 7.5 -10.5t-5.5 -11.5q-7 -8 -25 -30.5l-38 -47l-37.5 -44.5t-22.5 -23q-9 -6 -16.5 -0.5t-1.5 16.5q5 13 16 36.5l23 49l23.5 48.5t18.5 35q5 8 9.5 10t13.5 -4z" />
    <glyph glyph-name="ogonek" horiz-adv-x="473" 
d="M282 -45q3 25 16 42.5t31.5 27.5t41 13.5t45.5 0.5q3 -1 4 -6.5t-4 -31.5q-9 1 -20.5 -3t-21 -11t-16.5 -17t-8 -20q-3 -23 10 -42.5t51 -20.5q22 -1 41 1t44 8q5 -6 5.5 -11t1.5 -13q-23 -9 -47 -17.5t-48 -9.5q-28 -1 -52.5 7t-41.5 23t-26 35.5t-6 44.5z" />
    <glyph glyph-name="caron" horiz-adv-x="422" 
d="M326 699q6 0 6 -7q0 -3 -6.5 -17t-17 -33l-23 -41l-24 -41t-21 -33t-13.5 -17q-9 5 -10 8l-55.5 90.5t-40.5 79.5q-2 6 -2 8q0 8 9 7q5 -1 17 -15.5l26.5 -33.5t29.5 -36.5t26 -24.5q11 7 24.5 24.5l26.5 35.5t25.5 32t22.5 14z" />
    <glyph glyph-name="dotlessi" unicode="&#xd;" horiz-adv-x="313" 
d="M274 5q0 -11 -10.5 -12t-17.5 -1q-18 0 -35.5 2.5t-34.5 2.5q-26 0 -53 -2.5t-53 -2.5h-11q-8 0 -15 2t-7 13q0 3 2 5l4 4q9 7 20.5 8.5l22.5 3t19.5 7t11.5 21.5q2 10 2 14v15q1 32 0.5 62.5t0.5 62.5q1 24 2.5 47.5t1.5 47.5q0 12 -1.5 29t-9.5 27q-5 6 -14 10
l-17.5 7.5t-15 7t-6.5 8.5t6 9t14.5 7.5t16.5 6t12 3.5q7 2 20 9l26.5 14.5l24.5 13.5t15 6q6 0 6 -5q0 -15 -0.5 -29.5t-1.5 -29.5q-1 -30 -1.5 -60.5t-0.5 -60.5q0 -37 0.5 -73.5t1.5 -73.5q0 -17 -0.5 -34.5t1.5 -34.5q2 -21 13.5 -28t25 -9.5t24.5 -5t11 -14.5z" />
    <glyph glyph-name="fraction" horiz-adv-x="265" 
d="M415 646q-28 -42 -59 -81.5l-63 -79.5l-187 -237t-181 -241q-5 2 -18 11t-36 17l245 318l244 321q11 0 27.5 -11t27.5 -17z" />
    <glyph glyph-name="fi" horiz-adv-x="610" 
d="M571 5q0 -11 -10.5 -12t-17.5 -1q-18 0 -35.5 2.5t-34.5 2.5q-26 0 -53 -2.5t-53 -2.5h-11q-8 0 -15 2t-7 13q0 3 2 5l4 4q9 7 20.5 8.5l22.5 3t19.5 7t11.5 21.5q2 10 2 14v15q1 32 0.5 62.5t0.5 62.5q1 24 2.5 47.5t1.5 47.5q0 16 -2.5 32t-9.5 29t-19.5 21.5
t-32.5 9.5h-104q-24 0 -42 -0.5t-25 -0.5q-7 -7 -6.5 -22t0.5 -24q0 -69 -0.5 -135t-0.5 -135q0 -22 7 -33t18 -16.5t26 -7t32 -4.5q4 -4 4 -11t-5 -9l-1 -3q-7 -4 -19 -4q-19 0 -38 3t-38 3q-29 0 -58 -3t-58 -3q-5 0 -15.5 1t-10.5 9q0 14 12 17l27 6.5t27 14t12 39.5v287
q0 13 -3 27q-24 3 -47 3q-8 0 -18 2t-10 13q0 4 0.5 9.5t2.5 9.5q3 5 12.5 7t21 3.5t23 2.5t17.5 4q3 39 4 79.5t11 78.5q9 38 27 72.5t44.5 60.5t61 41t75.5 14q21 0 42.5 -3t38.5 -11.5t28 -22.5t12 -35q3 -12 -3.5 -23t-17.5 -17.5t-23.5 -7.5t-20.5 6q-6 4 -9.5 15
t-13 21.5t-29.5 19t-59 8.5q-21 0 -36 -13t-25 -33.5t-16 -46.5t-9 -52.5t-4 -50.5t-1 -41v-14q0 -12 0.5 -28.5t5.5 -21.5h229q16 0 29 4.5t23.5 9.5t17.5 7.5t10 -0.5q2 -2 4 -2.5t2 -2.5q0 -15 -0.5 -29.5t-1.5 -29.5q-1 -30 -1.5 -60.5t-0.5 -60.5q0 -37 0.5 -73.5
t1.5 -73.5q0 -17 -0.5 -34.5t1.5 -34.5q2 -21 13.5 -28t25 -9.5t24.5 -5t11 -14.5z" />
    <glyph glyph-name="fl" horiz-adv-x="616" 
d="M576 8q0 -11 -10 -14q-1 -1 -5 -1h-4q-23 0 -46.5 2.5t-46.5 2.5q-29 0 -57 -3t-57 -3q-5 0 -15 1.5t-10 9.5q0 13 6 14.5t19 5.5q17 5 32 11.5t22 24.5q3 8 4 20t1 21q0 135 0.5 265.5t0.5 265.5q0 37 -12 62t-32 38.5t-45.5 16t-52.5 -4.5q-32 -8 -50 -36.5t-27 -64.5
t-11.5 -73.5t-2.5 -62.5v-14q0 -12 0.5 -28.5t5.5 -21.5h112q13 0 19 -6q0 -5 0.5 -9t0.5 -9q0 -11 -5 -19q-5 -1 -11 -1.5t-12 -0.5h-62h-20q-9 0 -19 -1q-7 -7 -6.5 -22t0.5 -24q0 -69 -0.5 -135t-0.5 -135q0 -22 7 -33t18 -16.5t26 -7t32 -4.5q4 -4 4 -11t-5 -9l-1 -3
q-7 -4 -19 -4q-19 0 -38 3t-38 3q-29 0 -58 -3t-58 -3q-5 0 -15.5 1t-10.5 9q0 14 12 17l27 6.5t27 14t12 39.5v287q0 13 -3 27q-24 3 -47 3q-8 0 -18 2t-10 13q0 4 0.5 9.5t2.5 9.5q3 5 12.5 7t21 3.5t23 2.5t17.5 4q3 39 4 79.5t11 78.5q9 38 27 72.5t44.5 60.5t61 41
t75.5 14q30 -1 54 -7.5t41 -25.5l40.5 14.5l24.5 8.5l6 -4q0 -14 0.5 -27t0.5 -27q0 -164 -0.5 -324t-0.5 -324q0 -33 17.5 -41.5t44.5 -11.5q2 -2 4.5 -1.5t4.5 0.5q16 0 16 -15z" />
    <glyph glyph-name="Lslash" horiz-adv-x="627" 
d="M40 304q-1 3 5 7.5t14.5 9t18 9t14.5 7.5q14 6 28.5 14.5l28.5 16.5v232q0 25 -4 45q-4 22 -21.5 29.5t-37 10t-35 5t-15.5 16.5t11.5 16t22.5 2q35 0 68.5 -3.5t68.5 -3.5q37 0 70.5 2t75.5 2q9 -8 9 -16q0 -12 -11.5 -15.5t-27.5 -5l-32 -3t-26 -9.5q-7 -6 -10.5 -16
t-5 -21t-2 -22t-0.5 -19q0 -45 -0.5 -89t-0.5 -89l56.5 28l46.5 23q5 2 12.5 -14l17.5 -36q1 -3 -3 -6.5t-10 -7.5t-13 -7t-13 -6l-95 -49v-142q0 -18 0.5 -39.5t2.5 -41t6 -35t11 -21.5q25 -19 57.5 -23t63.5 0.5t56 13.5t34 15q16 9 33.5 31.5t32.5 47l26 44t14 22.5
q9 7 20 4.5t15 -11.5q-25 -40 -39 -79.5t-22 -71t-13.5 -51t-12.5 -19.5q-66 0 -136 9t-136 9q-33 0 -57.5 -2l-47 -4l-47 -4t-57.5 -2q-6 0 -10 5t-4 11q0 14 10 17.5t25 4.5t32 3.5t31 15.5q12 12 16 40t4.5 63.5t-1.5 73t-3 67.5l-39 -20q-4 -2 -12 -5.5l-15.5 -6.5
t-13.5 -4.5t-6 0.5q-4 5 -8 14.5t-15 33.5z" />
    <glyph glyph-name="lslash" horiz-adv-x="317" 
d="M284 7q0 -11 -10 -14q-1 -1 -5 -1h-4q-23 0 -46.5 2.5t-46.5 2.5q-29 0 -57 -3t-57 -3q-5 0 -15 1.5t-10 9.5q0 13 6 14.5t19 5.5q17 5 32 11.5t22 24.5q3 8 4 20t1 21v229l-48 -25q-4 -2 -12 -5.5l-15.5 -6.5t-13.5 -4.5t-6 0.5q-4 5 -8 14.5t-15 33.5q-1 3 5 7.5
t14.5 9t18 9t14.5 7.5q8 3 20 10t47 24v59q0 28 0.5 55t0.5 54v60q0 15 -1.5 32.5t-12.5 29.5q-4 4 -11.5 8l-15 8t-13.5 8t-6 9v4q0 3 2 3q9 0 30.5 6.5t44 15t39 16.5t16.5 12l6 -4q0 -14 0.5 -27t0.5 -27v-74q0 -34 -0.5 -67t-0.5 -68v-73l21.5 11l19.5 10.5l22.5 12
l29.5 15.5q5 2 12.5 -14l17.5 -36q1 -3 -3 -6.5t-10 -7.5t-13 -7t-13 -6l-84 -45v-293q0 -33 17.5 -41.5t44.5 -11.5q2 -2 4.5 -1.5t4.5 0.5q16 0 16 -15z" />
    <glyph glyph-name="Zcaron" horiz-adv-x="757" 
d="M503 941q6 0 6 -7q0 -3 -6.5 -17t-17 -33l-23 -41l-24 -41t-21 -33t-13.5 -17q-9 5 -10 8l-55.5 90.5t-40.5 79.5q-2 6 -2 8q0 8 9 7q5 -1 17 -15.5l26.5 -33.5t29.5 -36.5t26 -24.5q11 7 24.5 24.5l26.5 35.5t25.5 32t22.5 14zM90 732q11 0 16 -1t9 -2.5l9.5 -3.5
t16.5 -3q9 -6 27 -8t34 -2h19q45 0 100 1t112.5 1.5t113 1.5t100.5 1q10 0 25 2.5t27.5 3.5t21 -3t5.5 -16q0 -1 -17 -21.5l-45.5 -53.5l-65 -75.5l-75 -87.5l-77 -89.5l-70 -82l-54 -64t-29.5 -35.5q-8 -11 -24.5 -30.5l-34 -41t-31 -41t-15.5 -31.5q0 -8 6.5 -12t15.5 -5
t19 -0.5t18 0.5q45 0 97.5 0.5t97.5 0.5q35 0 76 1.5t76 11.5q25 10 38.5 27.5t27.5 40.5q6 11 10 24.5t9.5 23.5t13 12.5t19.5 -7.5q3 -17 3 -32q0 -17 -4.5 -34.5t-7.5 -34.5q-2 -12 -3.5 -25.5t-5.5 -25t-12 -18.5t-24 -7q-38 0 -76 2t-76 2h-87q-91 0 -189.5 -3.5
t-189.5 -3.5q-16 0 -16 15q0 2 16.5 22.5l43 54l61.5 76l72 87.5l73.5 89.5l67 81l52 63l28.5 35.5t26 30l39 43.5l37 42.5t20 27q2 2 5 7.5t4 8.5q1 4 -6.5 5.5t-18.5 1.5q-10 0 -20 -0.5t-13 -0.5h-70q-29 0 -60 -0.5l-61.5 -1l-59 -1t-50.5 -1.5q-32 -2 -58 -10t-49 -33
q-8 -8 -15 -20l-13.5 -24t-13.5 -20.5t-13 -8.5q-5 0 -14.5 2.5t-6.5 10.5q6 26 14 52l16 52q8 22 13.5 39.5t19.5 17.5z" />
    <glyph glyph-name="zcaron" horiz-adv-x="465" 
d="M334 689q6 0 6 -7q0 -3 -6.5 -17t-17 -33l-23 -41l-24 -41t-21 -33t-13.5 -17q-9 5 -10 8l-55.5 90.5t-40.5 79.5q-2 6 -2 8q0 8 9 7q5 -1 17 -15.5l26.5 -33.5t29.5 -36.5t26 -24.5q11 7 24.5 24.5l26.5 35.5t25.5 32t22.5 14zM421 86q0 -12 -0.5 -26t-2 -26.5t-3.5 -22
t-5 -11.5q-4 -7 -10.5 -3.5t-13.5 3.5q-75 0 -145 -1t-145 -1h-14q-8 0 -17 0.5t-17 1.5t-13.5 3.5t-5.5 5.5q0 5 2 8t4 7q8 12 18 23t19 22l86.5 114.5l83.5 115.5q6 9 18 24.5l24 32l22.5 31.5t13.5 23q1 4 -7 5.5t-19.5 2t-22.5 0t-17 -0.5h-31q-26 0 -54.5 -0.5
t-48.5 -5.5q-17 -3 -26.5 -12t-17 -19t-14.5 -17.5t-19 -7.5q-5 0 -10 1.5t-3 8.5q3 10 4.5 14t3 7t3 7t4.5 14q2 8 4.5 17t5.5 17q2 6 6 11.5t12 5.5q14 0 24.5 -4.5t32.5 -4.5h156q18 0 36.5 1t36.5 1h15q14 0 31 -2t22 -7q5 -7 1 -15l-94.5 -129.5l-94.5 -129.5
l-47.5 -62.5t-40.5 -65.5q-2 -5 7 -5h57q21 0 45 0.5t46.5 3t39.5 6t24 9.5t11 16.5t6.5 21l5 20.5t7.5 15h5q10 1 13 -4t3 -14v-23z" />
    <glyph glyph-name="exclam" unicode="!" horiz-adv-x="242" 
d="M179 45q0 -28 -19.5 -44t-45.5 -16q-24 0 -40 19t-16 42q0 26 17.5 44.5t43.5 18.5q24 0 42 -20t18 -44zM62 700q-1 15 2 20t10.5 5.5t19.5 -1.5t30 -2q15 0 27 1.5t21 1.5q11 0 16 -4.5t3 -20.5q-4 -37 -11.5 -98.5l-16 -130.5l-17.5 -137.5t-17 -118.5q-1 -5 -8.5 -4
t-11.5 4q-5 54 -12 116.5l-14.5 126.5t-13 126.5t-7.5 115.5z" />
    <glyph glyph-name="quotedbl" unicode="&#x22;" horiz-adv-x="297" 
d="M216 728q6 0 13 -0.5t19 -0.5q8 3 11.5 -4.5t1.5 -12.5q-2 -11 -5.5 -39.5t-7 -60t-7.5 -58t-7 -32.5q-2 -5 -7 -7t-10.5 -1.5t-10.5 4t-6 9.5l-6 39t-7.5 54t-6 53.5t-2.5 39.5q-1 9 1.5 13t13.5 4h23zM75 728q6 0 13 -0.5t19 -0.5q8 3 11.5 -4.5t1.5 -12.5
q-2 -11 -5.5 -39.5t-7 -60t-7.5 -58t-7 -32.5q-2 -5 -7 -7t-10.5 -1.5t-10.5 4t-6 9.5l-6 39t-7.5 54t-6 53.5t-2.5 39.5q-1 9 1.5 13t13.5 4h23z" />
    <glyph glyph-name="numbersign" unicode="#" horiz-adv-x="512" 
d="M316 328q-21 0 -45 -0.5t-51 -0.5q-7 -31 -11.5 -53.5t-9.5 -41.5h97l10 47.5zM480 360q0 -8 -0.5 -17.5t-5.5 -15.5q-10 1 -21 1h-23h-61q-7 -32 -11.5 -54.5t-9.5 -41.5h87q13 -18 10.5 -32.5t-10.5 -31.5q-22 -1 -47.5 -1.5t-52.5 -0.5q-6 -29 -12 -65.5l-16 -98.5
q-5 0 -17.5 -1t-37.5 1l16.5 90.5l14.5 73.5h-97q-6 -29 -12 -65.5l-16 -98.5q-5 0 -17.5 -1t-37.5 1l16.5 90.5l14.5 74.5q-27 0 -50 0.5t-41 1.5q0 9 -2.5 16t-2.5 16q0 6 2.5 15t3.5 15q18 0 44.5 0.5t58.5 0.5l10 47l10 48h-79q-11 17 -12 29.5t12 34.5q23 0 45.5 -0.5
t45.5 -0.5q6 33 12.5 72.5l14.5 88.5q10 3 28 3q8 0 15.5 -0.5t12.5 -1.5q-5 -42 -12.5 -82t-16.5 -80q26 0 49 -0.5t46 -0.5l12.5 72.5l14.5 89.5q10 3 28 3q8 0 15.5 -0.5t12.5 -1.5q-5 -42 -12.5 -81.5t-16.5 -81.5h96q2 -10 2 -15v-14v0z" />
    <glyph glyph-name="dollar" unicode="$" horiz-adv-x="521" 
d="M128 587q0 -47 32 -80t77 -59q0 75 0.5 138t0.5 117q-46 -6 -78 -35.5t-32 -80.5zM389 152q-1 54 -33.5 88.5t-80.5 62.5v-286q51 8 83 43t31 92zM255 800q5 0 11 -0.5t10 -4.5q-1 -6 -1 -13v-13v-15q0 -7 -1 -15q20 -2 43.5 -12t40.5 -20q11 -6 16.5 -0.5t10.5 15.5
t12.5 19t22.5 9q7 0 9 -10t2 -24t-1.5 -29t-1.5 -26q1 -52 -3 -104q-2 -9 -5 -12t-7 -3t-8 1t-7 1q-6 0 -10 9t-7 21.5l-6 26t-9 23.5q-14 33 -39 53t-53 25v-274l58.5 -29.5t53.5 -29.5q42 -28 65.5 -73t24.5 -96q0 -100 -55.5 -155.5t-145.5 -65.5q-1 -10 -1 -18v-17v-15
q0 -8 -1 -15h-20q-12 0 -15 1q-1 6 -1 13v15v33q-19 0 -35.5 5t-30.5 10.5l-26.5 10.5t-22.5 5q-12 0 -17.5 -6.5t-10.5 -15t-12 -15t-22 -6.5q-7 0 -9 12.5t-2 29.5t1.5 35t1.5 29q0 26 0.5 47t2.5 47q1 9 4.5 12t7.5 3t7.5 -1t6.5 -1q7 0 11 -8.5t7 -21l6.5 -26.5t8.5 -24
q16 -37 50.5 -58t72.5 -24v309l-69 38.5t-61 44t-44 56.5t-17 76t14.5 79.5t40.5 61t61 40.5t76 19v59q6 2 8 2h9v0z" />
    <glyph glyph-name="percent" unicode="%" horiz-adv-x="780" 
d="M661 145q0 49 -26.5 78t-64.5 29q-31 0 -57.5 -27.5t-27.5 -72.5q-2 -51 24 -76.5t63 -25.5q33 0 60.5 24t28.5 71zM294 550q0 49 -26.5 78t-64.5 29q-31 0 -57.5 -27.5t-27.5 -72.5q-2 -51 24 -76.5t63 -25.5q33 0 60.5 24t28.5 71zM655 646q-28 -42 -59 -81.5
l-63 -79.5l-187 -237t-181 -241q-5 2 -18 11t-36 17l245 318l244 321q11 0 27.5 -11t27.5 -17zM730 155q0 -34 -11.5 -64t-32.5 -52.5t-50 -36t-64 -13.5q-36 0 -65.5 11t-50.5 32t-32.5 50t-11.5 65q0 34 11.5 64t32.5 52.5t50 35.5t64 13q32 0 61 -12t51 -33t35 -50
t13 -62zM363 560q0 -34 -11.5 -64t-32.5 -52.5t-50 -36t-64 -13.5q-36 0 -65.5 11t-50.5 32t-32.5 50t-11.5 65q0 34 11.5 64t32.5 52.5t50 35.5t64 13q32 0 61 -12t51 -33t35 -50t13 -62z" />
    <glyph glyph-name="ampersand" unicode="&#x26;" horiz-adv-x="792" 
d="M391 535q0 38 -20.5 63.5t-60.5 25.5q-35 0 -57 -23t-22 -58q0 -21 9 -40q4 -10 13.5 -22.5t21.5 -24.5t24.5 -22t21.5 -15q5 2 8.5 4.5t7.5 4.5q26 18 40 46.5t14 60.5zM263 356q-51 -20 -84 -63t-33 -100q0 -32 12 -59t33 -47t48.5 -31.5t59.5 -11.5q48 0 82 20t66 53
q7 7 12.5 15.5t11.5 16.5q-6 15 -17 27t-22 26q-36 45 -78.5 83.5t-90.5 70.5zM303 651q31 0 59 -6t49 -19.5t33.5 -35.5t12.5 -54q0 -24 -10.5 -44t-27.5 -36.5t-37.5 -29.5t-39.5 -22q9 -8 18.5 -14.5t19.5 -14.5q19 -15 38 -34t37.5 -39.5l36.5 -41l34 -38.5q4 2 6.5 5.5
l4.5 6.5q10 13 22 27t21.5 28t16 29t6.5 31q0 19 -5 25.5t-10.5 8.5t-10.5 4.5t-5 14.5q0 4 8 6t15 2h65q22 0 44 2t45 2q6 0 11 -3.5t5 -10.5t-5 -10.5t-11.5 -5.5t-14.5 -2.5t-14 -0.5q-14 0 -30 -13t-31 -30t-26.5 -33.5l-17.5 -24.5l-35 -46l-35 -45q19 -27 39.5 -52.5
t43 -45.5t48 -33.5t55.5 -16.5q7 -3 15.5 -5.5t14 -6.5t6 -10.5t-6.5 -17.5q-6 -2 -15.5 -3.5t-20 -2l-20.5 -1t-17 -0.5q-48 0 -79 14.5t-52 34.5t-36.5 41.5t-31.5 35.5q-1 -1 -1.5 -2t-1.5 -2q-11 -17 -28 -35.5t-37 -36t-41 -32t-39 -21.5q-39 -16 -88 -16q-32 0 -59 7
q-30 7 -55 23t-42 38.5t-26.5 50.5t-9.5 59v19q0 52 30 92.5t72 67.5q17 11 39.5 21.5t36.5 24.5q-2 3 -11 10q-24 21 -44.5 53.5t-20.5 65.5q0 30 11 56t29.5 45.5t44.5 31t56 11.5z" />
    <glyph glyph-name="quotesingle" unicode="'" horiz-adv-x="156" 
d="M75 728q6 0 13 -0.5t19 -0.5q8 3 11.5 -4.5t1.5 -12.5q-2 -11 -5.5 -39.5t-7 -60t-7.5 -58t-7 -32.5q-2 -5 -7 -7t-10.5 -1.5t-10.5 4t-6 9.5l-6 39t-7.5 54t-6 53.5t-2.5 39.5q-1 9 1.5 13t13.5 4h23z" />
    <glyph glyph-name="parenleft" unicode="(" horiz-adv-x="353" 
d="M317 717q-1 -6 -7 -12q-36 -36 -60 -70q-57 -82 -86.5 -177t-29.5 -195q0 -36 4 -75.5t12.5 -79t21.5 -76.5t31 -68l45 -81t59 -71q7 -9 4 -19.5t-14 -10.5q-9 0 -23 12t-20 18q-91 93 -143.5 201t-52.5 240q0 57 12 115t34.5 113.5t54.5 105.5t72 91q4 5 13 14t19.5 18
t20.5 16t16 8q11 -6 17 -17z" />
    <glyph glyph-name="parenright" unicode=")" horiz-adv-x="353" 
d="M290 263q0 -87 -26.5 -171.5t-71.5 -156.5q-12 -20 -27.5 -41.5t-34 -42.5t-38.5 -39t-40 -30q-18 5 -22 21l64.5 80t54.5 87q34 66 49.5 138.5t15.5 147.5q0 48 -6.5 98.5t-20 99.5t-34.5 95t-49 85t-44 54.5t-24 26.5q-2 4 4.5 12.5t11.5 8.5q3 0 9 -3.5t12 -8.5
l11.5 -9.5t8.5 -7.5q91 -91 144 -202t53 -242z" />
    <glyph glyph-name="asterisk" unicode="*" horiz-adv-x="520" 
d="M490 567q5 -10 1.5 -13.5t-11.5 -6.5q-13 -5 -38 -12l-52.5 -14.5l-52.5 -14t-38 -9.5q-12 -4 -15.5 4.5t2.5 15.5q4 5 27.5 18.5l51.5 29l53.5 29.5t33.5 20q5 2 12 1.5t8 -9.5q5 -10 7 -15t3.5 -8l3 -6t4.5 -10zM255 730q3 0 8 -0.5t16 -0.5q9 2 12 -5t1 -12
q-2 -11 -4.5 -39.5t-5.5 -59.5t-6.5 -57.5t-6.5 -32.5q-4 -10 -13 -10q-8 0 -10 14q-3 13 -7 38.5l-8 53.5t-7 54t-4 40q1 8 3.5 12.5t13.5 4.5h18zM92 324q-8 8 -8 11q0 5 7 12q9 10 28 28l40 36.5l41 35t31 24.5q10 9 17 3.5t3 -16.5q-2 -6 -16.5 -28l-32.5 -48
l-34.5 -49.5l-22.5 -32.5q-2 -5 -9 -8t-12 5q-9 7 -12.5 10l-6 5t-5 4.5t-8.5 7.5zM391 293q-13 -10 -25 4q-7 11 -20 33.5l-27.5 47l-27 47t-18.5 34.5q-6 11 0.5 17t15.5 0q6 -2 25.5 -21l41.5 -42l41.5 -44t26.5 -27q5 -4 6.5 -11t-6.5 -10q-9 -8 -13 -12t-6.5 -6l-5 -4
t-8.5 -6zM29 566q3 7 4.5 10t2.5 6t3 7.5l7 15.5q1 10 8 10q8 0 13 -5q9 -6 34 -19.5l52.5 -29l50.5 -29t27 -18.5q7 -8 3 -16.5t-17 -5.5l-37 9.5t-52.5 14.5l-53 15.5t-37.5 13.5q-8 3 -10.5 7t2.5 14z" />
    <glyph glyph-name="plus" unicode="+" 
d="M239 47q-8 0 -17.5 0.5t-15.5 5.5q2 26 1.5 64t-0.5 100h-159q-11 17 -12 29.5t12 34.5q21 -1 41 -1h40h77v159q17 11 29.5 12t34.5 -12q-1 -21 -1 -42v-40v-78h169q2 -10 2 -15v-14q0 -8 -0.5 -17.5t-5.5 -15.5q-26 2 -64.5 1.5t-101.5 -0.5v-169q-10 -2 -15 -2h-14v0z
" />
    <glyph glyph-name="comma" unicode="," horiz-adv-x="258" 
d="M212 -9q0 -35 -15.5 -66t-40.5 -55q-19 -19 -44.5 -35.5t-45.5 -19.5q-5 -1 -10 5t-4 11q2 7 17.5 16.5t33 24t32 34t14.5 45.5q0 16 -4 24.5t-11.5 13t-17.5 7.5t-22 8q-17 8 -29.5 18.5t-12.5 30.5q0 15 6.5 25.5t17 17t23 9.5t25.5 3q21 0 37.5 -11.5t27.5 -29t17 -38
t6 -38.5z" />
    <glyph glyph-name="hyphen" unicode="-" horiz-adv-x="377" 
d="M47 271q0 5 15 6t29 1h17q57 0 114 -1t114 2q6 0 6 -18v-40q0 -5 -10.5 -6.5t-22.5 -1.5h-226q-12 0 -24 1t-12 4q-1 7 -0.5 17t0.5 36z" />
    <glyph glyph-name="period" unicode="." horiz-adv-x="251" 
d="M177 43q0 -26 -17 -42t-43 -16t-43.5 16.5t-17.5 43.5t18.5 44.5t44.5 17.5q28 0 43 -19t15 -45z" />
    <glyph glyph-name="slash" unicode="/" horiz-adv-x="378" 
d="M351 727q-14 -49 -32 -95.5l-36 -94.5l-107 -282.5t-101 -284.5q-5 0 -17.5 -1t-37.5 1l140 377t135 379q10 3 28 3q8 0 15.5 -0.5t12.5 -1.5z" />
    <glyph glyph-name="zero" unicode="0" horiz-adv-x="578" 
d="M444 213q0 34 -8.5 68.5t-27 62.5t-49 45.5t-73.5 17.5q-38 1 -66 -16t-46 -44t-27 -60.5t-10 -65.5q-1 -35 7 -68t26.5 -59t48 -42t71.5 -17q40 -1 68.5 14.5t47 41t28 57.5t10.5 65zM528 228q0 -51 -17.5 -96.5t-48.5 -79.5t-75 -54t-96 -20q-53 0 -97.5 17t-76.5 48.5
t-49.5 75t-17.5 97.5q0 51 17.5 96t49 78.5t75 53.5t95.5 20q49 0 92.5 -18t76.5 -49.5t52.5 -75t19.5 -93.5z" />
    <glyph glyph-name="one" unicode="1" horiz-adv-x="364" 
d="M330 431q0 -14 -10.5 -17t-24.5 -3q-27 0 -42 -5t-22 -14t-8 -23t-1 -32q0 -57 -1.5 -113t-1.5 -113v-14v14v-24v10q1 -14 4 -29t13 -24q9 -8 24.5 -11t30 -5.5t25.5 -5.5t11 -12q0 -15 -14.5 -16.5t-29.5 -1.5q-28 0 -56 3t-56 3q-15 0 -26 -1t-20.5 -2.5t-20.5 -2.5
t-26 -1h-14q-10 0 -19.5 3.5t-9.5 15.5q0 9 10 12.5t23.5 6t28.5 6t25 12.5q10 8 12.5 28.5t2.5 39.5v21l1 71q0 26 0.5 51t0.5 50v19q0 17 -3 37t-9 28q-11 11 -26 13.5t-29 3.5t-23.5 5t-9.5 18q0 10 9.5 11.5t17.5 1.5h11q29 0 51 -3t51 -3q14 0 29 1.5t29 1.5h87
q6 -6 6 -11z" />
    <glyph glyph-name="two" unicode="2" horiz-adv-x="456" 
d="M46 354q0 4 3.5 11.5t9 15l10.5 14.5t8 10q20 22 37 33.5t32.5 16.5t30 6t29.5 1q72 0 105 -45.5t12 -120.5q-5 -20 -19.5 -45.5t-34 -53t-41.5 -54t-42 -48t-35 -36t-20 -17.5q13 -6 43.5 -8t64 -0.5t62 7.5t36.5 16l21.5 29l22 31l18.5 26.5l10 14.5q8 11 19.5 6.5
t15.5 -13.5q-25 -40 -34.5 -71.5t-12.5 -52.5t-4 -32t-9 -10q-28 2 -70 8.5t-105 8.5q-26 0 -58.5 -0.5t-58.5 -0.5q-4 0 -10.5 -8.5t-10.5 -6.5q-10 0 -15 4t-5 17q0 5 5 10q28 31 56 67t52.5 72t43.5 69.5t30 60.5q21 55 0 87t-72 32q-31 0 -48.5 -8.5t-27.5 -20
t-15.5 -21.5t-11.5 -13t-11.5 1t-5.5 11z" />
    <glyph glyph-name="three" unicode="3" horiz-adv-x="407" 
d="M41 370q-1 13 11.5 29t32.5 30t44.5 24t47.5 10q24 0 46.5 -6t40.5 -19.5t29 -34.5t11 -52q0 -21 -14 -47.5t-33.5 -51t-40.5 -45t-35 -30.5q44 4 79.5 -7.5t60 -35t37.5 -56.5t13 -71q0 -57 -30 -108.5t-76 -90.5t-101.5 -62t-107.5 -24q-6 0 -8.5 3.5t-2 8t3 8t6.5 3.5
q46 13 88 33.5t73.5 49t50 65.5t18.5 83q0 24 -7 48t-20 44.5t-32.5 34.5t-44.5 19q-20 4 -42 6t-43 -9q-7 -3 -19.5 -11.5t-17.5 -8.5q-15 0 -15 17q0 9 13.5 15.5l19.5 9.5q22 12 48.5 31.5t50 44t39 52t15.5 54.5q0 48 -24 71t-56 23t-51.5 -16t-42.5 -42q-4 -4 -9 0.5
t-6 10.5z" />
    <glyph glyph-name="four" unicode="4" horiz-adv-x="578" 
d="M566 23q0 -21 -21 -21q-12 0 -24 1t-25 1h-19q-18 0 -33 0.5t-25.5 -1t-16.5 -6.5t-6 -16v-199q0 -8 -0.5 -15.5t2.5 -15.5q-2 -16 -17 -22.5t-32 -6.5q-14 0 -25 4t-11 10q2 17 2.5 44t0.5 55v91q0 7 0.5 16t0.5 18q0 21 -7 30.5t-17.5 12.5t-23 2t-23.5 -1
q-57 0 -112 -4t-112 -4q-8 0 -12 8.5t2 16.5l31 45l41.5 58l47 64.5l47 64l42 56.5l32.5 42q14 18 20 28t10.5 18.5l10 18.5t18.5 29q7 10 20.5 14t27.5 4t24 -5t9 -13q0 -3 1 -13t1 -45v-317q0 -14 21 -14h48q21 0 40 0.5t28 0.5q14 0 24 -10t10 -24zM95 67q0 -8 7 -10.5
t13 -2.5q10 0 36 1t55 1.5t53 1.5t30 1q20 0 24 5.5t4 18.5v57q0 34 -0.5 73t-0.5 79v75l-89 -115t-105 -140q-6 -9 -16.5 -21.5t-10.5 -23.5z" />
    <glyph glyph-name="five" unicode="5" horiz-adv-x="487" 
d="M418 537q3 -3 2 -12t-4.5 -22.5t-8.5 -31t-9 -37.5l-6.5 -21t-10 -20.5t-17 -15.5t-26.5 -6h-42h-59t-56 -1.5t-30 -4.5q-8 0 -16 -20t-15.5 -45.5t-14 -50t-12.5 -34.5q15 7 33 18t41.5 20.5t52.5 15t65 0.5q44 -7 76.5 -27.5t53 -50.5t28.5 -68.5t3 -81.5
q-8 -67 -46 -123t-92 -96q-20 -15 -29 -15t-21 16q-3 3 9.5 15t30.5 34t36 55.5t25 81.5q5 38 3.5 67.5t-12.5 52t-32.5 40t-56.5 31.5q-13 5 -35 3.5t-46 -7t-46 -14t-34 -16.5q-8 -3 -12.5 -10t-10 -13t-14.5 -8.5t-24 3.5q-9 7 -9 17q0 17 9.5 32t12.5 23l16.5 47
t18.5 59t16 61t9 52q1 5 3 9.5t9 4.5q10 1 30.5 0.5t49 -1t63.5 0t75 3.5l51 92q5 7 12.5 4z" />
    <glyph glyph-name="six" unicode="6" horiz-adv-x="572" 
d="M515 229q0 -47 -16 -90.5t-44.5 -77.5t-68.5 -54t-89 -20q-48 0 -96 20q-39 17 -66.5 43.5t-45 60t-26 72t-8.5 78.5q0 79 25.5 150.5t70.5 132.5t105 109.5t129 80.5q11 5 25.5 11t25.5 7q5 -3 10.5 -8t5.5 -12q0 -5 -7.5 -11t-17 -11t-19.5 -9.5t-14 -6.5
q-17 -10 -32.5 -21.5t-30.5 -24.5q-66 -57 -108.5 -131.5t-60.5 -159.5q12 12 29.5 25t38.5 24t45.5 18t51.5 7q43 0 78 -15.5t59.5 -42.5t37.5 -64t13 -80zM288 386q-21 0 -41 -8.5t-37.5 -20.5t-32 -25.5t-23.5 -24.5l-3.5 -34t-1.5 -34q0 -35 6.5 -73.5t22.5 -71.5
t44 -54.5t71 -21.5q37 0 62.5 18t41.5 46t23 61.5t7 64.5q0 33 -8 65t-24.5 57t-43 40.5t-63.5 15.5z" />
    <glyph glyph-name="seven" unicode="7" horiz-adv-x="483" 
d="M463 429q0 -3 -5.5 -16.5t-14.5 -32.5l-19 -41.5l-20 -43l-17.5 -36.5l-10.5 -22l-119 -260t-131 -254q-3 -5 -11 -4.5t-16 4.5t-13 10t-3 11l95 194l95 194l46.5 100t43.5 100l2 10t1 10q0 10 -9.5 11.5t-16.5 1.5h-304q-9 0 -16.5 2.5t-4.5 10.5q9 24 16 49.5l13 46.5
t11.5 34.5t10.5 13.5t13.5 -2t8.5 -10q-1 -19 -0.5 -34.5t-0.5 -32.5l39 -1h80h40q21 0 41 1q32 1 64.5 2.5t64.5 1.5h13q11 0 22.5 -3.5t11.5 -14.5z" />
    <glyph glyph-name="eight" unicode="8" horiz-adv-x="496" 
d="M453 182q1 -41 -14 -76.5t-41.5 -62t-62.5 -41.5t-76 -15q-39 0 -76.5 8.5t-67 27.5t-48 50.5t-19.5 77.5q-1 31 9 57t28 48t41 39.5t48 31.5l21 12q-5 5 -10 8.5t-10 7.5q-23 15 -45.5 32t-40 37.5t-29 44.5t-12.5 54q-1 43 15.5 77.5t44.5 59t65 37.5t77 13
q36 0 71 -10.5t62.5 -30.5t45 -50.5t18.5 -69.5q1 -36 -11 -62.5t-32.5 -46t-47.5 -35t-55 -29.5q6 -5 13 -9l14 -8q23 -14 45.5 -32.5t40 -41t28.5 -48.5t11 -55zM372 147q-1 35 -13.5 63t-32.5 49t-46.5 37t-55.5 27q-49 -19 -76 -62t-25 -95q1 -29 7.5 -55.5t20 -47
t35 -33t52.5 -12.5q20 0 37 2t36 11q35 17 49 47.5t12 68.5zM372 544q-1 28 -10.5 53.5t-26 44t-40.5 29.5t-54 11q-53 0 -85.5 -35.5t-32.5 -88.5q1 -38 25 -73q8 -11 23 -25.5t32.5 -28.5t35 -24.5t31.5 -13.5q24 7 43 23t32 36.5t20 44.5t7 47z" />
    <glyph glyph-name="nine" unicode="9" horiz-adv-x="572" 
d="M282 45q21 0 41 8.5t37.5 20.5t32 25.5t23.5 24.5l3.5 34t1.5 34q0 34 -6.5 73t-22.5 72t-44 54.5t-71 21.5q-37 0 -62.5 -18t-41.5 -46t-23 -61.5t-7 -64.5q0 -33 8 -65t24.5 -57t43 -40.5t63.5 -15.5zM55 202q0 47 16 90.5t44.5 77.5t68.5 54t89 20q48 0 96 -20
q39 -17 66.5 -43.5t45 -60t26 -72t8.5 -78.5q0 -79 -22.5 -147.5t-60 -123.5t-87.5 -95.5t-104 -62.5q-11 -5 -25.5 -11t-25.5 -7q-5 3 -10.5 8t-5.5 12q0 3 12 11t28 17.5l32 19t24 16.5q60 52 90 117.5t48 149.5q-12 -12 -29.5 -25t-38.5 -24t-45.5 -18t-51.5 -7
q-44 0 -78.5 15.5t-59 42.5t-37.5 64t-13 80z" />
    <glyph glyph-name="colon" unicode=":" horiz-adv-x="257" 
d="M183 396q0 -27 -19.5 -46t-46.5 -19q-4 0 -5 1q-11 1 -21 7.5t-17.5 16t-12 21t-4.5 22.5q0 23 18 42t41 19q26 0 46.5 -19t20.5 -45zM183 50q0 -26 -19 -47t-46 -21q-13 0 -24.5 6t-19.5 15.5t-13 21.5t-5 25q0 26 18.5 43.5t44.5 17.5q24 0 44 -18t20 -43z" />
    <glyph glyph-name="semicolon" unicode=";" horiz-adv-x="258" 
d="M191 396q0 -27 -18.5 -46t-45.5 -19q-3 0 -4 1q-25 2 -38.5 21t-13.5 42q0 28 16.5 45.5t44.5 17.5q24 0 41.5 -19.5t17.5 -42.5zM212 -12q0 -37 -14.5 -66.5t-41.5 -53.5q-5 -4 -17 -12.5l-25.5 -17.5t-26 -15.5t-18.5 -6.5q-7 0 -8 7q-5 2 -5 9q0 1 3.5 4.5t7.5 7
t8 6.5t6 4q15 10 27.5 20t21.5 21.5t14 26t5 34.5q0 18 -7.5 26.5t-19 13t-24.5 7.5t-24 10q-23 14 -23 38q0 27 23 42t47 15t41 -11t28.5 -28.5t16.5 -38.5t5 -42z" />
    <glyph glyph-name="less" unicode="&#x3c;" horiz-adv-x="458" 
d="M133 225l82 -63l65 -48l63.5 -44.5l77.5 -53.5q0 -9 -1.5 -13t-3.5 -7.5t-3.5 -7.5t-1.5 -13q-58 30 -98.5 53.5l-79 47.5l-81 51.5l-103.5 65.5v62l73.5 43.5l57.5 37l49.5 34l49 33l56 35t71.5 40.5q0 -9 1 -13t2 -7t2 -6.5t1 -12.5l-81.5 -61l-67 -52l-62.5 -49z" />
    <glyph glyph-name="equal" unicode="=" horiz-adv-x="512" 
d="M452 332q0 -8 -0.5 -17.5t-5.5 -15.5q-11 1 -24 1h-27h-75q-45 0 -108.5 -0.5t-151.5 -0.5q-11 17 -12 29.5t12 34.5q92 0 175.5 -1t144.5 -1h70q2 -10 2 -15v-14v0zM56 203q21 0 48 0.5t72 0.5h271q13 -18 10.5 -32.5t-10.5 -31.5q-21 -1 -45 -1h-52h-109
q-54 0 -103.5 0.5t-82.5 1.5q0 9 -2.5 16t-2.5 16q0 6 2.5 15t3.5 15z" />
    <glyph glyph-name="greater" unicode="&#x3e;" horiz-adv-x="458" 
d="M335 225l-68.5 52l-62 48.5l-67 52l-81.5 61.5q0 9 1 12.5t2 6.5t2 7t1 13q61 -33 101 -58.5l75.5 -50l76.5 -51.5t104 -63v-62l-73 -45.5l-59.5 -38l-52.5 -33l-51.5 -31.5l-57 -33l-68.5 -37q0 9 -1.5 13t-3.5 7.5t-3.5 7.5t-1.5 13l78 55l64 46.5l65 48z" />
    <glyph glyph-name="question" unicode="?" horiz-adv-x="359" 
d="M170 39q0 -25 -19.5 -42t-44.5 -12q-23 2 -35.5 19t-12.5 39q0 25 15 41.5t41 16.5q25 0 40.5 -19.5t15.5 -42.5zM320 468q0 -38 -13 -64t-32.5 -44.5t-43 -31.5l-45 -24.5t-37.5 -24t-21 -30.5q-4 -3 -4 -16v-26q0 -13 -3.5 -24.5t-14.5 -12.5q-13 3 -14 16
q-1 4 -1.5 8.5t-0.5 10.5v26q0 14 0.5 26t0.5 20q0 19 -1 32.5t-0.5 23.5t3 16.5t9.5 11.5q27 11 55 24.5t51.5 32t38 43.5t14.5 60q0 24 -8.5 47t-23.5 41.5t-36 30t-46 11.5q-17 0 -34 -6t-34 -6t-29.5 10.5t-12.5 27.5q0 15 6 24t16 14.5t22 7t24 1.5q42 0 81 -25.5
t69 -63.5t47.5 -83t17.5 -84z" />
    <glyph glyph-name="at" unicode="@" horiz-adv-x="877" 
d="M500 91q6 7 14.5 20t11.5 24l2 35v28q0 8 -0.5 15t-1.5 12q-9 -2 -21 -5.5t-24.5 -8l-24 -9t-20.5 -7.5q-27 -10 -49.5 -29t-22.5 -50q0 -28 13 -44.5t45 -16.5q21 0 42.5 10.5t35.5 25.5zM522 79q-11 -15 -27.5 -29t-36.5 -25.5t-41.5 -18t-41.5 -6.5q-51 0 -71.5 28
t-20.5 73q0 22 11.5 40.5t29 33.5t38 26t38.5 18q35 13 63.5 22.5t64.5 18.5v73q0 42 -15.5 68t-60.5 26q-30 0 -48 -9.5t-28.5 -22.5t-14.5 -26l-6 -20q-5 -16 -21 -27.5t-35 -11.5q-11 0 -13 9.5t-2 17.5q0 24 20 48.5t49 45t63 33.5t62 13q7 0 17.5 -1.5t21.5 -3.5t21 -5
t16 -6q33 -17 41 -44.5t8 -61.5q0 -42 -1 -83.5t-1 -83.5v-29q0 -23 1.5 -46.5t6.5 -31.5q4 -7 12 -9.5t16 -2.5q30 0 53.5 24t40 58t25 70t8.5 60q0 63 -24.5 116t-66.5 91t-97 59t-116 21q-74 0 -133.5 -28.5t-101.5 -76.5t-64.5 -112t-22.5 -134q0 -69 22 -126t62 -102
q46 -49 107.5 -76t136.5 -27q28 0 61.5 5.5t66 17t61.5 28t48 38.5l22.5 -6t22.5 -5q-58 -63 -131 -95.5t-158 -32.5q-62 0 -120 17.5t-107.5 50.5t-88 79.5t-60.5 105.5q-13 34 -18 70t-5 72q0 78 32.5 149.5t89.5 125.5t128.5 80.5t149.5 26.5q49 0 98.5 -12.5t93 -37.5
t79 -61t56.5 -83q14 -31 22 -63.5t8 -66.5q0 -44 -13.5 -89.5t-38 -85t-60.5 -68t-81 -37.5q-5 -1 -11 -1.5t-11 -0.5q-33 0 -52 21t-27 51h-1z" />
    <glyph glyph-name="A" unicode="A" horiz-adv-x="778" 
d="M10 11q0 13 8 17t19.5 6t24 6t21.5 18q3 4 9 17.5l12.5 28.5t12 29.5t8.5 21.5l42.5 106.5l43.5 106.5l74 181l74 181q2 6 4.5 9.5t10.5 3.5q7 0 11 -5.5t6 -10.5l47 -116l47 -116q42 -109 88 -216t97 -213q9 -19 25.5 -25t32.5 -9t28 -6.5t12 -16.5q0 -9 -10.5 -12.5
t-20.5 -3.5h-11q-24 0 -48 3t-48 3q-35 0 -69.5 -3t-69.5 -3q-9 0 -16 6t-7 15q0 11 14 13t31.5 3t31.5 5t14 21q0 3 -1 6.5t-2 6.5q-3 10 -11 30.5l-19 48.5l-25 62l-29 70q-5 10 -8.5 18t-5.5 10q-8 8 -24 9.5t-33 1.5h-19q-12 0 -31.5 0.5t-40.5 0.5q-20 0 -39.5 -1
t-32.5 -4q-18 -42 -33.5 -83.5t-26.5 -75.5t-17.5 -57t-6.5 -28q0 -21 16 -27t35.5 -8t35.5 -5.5t16 -18.5q0 -8 -6 -13.5t-14 -5.5q-32 0 -65 3.5t-65 3.5q-23 0 -41.5 -2.5t-41.5 -2.5q-7 0 -10.5 5t-3.5 11zM357 600l-24 -55.5l-20 -48.5l-23 -56l-33 -79h27
q17 0 51.5 0.5t97.5 0.5q0 1 3.5 1.5t5.5 1.5l-27 74.5l-26 74l-20.5 58.5t-11.5 28z" />
    <glyph glyph-name="B" unicode="B" horiz-adv-x="689" 
d="M489 557q0 67 -41.5 102t-105.5 35h-14q-11 0 -24 -0.5t-25.5 -4t-21.5 -10.5t-11 -20q-2 -11 -2.5 -22.5t-0.5 -22.5v-191q0 -5 8 -11t25 -6h34q36 0 68.5 8t57 26t39 47t14.5 70zM536 201q0 47 -22 84q-18 31 -43.5 48.5t-55.5 26.5t-62.5 11t-64.5 2h-17
q-11 0 -20.5 -5t-9.5 -20v-204q0 -23 3.5 -48t22.5 -42q16 -14 42 -17t46 -3q92 0 136.5 46.5t44.5 120.5zM641 211q0 -56 -20.5 -96.5t-55 -67t-80.5 -39.5t-98 -14q-5 -1 -9 -1h-9h-295q-11 0 -25 2.5t-14 17.5q0 10 15.5 12.5l34.5 5.5t36 10t20 24q1 2 2 32t1.5 77.5
t1.5 107t1.5 121.5t0.5 121v104q0 19 -4 30.5t-12 17.5t-20.5 8.5t-29.5 4.5q-3 0 -9.5 1t-12.5 3t-11 5t-5 7q0 10 12 14t29.5 5t36 0t30.5 -1q45 0 89.5 4t90.5 4q41 0 85.5 -9t82 -29.5t61.5 -54.5t24 -83q0 -57 -35 -93.5t-86 -53.5q5 -4 20 -8.5t23 -7.5q60 -23 97 -69
t37 -112z" />
    <glyph glyph-name="C" unicode="C" horiz-adv-x="727" 
d="M666 758q7 0 9 -10t2 -24t-1.5 -29t-1.5 -26q0 -26 -1 -52t-3 -52q-2 -9 -5 -12t-7 -3t-7.5 1t-6.5 1q-6 0 -10 9t-7 21.5l-6.5 26t-9.5 23.5q-32 35 -78.5 53.5t-95.5 18.5q-69 0 -118 -27t-80 -72t-45.5 -104.5t-14.5 -123.5q0 -69 14.5 -134t46.5 -115.5t83 -81.5
t124 -31q24 0 50 5.5t50.5 16t46 25.5t37.5 35q5 7 11.5 19l13.5 24t13 21t11 9q11 0 15.5 -4t4.5 -15q0 -8 -2.5 -26t-6.5 -37.5t-9 -35.5t-10 -21q-17 -15 -45 -25.5t-60 -17.5t-65.5 -10t-60.5 -3q-88 0 -158.5 32.5t-120 87.5t-76 128t-26.5 153q0 87 27.5 154.5t76 114
t116.5 70.5t149 24q34 0 67.5 -4t67.5 -11q8 -2 18.5 -5.5t21.5 -6.5q7 -6 12 0.5t11 16.5t15 19.5t24 9.5z" />
    <glyph glyph-name="D" unicode="D" horiz-adv-x="833" 
d="M659 359q0 121 -61.5 206.5t-179.5 120.5q-21 6 -43 10.5t-45 4.5h-28q1 0 -5.5 -0.5t-15.5 -3.5t-18.5 -9.5t-14.5 -18.5q-3 -10 -4 -19.5t-1 -19.5q0 -26 0.5 -53t0.5 -53q0 -88 -1 -174.5t-1 -174.5q0 -44 5.5 -73t18 -46t31.5 -24t46 -7q70 0 128.5 26t100 71.5
t64.5 106.5t23 130zM773 352q0 -86 -36 -153t-95 -113t-135 -70t-155 -24q-24 0 -39.5 1t-29.5 2t-29.5 2t-39.5 1q-42 0 -80.5 -2.5t-80.5 -2.5q-9 0 -9 9q0 10 5.5 15t13 8t16 4t15.5 3q32 7 39.5 21.5t9.5 44.5q1 10 1.5 23t1 35.5t1 58.5t0.5 94v233q0 16 -0.5 35
t-1.5 36.5t-2.5 31t-3.5 18.5q-7 15 -21.5 18.5t-29.5 3.5q-8 0 -16 -0.5t-16 -0.5q-9 0 -17 5q-5 4 -3.5 12t5.5 12t24 7.5t48.5 6t61 4t63 2.5t54.5 1.5t34 0.5q100 0 182.5 -26t141.5 -75.5t91 -120.5t32 -161z" />
    <glyph glyph-name="E" unicode="E" horiz-adv-x="671" 
d="M561 568q-10 0 -16 12.5t-12 29.5t-13.5 33.5t-21.5 24.5q-9 5 -26 8.5t-38 5.5t-43.5 2.5t-42.5 0.5h-44q-23 0 -35 -9.5t-17.5 -24.5t-6.5 -33.5t-1 -35.5q0 -34 0.5 -68t0.5 -68v-23q0 -13 2 -21q4 -5 12 -7t17.5 -2.5t18.5 0t15 0.5q27 0 55 0.5t55 4.5q30 5 43 25
t15 49q3 6 6.5 11.5t11.5 5.5q11 0 12 -10t1 -21q0 -21 -1 -42t-1 -42t1 -41.5t1 -41.5q0 -5 0.5 -12.5t-0.5 -14.5t-4.5 -11.5t-10.5 -4.5t-11 9t-6.5 20.5t-4.5 23t-5 16.5q-4 19 -20.5 28.5t-39 13t-47 3t-43.5 -0.5q-5 0 -13 -0.5t-17 -1t-17.5 -1.5t-12.5 -2
q-6 -1 -8 -9t-3 -18t-0.5 -20t0.5 -14v-158q0 -11 0.5 -24.5t3 -27t8 -25t16.5 -17.5q8 -4 28 -6.5t42.5 -3.5t43.5 -1.5t30 -0.5h31q13 0 29 1t30.5 2.5t27 4.5t20.5 8q14 9 26 28t22.5 38t20 33.5t17.5 14.5q12 0 13.5 -8t-2.5 -16q0 -1 -2 -10t-3 -11q-1 -3 -5 -20.5
l-8.5 -37l-8 -35.5l-3.5 -16q-8 -12 -25 -12h-472q-14 0 -28.5 -1t-29.5 -1q-11 0 -22 1t-11 16q0 8 12.5 12t30 8t34.5 10.5t26 19.5q8 12 11 39t3 59q0 33 -1 66.5t-1 58.5q0 81 -1 161t-1 161v18v9t-1 9q-2 26 -18.5 34.5t-36 11t-35 5t-15.5 15.5q0 9 8.5 12.5t20 5
t24.5 1t22 -0.5q34 0 68 -1.5t69 -1.5q69 0 135.5 1.5t135.5 1.5h11q11 0 22 -2t13 -10q4 -20 4 -37q0 -9 -0.5 -21.5t-0.5 -30.5q0 -20 -2.5 -37.5t-10.5 -18.5z" />
    <glyph glyph-name="F" unicode="F" horiz-adv-x="608" 
d="M40 703q0 6 2 10t9.5 6.5t22 3t40.5 0.5q24 0 45.5 -0.5t29.5 -0.5h155q46 0 91 0.5t91 0.5h22q8 0 14 -0.5t8 -0.5q5 -1 7 -16.5t2.5 -35t0 -38.5t-0.5 -27v-13t-1 -13t-4 -10t-9 -4q-15 0 -19 14t-7.5 32.5t-12 37t-30.5 26.5q-10 4 -28 6t-37.5 3.5t-38 2t-29.5 0.5
h-22q-20 0 -43.5 -3t-33.5 -9q-18 -12 -20.5 -29.5t-2.5 -37.5q0 -45 0.5 -90t0.5 -90q0 -16 4.5 -23.5t12 -10t17 -2t20.5 0.5h36q17 0 36 0.5t36.5 3t31 6.5t20.5 11q10 10 14.5 24t7.5 26t8 20.5t17 8.5q7 0 8.5 -9t1.5 -14q0 -22 -1 -43t-1 -43t1.5 -43t1.5 -43
q0 -6 0.5 -13.5t-1 -15t-5 -12.5t-10.5 -5q-10 0 -14 14l-9 31.5t-15 34.5t-32 23q-14 5 -42 6.5t-51 1.5h-27q-7 0 -18 0.5t-21.5 -1t-18 -6.5t-7.5 -15q0 -45 -1 -89t-1 -89v-21v-23q0 -12 1 -23.5t1.5 -20.5t2.5 -12q9 -19 28.5 -25t39.5 -8t35 -5.5t15 -17.5
q0 -9 -9.5 -12.5t-19.5 -3.5h-10q-37 0 -74 3.5t-74 3.5q-29 0 -56.5 -3.5t-55.5 -3.5q-8 0 -19 1.5t-11 12.5q0 8 9 12.5t21 6.5t24.5 3.5t18.5 3.5q22 4 30 24q3 6 5 22t3 36.5t1.5 42t0.5 39.5v37q0 100 -1.5 197t-1.5 197q0 24 -8 36.5t-19.5 18t-25 6.5t-25 1.5
t-19.5 3t-8 11.5z" />
    <glyph glyph-name="G" unicode="G" horiz-adv-x="806" 
d="M668 739q7 0 9 -10t2 -24t-1.5 -29t-1.5 -26q0 -26 -1 -52t-3 -52q-2 -9 -5 -12t-7 -3t-7.5 1t-6.5 1q-6 0 -10.5 8t-8 20t-6.5 25.5t-7 24.5q-9 21 -28 38t-44 29t-53 18.5t-55 6.5q-74 0 -122.5 -28.5t-77.5 -75.5t-41 -107.5t-12 -123.5q0 -66 13 -126.5t42 -107
t74.5 -74t110.5 -27.5q66 0 102.5 11.5t53.5 33t20 53t3 72.5q0 55 -2 86t-10 46.5t-24 19t-44 3.5q-13 0 -23.5 2t-10.5 19q0 7 5.5 10.5t13 5t15 2t12.5 0.5q30 0 50.5 -2t50.5 -2q33 0 57.5 2.5t57.5 2.5q11 0 23.5 -2t12.5 -16q0 -10 -8.5 -12.5t-21.5 -3t-27 -2.5
t-25 -11q-4 -2 -7 -10t-4.5 -19.5t-2.5 -24.5t-1 -24v-20q0 -13 0.5 -35l1 -45.5l1 -45.5t0.5 -35q0 -7 -0.5 -17t-5.5 -15q-18 -23 -53.5 -35.5t-76 -19t-79 -8t-61.5 -1.5q-78 0 -143.5 21.5t-112 65.5t-72.5 111t-26 157q0 91 27.5 163t77.5 122.5t120 77t156 26.5
q43 0 90.5 -12t82.5 -35q7 -5 13 1.5t12 16.5t13 19t16 9z" />
    <glyph glyph-name="H" unicode="H" horiz-adv-x="865" 
d="M830 698q-3 -6 -15.5 -7.5t-28 -2.5t-30 -4t-21.5 -12q-8 -9 -10.5 -24t-2.5 -32v-17q0 -126 -1 -249.5t-1 -249.5q0 -25 8 -38.5t20 -20t26 -8.5t26 -4t20 -6t8 -15q0 -15 -10.5 -16t-22.5 -1q-33 0 -66.5 3t-66.5 3q-32 0 -64.5 -3t-64.5 -3q-21 0 -21 16q0 15 10.5 18
t25.5 3t31.5 2.5t27.5 16.5t14 35t3 38v182q0 15 -6 21.5t-15 8.5t-19.5 1.5t-19.5 -0.5h-244q-12 0 -26 0.5t-25.5 -2t-19 -9t-7.5 -21.5v-196q0 -20 0.5 -23.5t0.5 -6.5q3 -27 20 -35.5t36 -10.5l34.5 -3.5t15.5 -15.5q0 -15 -10.5 -16.5t-23.5 -1.5q-26 0 -53 2.5
t-53 2.5h-39q-27 0 -53 -3t-52 -3q-8 0 -19 1t-11 12q0 15 15.5 18.5t34.5 6.5t36.5 12.5t21.5 36.5q3 22 3.5 45t0.5 45v439q0 30 -7.5 46t-19.5 23.5t-25 9.5t-25 3.5t-19.5 5t-7.5 15.5q0 9 9.5 11.5t19.5 2.5h11q26 0 51 -1.5t51 -1.5q36 0 72.5 1t72.5 1q6 0 12 -3
t6 -10q0 -20 -16 -22.5t-36 -2.5q-10 0 -19 -2t-16.5 -7.5t-12 -16t-4.5 -27.5q0 -14 -0.5 -28t-0.5 -28v-170q0 -28 26 -28q42 0 74.5 -0.5t63.5 -0.5t63.5 -0.5t74.5 -0.5q10 0 22.5 -0.5t24.5 0t20.5 3t10.5 8.5q1 3 1.5 18.5t0.5 37.5q0 23 0.5 48.5t0.5 48.5v65
q0 7 -0.5 16.5t-2 19t-4.5 18t-9 13.5q-6 4 -15 6.5t-19 3.5t-18 2.5t-11 4.5q-10 0 -16.5 2t-6.5 14q0 8 4 11.5t11 5t14.5 1t15.5 -0.5q26 0 51 -2.5t50 -2.5q31 0 62 2t62 2q23 0 29.5 -4t6.5 -19z" />
    <glyph glyph-name="I" unicode="I" horiz-adv-x="380" 
d="M345 706q0 -14 -10.5 -17t-24.5 -3q-27 0 -42 -4t-22 -13t-8 -22t-1 -31q0 -63 -1.5 -125t-1.5 -125v-255q0 -16 2.5 -36t14.5 -31q9 -8 24.5 -11t30 -5.5t25.5 -5.5t11 -12q0 -15 -14.5 -16.5t-29.5 -1.5q-28 0 -56 3t-56 3q-30 0 -54 -3.5t-54 -3.5h-14
q-10 0 -19.5 3.5t-9.5 15.5q0 9 10 12.5t23.5 6t28.5 6t25 12.5q10 8 12.5 28.5t2.5 39.5v21l1 350q0 26 0.5 51t0.5 50v19q0 17 -3 37t-9 28q-11 11 -26 13.5t-29 3.5t-23.5 5t-9.5 18q0 10 9.5 11.5t17.5 1.5h11q29 0 58.5 -3t58.5 -3q14 0 29 1.5t29 1.5h87q2 -2 4 -7
t2 -8z" />
    <glyph glyph-name="J" unicode="J" horiz-adv-x="357" 
d="M335 704q0 -5 -5.5 -9.5t-25.5 -6.5q-42 1 -57 -17t-15 -60q0 -11 0.5 -21.5t0.5 -21.5q0 -115 -0.5 -227.5t-0.5 -227.5q0 -56 -9.5 -114.5t-33 -109t-64.5 -87.5t-104 -51q-6 -1 -9.5 4t-3.5 12t3 13.5t10 7.5q28 3 47 24t31.5 52t19 68t9.5 73t4 66t2 47q1 60 1.5 120
t0.5 120v244q0 23 -3 47q-2 23 -19.5 29t-38 7t-37.5 3.5t-17 18.5q0 8 6.5 12t13.5 4q46 0 91.5 -3t91.5 -3q22 0 44 2.5t44 2.5q8 0 15.5 -4t7.5 -14z" />
    <glyph glyph-name="K" unicode="K" horiz-adv-x="800" 
d="M220 718q23 0 45 2.5t45 2.5h9q8 0 17 -3t9 -9q-2 -4 -3 -9.5t-3 -8.5q-5 -8 -20.5 -6.5t-32 -0.5t-29 -14t-12.5 -48v-53q0 -24 0.5 -46.5t0.5 -46.5v-53q0 -2 -1.5 -8.5t0.5 -7.5q11 0 22 6t21 14t18 16l13 13q7 7 25.5 24l41.5 38.5l48.5 45.5l46.5 45.5t34.5 37.5
t13.5 22q0 10 -14 12t-30.5 2.5t-30.5 2.5t-14 12v8q5 13 20 13.5t29 0.5q27 0 54.5 -1.5t55.5 -1.5q25 0 49.5 1.5t49.5 1.5q8 0 15 -4t7 -13q0 -11 -11 -15t-27 -6t-33.5 -4.5t-30.5 -9.5q-8 -4 -30.5 -22l-51.5 -42.5l-61 -53l-59 -53.5l-45.5 -43t-20.5 -23
q2 -5 19.5 -25l42 -47.5l53.5 -59l55 -59.5l46 -49.5t27 -28.5l35 -40.5t37.5 -40.5t41 -33.5t46.5 -20.5q13 -2 25 -5.5t11 -19.5q-1 -8 -10.5 -9.5t-15.5 -1.5q-32 0 -63 2.5t-63 2.5q-38 0 -77 -2.5t-77 -2.5q-10 0 -16 2.5t-6 14.5q0 10 10.5 15t24.5 7t27 1.5t18 -0.5
q8 0 15.5 3t-0.5 15q-1 2 -6 8.5l-11 14.5l-11.5 15t-7.5 10l-30.5 36l-43.5 51l-50 57l-50.5 54.5t-44.5 44t-32 24.5q-11 1 -16.5 3t-7.5 -6q-1 -5 -1.5 -17.5t-0.5 -26.5v-45q0 -37 -0.5 -73t-0.5 -73q0 -15 1.5 -33t7 -33t17.5 -24t33 -7q4 -3 12.5 -2.5t17.5 0t15.5 -3
t6.5 -11.5q0 -11 -9 -15.5t-19 -4.5h-13q-21 0 -41.5 2.5t-41.5 2.5q-42 0 -81 -3t-81 -3q-9 0 -20.5 2t-11.5 13q0 12 10 16.5t23.5 6t27.5 2t22 4.5q9 4 14.5 13.5t8.5 20.5t4 22.5t1 20.5q0 100 1.5 198.5t1.5 198.5v122q0 16 -4.5 32.5t-23.5 19.5q-10 2 -22.5 1.5
t-24 1t-19 6.5t-7.5 17q0 8 9.5 10.5t18.5 2.5h11q26 0 51 -3t51 -3h31z" />
    <glyph glyph-name="L" unicode="L" horiz-adv-x="627" 
d="M207 717q37 0 70.5 2t75.5 2q9 -8 9 -16q0 -12 -11.5 -15.5t-27.5 -5l-32 -3t-26 -9.5q-7 -6 -10.5 -16t-5 -21t-2 -22t-0.5 -19q0 -91 -1 -178.5t-1 -178.5v-38q0 -18 0.5 -39.5t2.5 -41t6 -35t11 -21.5q25 -19 57.5 -23t63.5 0.5t56 13.5t34 15q16 9 33.5 31.5t32.5 47
l26 44t14 22.5q9 7 20 4.5t15 -11.5q-25 -40 -39 -79.5t-22 -71t-13.5 -51t-12.5 -19.5q-66 0 -136 9t-136 9q-33 0 -57.5 -2l-47 -4l-47 -4t-57.5 -2q-6 0 -10 5t-4 11q0 14 10 17.5t25 4.5t32 3.5t31 15.5q12 12 16 44t4 70q0 39 -2 78.5t-2 67.5v292q0 25 -4 45
q-4 22 -21.5 29.5t-37 10t-35 5t-15.5 16.5t11.5 16t22.5 2q35 0 68.5 -3.5t68.5 -3.5z" />
    <glyph glyph-name="M" unicode="M" horiz-adv-x="1001" 
d="M959 699q0 -8 -8 -12.5t-19 -6.5t-22 -2.5t-17 -0.5q-20 0 -31 -7.5t-16 -19.5t-6 -28t-1 -32v-25q2 -114 7 -222t11 -226q1 -18 4 -40t20 -33q5 -3 17 -6.5t26 -7l27 -7t21 -7.5q6 -3 6 -11q0 -10 -9.5 -11.5t-19.5 -1.5h-10q-29 0 -58.5 3.5t-58.5 3.5
q-32 0 -64.5 -3.5t-64.5 -3.5q-7 0 -19.5 2t-12.5 12q0 9 8 13.5t14 8.5q27 0 43.5 5t24.5 16t10.5 28.5t2.5 43.5l-13 333q-1 26 -1.5 47t-0.5 35q0 30 -8 35q-4 -3 -8.5 -10.5t-8.5 -16.5l-7.5 -17.5t-5.5 -12.5l-90.5 -201t-87.5 -202q-5 -12 -12 -31.5t-15.5 -37.5
t-16.5 -31.5t-14 -13.5q-11 0 -17 14t-8 22q-33 94 -69.5 185t-78.5 181q-4 9 -15.5 37l-25 59t-25.5 55t-17 24q-2 0 -3.5 -29.5t-3 -76.5t-2.5 -104.5t-1.5 -112.5t-1 -102t-0.5 -72q0 -17 8.5 -26t21 -14t27.5 -7t27.5 -4t21 -6.5t8.5 -14.5q0 -11 -12.5 -12t-19.5 -1
q-26 0 -51.5 2t-51.5 2q-32 0 -63.5 -2t-63.5 -2q-6 0 -17.5 2.5t-11.5 10.5q0 16 14 19.5t32 6t36 8t26 25.5q6 15 9 33t5 35q11 118 20 238t9 238q0 35 -16 52t-53 24l-15 3t-20.5 4.5t-18.5 6.5t-8 10q0 11 11 12.5t19 1.5q17 0 32.5 -2t32.5 -2q26 0 50.5 2t50.5 2
q8 0 13 -0.5t10 -7.5q19 -26 30 -58.5t24 -62.5l60.5 -139l60.5 -141l16 -40l18 -44.5t16.5 -36.5t12.5 -15t9 8t7 15q57 118 107 238.5t107 238.5q12 26 19 33.5t18 7.5h21q18 0 26.5 -1t23.5 -1q22 0 43 1t43 1q7 0 18 -3.5t10 -15.5z" />
    <glyph glyph-name="N" unicode="N" horiz-adv-x="901" 
d="M186 -4q-33 0 -66 -2t-67 -2q-8 0 -18.5 3t-10.5 14q0 9 7.5 13t18.5 5.5t23 2t20 1.5q17 3 26.5 12t14 22t5.5 28t1 29l4 236.5t2 236.5q0 16 -1.5 30.5t-8.5 25.5t-20 19t-36 12q-6 1 -17 1.5t-22 2.5t-19 6t-8 12q0 9 10.5 14t17.5 5q22 0 43 -1t43 -1q17 0 32.5 1
t32.5 1q18 0 27.5 -4.5t18 -13.5t18.5 -22t29 -31l81.5 -96.5l92 -107l113 -132l145.5 -172.5q14 1 13 22v121q1 78 0.5 156t-0.5 156q0 14 -0.5 27t-3.5 26q-5 22 -23.5 27.5t-39 6t-37 2.5t-16.5 18q0 10 7 13.5t15 3.5q32 0 64 -2t64 -2q26 0 52.5 1.5t52.5 1.5
q22 0 22 -17q0 -12 -12.5 -15.5t-28.5 -5t-32 -4t-23 -11.5q-6 -8 -10 -28t-5.5 -42.5t-2 -43.5t-0.5 -31v-207q0 -58 -0.5 -131t-0.5 -172q0 -17 -1.5 -31.5t-14.5 -16.5q-5 -1 -10 2.5t-9.5 8.5l-9 10.5t-7.5 9.5l-57.5 68l-56.5 69q-1 1 -3.5 4l-12.5 14.5l-31 36
l-59 68.5l-95.5 111l-141.5 165q-17 20 -34.5 43.5t-39.5 41.5q-3 -17 -3 -34q0 -54 1 -101.5t1.5 -98.5t1.5 -110.5t1 -137.5q0 -46 6 -67t18.5 -28.5t32 -8.5t47.5 -7q8 -2 15.5 -7.5t7.5 -15.5q0 -6 -6 -8t-11 -2q-29 0 -58 2t-58 2z" />
    <glyph glyph-name="O" unicode="O" horiz-adv-x="885" 
d="M701 410q-12 64 -39 122t-68.5 99.5t-97.5 61t-126 6.5q-75 -14 -118 -54t-62.5 -94t-20 -115.5t10.5 -118.5q10 -59 34.5 -118t64.5 -104t97 -68t133 -9q74 13 117 54.5t63 98t21 119.5t-9 120zM825 365q0 -80 -30.5 -151.5t-84 -125t-125.5 -85t-154 -31.5
q-81 0 -149.5 28.5t-117.5 79.5t-76.5 120.5t-27.5 152.5t28 154t78.5 123t119.5 81.5t151 29.5q79 0 149.5 -27.5t123.5 -77t84 -118.5t31 -153z" />
    <glyph glyph-name="P" unicode="P" horiz-adv-x="617" 
d="M469 514q0 34 -10.5 65.5t-32 55.5t-53.5 39t-74 17q-11 0 -24 -1.5t-22 -9.5q-9 -9 -12.5 -28.5t-3.5 -37.5v-20q0 -51 1 -101l2 -101h-1v-74q-1 -11 -1.5 -29.5t-1 -39t-0.5 -41.5v-37v-61q0 -12 1 -24t5 -22.5t10.5 -18.5t18.5 -11q6 -2 17 -4l22.5 -4t21 -3.5
t13.5 -2.5q8 -4 5.5 -9t-4.5 -12q-5 -4 -12 -5t-14 -1q-32 0 -65 3.5t-66 3.5q-35 0 -68.5 -3.5t-68.5 -3.5q-10 0 -13 6.5t-3 14.5q0 4 12.5 7.5l29 8t32 11t21.5 17.5q8 17 9 37.5t1 39.5q0 60 1 120t1 120q0 66 -0.5 131.5t-0.5 131.5q0 22 -8 32t-19.5 13.5t-25.5 2.5
t-25.5 -0.5t-19.5 4.5t-8 17q0 8 6 11t13 4q48 5 95.5 6t95.5 1h57q54 0 103 -12.5t86 -38.5t59 -66.5t22 -95.5q0 -47 -19 -85.5t-51 -66.5t-75.5 -43.5t-91.5 -15.5q-17 0 -20.5 2.5l-10.5 7.5q-2 2 -4.5 7.5t-3 11.5t1 10.5t6.5 4.5q4 -1 5 -1q36 1 65 13.5t50 34
t32.5 52t11.5 66.5z" />
    <glyph glyph-name="Q" unicode="Q" horiz-adv-x="885" 
d="M701 410q-12 64 -38.5 122t-68.5 99.5t-98 61t-126 6.5q-67 -13 -109 -53t-63.5 -94t-25 -116t7.5 -119q10 -59 34.5 -118.5t64.5 -105t97 -68t133 -7.5q57 12 98.5 53t65.5 97.5t31 120.5t-3 121zM825 365q0 -53 -15 -102.5t-42.5 -92.5t-65 -79t-82.5 -62
q25 -36 48.5 -58.5t46.5 -37.5t46.5 -24.5l49.5 -19.5q4 -2 6 -8t2 -12q0 -7 -2.5 -13t-6.5 -6q-35 -3 -74 4t-78.5 24t-78 43.5t-72.5 62.5q-12 -3 -20.5 -5.5t-17 -4t-17.5 -2t-21 -0.5q-81 0 -149.5 28.5t-117.5 79.5t-76.5 120.5t-27.5 152.5t28 154t78.5 123
t119.5 81.5t151 29.5q79 0 149.5 -27.5t123.5 -77t84 -118.5t31 -153z" />
    <glyph glyph-name="R" unicode="R" horiz-adv-x="718" 
d="M472 531q0 40 -13 70t-35.5 50.5t-53.5 31t-68 10.5q-35 0 -46 -12.5t-11 -36.5v-34q0 -40 -1 -90t-1 -90q0 -15 -0.5 -25.5t2 -17.5t11 -10t26.5 -3q40 0 75 6.5t60.5 24t40 48t14.5 78.5zM425 351q20 -8 38.5 -35.5t37 -65.5l39.5 -80.5t47 -80.5t58 -66.5t74 -37.5
q11 -5 22.5 -7.5t11.5 -11.5q0 -6 -9 -15q-11 -4 -36 -4q-10 0 -20 1t-17 2q-85 15 -142.5 69t-87.5 132q-17 32 -31.5 66t-33 61.5t-43 45.5t-60.5 18q-20 0 -24.5 -8t-4.5 -32v-206q0 -26 6.5 -39t18 -19t27.5 -8t36 -6q2 -1 8 -1q8 0 15 -2t7 -10q0 -14 -10 -17t-30 -3
q-36 0 -72 3.5t-71 3.5q-31 0 -61.5 -3t-61.5 -3q-13 0 -17 2.5t-4 16.5q0 7 8 9.5t20.5 4.5t26.5 4.5t26.5 9.5t20.5 19t8 33v206q0 85 1.5 169t1.5 169q0 20 -8 31t-20.5 15.5t-26.5 5.5t-26.5 2t-20.5 4t-8 12q0 14 10.5 16.5t21.5 2.5t22.5 -1t22.5 -1h87q38 0 76.5 1.5
t76.5 1.5q33 0 71 -8.5t71 -31t55 -60.5t22 -97q0 -32 -13.5 -59.5t-35 -49.5t-48 -39t-52.5 -29z" />
    <glyph glyph-name="S" unicode="S" horiz-adv-x="521" 
d="M60 -36q-7 0 -9 12.5t-2 29.5t1.5 35t1.5 29q0 26 0.5 47t2.5 47q1 9 4.5 12t7.5 3t7.5 -1t6.5 -1q7 0 11 -8.5t7 -21l6.5 -26.5t8.5 -24q18 -39 56 -60.5t79 -21.5q30 0 55.5 9.5t44.5 27.5t29.5 43t10.5 57q0 47 -25.5 79t-63.5 57t-82.5 47t-82.5 49.5t-63.5 64
t-25.5 90.5q0 48 17.5 85.5t47.5 63t70.5 39t85.5 13.5q21 0 47 -11t44 -22q11 -6 16.5 -0.5t10.5 15.5t12.5 19t22.5 9q7 0 9 -10t2 -24t-1.5 -29t-1.5 -26q1 -52 -3 -104q-2 -9 -5 -12t-7 -3t-8 1t-7 1q-6 0 -10 9t-7 21.5l-6 26t-9 23.5q-16 38 -47 59t-63 21
q-26 0 -49.5 -8t-41 -23t-27.5 -37t-10 -49q0 -42 27.5 -73.5t67.5 -56t84.5 -45.5t78.5 -43q42 -28 65.5 -73t24.5 -96q0 -55 -17.5 -96.5t-49 -69.5t-75 -42.5t-95.5 -15.5q-19 0 -35.5 5t-31 10.5l-27 10.5t-23.5 5q-12 0 -17.5 -6.5t-10.5 -15t-12 -15t-22 -6.5z" />
    <glyph glyph-name="T" unicode="T" horiz-adv-x="706" 
d="M691 723q-7 -19 -9.5 -50.5t-6 -61.5t-10 -52t-21.5 -22q-12 0 -14 9.5t-0.5 24t2.5 31.5t-5 32q-5 12 -19.5 19.5t-34.5 11t-42.5 5t-42.5 1.5q-15 0 -27 -0.5t-20 -0.5q-7 0 -13 0.5t-10.5 -4t-7 -16t-2.5 -34.5l-2 -122q-2 -88 0.5 -176t0.5 -176q0 -16 0.5 -32
t3.5 -32q5 -28 25 -37.5t42 -12l39.5 -4.5t17.5 -14q0 -16 -7 -17t-20 -1q-40 0 -79.5 2.5t-79.5 2.5q-36 0 -71.5 -2.5t-71.5 -2.5q-8 0 -16.5 1t-8.5 12q0 12 9 15.5t19 3.5q9 0 13 1q29 3 46.5 10t26.5 19.5t12 31.5t3 47v484q0 5 -0.5 18.5t-1.5 18.5q-2 9 -23 12.5
t-45 3.5h-62q-23 0 -44.5 -6.5t-41.5 -25.5q-5 -5 -13 -21l-17 -33.5t-17.5 -31.5t-12.5 -14q-10 0 -15 4t-5 15q0 17 8 45.5t13 80.5q1 11 2 23.5t4.5 22.5t10.5 16.5t20 6.5q5 0 8.5 -5t8.5 -11.5t13.5 -12.5t23.5 -7q60 -3 123 -4.5t123 -1.5q48 0 92.5 1t92.5 1
q15 0 30.5 0.5t30.5 2.5q12 2 20 9t14 15t10 14.5t9 6.5q17 0 21.5 -13t0.5 -24z" />
    <glyph glyph-name="U" unicode="U" horiz-adv-x="812" 
d="M795 707q0 -11 -12 -17t-28 -9.5t-30.5 -5.5t-19.5 -5q-7 -4 -10 -31.5t-3.5 -64.5t0 -77t0.5 -70q0 -27 0.5 -54t0.5 -54q0 -44 -2.5 -92t-15.5 -91.5t-39 -78.5t-74 -54q-42 -16 -87 -22.5t-88 -6.5q-51 0 -97 9.5t-82 32.5t-59 61t-29 96q-1 9 -1.5 18t-0.5 18v37
q0 85 2 168t2 168q0 14 -0.5 32t-5 33.5t-15 26.5t-30.5 11h-11q-5 0 -12.5 0.5t-15 2t-13 5.5t-5.5 11q0 19 20 19q32 0 63.5 -3t63.5 -3q35 0 68.5 3t68.5 3q8 0 20 -2t12 -13q0 -14 -13.5 -18t-30.5 -7t-33.5 -8t-23.5 -21q-3 -7 -5 -20t-3.5 -29t-2 -33t-0.5 -32v-184
q0 -31 0.5 -62t2.5 -62q4 -62 19.5 -102t41 -63t60.5 -32t78 -9q51 0 87.5 9.5t62 31.5t41.5 56.5t25 85.5q6 28 6 58v214q0 23 1 52t1 56t-3 48.5t-12 29.5t-23 10t-27.5 4.5t-23 8t-9.5 19.5q0 10 7 12t15 2q26 0 52.5 -2t52.5 -2q27 0 54 1.5t54 1.5q14 -5 14 -15z" />
    <glyph glyph-name="V" unicode="V" horiz-adv-x="768" 
d="M758 706q0 -13 -8.5 -17t-20.5 -6t-25 -6.5t-22 -17.5q-3 -5 -8.5 -18l-12 -28t-12 -29.5t-8.5 -21.5q-21 -54 -43.5 -106.5l-44.5 -106.5l-72 -181l-72 -181q-2 -6 -4.5 -9.5t-10.5 -3.5q-7 0 -11 5.5t-6 10.5l-47 116l-47 116l-83 215.5t-92 213.5q-9 19 -25.5 25
t-32.5 9t-28 6.5t-12 16.5q0 9 10.5 12.5t20.5 3.5h11q24 0 48 -3t48 -3q35 0 69.5 3t69.5 3q9 0 16 -6t7 -15q0 -11 -14 -13t-31.5 -3t-31.5 -5.5t-14 -20.5q0 -3 1 -6.5t2 -6.5q5 -15 20 -55.5l35 -92.5l42.5 -109.5l42.5 -106.5l35 -83t21 -39q3 -3 7 0.5t7.5 9t6 11
t3.5 7.5q6 14 20.5 51.5l33 85.5l38 101.5l36 99.5t27 78.5t10.5 39.5q0 21 -16 27t-35.5 8t-35.5 5.5t-16 18.5q0 8 6 13.5t14 5.5q32 0 65 -3.5t65 -3.5q23 0 45 2.5t45 2.5q7 0 10.5 -5t3.5 -11z" />
    <glyph glyph-name="W" unicode="W" horiz-adv-x="1096" 
d="M553 372l-55.5 141t-61.5 138q-9 19 -25.5 25t-32.5 9t-28 6.5t-12 16.5q0 9 10.5 12.5t20.5 3.5h11q24 0 48 -3t48 -3q35 0 69.5 3t69.5 3q9 0 16 -6t7 -15q0 -11 -14 -13t-31.5 -3t-31.5 -5.5t-14 -20.5q0 -3 1 -6.5t2 -6.5q5 -15 20 -55.5l35 -92.5l42.5 -109.5
l42.5 -106.5l35 -83t21 -39q3 -3 7 0.5t7.5 9t6 11t3.5 7.5q6 14 20.5 51.5l33 85.5l38 101.5l36 99.5t27 78.5t10.5 39.5q0 21 -16 27t-35.5 8t-35.5 5.5t-16 18.5q0 8 6 13.5t14 5.5q32 0 65 -3.5t65 -3.5q23 0 45 2.5t45 2.5q7 0 10.5 -5t3.5 -11q0 -13 -8.5 -17
t-20.5 -6t-25 -6.5t-22 -17.5q-3 -5 -8.5 -18l-12 -28t-12 -29.5t-8.5 -21.5q-21 -54 -43.5 -106.5l-44.5 -106.5l-72 -181l-72 -181q-2 -6 -4.5 -9.5t-10.5 -3.5q-7 0 -11 5.5t-6 10.5l-47 116l-47 116l-33 84l-18 -34q-6 -8 -21 -37.5l-31.5 -65l-32 -68.5t-21.5 -47
l-11 -24.5t-13 -25.5t-15 -20.5t-15 -8.5q-13 0 -17.5 10t-8.5 20l-135 313l-138 311q-14 31 -30 40.5t-29.5 12t-22.5 6.5t-9 24q0 6 5 8t12 3t13 0.5t8 -0.5q22 0 43.5 -2.5t43.5 -2.5q26 0 52.5 2.5t52.5 2.5q8 0 14 -4t6 -13q0 -11 -9.5 -13.5t-21.5 -4t-21.5 -5
t-9.5 -16.5q0 -7 12 -39.5t31 -78l42 -98l44 -100l38 -84.5l24 -52q4 -10 12 -28t16.5 -34.5t16 -26.5t10.5 -3z" />
    <glyph glyph-name="X" unicode="X" horiz-adv-x="780" 
d="M760 13q0 -19 -8.5 -20.5t-23.5 -1.5t-26 1l-21 2l-21 2t-26 1q-45 0 -86.5 -2t-86.5 -2q-11 0 -15 9t1 19q8 5 24 6t31.5 2.5t27.5 6.5t12 18q0 6 -3 11.5l-6 10.5l-17.5 25.5l-29 43l-35.5 51l-36 49t-30.5 38.5t-18.5 18q-11 -6 -17.5 -15.5t-13.5 -18.5
q-7 -8 -19 -25l-26.5 -37.5l-29.5 -43l-27.5 -43t-20.5 -36.5t-8 -24q0 -16 15.5 -21t34.5 -7.5t34.5 -6.5t15.5 -19q0 -6 -8 -8.5t-16 -2.5h-8q-23 0 -44.5 2.5t-44.5 2.5q-20 0 -36.5 -1t-32 -1.5t-31.5 -1.5t-37 -1q-8 0 -17 3t-9 14q0 10 6 14t16.5 5.5l23.5 3.5t28 10
q20 11 38 30t35 41t33 45t32 42l29 33l35.5 41t30.5 39.5t13 27.5q-11 22 -27 41.5t-30 39.5l-72.5 99.5l-74.5 97.5q-10 12 -19 24.5t-20 23.5q-12 12 -25.5 15.5t-24 4.5t-17.5 4t-7 15q0 11 11.5 14.5t19.5 3.5q20 0 37.5 -1t34 -2.5t34 -2.5t37.5 -1q26 0 52.5 3.5
t52.5 3.5h10q10 0 18.5 -3.5t8.5 -12.5q0 -15 -15.5 -18.5t-34.5 -4.5t-34.5 -4t-15.5 -16q0 -6 15 -30.5t35 -53.5l40.5 -57.5l31.5 -43.5q3 -3 9 -11.5l12.5 -18t12.5 -16.5t10 -7q5 0 16.5 12.5t25.5 31.5l29.5 42l29 44.5l24.5 38.5t16 24q5 6 11.5 19t6.5 20
q0 16 -13.5 21.5t-29 8t-29 5t-13.5 12.5q0 13 12.5 15t21.5 2q31 0 61 -3t61 -3q24 0 45.5 2.5t46.5 2.5q8 0 19.5 -1t11.5 -12q0 -6 -4.5 -10t-9.5 -6q-16 -6 -30 -8.5t-27 -6.5t-26 -11.5t-26 -21.5q-52 -57 -99 -118.5l-92 -122.5q-8 -9 -9 -19q5 -15 14 -28l18 -26
l94.5 -130l95.5 -127q7 -9 14.5 -17t17.5 -14q11 -8 23.5 -11.5t23 -6t17.5 -5t7 -8.5z" />
    <glyph glyph-name="Y" unicode="Y" horiz-adv-x="783" 
d="M32 724q28 0 55 -4t55 -4q38 0 76.5 3.5t77.5 3.5q5 0 12.5 -5t7.5 -10q0 -15 -14 -17.5t-30.5 -3t-30.5 -3t-14 -16.5q0 -11 9.5 -28t22 -35.5t26 -36l22.5 -29.5l48 -69.5t50 -66.5l5.5 -7.5t7.5 -5.5q3 1 6.5 4t5.5 5q6 6 21.5 26.5l36 48l42.5 59l40.5 58.5l30.5 46
t12 23q0 17 -14 21.5t-30.5 5.5t-30.5 3.5t-14 16.5q0 12 5.5 13.5t15.5 1.5q23 0 46 -3t46 -3q26 0 51.5 3.5t51.5 3.5q14 0 25.5 -5t5.5 -18q-4 -8 -14 -10.5t-22 -4.5t-25 -7t-24 -18q-37 -43 -71.5 -88l-69.5 -90l-35.5 -42.5t-37 -46t-29 -47.5t-11.5 -46v-199
q0 -27 8 -41.5t20 -20.5t26.5 -7t28 -1.5t23.5 -3t14 -12.5q0 -9 -4 -16t-15 -7q-39 0 -78.5 3.5t-78.5 3.5q-36 0 -71.5 -3.5t-71.5 -3.5q-3 0 -7 1t-4 6q-5 15 6 20.5t28.5 8t36 5.5t29.5 15q5 6 8 19.5t4.5 31t2 37.5t0.5 38v88q0 31 -1 52t-13 38l-107.5 152.5
l-107.5 152.5q-11 16 -28 23t-32.5 10.5t-26.5 7t-11 14.5q0 10 7 11t15 1z" />
    <glyph glyph-name="Z" unicode="Z" horiz-adv-x="757" 
d="M90 732q11 0 16 -1t9 -2.5l9.5 -3.5t16.5 -3q9 -6 27 -8t34 -2h19q45 0 100 1t112.5 1.5t113 1.5t100.5 1q10 0 25 2.5t27.5 3.5t21 -3t5.5 -16q0 -1 -17 -21.5l-45.5 -53.5l-65 -75.5l-75 -87.5l-77 -89.5l-70 -82l-54 -64t-29.5 -35.5q-8 -11 -24.5 -30.5l-34 -41
t-31 -41t-15.5 -31.5q0 -8 6.5 -12t15.5 -5t19 -0.5t18 0.5q45 0 97.5 0.5t97.5 0.5q35 0 76 1.5t76 11.5q25 10 38.5 27.5t27.5 40.5q6 11 10 24.5t9.5 23.5t13 12.5t19.5 -7.5q3 -17 3 -32q0 -17 -4.5 -34.5t-7.5 -34.5q-2 -12 -3.5 -25.5t-5.5 -25t-12 -18.5t-24 -7
q-38 0 -76 2t-76 2h-87q-91 0 -189.5 -3.5t-189.5 -3.5q-16 0 -16 15q0 2 16.5 22.5l43 54l61.5 76l72 87.5l73.5 89.5l67 81l52 63l28.5 35.5t26 30l39 43.5l37 42.5t20 27q2 2 5 7.5t4 8.5q1 4 -6.5 5.5t-18.5 1.5q-10 0 -20 -0.5t-13 -0.5h-70q-29 0 -60 -0.5l-61.5 -1
l-59 -1t-50.5 -1.5q-32 -2 -58 -10t-49 -33q-8 -8 -15 -20l-13.5 -24t-13.5 -20.5t-13 -8.5q-5 0 -14.5 2.5t-6.5 10.5q6 26 14 52l16 52q8 22 13.5 39.5t19.5 17.5z" />
    <glyph glyph-name="bracketleft" unicode="[" horiz-adv-x="333" 
d="M335 717q0 -17 -15 -26.5t-34.5 -14.5t-39.5 -6.5t-30 -1.5q-9 0 -17.5 1t-16.5 1q-14 0 -23.5 -6.5t-9.5 -20.5q-4 -57 -4.5 -111t-0.5 -111q0 -133 -0.5 -262t1.5 -262q0 -7 2 -21t7 -19q8 -8 24.5 -7.5t27.5 0.5q10 0 31 -1.5t42.5 -7t37 -15t14.5 -24.5q-1 -7 -6 -9
t-10 -2q-12 0 -24 5t-24 7q-28 5 -56 6t-56 -4q-17 -3 -32.5 -9.5t-32.5 -6.5q-10 0 -12.5 6t-2.5 14l2 904q0 4 0.5 8.5t5.5 6.5q2 2 9 2q22 0 43 -5.5t43 -8.5q11 -2 23 -3t23 -1q37 0 72 9q8 2 15.5 5t15.5 3q4 0 6 -4t2 -8z" />
    <glyph glyph-name="backslash" unicode="\" horiz-adv-x="327" 
d="M305 -21l-170 388l-170 388h57l169.5 -388l171.5 -388h-58z" />
    <glyph glyph-name="bracketright" unicode="]" horiz-adv-x="323" 
d="M0 717q0 4 2 8t6 4q8 0 15.5 -3t15.5 -5q34 -9 72 -9q11 0 23 1t23 3q22 3 43 8.5t43 5.5q7 0 9 -2q5 -2 5.5 -6.5t0.5 -8.5l2 -904q0 -8 -2.5 -14t-12.5 -6q-17 0 -32.5 6.5t-32.5 9.5q-28 5 -56 4t-56 -6q-12 -2 -24 -7t-24 -5q-5 0 -10 2t-6 9q-1 15 14.5 24.5t37 15
t42.5 7t31 1.5q11 0 27.5 -0.5t24.5 7.5q5 5 7 19t2 21q2 133 1.5 262t-0.5 262q0 57 -0.5 111t-4.5 111q0 14 -9.5 20.5t-23.5 6.5q-8 0 -16.5 -1t-17.5 -1q-10 0 -30 1.5t-39.5 6.5t-34.5 14.5t-15 26.5z" />
    <glyph glyph-name="asciicircum" unicode="^" horiz-adv-x="386" 
d="M25 490q-6 0 -6 7q0 3 12 18l30 36.5l39.5 46l41 46l34 36.5t18.5 18q3 -1 10 -8l58.5 -67.5t59.5 -66.5q1 -2 8.5 -10t15 -17l14 -16.5l6.5 -7.5q2 -6 2 -8q0 -7 -9 -7q-8 0 -31 16l-49.5 36l-50.5 39.5t-34 26.5q-11 -8 -35 -27.5l-50.5 -39.5t-50 -35.5t-33.5 -15.5z
" />
    <glyph glyph-name="underscore" unicode="_" horiz-adv-x="604" 
d="M10 -139v55h584v-55h-584z" />
    <glyph glyph-name="grave" unicode="`" horiz-adv-x="437" 
d="M146 697l8.5 7t5.5 4l7.5 5t13.5 10q5 8 12 4.5t9 -8.5q5 -10 20.5 -34.5l32.5 -51l30.5 -49.5t14.5 -30q3 -10 -4.5 -15t-16.5 4l-29 26.5l-39.5 37.5l-38.5 38t-27 29q-6 7 -6.5 11.5t7.5 11.5z" />
    <glyph glyph-name="a" unicode="a" 
d="M292 181q0 10 -0.5 17.5t-1.5 12.5q-9 -2 -21 -5.5t-24.5 -8l-24 -9t-20.5 -7.5q-27 -10 -49.5 -29t-22.5 -50q0 -28 13 -46t45 -18q21 0 42.5 10.5t35.5 25.5q8 8 17 23.5t10 26.5q0 7 0.5 9.5t0.5 3.5v44v0zM460 70q0 -1 -2 -9q-8 -32 -34 -51.5t-59 -19.5t-52 21
t-27 51q-11 -15 -27.5 -29t-36.5 -25.5t-41.5 -18t-41.5 -6.5q-51 0 -71.5 29.5t-20.5 74.5q0 22 11.5 40.5t29 33.5t38 26t38.5 18q35 13 63.5 22.5t64.5 18.5v77q0 42 -15.5 67.5t-60.5 25.5q-30 0 -48 -10.5t-28.5 -25t-14.5 -28.5l-6 -21q-5 -16 -21 -27t-35 -11
q-11 0 -13 9.5t-2 17.5q0 24 20 49.5t49 47.5t63 36t62 14q7 0 17.5 -1.5t21.5 -3.5t21 -5t16 -6q33 -17 41 -44.5t8 -61.5q0 -38 -1 -80.5t-1 -80.5q0 -9 -0.5 -26.5t0 -36t2 -35t5.5 -22.5q4 -7 12 -9.5t16 -2.5q11 0 18 3.5t12 8t9 8.5t9 5q12 3 12 -7z" />
    <glyph glyph-name="b" unicode="b" horiz-adv-x="574" 
d="M435 199q0 41 -11 79.5t-33.5 68.5t-56.5 48t-79 18q-25 0 -39.5 -6.5t-35.5 -20.5q-10 -9 -9.5 -22t0.5 -25v-186q0 -22 5 -42t19 -37q20 -23 42 -37.5t52 -14.5q35 0 62.5 15.5t46 41t28 57t9.5 63.5zM524 229q0 -53 -20.5 -97t-56 -76.5t-81.5 -50.5t-97 -18
q-10 0 -16.5 0.5t-12.5 2t-12.5 3.5l-15.5 5q-8 2 -23.5 10t-36.5 8q-11 0 -17.5 -3.5t-11 -8l-9.5 -9.5t-13 -8q-12 -7 -19 -1.5t-2 16.5q9 36 11 83.5t2 98.5v68q2 97 -1.5 191t-3.5 191v36q0 24 -9.5 34t-20.5 14.5t-20.5 6.5t-9.5 10t9 13q27 8 45 16t30 14.5t20.5 10.5
t17.5 4q14 0 17.5 -9t3.5 -16q0 -14 -2.5 -29t-2.5 -29q-1 -75 2 -150t1 -153l33.5 22.5t31 18t33 12t39.5 4.5q47 0 87 -20t69 -53t45.5 -75t16.5 -87z" />
    <glyph glyph-name="c" unicode="c" horiz-adv-x="458" 
d="M420 391q1 -17 -10 -26.5t-27 -9.5t-29 12t-26 26.5t-28 26.5t-35 12q-38 0 -64 -18.5t-42.5 -47.5t-23.5 -63.5t-7 -67.5q0 -36 9 -71t28 -62.5t48 -44.5t69 -17h22q26 0 49 11t43 27l9.5 7.5t9.5 6.5q6 -5 6 -12q0 -9 -7 -18t-12 -16q-6 -8 -16.5 -16.5t-23 -16.5
t-25 -14t-21.5 -9q-35 -11 -65 -11q-47 0 -84.5 18.5t-63.5 50t-39.5 72.5t-13.5 87q-1 51 15 97t46.5 81.5t73 56.5t94.5 21q16 0 40.5 -3t46.5 -11t38 -22t16 -36z" />
    <glyph glyph-name="d" unicode="d" horiz-adv-x="587" 
d="M398 181q0 37 0.5 79t-8 78t-30 59.5t-65.5 23.5q-41 0 -70.5 -16t-49.5 -42.5t-29.5 -61t-9.5 -71.5q0 -39 11.5 -74t33 -62t54 -42.5t74.5 -15.5q7 0 20.5 5t27.5 12t25.5 14.5t14.5 13.5q-1 26 0 51.5t1 48.5zM552 27q0 -6 -5 -11q-3 -3 -22.5 -9t-43 -12t-45 -10.5
t-27.5 -4.5t-7 1q-5 6 -5 18q0 8 1 15t1 15q0 4 -0.5 9t-5.5 7q-8 -4 -15.5 -10t-15.5 -11q-36 -20 -59.5 -29t-51.5 -9q-43 0 -79.5 17t-63.5 46t-42.5 66.5t-15.5 79.5q0 52 18 98.5t50.5 81t77 54.5t98.5 20q17 0 28.5 -1.5t21.5 -4.5t21 -7.5t27 -10.5q5 5 6 11t1 12
q0 39 1.5 78t1.5 77q0 20 0.5 39t-1.5 39q-2 21 -10 26.5t-26 11.5q-6 2 -17.5 7.5t-11.5 13.5q0 5 6.5 10.5t12.5 6.5q20 2 40 6t36 8.5l27.5 7.5t14.5 3q4 0 6 -3.5t2 -6.5v-92q0 -20 -1 -40.5t-1 -40.5q0 -126 -2 -247t-2 -247v-15q0 -12 1.5 -28t6.5 -21q6 -6 19 -6
q9 0 17.5 1.5t17.5 3.5q5 -2 10 -3.5t5 -9.5z" />
    <glyph glyph-name="e" unicode="e" horiz-adv-x="459" 
d="M334 350q0 17 -7.5 33t-19.5 28t-27.5 19t-31.5 7q-21 0 -41 -10.5t-35.5 -27.5t-24.5 -38.5t-9 -42.5q0 -4 6.5 -5.5t15 -2t16.5 0t10 0.5q28 0 46.5 -0.5t45.5 1.5q12 1 22 2t17.5 4t12 10.5t4.5 21.5zM417 301q0 -13 -4 -20q-5 -1 -10.5 -1.5t-10.5 -0.5h-249
q-4 0 -10 -2q-3 0 -4 -8t-1 -16v-8q1 -41 9.5 -78t27.5 -65t50 -44.5t77 -16.5q19 0 33.5 3t27 9t25 15l27.5 20q1 1 8 1t7 -6q0 -5 -5.5 -13t-12.5 -16t-14.5 -15t-11.5 -10q-31 -26 -60 -37.5t-69 -11.5q-47 0 -83 16.5t-61 46t-38 68.5t-14 84q-1 47 9 95t33 86.5
t60.5 63t90.5 24.5q60 0 102.5 -25.5t60.5 -85.5q4 -13 6.5 -26t3.5 -26z" />
    <glyph glyph-name="f" unicode="f" horiz-adv-x="337" 
d="M444 721q3 -12 -3.5 -23t-17.5 -17.5t-23.5 -7.5t-20.5 6q-6 4 -9.5 15t-13 21.5t-29.5 19t-59 8.5q-21 0 -36 -13t-25 -33.5t-16 -46.5t-9 -52.5t-4 -50.5t-1 -41v-14q0 -12 0.5 -27t5.5 -20h112q13 0 19 -6q0 -5 0.5 -9t0.5 -9q0 -11 -5 -19q-5 -1 -11 -1.5t-12 -0.5
h-62h-20q-9 0 -19 -1q-7 -7 -6.5 -22t0.5 -24q0 -69 -0.5 -136.5t-0.5 -136.5q0 -22 7 -33t18 -16.5t26 -7t32 -4.5q4 -4 4 -11t-5 -9l-1 -3q-7 -4 -19 -4q-19 0 -38 3t-38 3q-29 0 -58 -3t-58 -3q-5 0 -15.5 1t-10.5 9q0 14 12 17l27 6.5t27 14t12 39.5v290q0 13 -3 27
q-24 3 -47 3q-8 0 -18 2t-10 13q0 4 0.5 9.5t2.5 9.5q3 5 12.5 7t21 3.5t23 2.5t17.5 4q3 39 3.5 78t10.5 77q9 38 27.5 72.5t45 60.5t61 41t75.5 14q21 0 42.5 -3t38.5 -11.5t28 -22.5t12 -35z" />
    <glyph glyph-name="g" unicode="g" horiz-adv-x="515" 
d="M340 313q-3 25 -9.5 46.5t-19 36.5t-33 22t-50.5 4q-26 -3 -42.5 -16t-26.5 -30.5t-13.5 -36.5t-2.5 -33q2 -23 8.5 -46t19 -40.5t32.5 -27t48 -6.5q29 3 47.5 13t28 26.5t12.5 38.5t1 49zM442 -124q0 60 -41 87.5t-122 26.5q-75 0 -116.5 -32.5t-41.5 -98.5
q0 -21 13 -39.5t34 -32.5t47.5 -22t52.5 -8q31 0 62 9t56 25t40.5 37.5t15.5 47.5zM42 -133q0 11 6 27t20 34t36.5 36.5t56.5 35.5q-57 -5 -86.5 16t-29.5 54q-1 14 13 28.5t35 26.5t45 21.5t43 13.5q-23 12 -44 25.5t-37 30.5t-25 38.5t-9 48.5q0 37 14.5 66t38.5 48.5
t55.5 30t66.5 10.5q27 0 50.5 -8t48.5 -19q12 -5 22.5 -12t26.5 -15q20 -10 41 -6t44 4q11 0 14 -9.5t3 -17.5q0 -10 -7.5 -14.5t-18 -5.5t-22.5 -0.5t-21 0.5q-8 0 -6.5 -1t-4.5 -6q2 -11 3 -18t1 -19q0 -11 -1 -17.5t-5 -17.5q-14 -48 -50 -80.5t-87 -39.5
q-16 -2 -40.5 -6.5t-47 -12t-38.5 -19.5t-16 -28q0 -20 17 -27.5t42 -8t53.5 3t52.5 5.5q37 3 74.5 -5.5t67 -28.5t48 -51.5t18.5 -73.5q1 -61 -23.5 -98.5t-63 -58t-84 -27.5t-87.5 -7q-41 0 -78.5 12t-65.5 32.5t-44 48.5t-15 61z" />
    <glyph glyph-name="h" unicode="h" horiz-adv-x="581" 
d="M553 11q0 -6 -2 -8h-1q-2 -8 -5.5 -9.5t-11.5 -1.5q-22 0 -43.5 3t-43.5 3q-23 0 -44.5 -3t-44.5 -3q-9 0 -19.5 1t-10.5 13q0 10 11.5 11.5t25.5 4.5t25.5 13.5t11.5 39.5v249q0 42 -29.5 61.5t-68.5 19.5q-80 0 -111 -76q0 -66 -1 -131t-1 -131q0 -21 8.5 -29.5
t21 -11.5t26.5 -4t26 -8q2 -8 2 -9q0 -11 -8 -12t-16 -1q-23 0 -45.5 3t-45.5 3h-28q-7 0 -13.5 -0.5t-13.5 -1.5q-12 -1 -24.5 -2.5t-24.5 -1.5q-8 0 -14 1.5t-6 11.5q0 7 7 11t16.5 6t19 3.5t14.5 4.5q13 8 16.5 26.5t3.5 32.5v575q0 15 -10.5 24t-22.5 15t-22.5 10.5
t-10.5 10.5q0 5 4.5 9t9.5 5q18 2 49 13.5l71 27.5q4 1 8 -5q1 -2 1.5 -19t0.5 -42t0.5 -55t0.5 -57v-210q0 -4 2 -10l33.5 30t34.5 26.5t38.5 18.5t45.5 7q45 0 72 -15t41.5 -40.5t18.5 -59.5t4 -71v-187q0 -5 1 -10.5t1 -10.5q0 -8 1.5 -17.5t7.5 -15.5q5 -5 14.5 -8.5
t19.5 -6t17.5 -5t9.5 -5.5z" />
    <glyph glyph-name="i" unicode="i" horiz-adv-x="313" 
d="M212 694q0 -22 -17 -37.5t-38 -15.5q-23 0 -38.5 15.5t-15.5 38.5q0 21 17 37t38 16q23 0 38.5 -15.5t15.5 -38.5zM274 5q0 -11 -10.5 -12t-17.5 -1q-18 0 -35.5 2.5t-34.5 2.5q-26 0 -53 -2.5t-53 -2.5h-11q-8 0 -15 2t-7 13q0 3 2 5l4 4q9 7 20.5 8.5l22.5 3t19.5 7
t11.5 21.5q2 10 2 14v15q1 32 0.5 62.5t0.5 62.5q1 24 2.5 47.5t1.5 47.5q0 12 -1.5 29t-9.5 27q-5 6 -14 10l-17.5 7.5t-15 7t-6.5 8.5t6 9t14.5 7.5t16.5 6t12 3.5q7 2 20 9l26.5 14.5l24.5 13.5t15 6q6 0 6 -5q0 -15 -0.5 -29.5t-1.5 -29.5q-1 -30 -1.5 -60.5t-0.5 -60.5
q0 -37 0.5 -73.5t1.5 -73.5q0 -17 -0.5 -34.5t1.5 -34.5q2 -21 13.5 -28t25 -9.5t24.5 -5t11 -14.5z" />
    <glyph glyph-name="j" unicode="j" horiz-adv-x="270" 
d="M194 697q0 -23 -15.5 -39t-38.5 -16q-21 0 -37 16t-16 37q0 23 15 39t38 16t38.5 -15t15.5 -38zM185 432q0 -90 -0.5 -177.5t-0.5 -177.5q0 -32 -1.5 -66t-5.5 -66q-8 -63 -45 -109.5t-86 -81.5q-5 -4 -15.5 -10.5t-17.5 -6.5h-2q-2 4 -3.5 7.5t-4.5 6.5q2 4 5 7.5t6 7.5
l33.5 38.5t29.5 42.5q14 27 20 55t8 57.5t1.5 59t-0.5 58.5q0 54 0.5 108.5t0.5 108.5q0 11 -0.5 28.5t-5.5 26.5q-6 12 -16.5 17t-20.5 7.5t-17.5 5t-7.5 10.5q0 6 5 11q6 4 25.5 14l41.5 21l40.5 19.5t23.5 8.5q6 0 9 -4q0 -7 0.5 -13.5t0.5 -13.5z" />
    <glyph glyph-name="k" unicode="k" horiz-adv-x="583" 
d="M573 1q0 -7 -10 -8t-14 -1q-23 0 -45 3.5t-44 3.5q-26 0 -52 -3.5t-52 -3.5h-7q-8 0 -15 2t-7 11q0 10 9.5 12.5t21 4t21 5.5t9.5 16q0 10 -8.5 22t-20.5 25t-25 25t-22 22l-19.5 23l-28 33t-28 30.5t-19.5 15.5q-13 -3 -18.5 -1t-5.5 -11v-134q0 -5 0.5 -13l1 -16.5
t2.5 -16.5t5 -12q7 -9 17 -11t20 -3t17 -3.5t7 -12.5t-9.5 -11.5t-16.5 -1.5q-19 0 -37.5 3.5t-38.5 3.5q-23 0 -45.5 -4t-45.5 -4h-4q-10 0 -20.5 2.5t-10.5 13.5q0 7 7 9.5t17 4.5t21 6t19 13q9 11 13 33.5t4.5 49t0 52.5t-0.5 44v450q0 19 -12 31.5t-25.5 19.5t-23 10.5
t-3.5 5.5l28.5 10.5t26 11l30.5 15l44 22.5q4 2 7 0t4 -6.5t1.5 -9.5t0.5 -8q0 -128 -0.5 -251t-0.5 -251q0 -7 7 -7q8 0 24 9t35 22.5t38.5 30t35.5 31.5t26.5 26.5t10.5 15.5q0 9 -9 13.5t-20.5 7.5t-20.5 7t-9 13q0 8 9.5 10t15.5 2q33 0 66.5 -2t66.5 -2q13 0 25.5 1.5
t25.5 1.5q8 0 10 -1l7 -8q0 -10 -9.5 -16t-17.5 -8q-30 -5 -57 -17.5t-52 -29t-48 -36l-46 -38.5q-3 -2 -8.5 -6.5t-6.5 -8.5q2 -4 4.5 -7.5t5.5 -6.5v-1q20 -20 38.5 -40.5l37.5 -41.5q20 -22 41 -47.5t43.5 -49t45.5 -41t46 -23.5q9 -2 14 -6.5t5 -14.5z" />
    <glyph glyph-name="l" unicode="l" horiz-adv-x="316" 
d="M286 8q0 -11 -10 -14q-1 -1 -5 -1h-4q-23 0 -46.5 2.5t-46.5 2.5q-29 0 -57 -3t-57 -3q-5 0 -15 1.5t-10 9.5q0 13 6 14.5t19 5.5q17 5 32 11.5t22 24.5q3 8 4 20t1 21q0 135 1 265.5t1 265.5q0 15 -1.5 32.5t-12.5 29.5q-4 4 -11.5 8l-15 8t-13.5 8t-6 9v4t2 3
q15 4 37 11.5t43 16t35.5 15t14.5 7.5l6 -4q0 -14 0.5 -27t0.5 -27q0 -164 -0.5 -324t-0.5 -324q0 -33 17.5 -41.5t44.5 -11.5q2 -2 4.5 -1.5t4.5 0.5q16 0 16 -15z" />
    <glyph glyph-name="m" unicode="m" horiz-adv-x="897" 
d="M869 2q0 -8 -10.5 -9.5t-15.5 -1.5q-28 0 -53 3q-8 1 -22 2t-22 1q-30 0 -52.5 -2t-52.5 -2h-5q-7 5 -2 20q12 5 21 5q5 0 10.5 0.5t10.5 1.5q25 3 31 28q5 19 6.5 39t1.5 40v172q0 51 -29 77.5t-78 26.5q-23 0 -40 -6.5t-36 -20.5q-8 -5 -17.5 -13.5t-14.5 -16.5
q-2 -3 -3.5 -15.5t-2 -28.5t-1 -34t-0.5 -32v-179q0 -14 7.5 -21t18.5 -11t23.5 -5t21.5 -2q4 -2 7.5 -6t3.5 -9q0 -8 -9 -9t-14 -1q-10 0 -19.5 1l-19.5 2q-14 1 -28.5 1.5t-28.5 0.5h-31q-8 0 -15 -0.5t-15 -1.5l-21 -2t-21 -1q-12 0 -15 1q-4 4 -4 8q0 7 1 10.5t9 5.5
q10 2 20.5 3.5t20 4.5t16.5 9.5t10 18.5q4 12 4 32q0 51 0.5 100t0.5 100q0 13 -0.5 26.5t-3.5 26.5q-8 35 -38 50t-62 15q-19 0 -38 -5t-35 -15t-27 -25.5t-13 -36.5q-2 -27 -1.5 -54.5t-1.5 -54.5q-1 -9 -1 -18v-18v-58q0 -17 1 -35.5t4 -29.5q6 -17 18.5 -22.5t25.5 -8
t22.5 -4.5t9.5 -12q0 -11 -10 -13t-18 -2q-17 0 -34.5 3t-34.5 3q-32 0 -65 -3t-65 -3q-6 0 -9 6t-3 11q0 4 7.5 7.5t17.5 5.5l19.5 4t13.5 4q11 7 16 23.5t6.5 35t1 37t-0.5 29.5q0 29 1 57.5t1 57.5v19q0 19 -2 41.5t-7 28.5q-3 3 -10.5 7l-16 8.5t-14.5 9t-6 8.5
q0 7 6 11t14 8q7 4 23 12.5l34 17.5t33.5 16t21.5 7q8 0 9 -9.5t1 -15.5q0 -10 -0.5 -19.5t-0.5 -19.5q0 -9 1 -11q32 29 70 52t83 23q18 0 36.5 -5.5t36 -15t31.5 -22.5t22 -29q2 -4 3.5 -7.5t4.5 -6.5l33 30t36 27t39.5 19.5t43.5 7.5q11 0 20.5 -1.5t19.5 -3.5
q32 -8 53 -24.5t33.5 -40t17.5 -51.5t5 -58q0 -29 -1 -58t-1 -58v-100q0 -29 12 -38t26.5 -11t26.5 -3t12 -13z" />
    <glyph glyph-name="n" unicode="n" horiz-adv-x="586" 
d="M177 471q4 0 7.5 -5t3.5 -8q0 -4 -1 -8t-1 -8v-54l2 -1q3 1 8 6q34 29 69 49.5t81 20.5q40 0 66.5 -13t42.5 -35.5t22 -54t6 -67.5q0 -20 -1 -39t-1 -39v-146q0 -34 20 -42t49 -8q5 0 6.5 -4.5t1.5 -9.5q0 -4 -1.5 -8t-8.5 -4q-14 0 -27.5 1.5t-27.5 1.5h-75
q-8 0 -16 -0.5t-16 -1.5t-16 -1.5t-16 -0.5q-6 0 -17.5 1.5t-11.5 10.5q0 10 8 13.5t19.5 5t23 4t18.5 11.5q8 10 9 27t1 29q1 22 1 43v43v86q0 26 -2.5 51t-12 44.5t-28.5 31.5t-51 12q-23 0 -41.5 -6.5t-38.5 -17.5l-22.5 -13t-18.5 -18q-2 -6 -3.5 -18.5t-2.5 -28.5
t-1 -33v-32v-163q0 -20 9 -33q11 -15 25.5 -17t28.5 -2q8 0 16 -3q6 -2 6 -11q0 -8 -4 -12q-8 -3 -10.5 -3.5t-11.5 -0.5q-22 0 -43 2.5t-42 2.5q-26 0 -50.5 -2.5t-50.5 -2.5q-8 0 -13.5 2.5t-5.5 11.5q0 6 7 9.5t17 6t19.5 6t14.5 9.5q8 11 10.5 30.5t2.5 33.5v206
q0 24 -4 41q-2 11 -10.5 17t-18 9.5t-17 6t-7.5 8.5v2q4 7 11 12q4 3 21.5 14t38 22.5l37 21t18.5 9.5z" />
    <glyph glyph-name="o" unicode="o" horiz-adv-x="578" 
d="M435 209q0 28 -4.5 58t-14.5 58t-27 51.5t-42 39.5q-14 10 -31 12t-34 2q-38 0 -65 -18.5t-44 -47t-24.5 -63t-7.5 -65.5q0 -35 8 -74t26 -72t47.5 -54.5t71.5 -21.5q40 0 67 18t43.5 46.5t23.5 63t7 67.5zM528 228q0 -51 -17.5 -96.5t-48.5 -79.5t-75 -54t-96 -20
q-53 0 -97.5 17t-76.5 48.5t-49.5 75t-17.5 97.5q0 51 17.5 96t49 78.5t75 53.5t95.5 20q75 0 134.5 -39t88.5 -109q8 -21 13 -43t5 -45z" />
    <glyph glyph-name="p" unicode="p" horiz-adv-x="585" 
d="M457 206q0 38 -13 72t-36.5 60t-56 41t-71.5 15q-9 0 -25 -2t-31 -6.5t-26.5 -12.5t-11.5 -20v-117q0 -12 -0.5 -36.5t0 -51.5t2.5 -50t6 -31q6 -11 17.5 -19t25 -13.5t28 -8.5t25.5 -3q40 0 71 14.5t52.5 39t32.5 58t11 71.5zM535 240q0 -51 -17.5 -96t-48.5 -79.5
t-74 -55t-93 -21.5q-20 0 -33 2t-23 4.5t-20 4.5t-24 2q-12 0 -14.5 -10.5t-2.5 -22.5v-13q0 -36 1 -72.5t1 -72.5v-9q0 -6 1 -9q1 -5 1.5 -8.5t3.5 -7.5q5 -8 17.5 -11t26.5 -4.5t25.5 -2t14.5 -2.5q5 -5 5 -11q0 -11 -10.5 -13.5t-18.5 -2.5q-24 0 -48.5 3t-48.5 3
q-27 0 -53.5 -3.5t-53.5 -3.5q-13 0 -22 1.5t-9 17.5q0 5 9.5 8t21.5 6t24.5 7t18.5 11q10 5 11.5 16.5t1.5 24.5v13q0 118 2.5 234.5t2.5 234.5v18v9q0 5 -1 10q-2 24 -12.5 33.5t-22.5 13t-21.5 6t-9.5 13.5q0 3 6.5 6t8.5 5q20 9 40 15.5t40 16.5q3 2 9.5 6l13.5 8.5
t13 8t9 3.5q6 0 7.5 -6.5t1.5 -10.5q0 -11 -2 -21.5t-2 -21.5q0 -10 4 -14q1 0 1.5 -0.5t2.5 -0.5q5 0 8.5 2.5t7.5 4.5q12 8 27.5 15.5t32 13.5t33 10t30.5 4q44 0 81 -16.5t63.5 -45t41 -66.5t14.5 -81z" />
    <glyph glyph-name="q" unicode="q" horiz-adv-x="583" 
d="M410 243q0 34 -3 65.5t-14.5 55.5t-35 38t-64.5 14q-39 0 -68 -16t-48.5 -42t-29 -59.5t-9.5 -68.5q0 -66 28.5 -117t94.5 -73q27 -9 55 -9q11 0 25.5 2.5t28.5 8t24.5 14.5t13.5 22q2 10 1.5 20t-0.5 20q0 32 0.5 62.5t0.5 62.5zM558 -260q0 -9 -10 -11t-16 -2t-12 0.5
t-12 1.5q-20 2 -40.5 3t-40.5 1h-20h-10q-4 0 -9 -1q-13 -1 -25 -3t-25 -2q-8 0 -15 1t-7 11t9.5 13.5t22.5 6t27 8.5t22 21q11 20 10 47t-1 49q0 21 0.5 42t0.5 42v33q0 20 -4 32q-4 -2 -7.5 -5t-7.5 -5q-25 -17 -53 -27.5t-58 -10.5q-47 0 -88 16.5t-72 46t-49 70
t-18 87.5q0 54 18.5 99t60.5 80q33 29 79 49t91 20h21q14 0 30 -4t31 -9.5t27.5 -9.5t20.5 -4q2 0 9 2t9 3q1 3 5 8.5t8.5 11t9 9.5t6.5 4q7 0 16 -4q4 -20 0 -40.5t-4 -42.5q0 -16 0.5 -31t0.5 -31q0 -63 -1 -125.5t-1 -125.5v-237q0 -11 0.5 -22.5t3.5 -22.5q4 -13 15 -18
t22.5 -7.5t20.5 -5.5t9 -11z" />
    <glyph glyph-name="r" unicode="r" horiz-adv-x="422" 
d="M408 379q0 -11 -4 -21.5t-12.5 -16.5t-21.5 -5.5t-30 12.5q-8 5 -10.5 15t-5.5 20t-8 17.5t-18 7.5q-21 0 -40 -7.5t-34 -19t-24 -26.5t-9 -30v-243q0 -8 1 -13q2 -17 10.5 -27t20.5 -15t26.5 -6t28.5 -1q9 0 9 -18q0 -7 -5.5 -8.5t-10.5 -1.5q-25 0 -49.5 3.5t-49.5 3.5
q-28 0 -56 -3.5t-56 -3.5q-6 0 -14.5 3t-8.5 12q0 10 10 12.5t22 5t23.5 8.5t14.5 23q4 20 5 40t1 40q0 39 -0.5 72t-0.5 72q0 13 -0.5 27t-5.5 26q-4 12 -12 18t-15.5 10t-14 8t-7.5 12q2 5 7 8t9 5l19.5 10t19.5 11q7 4 16 11l18 14t18 12.5t16 6.5q3 1 5 -0.5t4 -2.5
q2 -4 3 -12t1 -18v-31q1 4 14 14t33 21t44 19.5t48 8.5q22 0 36.5 -7.5t23.5 -19t12.5 -25.5t3.5 -27z" />
    <glyph glyph-name="s" unicode="s" horiz-adv-x="385" 
d="M345 117q0 -22 -11 -49q-20 -48 -58 -69t-87 -21q-12 0 -34 2.5t-44 9t-38 17t-16 26.5l1 34q0 11 -0.5 22t-0.5 25q1 5 5.5 6t8.5 1q6 0 8.5 -4t4.5 -9l16.5 -36t20 -31.5t27 -22t38.5 -8.5q36 0 58 22t22 60q0 25 -16 42.5t-40 32.5t-52 28.5t-52 31.5t-40 41.5
t-16 57.5q0 36 11.5 62t31.5 42.5t47.5 24.5t59.5 8q23 0 51 -7t45 -25q4 -4 7 -8.5t3 -10.5q0 -34 -3 -65q-1 -6 -2.5 -11.5t-9.5 -5.5q-6 0 -11 16t-15.5 34.5t-30 34.5t-54.5 16q-30 0 -45.5 -22t-15.5 -52q0 -22 16.5 -39.5t42 -33.5t54.5 -32.5t54.5 -36t42 -43.5
t16.5 -55z" />
    <glyph glyph-name="t" unicode="t" horiz-adv-x="361" 
d="M331 426q0 -5 -2 -10t-3 -10q-4 -5 -15 -5.5t-16 -0.5q-20 0 -38.5 1t-37.5 1q-7 0 -19.5 -0.5t-17.5 -5.5q-5 0 -5 -4q-4 -7 -4 -18q-2 -34 -1.5 -71.5t0.5 -71.5q0 -30 -0.5 -60t-0.5 -60q0 -32 19.5 -51t51.5 -19q27 0 41.5 9.5l35.5 22.5q11 0 11 -10
q0 -16 -10.5 -28.5t-22.5 -21.5q-19 -14 -43.5 -20.5t-48.5 -6.5q-62 0 -88 35t-26 93q0 63 1.5 122.5t1.5 122.5q0 18 -11 23.5t-23.5 6t-23.5 1t-11 9.5q0 2 0.5 3t0.5 3q4 3 12.5 7.5t19 11l21.5 14t20 16.5l19 17.5t12 12.5t11 14t15 23q4 9 13 9q7 0 7.5 -5.5
t1.5 -10.5q-1 -3 -1 -10v-36q0 -7 0.5 -10t1.5 -8q9 -2 20.5 -2.5t24 0l25 1t21.5 0.5h10q11 0 25.5 -1t16.5 -3q6 -2 7.5 -8t1.5 -11z" />
    <glyph glyph-name="u" unicode="u" horiz-adv-x="567" 
d="M28 429q0 6 7 10q3 1 12 2t19 1q11 0 21 0.5t15 0.5l35 4t35 2q8 0 9 -11.5t1 -16.5v-160q0 -30 -0.5 -60t-0.5 -60q0 -49 18.5 -76.5t69.5 -27.5q21 0 37 3.5t29 11.5t24.5 20t24.5 29q1 10 1.5 20.5t1 25t0.5 34.5v51v99q0 14 -1 28t-4 28q-2 9 -11.5 14t-21 7
t-21.5 3.5t-13 3.5q-5 0 -12 2.5t-7 9.5q0 5 9 10q2 1 21 2.5t42 3.5t43.5 3.5t25.5 1.5q20 0 25.5 -5.5t5.5 -26.5q0 -43 -1 -86l-2 -86q0 -42 -0.5 -84t-0.5 -84q0 -13 6.5 -22t20.5 -9q23 0 40 4q5 1 11 0t6 -10q0 -5 -6 -9.5t-10 -6.5q-2 -1 -16.5 -5.5l-32 -10
t-33.5 -10t-20 -5.5q-2 0 -7 -1.5t-11.5 -3t-13 -2.5t-9.5 0t-4 7.5t-1 14.5t0.5 15.5t0.5 10.5v17q0 13 -4 9l-32 -28t-33.5 -25.5t-37 -19t-41.5 -7.5h-19q-37 0 -60 14t-36 37t-18 52.5t-5 61.5q0 54 1 107.5t1 107.5q0 26 -6.5 39t-36.5 13q-4 2 -9.5 3t-10 2t-7.5 4
t-3 9z" />
    <glyph glyph-name="v" unicode="v" horiz-adv-x="526" 
d="M516 436q0 -6 -4.5 -9t-9.5 -5q-11 -3 -21 -4t-19 -9q-10 -8 -16.5 -18t-11.5 -21q-39 -85 -72 -170l-67 -172q-1 -3 -4 -11t-7 -17t-8 -15.5t-7 -6.5q-4 0 -7 2.5t-5 4.5q0 1 -6.5 15.5l-14 32.5l-14.5 34.5l-9 21.5l-54 119.5l-53 119.5q-8 17 -14.5 33.5t-14.5 32.5
q-6 11 -17 15.5t-22.5 7.5t-19.5 6t-8 12q0 6 5 9.5t10 3.5q3 1 26 1h46q25 0 48 -0.5t33 -0.5t20 0.5t20 0.5h11q4 0 12 -2l5 -8q-1 -5 -2 -8.5t-6 -5.5q-6 -3 -17 -3.5t-21 -2t-17.5 -5.5t-7.5 -14q0 -7 2.5 -13.5t4.5 -13.5l34 -86l35 -86q13 -35 30 -69q2 -2 3.5 -5.5
t5.5 -3.5q5 0 9 8.5l6 12.5q5 10 13.5 30t18 45.5l20 53.5t18.5 53t13.5 44.5t5.5 27.5q0 9 -7.5 14t-17.5 8t-20.5 4t-16.5 1q-2 2 -4.5 5t-2.5 7q0 10 8.5 11.5t15.5 1.5q9 0 17.5 -1t17.5 -1h49q11 0 23 1t23 1h10q8 0 17.5 -3t9.5 -11z" />
    <glyph glyph-name="w" unicode="w" horiz-adv-x="789" 
d="M378 302q0 17 -9.5 35t-16.5 33l-12 25.5t-20 18.5q-5 2 -15 3.5t-21 2l-21 1t-16 0.5h-24q-13 0 -23 -3q-6 -2 -15 -7.5t-9 -13.5q0 -3 2 -5q0 -6 2.5 -12l4.5 -11l30.5 -76t32.5 -73q11 -23 18.5 -47t18.5 -46q2 -6 9 -11q4 1 11.5 14t16.5 32l19 41.5l18.5 42.5
t13.5 35.5t5 20.5zM779 439q0 -2 -1.5 -10t-9.5 -10q-2 -1 -7 -1q-4 0 -6 -1q-20 -3 -32 -15t-20 -29l-44.5 -97.5l-43.5 -99.5l-27.5 -61.5l-26.5 -62.5q-5 -11 -9 -21.5l-8 -21.5q-2 -5 -3 -11t-3 -11q-4 -7 -10 -7t-12 5.5t-9 10.5q-3 4 -8 16.5l-10.5 27t-10 28
t-6.5 20.5l-26 72t-30 70q-3 6 -6.5 10.5t-9.5 8.5q-5 0 -7 -3l-4 -6q-11 -17 -17.5 -35t-14.5 -36l-38.5 -92l-38.5 -92q-5 -4 -11 -4q-8 0 -12 7.5t-6 13.5l-28 69l-28 69l-46.5 107l-47.5 107l-10 22t-12 20t-16.5 15t-23.5 8q-9 1 -19 1.5t-10 14.5q0 12 9.5 13.5
t18.5 1.5q57 0 114 -1t114 -1t114.5 0.5t114.5 0.5q3 0 8 -3t5 -11q0 -11 -5 -13t-15 -3q-5 0 -14.5 -0.5t-19 -2.5t-16.5 -6.5t-7 -11.5q0 -6 6 -23t15 -39.5l20 -48l21.5 -49l19 -42.5l12.5 -28q1 -3 4 -11l6.5 -17t7.5 -15.5t7 -6.5t6.5 7l4.5 9q4 8 12.5 29l18.5 47.5
l21.5 55.5t20.5 54t15 43.5t6 23.5q0 16 -13.5 23t-26.5 9q-4 1 -10 0.5t-10 1.5q-5 2 -5.5 6t-0.5 9q0 2 0.5 4t3.5 7q6 2 10 2h10q20 0 39 -1.5t39 -1.5q19 0 37 1.5t37 1.5q5 0 9.5 -2.5t4.5 -7.5z" />
    <glyph glyph-name="x" unicode="x" horiz-adv-x="509" 
d="M494 1q0 -5 -8 -6.5t-16 -1.5h-7q-25 0 -46.5 2.5t-47.5 2.5q-18 0 -36 -2.5t-37 -2.5q-6 0 -15.5 1t-9.5 10q0 5 2.5 11t7.5 6q4 0 13 0.5t17.5 2.5t14 6.5t3.5 12.5q-1 3 -13 22l-27 41l-28 40.5t-16 21.5q-2 4 -5 6.5t-6 5.5q-8 -2 -22.5 -19t-29.5 -38.5t-26 -42
t-11 -27.5q0 -17 10 -22.5t21.5 -8t20.5 -6.5t7 -16q-2 -5 -10.5 -5.5t-18.5 -0.5q-19 0 -38 1.5t-39 1.5q-5 0 -10.5 -0.5t-13.5 -0.5t-21 -0.5t-32 -0.5q-5 1 -5.5 4t-0.5 6q0 5 5 8.5l9 6.5l17 8.5t21 15.5q11 10 20.5 20l19.5 21l44 49t41 51q1 1 3.5 5t5.5 8t5 7.5
t2 4.5q0 2 -9 15.5t-23 32.5l-31 41l-32 41.5l-27 34.5l-16 20q-3 4 -12 10.5t-14 8.5q-8 4 -18.5 7t-10.5 15t10 13l10 2h11q17 0 34.5 -1t34.5 -1t34 0.5t34 0.5q8 0 17 0.5t17 -1.5q10 -1 10 -12q0 -8 -5.5 -10t-13 -3.5t-16.5 -3.5t-15 -8q-5 -5 -5 -10q0 -9 11 -27.5
t26 -39t30.5 -38t23.5 -23.5q6 3 20.5 20.5t29 38.5t25.5 40.5t11 26.5q0 9 -5 12.5t-12 5t-13 2t-9 2.5q-4 1 -7.5 2t-6.5 2l-4 6q1 11 5.5 14.5t14.5 3.5q20 0 40 -1.5t40 -1.5q17 0 35 2t35 2h8q8 0 16 -2t8 -8q0 -5 -3 -10.5t-11 -7.5q-6 -1 -15 -3t-19 -5.5t-20 -8.5
t-17 -11q-5 -5 -9.5 -10t-9.5 -10l-34.5 -40l-33.5 -41l-16 -20t-17 -19q-1 -4 -3 -6t0 -7q1 -4 9.5 -16.5l20 -29l25.5 -35l26 -34.5l21.5 -28t12.5 -14l31 -37.5t36 -25.5q7 -3 14 -3q8 -1 10 -7t2 -11z" />
    <glyph glyph-name="y" unicode="y" horiz-adv-x="537" 
d="M527 433q0 -12 -12.5 -14t-26.5 -10q-12 -7 -19.5 -20.5t-12.5 -25.5l-31 -66l-31 -66l-70.5 -153.5l-68.5 -153.5q-21 -51 -45.5 -105t-51.5 -105q-3 -5 -10.5 -4.5t-15 4.5t-12 10t-2.5 11l57 124l56 124q2 10 -3.5 24t-8.5 23l-63.5 178.5t-71.5 173.5
q-7 15 -19.5 22.5t-24.5 11t-21 6.5t-9 11q0 16 19 16q24 0 48 -2.5t48 -2.5q25 0 50 2t50 1h15q7 -4 7 -12q0 -11 -7.5 -13.5t-15.5 -2.5q-7 0 -15.5 -1t-16.5 -4t-13.5 -8.5t-5.5 -14.5q0 -7 6.5 -27l16 -47.5l21.5 -59.5l23 -61l20 -52.5l13 -34.5q2 -4 3 -7.5t4 -5.5
q6 3 9 12q5 12 15.5 34l23.5 49.5l26 57l24 56t18 47t7 30.5q0 18 -11 24.5t-24 9.5l-24 5.5t-11 13.5q0 8 3.5 10t9.5 2q18 0 35.5 -0.5t34.5 -0.5q20 0 39.5 1t39.5 1q10 0 21 -0.5t11 -14.5z" />
    <glyph glyph-name="z" unicode="z" horiz-adv-x="465" 
d="M421 86q0 -12 -0.5 -26t-2 -26.5t-3.5 -22t-5 -11.5q-4 -7 -10.5 -3.5t-13.5 3.5q-75 0 -145 -1t-145 -1h-14q-8 0 -17 0.5t-17 1.5t-13.5 3.5t-5.5 5.5q0 5 2 8t4 7q8 12 18 23t19 22l86.5 114.5l83.5 115.5q6 9 18 24.5l24 32l22.5 31.5t13.5 23q1 4 -7 5.5t-19.5 2
t-22.5 0t-17 -0.5h-31q-26 0 -54.5 -0.5t-48.5 -5.5q-17 -3 -26.5 -12t-17 -19t-14.5 -17.5t-19 -7.5q-5 0 -10 1.5t-3 8.5q3 10 4.5 14t3 7t3 7t4.5 14q2 8 4.5 17t5.5 17q2 6 6 11.5t12 5.5q14 0 24.5 -4.5t32.5 -4.5h156q18 0 36.5 1t36.5 1h15q14 0 31 -2t22 -7
q5 -7 1 -15l-94.5 -129.5l-94.5 -129.5l-47.5 -62.5t-40.5 -65.5q-2 -5 7 -5h57q21 0 45 0.5t46.5 3t39.5 6t24 9.5t11 16.5t6.5 21l5 20.5t7.5 15h5q10 1 13 -4t3 -14v-23z" />
    <glyph glyph-name="braceleft" unicode="{" horiz-adv-x="342" 
d="M137 189q0 22 -10 38t-26 28t-37 20t-43 14q22 6 43 14t37 20t26 28t10 38l-1 214q0 39 13 63t37.5 37.5t58.5 18t76 4.5q7 0 10.5 -6t3.5 -14q0 -7 -3.5 -13.5t-10.5 -6.5q-34 0 -56.5 -4.5t-36 -15t-19 -27.5t-5.5 -41v-196q0 -24 -2 -42.5t-9.5 -32t-21.5 -22.5
t-38 -15q24 -6 38 -16t21.5 -24t9.5 -32.5t2 -41.5v-252q0 -24 5.5 -41t19 -27.5t36 -15t56.5 -4.5q7 1 10 -5t2.5 -14t-3.5 -14.5t-9 -6.5q-42 0 -76 4.5t-58 18t-37.5 37.5t-13.5 63z" />
    <glyph glyph-name="bar" unicode="|" horiz-adv-x="203" 
d="M99 792q8 0 19 -0.5t17 -5.5q-2 -43 -2.5 -110t-0.5 -151q0 -67 0.5 -139.5t0.5 -147.5t0.5 -146.5t0.5 -135.5q0 -73 -0.5 -131.5t-2.5 -95.5q-9 0 -17.5 -0.5t-17.5 -0.5q-6 0 -13 0.5t-13 1.5q-1 43 -1.5 124t-0.5 184t0.5 214t0.5 214q0 105 0.5 190t0.5 134
q4 1 7 1.5t7 0.5h15v0z" />
    <glyph glyph-name="braceright" unicode="}" horiz-adv-x="342" 
d="M209 -81q0 -39 -13.5 -63t-37.5 -37.5t-58 -18t-76 -4.5q-6 0 -9 6.5t-3.5 14.5t2.5 14t10 5q34 0 56.5 4.5t36 15t19 27.5t5.5 41v252q0 23 2 41.5t9.5 32.5t21.5 24t38 16q-24 6 -38 15t-21.5 22.5t-9.5 32t-2 42.5v196q0 24 -5.5 41t-19 27.5t-36 15t-56.5 4.5
q-7 0 -10.5 6.5t-3.5 13.5q0 8 3.5 14t10.5 6q42 0 76 -4.5t58.5 -18t37.5 -37.5t13 -63l-1 -214q0 -22 9.5 -38t26 -28t37 -20t43.5 -14q-23 -6 -43.5 -14t-37 -20t-26 -28t-9.5 -38z" />
    <glyph glyph-name="asciitilde" unicode="~" horiz-adv-x="435" 
d="M414 518q-6 -20 -16.5 -38.5t-24.5 -33t-33 -23.5t-41 -9q-24 0 -43.5 11t-38 23.5t-38 23.5t-43.5 11q-20 0 -31.5 -5.5t-20.5 -14.5t-17 -19.5t-21 -20.5q-9 7 -23 22q4 7 8 16q15 39 43 60t71 21q22 0 43 -10.5t41 -23.5t39.5 -23.5t37.5 -10.5q29 0 47 19.5t30 42.5
q10 -2 16.5 -7z" />
    <glyph glyph-name="Euro" unicode="&#x20ac;" horiz-adv-x="754" 
d="M610 270q0 -8 -0.5 -18.5t-5.5 -16.5q-10 1 -22 1h-34q-21 0 -55.5 -0.5t-89.5 -0.5q-29 0 -73 -0.5t-108 -0.5q12 -46 33 -86t52 -69.5t72.5 -46.5t94.5 -17q24 0 50 5.5t50.5 16t46 25.5t37.5 35q5 7 11.5 19l13.5 24t13 21t11 9q11 0 15.5 -4t4.5 -15q0 -8 -2.5 -26
t-6.5 -37.5t-9 -35.5t-10 -21q-17 -15 -45 -25.5t-60 -17.5t-65.5 -10t-60.5 -3q-68 0 -125.5 19.5t-103 54.5t-78.5 82t-52 103q-26 1 -53 1.5t-47 1.5q0 9 -0.5 17t-0.5 17q0 6 0.5 12t1.5 12q3 0 6 0.5t10.5 1t23 1t44.5 0.5q-7 32 -7 78v15q0 9 1 14q-20 1 -38.5 1.5
t-38.5 1.5q0 9 -0.5 17t-0.5 17q0 6 0.5 12t1.5 12q8 0 30.5 1.5t53.5 1.5q13 64 45 114.5t79 85t107 52.5t129 18q34 0 67.5 -4t67.5 -11q8 -2 18.5 -5.5t21.5 -6.5q7 -6 12 0.5t11 16.5t15 19.5t24 9.5q7 0 9 -10t2 -24t-1.5 -29t-1.5 -26q0 -26 -1 -52t-3 -52
q-2 -9 -5 -12t-7 -3t-7.5 1t-6.5 1q-6 0 -10 9t-7 21.5l-6.5 26t-9.5 23.5q-32 35 -78.5 53.5t-95.5 18.5q-57 0 -100 -18.5t-73.5 -50t-49.5 -74.5t-28 -92h14q91 2 189.5 1l192.5 -2q3 -14 3 -28q0 -8 -0.5 -18t-5.5 -16q-20 2 -40.5 1t-40.5 -1l-319 -1v-28
q0 -20 1 -39.5t3 -39.5q32 0 66.5 -0.5t79.5 -0.5h252q1 -4 1.5 -7t0.5 -7v-13v0z" />
    <glyph glyph-name="quotesinglbase" unicode="&#x201a;" horiz-adv-x="296" 
d="M216 5q0 -33 -14 -60t-37 -50q-6 -6 -16.5 -14.5t-21.5 -16t-22 -13t-20 -6.5q-9 4 -10 6t-6 10q5 10 19 19l28.5 19t26 23.5t11.5 34.5q0 22 -12.5 34t-27 21l-27 17.5t-12.5 23.5q0 31 17.5 43t46.5 12q18 0 32.5 -10t24.5 -25.5t15 -33.5t5 -34z" />
    <glyph glyph-name="florin" unicode="&#x192;" horiz-adv-x="337" 
d="M22 460q0 5 29 5h72q3 32 5 71t12 77q9 38 27 72.5t44 60.5t60 41t75 14q21 0 42.5 -3t38.5 -11.5t28 -22.5t12 -35q3 -12 -3.5 -23t-17.5 -17.5t-23.5 -7.5t-20.5 6q-6 4 -9.5 15t-13 21.5t-29.5 19t-59 8.5q-21 0 -36 -13t-25 -33.5t-16 -46.5t-9 -52.5t-4 -50.5
t-1 -41v-4q0 -3 1 -12t1 -34h54q14 0 27 0.5t27 1.5q6 0 6 -13v-28q0 -5 -25 -5.5t-88 -0.5v-307q-3 -39 -5 -79.5t-12 -78.5q-9 -38 -27 -72.5t-44 -60.5t-60 -41t-75 -14q-21 0 -42.5 3t-38.5 11.5t-28 22.5t-12 35q-3 12 3.5 23t17.5 17.5t23.5 7.5t20.5 -6
q5 -5 8.5 -15.5t14 -21.5t30.5 -19t58 -8q31 0 49.5 27.5t27.5 65.5t11.5 78t2.5 66q0 4 -0.5 32t-1.5 76t-1.5 113.5t-0.5 144.5h-64q-12 0 -24 1t-12 3q-1 5 -0.5 12t0.5 25z" />
    <glyph glyph-name="quotedblbase" unicode="&#x201e;" horiz-adv-x="483" 
d="M210 13q0 -15 -3 -30t-11 -29q-13 -24 -35 -43.5t-45 -33.5q-5 -2 -15.5 -8t-15.5 -3q-1 -1 -7 -1q-11 0 -11 11q11 9 25.5 19.5t27 23t21.5 26.5t9 30q0 14 -7 22t-17 13.5t-21 10.5t-18 13q-6 7 -7 13t-1 14q0 21 17 33t36 12q40 0 59 -28.5t19 -64.5zM405 12
q0 -30 -14 -56t-36 -46q-12 -11 -26 -22t-28 -18l-10 -4t-10 -5q-5 0 -9 6q-6 1 -6 7q0 5 3.5 9t5.5 7l21.5 14.5t23 18.5t18 21.5t7.5 24.5q0 18 -11 28t-24.5 18t-24.5 17t-11 25q0 24 14.5 36.5t37.5 12.5q39 0 59 -29t20 -65z" />
    <glyph glyph-name="ellipsis" unicode="&#x2026;" horiz-adv-x="840" 
d="M468 43q0 -26 -17 -42t-43 -16t-43.5 16.5t-17.5 43.5t18.5 44.5t44.5 17.5q28 0 43 -19t15 -45zM780 43q0 -26 -17 -42t-43 -16t-43.5 16.5t-17.5 43.5t18.5 44.5t44.5 17.5q28 0 43 -19t15 -45zM164 43q0 -26 -17 -42t-43 -16t-43.5 16.5t-17.5 43.5t18.5 44.5
t44.5 17.5q28 0 43 -19t15 -45z" />
    <glyph glyph-name="dagger" unicode="&#x2020;" horiz-adv-x="520" 
d="M244 -92v151q0 39 -2.5 69t-7.5 58.5t-12.5 58t-18.5 67.5q23 27 32 65.5t9 107.5q-15 3 -31.5 -1.5t-33.5 -11.5l-33 -13t-31 -6q-49 0 -49 48q0 22 12 35t37 13q15 0 31.5 -6t33.5 -13t33.5 -11.5t30.5 -1.5q3 30 -1.5 51.5t-11.5 39.5t-13 35.5t-6 40.5q0 20 10.5 34
t37.5 14t37.5 -15t10.5 -35q0 -23 -6.5 -40l-13.5 -35t-11.5 -39t-0.5 -51q15 -3 31.5 1.5t33.5 11.5l33 13t31 6q25 0 37 -13t12 -35q0 -48 -49 -48q-13 0 -29.5 5.5t-34 12t-34.5 11.5t-31 3q0 -69 9 -107.5t32 -65.5q-11 -38 -18.5 -67.5t-12.5 -57.5t-7.5 -58.5
t-2.5 -69.5v-151h-32z" />
    <glyph glyph-name="daggerdbl" unicode="&#x2021;" horiz-adv-x="520" 
d="M260 725q26 0 38 -16.5t12 -36.5q0 -21 -7 -38l-14.5 -34.5t-12.5 -38.5t0 -51q15 -3 31.5 1.5t33.5 11.5l33 13t31 6q49 0 49 -48t-49 -48q-13 0 -29.5 5.5t-34 12t-34.5 11.5t-31 3q0 -35 2.5 -61t7.5 -45.5t13 -34t20 -26.5q-24 -22 -33.5 -59.5t-9.5 -107.5
q7 -3 28 2t43 12l39.5 13t18.5 5q49 0 49 -48q0 -22 -12 -35t-37 -13q-15 0 -31.5 6t-33.5 13t-33.5 11.5t-30.5 1.5q-5 -30 0 -51t12.5 -38.5l14.5 -34.5t7 -38q0 -20 -12 -36.5t-38 -16.5t-38 16.5t-12 36.5q0 21 7 38l14.5 34.5t12.5 38.5t0 51q-15 3 -31.5 -1.5
t-33.5 -11.5l-33 -13t-31 -6q-25 0 -37 13t-12 35q0 48 49 48q14 0 30.5 -5.5t33.5 -12t33.5 -11.5t31.5 -3q0 35 -2.5 61t-7.5 45.5t-13 34t-20 26.5q23 23 33 60.5t10 106.5q-15 3 -31.5 -1.5t-33.5 -11.5l-33 -13t-31 -6q-49 0 -49 48t49 48q15 0 31.5 -6t33.5 -13
t33.5 -11.5t30.5 -1.5q5 29 0 50.5t-12.5 39.5l-14.5 35t-7 37t12 36.5t38 16.5z" />
    <glyph glyph-name="circumflex" unicode="&#x2c6;" horiz-adv-x="422" 
d="M126 515q-6 0 -6 7q0 3 6.5 17t17 33l23 41l24 41t21 33t13.5 17q9 -6 10 -8l55.5 -90.5t40.5 -79.5q2 -6 2 -8q0 -9 -9 -7q-5 1 -17 15.5l-27 33.5l-30 36.5t-25 24.5q-11 -8 -24.5 -25.5l-26.5 -35.5t-25.5 -31.5t-22.5 -13.5z" />
    <glyph glyph-name="perthousand" unicode="&#x2030;" horiz-adv-x="1169" 
d="M661 145q0 49 -26.5 78t-64.5 29q-31 0 -57.5 -27.5t-27.5 -72.5q-2 -51 24 -76.5t63 -25.5q33 0 60.5 24t28.5 71zM294 550q0 49 -26.5 78t-64.5 29q-31 0 -57.5 -27.5t-27.5 -72.5q-2 -51 24 -76.5t63 -25.5q33 0 60.5 24t28.5 71zM1050 144q0 49 -26.5 78t-64.5 29
q-31 0 -57.5 -27.5t-27.5 -72.5q-2 -51 24 -76.5t63 -25.5q33 0 60.5 24t28.5 71zM655 646q-28 -42 -59 -81.5l-63 -79.5l-187 -237t-181 -241q-5 2 -18 11t-36 17l245 318l244 321q11 0 27.5 -11t27.5 -17zM1119 154q0 -34 -11.5 -64t-32.5 -52.5t-50 -36t-64 -13.5
q-36 0 -65.5 11t-50.5 32t-32.5 50t-11.5 65q0 34 11.5 64t32.5 52.5t50 35.5t64 13q32 0 61 -12t51 -33t35 -50t13 -62zM730 155q0 -34 -11.5 -64t-32.5 -52.5t-50 -36t-64 -13.5q-36 0 -65.5 11t-50.5 32t-32.5 50t-11.5 65q0 34 11.5 64t32.5 52.5t50 35.5t64 13
q32 0 61 -12t51 -33t35 -50t13 -62zM363 560q0 -34 -11.5 -64t-32.5 -52.5t-50 -36t-64 -13.5q-36 0 -65.5 11t-50.5 32t-32.5 50t-11.5 65q0 34 11.5 64t32.5 52.5t50 35.5t64 13q32 0 61 -12t51 -33t35 -50t13 -62z" />
    <glyph glyph-name="Scaron" unicode="&#x160;" horiz-adv-x="521" 
d="M351 966q6 0 6 -7q0 -3 -6.5 -17t-17 -33l-23 -41l-24 -41t-21 -33t-13.5 -17q-9 5 -10 8l-55.5 90.5t-40.5 79.5q-2 6 -2 8q0 8 9 7q5 -1 17 -15.5l26.5 -33.5t29.5 -36.5t26 -24.5q11 7 24.5 24.5l26.5 35.5t25.5 32t22.5 14zM60 -36q-7 0 -9 12.5t-2 29.5t1.5 35
t1.5 29q0 26 0.5 47t2.5 47q1 9 4.5 12t7.5 3t7.5 -1t6.5 -1q7 0 11 -8.5t7 -21l6.5 -26.5t8.5 -24q18 -39 56 -60.5t79 -21.5q30 0 55.5 9.5t44.5 27.5t29.5 43t10.5 57q0 47 -25.5 79t-63.5 57t-82.5 47t-82.5 49.5t-63.5 64t-25.5 90.5q0 48 17.5 85.5t47.5 63t70.5 39
t85.5 13.5q21 0 47 -11t44 -22q11 -6 16.5 -0.5t10.5 15.5t12.5 19t22.5 9q7 0 9 -10t2 -24t-1.5 -29t-1.5 -26q1 -52 -3 -104q-2 -9 -5 -12t-7 -3t-8 1t-7 1q-6 0 -10 9t-7 21.5l-6 26t-9 23.5q-16 38 -47 59t-63 21q-26 0 -49.5 -8t-41 -23t-27.5 -37t-10 -49
q0 -42 27.5 -73.5t67.5 -56t84.5 -45.5t78.5 -43q42 -28 65.5 -73t24.5 -96q0 -55 -17.5 -96.5t-49 -69.5t-75 -42.5t-95.5 -15.5q-19 0 -35.5 5t-31 10.5l-27 10.5t-23.5 5q-12 0 -17.5 -6.5t-10.5 -15t-12 -15t-22 -6.5z" />
    <glyph glyph-name="guilsinglleft" unicode="&#x2039;" horiz-adv-x="393" 
d="M299 76q0 -6 -6 -6q-3 0 -18.5 11.5t-37 29.5l-46 39.5l-46 40.5l-37 33.5t-18.5 18.5q1 3 8 10q33 31 67 59.5t66 59.5q1 2 9 9l17 15l24 21q6 2 8 2q8 0 8 -9q0 -8 -15.5 -31t-36 -49.5l-39.5 -51t-26 -34.5q7 -11 26.5 -35l40 -50.5t36.5 -49.5t16 -33z" />
    <glyph glyph-name="OE" unicode="&#x152;" horiz-adv-x="1100" 
d="M180 317q10 -54 31 -109t55.5 -99t83.5 -71t114 -25q12 1 27.5 3t30 7t25.5 13.5t16 23.5q5 18 8.5 46.5t5 63.5t2 73t0.5 73q0 36 -0.5 67t-0.5 51v78q0 42 -1 109q-2 27 -24.5 45t-54.5 27t-67 10.5t-61 -4.5q-75 -14 -118 -54t-62.5 -94t-20 -115.5t10.5 -118.5z
M437 741q26 0 53.5 -3.5l57.5 -7t63.5 -6.5t71.5 -2q135 3 271 3h11q11 0 22 -2t13 -10q4 -20 4 -37q0 -9 -0.5 -21.5t-0.5 -30.5q0 -20 -2.5 -37.5t-10.5 -18.5q-10 0 -16 12.5t-12 29.5t-13.5 33.5t-21.5 24.5q-9 5 -26 8.5t-38 5.5t-43.5 2.5t-42.5 0.5h-44
q-23 0 -35 -9.5t-17 -24.5t-6 -33.5t-1 -35.5v-159v-12t1 -9q4 -5 12 -7t18 -2.5t19 0t15 0.5q27 0 55 0.5t55 4.5q30 5 43 25t15 49q3 6 6.5 11.5t11.5 5.5q11 0 12 -10t1 -21q0 -21 -1 -42t-1 -42t1 -41.5t1 -41.5q0 -5 0.5 -12.5t-0.5 -14.5t-4.5 -11.5t-10.5 -4.5t-11 9
t-6.5 20.5t-4.5 23t-5 16.5q-4 19 -20.5 28.5t-39 13t-47 3t-43.5 -0.5q-5 0 -13 -0.5t-17 -1t-17.5 -1.5t-12.5 -2q-6 -1 -8 -9t-3 -18t-0.5 -20t0.5 -14v-158q0 -11 0.5 -24.5t3 -27t8 -25t16.5 -17.5q8 -4 28 -6.5t42.5 -3.5t43.5 -1.5t30 -0.5h31q13 0 29 1t30.5 2.5
t27 4.5t20.5 8q14 9 26 28t22.5 38t20 33.5t17.5 14.5q12 0 13.5 -8t-2.5 -16q0 -1 -2 -10t-3 -11q-1 -3 -5 -20.5l-8.5 -37l-8 -35.5l-3.5 -16q-8 -12 -25 -12h-491q-28 -11 -57.5 -17t-47.5 -6q-81 0 -149.5 28.5t-117.5 79.5t-76.5 120.5t-27.5 152.5t28 154t78.5 123
t119.5 81.5t151 29.5z" />
    <glyph glyph-name="quoteleft" unicode="&#x2018;" horiz-adv-x="286" 
d="M222 713q0 -6 -14 -12.5t-30.5 -17t-30 -25.5t-13.5 -37q0 -14 7 -22t16.5 -14t20.5 -11t19 -12q6 -6 7 -12t1 -14q0 -25 -15 -35t-38 -10q-20 0 -35 9.5t-24.5 24t-14.5 32.5t-5 36q0 25 16 52.5t35 44.5q7 6 17.5 13t22 13t23 10t21.5 4q5 0 9.5 -6t4.5 -11z" />
    <glyph glyph-name="quoteright" unicode="&#x2019;" horiz-adv-x="286" 
d="M212 641q0 -50 -29.5 -82.5t-69.5 -54.5q-8 -5 -16.5 -9.5t-18.5 -4.5q-12 0 -15 11q-2 2 -2 6q12 9 27 18.5t28.5 21t23 25t9.5 30.5q0 18 -11 27t-24.5 15.5t-24.5 14t-11 22.5q0 23 14.5 37t37.5 14q18 0 33 -8t26 -20.5t17 -29t6 -33.5z" />
    <glyph glyph-name="quotedblleft" unicode="&#x201c;" horiz-adv-x="488" 
d="M212 715q-5 -5 -11 -9t-11 -8l-18 -14t-18.5 -18t-14.5 -20.5t-6 -21.5q0 -18 11 -27t24.5 -17t25 -17.5t11.5 -27.5q0 -25 -17 -35t-39 -10q-19 0 -33 8.5t-23.5 22t-14 30t-4.5 33.5q0 25 7.5 44.5t20.5 35t30 28.5t36 26q5 4 14 9.5t15 5.5q3 0 4 -1q4 0 5 -4
q5 -3 6 -13zM410 722q0 -5 -3 -10t-6 -9q-12 -3 -25 -11.5t-23.5 -19.5t-17 -24.5t-6.5 -26.5q0 -17 11 -25.5t23.5 -15.5t23.5 -15t11 -24q0 -51 -53 -51q-20 0 -34.5 9t-24 23t-14 31.5t-4.5 35.5q0 21 8.5 40.5t22.5 36t31 30t34 23.5l15.5 9t16.5 5q5 0 6 -1q8 0 8 -10z
" />
    <glyph glyph-name="quotedblright" unicode="&#x201d;" horiz-adv-x="488" 
d="M211 642q0 -46 -28.5 -82t-67.5 -56q-5 -2 -14 -6.5t-14 -4.5q-1 0 -1.5 0.5t-1.5 0.5q-2 0 -3.5 -0.5t-3.5 -0.5q-9 0 -9 11q0 4 13 12.5t28.5 21.5t28.5 29t13 35q0 18 -11.5 27t-25 16t-24.5 15t-11 23q0 25 14.5 37.5t38.5 12.5q19 0 33.5 -8t24.5 -20.5t15.5 -29
t5.5 -33.5zM406 640q0 -21 -7.5 -41.5t-20.5 -38t-29 -31.5t-34 -24q-5 -3 -17 -9t-17 -6q-7 0 -11 5.5t-4 11.5t12.5 14t27 19t27 26t12.5 35q0 17 -11 26t-24 16.5t-24 16t-11 23.5q0 51 50 51q19 0 34 -8t25.5 -21.5t16 -30t5.5 -34.5z" />
    <glyph glyph-name="bullet" unicode="&#x2022;" 
d="M396 363q0 -33 -12.5 -61.5t-33.5 -49.5t-49.5 -33t-61.5 -12q-32 0 -60 12.5t-49 33.5t-33.5 49.5t-12.5 60.5q0 33 12.5 61.5t34 49.5t50 33.5t61.5 12.5q32 0 60 -12.5t49 -34t33 -50t12 -60.5z" />
    <glyph glyph-name="endash" unicode="&#x2013;" horiz-adv-x="586" 
d="M573 249q0 -8 -0.5 -19.5t-5.5 -17.5q-15 2 -41.5 2.5t-49.5 0.5h-26q-75 0 -148.5 -1t-148.5 -1q-33 0 -69.5 1t-69.5 3q0 9 -0.5 17.5t-0.5 17.5q0 6 0.5 12t1.5 12q7 1 13 1h13h202q57 0 112.5 -0.5t110.5 -0.5h105q1 -4 1.5 -7t0.5 -7v-13v0z" />
    <glyph glyph-name="emdash" unicode="&#x2014;" horiz-adv-x="897" 
d="M884 267q0 -8 -0.5 -19t-5.5 -17q-10 1 -20 1.5t-21 0.5h-116q-51 0 -114.5 -0.5t-135.5 -0.5t-135.5 -0.5t-114.5 -0.5h-76q-33 0 -65.5 1t-65.5 3q0 9 -0.5 17.5t-0.5 17.5q0 6 0.5 12t1.5 12q7 1 13 1h13h314q72 0 151.5 -0.5t151.5 -0.5h224q1 -4 1.5 -7t0.5 -7v-13
v0z" />
    <glyph glyph-name="tilde" unicode="&#x2dc;" horiz-adv-x="382" 
d="M356 680q0 -5 -0.5 -9.5t-1.5 -9.5q-3 -18 -13 -34.5t-24 -29t-31.5 -20t-36.5 -7.5q-17 0 -36 7t-38 15t-37.5 15t-34.5 7q-24 0 -34.5 -15.5t-19.5 -33.5q0 -6 -13 -6q-4 0 -8 2t-4 5q4 20 12 39t21 33.5t30.5 23.5t40.5 9q20 0 39 -6.5t37 -15t35 -15t34 -6.5
q23 0 36 15.5t19 35.5q2 8 15 8t13 -7z" />
    <glyph glyph-name="trademark" unicode="&#x2122;" horiz-adv-x="905" 
d="M370 752q-2 -5 -5 -14t-4 -20t-1.5 -22t-2.5 -20t-6 -14.5t-12 -5.5q-15 0 -17 9t0 21q1 6 1.5 12t-1.5 10q-2 8 -21.5 10t-36.5 2q-5 0 -11 -0.5t-17 -0.5q-1 0 -1 -7v-32q0 -25 -0.5 -73t-0.5 -132v-14q0 -5 2 -15q3 -8 12.5 -11t18.5 -5q11 -2 20 -4.5t9 -14.5
q0 -13 -5.5 -15t-16.5 -2q-20 0 -38.5 1t-38.5 1q-17 0 -34.5 -1t-34.5 -1q-7 0 -14 2t-7 13q0 14 8 17t20 3q23 3 28.5 11t5.5 31l-1 248h-43q-13 0 -24 -1.5t-21 -10.5q-4 -4 -8 -12.5l-8 -17t-9 -15t-11 -6.5q-16 0 -18 13t2 27l5 19.5t3 21.5q0 14 3.5 28t23.5 14
q8 0 12 -8.5t14 -9.5q27 -2 64.5 -2.5t97.5 -0.5q18 2 36.5 0.5t35.5 2.5q5 1 8 4.5t5.5 7.5t6 7t8.5 3q14 0 18.5 -11.5t0.5 -19.5zM861 743q0 -8 -5 -12t-12 -5.5t-13.5 -2t-10.5 -0.5q-13 0 -15.5 -10t-2.5 -23l10 -227q0 -7 3.5 -16.5t20.5 -14.5q12 -3 23 -6.5
t11 -16.5q0 -14 -8.5 -14.5t-19.5 -0.5q-14 0 -28 1.5t-28 1.5q-15 0 -31 -1.5t-31 -1.5q-5 0 -15.5 2t-10.5 14q0 8 5.5 12t13.5 8q21 0 26 8t5 28q-2 40 -3.5 83l-3.5 101l-44 -95t-41 -98q-3 -6 -6 -15q-6 -15 -14 -30.5t-17 -15.5q-11 0 -16 10t-6 15l1 -1
q-12 37 -24 65.5l-24 56l-25.5 57.5t-28.5 69q1 -9 1.5 -29t1 -45t0.5 -52v-50v-48q0 -8 8 -10.5t16 -3.5q13 -2 21.5 -4.5t8.5 -16.5q0 -11 -8.5 -13t-16.5 -2q-19 2 -34 2q-14 0 -26.5 -0.5l-24 -1t-25.5 -0.5q-5 0 -14 2t-9 13q0 14 9 17.5t20 5.5q7 1 14.5 3t9.5 10
q4 13 5 27q6 57 10.5 114t4.5 114q0 22 -27 26q-4 0 -10 1.5t-12 4.5t-10.5 7t-4.5 9q0 13 9 15t15 2q10 0 16 -1.5t15 -1.5q14 0 24.5 1.5t24.5 1.5q8 0 11 -1t8 -8q6 -8 10.5 -19t9.5 -22q20 -53 42.5 -101.5t43.5 -106.5q28 57 52 114.5l50 115.5q10 19 16 22t21 3
q5 0 8 -0.5t6 -0.5l51 1q7 0 16.5 -3t7.5 -16z" />
    <glyph glyph-name="scaron" unicode="&#x161;" horiz-adv-x="385" 
d="M295 695q6 0 6 -7q0 -3 -6.5 -17t-17 -33l-23 -41l-24 -41t-21 -33t-13.5 -17q-9 5 -10 8l-55.5 90.5t-40.5 79.5q-2 6 -2 8q0 8 9 7q5 -1 17 -15.5l26.5 -33.5t29.5 -36.5t26 -24.5q11 7 24.5 24.5l26.5 35.5t25.5 32t22.5 14zM345 117q0 -22 -11 -49q-20 -48 -58 -69
t-87 -21q-12 0 -34 2.5t-44 9t-38 17t-16 26.5l1 34q0 11 -0.5 22t-0.5 25q1 5 5.5 6t8.5 1q6 0 8.5 -4t4.5 -9l16.5 -36t20 -31.5t27 -22t38.5 -8.5q36 0 58 22t22 60q0 25 -16 42.5t-40 32.5t-52 28.5t-52 31.5t-40 41.5t-16 57.5q0 36 11.5 62t31.5 42.5t47.5 24.5
t59.5 8q23 0 51 -7t45 -25q4 -4 7 -8.5t3 -10.5q0 -34 -3 -65q-1 -6 -2.5 -11.5t-9.5 -5.5q-6 0 -11 16t-15.5 34.5t-30 34.5t-54.5 16q-30 0 -45.5 -22t-15.5 -52q0 -22 16.5 -39.5t42 -33.5t54.5 -32.5t54.5 -36t42 -43.5t16.5 -55z" />
    <glyph glyph-name="guilsinglright" unicode="&#x203a;" horiz-adv-x="382" 
d="M292 238q-1 -1 -9 -7q-11 -8 -20 -16.5l-18 -16.5l-37 -33.5l-37 -33.5q-17 -14 -33 -30.5t-33 -30.5h-2q-5 0 -8.5 1.5t-4.5 7.5q2 11 17 33t34.5 46.5l37.5 48t26 37.5q-8 15 -27.5 38l-39 47t-34.5 46t-15 36q0 8 7 9q6 -2 11 -6l10 -8q8 -6 14.5 -12.5l13.5 -13.5
q20 -20 41 -38l42 -36l25.5 -21.5t23.5 -22.5q3 -3 6 -6.5t6 -6.5l4 -6z" />
    <glyph glyph-name="oe" unicode="&#x153;" horiz-adv-x="857" 
d="M732 350q0 17 -7.5 33t-19.5 28t-27.5 19t-31.5 7q-21 0 -41 -10.5t-35.5 -27.5t-24.5 -38.5t-9 -42.5q0 -4 6.5 -5.5t15 -2t16.5 0t10 0.5q28 0 46.5 -0.5t45.5 1.5q12 1 22 2t17.5 4t12 10.5t4.5 21.5zM435 209q0 28 -4.5 58t-14.5 58t-27 51.5t-42 39.5q-14 10 -31 12
t-34 2q-38 0 -65 -18.5t-44 -47t-24.5 -63t-7.5 -65.5q0 -35 8 -74t26 -72.5t47.5 -55.5t71.5 -22q40 0 67 18.5t43.5 47t23.5 63.5t7 68zM815 301q0 -13 -4 -20q-5 -1 -10.5 -1.5t-10.5 -0.5h-249q-4 0 -10 -2q-8 -12 -6.5 -30.5t2.5 -33.5q3 -36 13.5 -67t30 -54.5t49 -37
t70.5 -13.5q19 0 33.5 3t27 9t25 15l27.5 20q1 1 8 1t7 -6q0 -5 -5.5 -13t-12.5 -16t-14.5 -15t-11.5 -10q-31 -26 -60 -37.5t-69 -11.5q-60 0 -101 25t-65 68q-32 -45 -80 -70t-108 -25q-53 0 -97.5 17t-76.5 48.5t-49.5 75t-17.5 97.5q0 51 17.5 96t49 78.5t75 53.5
t95.5 20q61 0 112 -26t85 -74q23 45 61.5 72.5t96.5 27.5q60 0 102.5 -25.5t60.5 -85.5q4 -13 6.5 -26t3.5 -26z" />
    <glyph glyph-name="Ydieresis" unicode="&#x178;" horiz-adv-x="783" 
d="M372 851q0 -23 -16.5 -37t-38.5 -14t-38 14.5t-16 37.5t17 38.5t40 15.5q22 0 37 -17t15 -38zM577 854q0 -25 -16.5 -40t-40.5 -15q-3 0 -4 1q-21 2 -33.5 17.5t-12.5 35.5q0 23 15 38t39 15q23 0 38 -14.5t15 -37.5zM32 724q28 0 55 -4t55 -4q38 0 76.5 3.5t77.5 3.5
q5 0 12.5 -5t7.5 -10q0 -15 -14 -17.5t-30.5 -3t-30.5 -3t-14 -16.5q0 -11 9.5 -28t22 -35.5t26 -36l22.5 -29.5l48 -69.5t50 -66.5l5.5 -7.5t7.5 -5.5q3 1 6.5 4t5.5 5q6 6 21.5 26.5l36 48l42.5 59l40.5 58.5l30.5 46t12 23q0 17 -14 21.5t-30.5 5.5t-30.5 3.5t-14 16.5
q0 12 5.5 13.5t15.5 1.5q23 0 46 -3t46 -3q26 0 51.5 3.5t51.5 3.5q14 0 25.5 -5t5.5 -18q-4 -8 -14 -10.5t-22 -4.5t-25 -7t-24 -18q-37 -43 -71.5 -88l-69.5 -90l-35.5 -42.5t-37 -46t-29 -47.5t-11.5 -46v-199q0 -27 8 -41.5t20 -20.5t26.5 -7t28 -1.5t23.5 -3t14 -12.5
q0 -9 -4 -16t-15 -7q-39 0 -78.5 3.5t-78.5 3.5q-36 0 -71.5 -3.5t-71.5 -3.5q-3 0 -7 1t-4 6q-5 15 6 20.5t28.5 8t36 5.5t29.5 15q5 6 8 19.5t4.5 31t2 37.5t0.5 38v88q0 31 -1 52t-13 38l-107.5 152.5l-107.5 152.5q-11 16 -28 23t-32.5 10.5t-26.5 7t-11 14.5q0 10 7 11
t15 1z" />
    <glyph glyph-name="uni00A0" unicode="&#xa0;" horiz-adv-x="427" 
 />
    <glyph glyph-name="exclamdown" unicode="&#xa1;" horiz-adv-x="229" 
d="M61 452q0 28 19.5 44t45.5 16q24 0 40 -19t16 -42q0 -26 -17.5 -44.5t-43.5 -18.5q-24 0 -42 20t-18 44zM178 -203q1 -15 -2 -20t-10.5 -5.5t-19.5 1.5t-30 2q-15 0 -27 -1.5t-21 -1.5q-11 0 -16 4.5t-3 20.5q4 37 11.5 98.5l16 130.5l17.5 137.5t17 118.5q1 5 8.5 4
t11.5 -4q5 -54 12 -116.5l14.5 -126.5t13 -126.5t7.5 -115.5z" />
    <glyph glyph-name="cent" unicode="&#xa2;" horiz-adv-x="458" 
d="M128 390q0 -31 6.5 -61.5t20 -56t34.5 -44.5t50 -27v191v95q0 48 -1 97q-30 -7 -51 -27t-34 -47t-19 -58.5t-6 -61.5zM283 701q0 -13 0.5 -26t0.5 -27v-30q17 0 40.5 -3.5t44.5 -12t36 -22t15 -34.5q1 -17 -10 -26.5t-27 -9.5q-14 0 -25.5 9t-22.5 21.5t-23 24.5t-27 18
q1 -99 0.5 -195t0.5 -193h18q26 0 49 11t43 27l9.5 7.5t9.5 6.5q6 -5 6 -12q0 -9 -7 -18t-12 -16q-6 -8 -16.5 -16.5t-23 -16.5t-25 -14t-21.5 -9q-8 -2 -15 -4t-15 -4q0 -23 0.5 -39l1 -30.5t1 -31t0.5 -39.5q-2 -2 -9 1t-21 3q-9 0 -20 -4v138q-45 2 -80 21t-59 50
t-37 71.5t-13 84.5q-1 45 12 87.5t37.5 76t59.5 57t79 31.5v114q8 7 21 5t24 0v-32z" />
    <glyph glyph-name="sterling" unicode="&#xa3;" horiz-adv-x="572" 
d="M530 125q0 -4 -3.5 -15.5t-8 -25t-9 -25.5t-6.5 -16q-9 -19 -18.5 -30.5t-21 -18t-26.5 -8.5t-36 -2q-32 0 -62 13t-55.5 28t-44.5 28t-29 13l-1 -3q-15 -8 -29.5 -21t-29.5 -25t-31.5 -21t-35.5 -9q-21 0 -35.5 11.5t-14.5 34.5q0 24 8.5 32.5t21 10t28 -0.5t30.5 2
q17 4 36.5 15t36 26.5t27 34t9.5 36.5q-2 42 -17 84.5t-39 76.5q-10 -1 -20 -1h-21h-40q-7 0 -15 -0.5t-14.5 1t-11 5.5t-4.5 14q0 13 9.5 17t20.5 4q20 0 39.5 -1t39.5 -1q-14 31 -24.5 64t-10.5 68q0 51 23.5 91.5t68.5 64.5q17 10 36 15.5t39 10.5q24 6 49 6q37 0 76 -12
t68 -35q10 -8 17.5 -19t7.5 -25q0 -10 -4 -20t-7 -19q-2 -6 -4.5 -15.5t-6 -19.5t-8 -18t-10.5 -11q-16 2 -20 13t-4 25q0 19 -3 37q-3 22 -14 38.5t-27.5 27.5t-36.5 16.5t-41 5.5q-51 0 -82 -29.5t-31 -80.5q0 -18 6.5 -42t15.5 -49t19.5 -48l18.5 -40h166q6 0 9.5 -4.5
t3.5 -10.5t-1 -7q0 -9 -6 -13q-3 -2 -7 -2.5t-8 -0.5q-35 0 -69.5 -0.5t-69.5 -0.5q8 -23 14.5 -46.5t6.5 -47.5q0 -43 -23 -81q-10 -19 -23 -40t-30 -35q10 -2 15 -2q10 0 15 -1q36 -5 71 -15t72 -10q27 0 46 10t33 21.5t23.5 21.5t17.5 10q3 0 5 -2q0 -2 0.5 -3.5
t0.5 -3.5z" />
    <glyph glyph-name="currency" unicode="&#xa4;" horiz-adv-x="754" 
d="M610 270q0 -8 -0.5 -18t-5.5 -16q-20 2 -40.5 1t-40.5 -1h-41q-12 0 -30.5 -0.5t-48.5 -0.5q-29 0 -73 -0.5t-108 -0.5q12 -46 33 -86t52 -69.5t72.5 -46.5t94.5 -17q24 0 50 5.5t50.5 16t46 25.5t37.5 35q5 7 11.5 19l13.5 24t13 21t11 9q11 0 15.5 -4t4.5 -15
q0 -8 -2.5 -26t-6.5 -37.5t-9 -35.5t-10 -21q-17 -15 -45 -25.5t-60 -17.5t-65.5 -10t-60.5 -3q-68 0 -125.5 19.5t-103 54.5t-78.5 82t-52 103l-53 2t-47 2q0 9 -0.5 17.5t-0.5 17.5q0 6 0.5 12t1.5 12h6q3 0 10.5 0.5t22.5 0.5h45q-7 32 -7 78v15q0 9 1 14l-38.5 2
l-38.5 2q0 9 -0.5 17.5t-0.5 17.5q0 6 0.5 12t1.5 12q8 0 30.5 0.5t53.5 0.5q13 64 45 114.5t79 85t107 52.5t129 18q34 0 67.5 -4t67.5 -11q8 -2 18.5 -5.5t21.5 -6.5q7 -6 12 0.5t11 16.5t15 19.5t24 9.5q7 0 9 -10t2 -24t-1.5 -29t-1.5 -26q0 -26 -1 -52t-3 -52
q-2 -9 -5 -12t-7 -3t-7.5 1t-6.5 1q-6 0 -10 9t-7 21.5l-6.5 26t-9.5 23.5q-32 35 -78.5 53.5t-95.5 18.5q-57 0 -100 -18.5t-73.5 -50t-49.5 -74.5t-28 -92h14q91 2 189.5 1.5t192.5 -1.5q3 -14 3 -28q0 -8 -0.5 -18t-5.5 -16q-20 2 -40.5 1t-40.5 -1l-319 -2v-28
q0 -20 1 -39.5t3 -39.5h66q35 0 80.5 -0.5t106.5 -0.5h145q1 -4 1.5 -7t0.5 -7v-13v0z" />
    <glyph glyph-name="yen" unicode="&#xa5;" horiz-adv-x="783" 
d="M696 193q0 -8 -0.5 -19.5t-5.5 -17.5q-20 2 -40.5 2.5t-40.5 0.5h-34q-15 0 -34 -0.5t-45 -0.5h-64v-57q0 -27 8 -41.5t20 -20.5t26.5 -7t28 -1.5t23.5 -3t14 -12.5q0 -9 -4 -16t-15 -7q-39 0 -78.5 3.5t-78.5 3.5q-36 0 -71.5 -3.5t-71.5 -3.5q-3 0 -7 1t-4 6
q-5 15 6 20.5t28.5 8t36 5.5t29.5 15q4 4 6.5 16t4 28t2.5 33.5t1 31.5h-110q-33 0 -65.5 1t-65.5 3q0 9 -0.5 17.5t-0.5 17.5q0 6 0.5 12t1.5 12h4q0 1 3 1h234v84h-111q-33 0 -65.5 1t-65.5 3q0 9 -0.5 17.5t-0.5 17.5q0 6 0.5 12t1.5 12q5 0 4.5 0.5t1.5 0.5h209
l-101.5 144l-101.5 144q-11 16 -28 23t-32.5 10.5t-26.5 7t-11 14.5q0 10 7 11t15 1q28 0 55 -4t55 -4q38 0 76.5 3.5t77.5 3.5q5 0 12.5 -5t7.5 -10q0 -15 -14 -17.5t-30.5 -3t-30.5 -3t-14 -16.5q0 -11 9.5 -28t22 -35.5t26 -36l22.5 -29.5l48 -69.5t50 -66.5l5.5 -7.5
t7.5 -5.5q3 1 6.5 4t5.5 5q6 6 21.5 26.5l36 48l42.5 59l40.5 58.5l30.5 46t12 23q0 17 -14 21.5t-30.5 5.5t-30.5 3.5t-14 16.5q0 12 5.5 13.5t15.5 1.5q23 0 46 -3t46 -3q26 0 51.5 3.5t51.5 3.5q14 0 25.5 -5t5.5 -18q-4 -8 -14 -10.5t-22 -4.5t-25 -7t-24 -18
q-37 -43 -71.5 -88l-69.5 -90q-20 -26 -45.5 -55t-44.5 -59h239q1 -4 1.5 -7t0.5 -7v-13q0 -8 -0.5 -19.5t-5.5 -17.5q-20 2 -40.5 2.5t-40.5 0.5h-34q-15 0 -34 -0.5t-45 -0.5h-64v-86h262q1 -4 1.5 -7t0.5 -7v-13v0z" />
    <glyph glyph-name="brokenbar" unicode="&#xa6;" horiz-adv-x="203" 
d="M99 792q8 0 19 -0.5t17 -5.5q-1 -16 -1.5 -36.5t-1 -48.5t-0.5 -65v-85v-151q-17 -11 -29.5 -12t-34.5 12q0 92 1 175.5t1 144.5v70q4 1 7 1.5t7 0.5h15v0zM70 -270q0 16 -0.5 39t-0.5 55q0 31 -0.5 73t-0.5 96v168q18 13 33 10.5t32 -10.5q1 -27 1 -54v-52v-99
q0 -73 -0.5 -131.5t-2.5 -95.5q-9 0 -17.5 -0.5t-17.5 -0.5q-6 0 -13 0.5t-13 1.5z" />
    <glyph glyph-name="section" unicode="&#xa7;" horiz-adv-x="595" 
d="M452 -11q12 44 -3 80.5t-43.5 69.5t-64 65t-65.5 67t-47.5 74.5t-9.5 88.5q-30 -7 -53.5 -27t-32.5 -55q-11 -41 7 -78.5t50 -72t69.5 -66.5t64.5 -62q32 -36 43 -83t1 -95q29 10 51.5 33.5t32.5 60.5zM549 12q-22 -81 -74.5 -121t-121.5 -43q-31 -72 -89.5 -101.5
t-131.5 -22.5l11 38q45 1 79.5 26.5t47.5 74.5q12 45 -4 83t-46.5 72t-67 67t-66 69.5t-44.5 78.5t-1 94q19 73 71 108.5t118 36.5q14 40 40 67t59.5 42t72.5 17t79 -8l-10 -34h-2q-25 7 -49.5 5.5t-45.5 -11.5t-36.5 -28t-22.5 -45q-11 -41 7.5 -78t50.5 -71.5t69.5 -66
t64.5 -62.5q33 -38 44 -88t-2 -99z" />
    <glyph glyph-name="dieresis" unicode="&#xa8;" horiz-adv-x="430" 
d="M162 616q0 -23 -16.5 -37t-38.5 -14t-38 14.5t-16 37.5t17 38.5t40 15.5q22 0 37 -17t15 -38zM367 619q0 -25 -16.5 -40t-40.5 -15q-3 0 -4 1q-21 2 -33.5 17.5t-12.5 35.5q0 23 15 38t39 15q23 0 38 -14.5t15 -37.5z" />
    <glyph glyph-name="copyright" unicode="&#xa9;" horiz-adv-x="885" 
d="M573 576q7 0 7 -19q0 -7 -1 -15.5t-1 -14.5v-38q0 -11 -0.5 -20.5t-1.5 -17.5q-2 -10 -6.5 -8.5t-8.5 1.5q-3 0 -5 5t-4 12l-4 14.5t-5 13.5q-18 20 -43.5 30t-53.5 10q-39 0 -63.5 -12.5t-38.5 -34t-19.5 -52t-5.5 -66.5q0 -39 5.5 -72.5t20 -58.5t40.5 -39.5t67 -14.5
q27 0 56 12t47 34q3 3 6 10t7 14t7.5 12t6.5 5q11 0 11 -11q0 -5 -1.5 -17.5t-4 -26.5t-5 -25.5t-5.5 -14.5q-10 -8 -25.5 -14t-33 -10t-36 -5.5t-34.5 -1.5q-49 0 -88 18t-66.5 49t-42.5 71t-15 85q0 48 15 86t42.5 63.5t65.5 39t83 13.5q32 0 75 -8q5 -1 10.5 -3l11.5 -4
q4 -3 6.5 0.5t6 9.5t8.5 11t13 5zM745 354q2 64 -18 122t-59 101.5t-96 70t-128 28.5q-76 2 -133 -23.5t-95 -68t-58 -98t-21 -113.5q-2 -60 15.5 -119.5t55 -108t94.5 -79.5t134 -33q75 -2 132 26t95.5 74t59 104t22.5 117zM825 365q0 -80 -30.5 -151.5t-84 -125
t-125.5 -85t-154 -31.5q-81 0 -149.5 28.5t-117.5 79.5t-76.5 120.5t-27.5 152.5t28 154t78.5 123t119.5 81.5t151 29.5q79 0 149.5 -27.5t123.5 -77t84 -118.5t31 -153z" />
    <glyph glyph-name="ordfeminine" unicode="&#xaa;" horiz-adv-x="406" 
d="M230 507q0 15 -1 20q-14 -3 -33 -10t-31 -11q-19 -7 -31 -20.5t-12 -35.5q0 -20 12.5 -25t34.5 -5q15 0 23 7.5l19 18.5q5 6 11.5 15t7.5 17v29v0zM51 273q0 5 15 6t29 1h17q57 0 114 -1t114 2q6 0 6 -18v-40q0 -5 -10.5 -6.5t-22.5 -1.5h-226q-12 0 -24 1t-12 4
q-1 7 -0.5 17t0.5 36zM359 429q0 -12 -6.5 -22.5t-16 -18t-21.5 -11.5t-23 -4q-23 0 -42 15t-24 36q-8 -11 -19.5 -21t-25.5 -17.5t-29 -12.5t-30 -5q-21 0 -34 6.5t-20 18t-9 26t-2 30.5q0 15 8.5 28.5t21 24t27 18.5t26.5 13q24 9 44 15.5t46 13.5v41q0 29 -10.5 43
t-42.5 14q-21 0 -34 -7t-20.5 -16t-10.5 -18t-4 -14q-4 -11 -15 -19.5t-25 -8.5q-8 0 -9 11.5t-1 17.5q0 17 13 35.5t33 34t44 25.5t47 10q10 0 27 -1.5t37 -15.5q22 -15 28 -33t6 -42q0 -27 -0.5 -54.5t-0.5 -54.5v-42q0 -13 1 -24t4 -15q2 -5 8.5 -6.5t11.5 -1.5
q16 0 21 7.5t13 9.5q4 2 6 -2t2 -7z" />
    <glyph glyph-name="guillemotleft" unicode="&#xab;" horiz-adv-x="572" 
d="M475 77q0 -2 -1.5 -5t-3.5 -3q-3 0 -8 2.5t-8 4.5q-1 1 -6 5.5l-11.5 10l-11.5 10t-6 6.5q-21 21 -44 40l-45 39l-22 21l-23 20l-9 7t-6 9q1 2 6 7t11 10t11 10l7 7l47 42l47 43l28.5 26t25.5 28q8 2 10 2q9 0 9 -10q0 -9 -15.5 -31t-35.5 -47.5l-38.5 -49.5t-24.5 -37
q17 -27 40 -56l20 -24t23.5 -29t21 -30.5t12.5 -27.5zM299 76q0 -6 -6 -6q-3 0 -18.5 11.5t-37 29.5l-46 39.5l-46 40.5l-37 33.5t-18.5 18.5q1 3 8 10q33 31 67 59.5t66 59.5q1 2 9 9l17 15l24 21q6 2 8 2q8 0 8 -9q0 -8 -15.5 -31t-36 -49.5l-39.5 -51t-26 -34.5
q7 -11 26.5 -35l40 -50.5t36.5 -49.5t16 -33z" />
    <glyph glyph-name="logicalnot" unicode="&#xac;" horiz-adv-x="645" 
d="M597 327q8 3 11 -4.5t2 -12.5q-1 -11 -0.5 -39.5t1 -60t0 -58t-3.5 -32.5q-2 -5 -11 -7t-19.5 -1.5t-19 4t-9.5 9.5q1 27 0 66.5t-2 72.5q-10 1 -21 1h-22h-36q-75 0 -148.5 -1t-148.5 -1q-33 0 -69.5 1t-69.5 3q0 9 -0.5 17.5t-0.5 17.5q0 6 0.5 12t1.5 12q7 1 13 1h13
h539v0z" />
    <glyph glyph-name="minus" unicode="&#xad;" 
d="M440 250q0 -8 -0.5 -17.5t-5.5 -15.5q-11 1 -24 1h-27h-75q-45 0 -108.5 -0.5t-151.5 -0.5q-11 17 -12 29.5t12 34.5q92 0 175.5 -1t144.5 -1h70q2 -10 2 -15v-14v0z" />
    <glyph glyph-name="registered" unicode="&#xae;" horiz-adv-x="576" 
d="M333 648q0 17 -10 27t-35 10q-15 0 -19 -6.5t-4 -18.5q0 -8 -0.5 -15.5t-0.5 -27.5q0 -8 2.5 -12t13.5 -4q29 0 41 11.5t12 35.5zM388 648q0 -23 -12.5 -42.5t-30.5 -30.5q14 -8 23 -26t18 -38q9 -24 20 -44.5t25 -20.5q4 0 11 14t14.5 34.5t13 43.5t6.5 41
q1 40 -11.5 75.5t-36.5 62.5t-59 43t-79 18q-47 1 -82 -14.5t-58.5 -42t-35.5 -60.5t-13 -70q-2 -37 8.5 -74t34 -67t58.5 -49t83 -20q76 -3 122 42q-26 11 -47 30t-30 45q-6 10 -8.5 21.5t-7 20.5t-14 15t-29.5 6q-6 0 -6 -10v-71q0 -13 5 -17t15 -4t17 -5t8.5 -11t-3 -11
t-16.5 -5q-14 0 -26.5 1t-25.5 1q-11 0 -23 -1t-23 -1q-6 0 -10 4.5t-4.5 10.5t3 11t11.5 6q8 2 17 5t9 14l1 192q0 11 -7.5 12.5t-15.5 2.5t-12.5 2t-5.5 10q-2 17 3.5 22.5t12.5 5.5h77q5 1 15 1h15q12 0 27 -3.5t28 -12.5t22 -24t9 -38zM536 586q0 -52 -19.5 -98t-54 -81
t-81 -55.5t-99.5 -20.5t-97 18.5t-76 51.5t-49.5 78.5t-17.5 98.5q0 54 18 100t50.5 79.5t77 52.5t97.5 19q51 0 97 -17.5t80 -49.5t54 -77t20 -99z" />
    <glyph glyph-name="macron" unicode="&#xaf;" horiz-adv-x="471" 
d="M115 651q0 5 15 6t29 1h17q28 0 49 -0.5t40 -0.5h39q11 0 23.5 0.5t26.5 1.5q6 0 6 -18v-40q0 -5 -10.5 -6.5t-22.5 -1.5h-176q-12 0 -24 1t-12 4q-1 7 -0.5 17t0.5 36z" />
    <glyph glyph-name="degree" unicode="&#xb0;" horiz-adv-x="290" 
d="M212 589q0 26 -20.5 45t-46.5 19q-23 0 -41 -19t-18 -42q0 -11 4.5 -22.5t12 -21t17.5 -16t21 -7.5q1 -1 5 -1q27 0 46.5 19t19.5 46zM246 588q0 -21 -8.5 -39.5t-22.5 -32.5t-33 -22t-40 -8q-4 0 -8 2q-18 1 -33.5 11.5t-27.5 25.5t-19 33t-7 35q0 19 7.5 36.5t20.5 31
t30 21.5t35 8q20 0 39 -8t34 -22t24 -32.5t9 -39.5z" />
    <glyph glyph-name="plusminus" unicode="&#xb1;" 
d="M440 32q0 -8 -0.5 -17.5t-5.5 -15.5q-11 1 -24 1h-27h-75q-45 0 -108.5 -0.5t-151.5 -0.5q-11 17 -12 29.5t12 34.5q92 0 175.5 -1t144.5 -1h70q2 -10 2 -15v-14v0zM239 109q-8 0 -17.5 0.5t-15.5 5.5q2 26 1.5 64t-0.5 100h-159q-11 17 -12 29.5t12 34.5q21 -1 41 -1h40
h77v159q17 11 29.5 12t34.5 -12q-1 -21 -1 -42v-40v-78h169q2 -10 2 -15v-14q0 -8 -0.5 -17.5t-5.5 -15.5q-26 2 -64.5 1.5t-101.5 -0.5v-169q-10 -2 -15 -2h-14v0z" />
    <glyph glyph-name="twosuperior" unicode="&#xb2;" horiz-adv-x="398" 
d="M55 668q0 4 3.5 11.5t8.5 15t10.5 14.5t8.5 10q15 13 25.5 21t20.5 12t20.5 5.5t25.5 1.5q72 0 105 -45.5t12 -120.5q-8 -29 -31 -53.5t-49.5 -43.5t-49.5 -30.5t-32 -15.5q13 -6 33 -8t40 -0.5t37.5 7.5t25.5 16l21.5 29l22 31l18.5 26.5l10 14.5q8 11 19.5 6.5
t15.5 -13.5q-25 -40 -34.5 -71t-12.5 -52t-4 -32t-9 -11q-29 0 -48 2t-37 5t-38.5 6t-51.5 4h-17q-4 0 -6.5 -0.5t-6.5 -0.5h-17q-4 0 -10.5 -8.5t-10.5 -6.5q-10 0 -15 4t-5 17q0 5 5 10q28 31 51 49.5l42 33.5t33.5 31.5t25.5 43.5q21 55 0 87t-72 32q-15 0 -25 -6
t-17 -14t-12.5 -15.5t-11.5 -10.5t-11.5 1t-5.5 11z" />
    <glyph glyph-name="threesuperior" unicode="&#xb3;" horiz-adv-x="290" 
d="M40 709q-1 7 6 15.5t19 16.5t26.5 14t27.5 8q15 2 33 0.5t33.5 -8t26.5 -19t11 -32.5q0 -13 -8.5 -28t-20.5 -29t-25 -25.5t-21 -17.5q25 3 46.5 -4.5t36.5 -21.5t23.5 -33.5t8.5 -41.5q0 -33 -22.5 -64.5t-55 -55.5t-69.5 -38.5t-67 -14.5q-4 0 -5.5 4t-1 9.5t2 9.5
t3.5 4q27 8 51.5 20t43 28.5t29 38t10.5 48.5q0 60 -60 72q-12 2 -25 3t-25 -5q-4 -2 -11.5 -7t-10.5 -5q-2 0 -3.5 4t-2.5 9t-1.5 10t-0.5 7q0 5 7.5 9l11.5 6q13 7 28 18.5t28 23.5t21.5 24t8.5 20q0 28 -12.5 33t-31.5 2q-18 -3 -29.5 -10.5t-24.5 -23.5q-1 -1 -2.5 2.5
t-3 8t-2.5 9.5t-1 7z" />
    <glyph glyph-name="acute" unicode="&#xb4;" horiz-adv-x="456" 
d="M284 701q6 -5 9 -6.5t5.5 -3.5t7 -5l13.5 -9q8 -3 7.5 -10.5t-5.5 -11.5q-7 -8 -25 -30.5l-38 -47l-37.5 -44.5t-22.5 -23q-9 -6 -16.5 -0.5t-1.5 16.5q5 13 16 36.5l23 49l23.5 48.5t18.5 35q5 8 9.5 10t13.5 -4z" />
    <glyph glyph-name="mu" unicode="&#xb5;" horiz-adv-x="567" 
d="M548 39q0 -6 -11.5 -12t-29 -12t-38 -12t-39.5 -11q-2 0 -7 -1.5t-11.5 -3t-13 -2.5t-9.5 0q-6 1 -6 15q0 13 1 27.5t1 24.5q0 11 -4 7l-32 -28t-33.5 -25.5t-37 -19t-41.5 -7.5h-19q-23 0 -41 6q-8 3 -11 -10.5t-3 -33.5q0 -37 1.5 -60t3 -37.5t3 -23.5t1.5 -18
q0 -44 -34 -44q-17 0 -27.5 12t-10.5 36q0 12 1 29.5t2.5 36.5l3 37t1.5 31q0 19 -1 34l-2 29l-2 29t-1 34l-1 293q0 26 -6.5 39t-36.5 13q-4 2 -9.5 3t-10 2t-7.5 4t-3 9q0 7 8 9.5t19.5 3t23.5 0.5q13 0 23 1l35 4t35 2q8 0 9 -11.5t1 -16.5v-160q0 -30 -0.5 -60t-0.5 -60
q0 -49 18.5 -76.5t69.5 -27.5q21 0 37 3.5t29 11.5t24.5 20t24.5 29q1 10 1.5 20.5t1 25t0.5 34.5v51v99q0 14 -1 28t-4 28q-2 9 -11.5 14t-21 7t-21.5 3.5t-13 3.5q-5 0 -12 2.5t-7 9.5q0 5 15.5 9t38 6.5t46.5 4t41 1.5q20 0 25.5 -5.5t5.5 -26.5q0 -85 -2 -170t-2 -170
q0 -13 6.5 -22t20.5 -9q23 0 40 4q5 1 11 0t6 -10z" />
    <glyph glyph-name="paragraph" unicode="&#xb6;" horiz-adv-x="544" 
d="M44 215q0 90 32 181.5t91 165t141 120t183 46.5h18q4 0 6.5 -5t2.5 -12t-2 -12t-7 -5h-22q-23 0 -45 -4.5t-43 -10.5q-39 -12 -52.5 -39.5t-11 -64.5t16.5 -81.5l30 -91.5t28.5 -93.5t12.5 -86.5q0 -46 -9.5 -98.5l-19.5 -104t-16 -99t-0.5 -83.5t27.5 -57.5t69 -21.5h18
q7 0 17 2q6 0 9 -5.5t3 -11.5t-3 -11.5t-9 -5.5q-10 0 -20 -0.5t-24 -0.5q-53 0 -105 20.5t-99 56t-86.5 83t-68.5 102t-45.5 113t-16.5 115.5z" />
    <glyph glyph-name="periodcentered" unicode="&#xb7;" horiz-adv-x="257" 
d="M195 351q0 -26 -19.5 -44t-44.5 -18q-26 0 -43 18t-17 44t17.5 44.5t43.5 18.5t44.5 -18.5t18.5 -44.5z" />
    <glyph glyph-name="periodcentered" unicode="&#x2219;" horiz-adv-x="257" 
d="M195 351q0 -26 -19.5 -44t-44.5 -18q-26 0 -43 18t-17 44t17.5 44.5t43.5 18.5t44.5 -18.5t18.5 -44.5z" />
    <glyph glyph-name="cedilla" unicode="&#xb8;" horiz-adv-x="173" 
d="M198 -156q0 -24 -12 -41t-31.5 -28t-44.5 -16.5t-50 -5.5q-24 0 -49.5 6.5t-46.5 18.5q2 8 6 18t9 15q18 0 39.5 -9.5t43.5 -9.5q21 0 40.5 12.5t19.5 35.5q0 21 -15.5 32t-34.5 11q-8 0 -16.5 -1.5t-16.5 -1.5q-6 0 -9 3t-8 7q5 14 12.5 32.5t16 37.5l17 37t15.5 31
q3 1 9 1h19q6 0 12 -2q-11 -29 -23.5 -53.5t-23.5 -52.5q8 0 17 1.5t17 1.5q38 0 63 -20.5t25 -59.5z" />
    <glyph glyph-name="onesuperior" unicode="&#xb9;" horiz-adv-x="356" 
d="M322 738q0 -14 -10.5 -17t-24.5 -3q-27 0 -42 -5t-22 -14t-8 -23t-1 -32q0 -29 -0.5 -45t-1 -28t-1 -26.5t-0.5 -40.5v-3v3v-10v7q1 -14 4 -28t13 -22q9 -8 24.5 -11t30 -5.5t25.5 -5.5t11 -12q0 -15 -14.5 -16.5t-29.5 -1.5q-28 0 -56 3t-56 3q-15 0 -24.5 -1
t-18.5 -2.5t-18.5 -2.5t-24.5 -1h-14q-10 0 -19.5 3.5t-9.5 15.5q0 9 10 12.5t23.5 6t28.5 6t25 12.5q10 8 12.5 28.5t2.5 39.5v21l1 71v5q0 -4 0.5 -7.5t0.5 -5.5v28q0 17 -3 37t-9 28q-11 11 -26 13.5t-29 3.5t-23.5 5t-9.5 18q0 10 9.5 11.5t17.5 1.5h11q29 0 47.5 -3
t47.5 -3q14 0 29 1.5t29 1.5h87q6 -6 6 -11z" />
    <glyph glyph-name="ordmasculine" unicode="&#xba;" horiz-adv-x="431" 
d="M66 273q0 5 15 6t29 1h17q57 0 114 -1t114 2q6 0 6 -18v-40q0 -5 -10.5 -6.5t-22.5 -1.5h-226q-12 0 -24 1t-12 4q-1 7 -0.5 17t0.5 36zM298 531q0 25 -5 49.5t-15.5 44t-27.5 31t-40 11.5q-20 0 -34.5 -10t-25 -26t-15.5 -37.5t-5 -43.5q0 -24 5.5 -48.5t16.5 -44
t27.5 -31.5t38.5 -12q21 0 36 9.5t24.5 25.5t14.5 37.5t5 44.5zM383 544q0 -36 -12 -67.5t-34 -55.5t-53 -38t-68 -14q-38 0 -69 12t-53.5 33.5t-35 52.5t-12.5 69q0 36 12.5 67.5t34.5 55.5t52.5 38t67.5 14q34 0 65 -12.5t54.5 -35t37 -53t13.5 -66.5z" />
    <glyph glyph-name="guillemotright" unicode="&#xbb;" horiz-adv-x="572" 
d="M292 238q-1 -1 -9 -7q-11 -8 -20 -16.5l-18 -16.5l-37 -33.5l-37 -33.5q-17 -14 -33 -30.5t-33 -30.5h-2q-5 0 -8.5 1.5t-4.5 7.5q2 11 17 33t34.5 46.5l37.5 48t26 37.5q-8 15 -27.5 38l-39 47t-34.5 46t-15 36q0 8 7 9q6 -2 11 -6l10 -8q8 -6 14.5 -12.5l13.5 -13.5
q20 -20 41 -38l42 -36l25.5 -21.5t23.5 -22.5q3 -3 6 -6.5t6 -6.5l4 -6zM471 246q0 -3 -6 -10t-14 -14.5l-15.5 -14t-10.5 -8.5q-11 -7 -24 -17.5t-26 -22.5l-25.5 -24l-21.5 -21q-11 -11 -24 -20.5t-22 -22.5l-9 -3q-7 5 -8 7q1 14 16 36.5t34.5 47l38.5 47.5t28 38
q-1 4 -6 10l-25.5 31.5l-38 47.5l-35 46.5t-16.5 28.5l3 6t4 4t7 -2t7 -3q2 -2 5 -3.5t5 -3.5q8 -5 14 -11.5t13 -12.5q36 -35 76 -66t76 -67v-3v0z" />
    <glyph glyph-name="onequarter" unicode="&#xbc;" horiz-adv-x="754" 
d="M473 153q0 -6 6 -8.5t11 -2.5q17 0 34.5 1t27.5 2q17 0 20.5 4.5t3.5 15.5v34q0 15 -0.5 30t-0.5 34v50q-11 -15 -15.5 -22.5t-8 -14t-10 -16.5t-21.5 -30q-13 -17 -25.5 -36.5t-21.5 -40.5zM329 706q0 -14 -10.5 -17t-24.5 -3q-27 0 -42 -5t-22 -14t-8 -23t-1 -32
q0 -29 -0.5 -45t-1 -28t-1 -26.5t-0.5 -40.5q1 -14 4 -29.5t13 -23.5q9 -8 24.5 -11t30 -5.5t25.5 -5.5t11 -12q0 -15 -14.5 -16.5t-29.5 -1.5q-28 0 -56 3t-56 3q-15 0 -26 -1t-20.5 -2.5t-20.5 -2.5t-26 -1h-14q-10 0 -19.5 3.5t-9.5 15.5q0 9 10 12.5t23.5 6t28.5 6
t25 12.5q10 8 12.5 28.5t2.5 39.5v21l1 71v5q0 -4 0.5 -7.5t0.5 -5.5v28q0 17 -3 37t-9 28q-11 11 -26 13.5t-29 3.5t-23.5 5t-9.5 18q0 10 9.5 11.5t17.5 1.5h11q29 0 51 -3t51 -3q14 0 29 1.5t29 1.5h87q6 -6 6 -11zM677 646q-28 -42 -59 -81.5l-63 -79.5l-187 -237
t-181 -241q-5 2 -18 11t-36 17l245 318l244 321q11 0 27.5 -11t27.5 -17zM722 114q0 -18 -17 -18q-11 0 -21 1t-21 1q-8 0 -12.5 -1t-11.5 -3q-2 -10 -2 -17v-63q0 -3 0.5 -6t1.5 -7q-1 -12 -11.5 -17.5t-22.5 -6.5t-22 2.5t-10 9.5q1 15 1.5 21.5t0.5 10.5v27q0 16 0.5 31
t-13.5 17q-12 1 -23.5 1.5t-22.5 0.5q-24 0 -34.5 -0.5t-18.5 -0.5q-7 0 -17.5 -0.5t-34.5 -0.5q-6 0 -9.5 7t1.5 14q32 48 59.5 93.5t59.5 88.5q12 16 17 24.5t8.5 15.5t8.5 15.5t16 24.5q6 9 16.5 12.5t21 3t18 -4.5t7.5 -11q0 -2 0 -1q0 2 1 4v-228q0 -3 2 -9
q15 -4 27.5 -3t27.5 1q13 0 21 -8.5t8 -20.5z" />
    <glyph glyph-name="onehalf" unicode="&#xbd;" horiz-adv-x="820" 
d="M329 706q0 -14 -10.5 -17t-24.5 -3q-27 0 -42 -5t-22 -14t-8 -23t-1 -32q0 -29 -0.5 -45t-1 -28t-1 -26.5t-0.5 -40.5q1 -14 4 -29.5t13 -23.5q9 -8 24.5 -11t30 -5.5t25.5 -5.5t11 -12q0 -15 -14.5 -16.5t-29.5 -1.5q-28 0 -56 3t-56 3q-15 0 -26 -1t-20.5 -2.5
t-20.5 -2.5t-26 -1h-14q-10 0 -19.5 3.5t-9.5 15.5q0 9 10 12.5t23.5 6t28.5 6t25 12.5q10 8 12.5 28.5t2.5 39.5v21l1 71v5q0 -4 0.5 -7.5t0.5 -5.5v28q0 17 -3 37t-9 28q-11 11 -26 13.5t-29 3.5t-23.5 5t-9.5 18q0 10 9.5 11.5t17.5 1.5h11q29 0 51 -3t51 -3q14 0 29 1.5
t29 1.5h87q6 -6 6 -11zM677 646q-28 -42 -59 -81.5l-63 -79.5l-187 -237t-181 -241q-5 2 -18 11t-36 17l245 318l244 321q11 0 27.5 -11t27.5 -17zM488 271q0 4 3.5 11.5t8.5 15t10.5 14.5t8.5 10q15 13 25.5 21t20.5 12t20.5 5.5t25.5 1.5q72 0 105 -45.5t12 -120.5
q-8 -29 -31 -53.5t-49.5 -43.5t-49.5 -30.5t-32 -15.5q13 -6 33 -8t40 -0.5t37.5 7.5t25.5 16l21.5 29l22 31l18.5 26.5l10 14.5q8 11 19.5 6.5t15.5 -13.5q-25 -40 -34.5 -71t-12.5 -52t-4 -32t-9 -11q-29 0 -48 2t-37 5t-38.5 6t-51.5 4h-17q-4 0 -6.5 -0.5t-6.5 -0.5h-17
q-4 0 -10.5 -8.5t-10.5 -6.5q-10 0 -15 4t-5 17q0 5 5 10q28 31 51 49.5l42 33.5t33.5 31.5t25.5 43.5q21 55 0 87t-72 32q-15 0 -25 -6t-17 -14t-12.5 -15.5t-11.5 -10.5t-11.5 1t-5.5 11z" />
    <glyph glyph-name="threequarters" unicode="&#xbe;" horiz-adv-x="700" 
d="M419 153q0 -6 6 -8.5t11 -2.5q17 0 34.5 1t27.5 2q17 0 20.5 4.5t3.5 15.5v34q0 15 -0.5 30t-0.5 34v50q-11 -15 -15.5 -22.5t-8 -14t-10 -16.5t-21.5 -30q-13 -17 -25.5 -36.5t-21.5 -40.5zM49 681q-1 7 6 15.5t19 16.5t26.5 14t27.5 8q15 2 33 0.5t33.5 -8t26.5 -19
t11 -32.5q0 -13 -8.5 -28t-20.5 -29t-25 -25.5t-21 -17.5q25 3 46.5 -4.5t36.5 -21.5t23.5 -33.5t8.5 -41.5q0 -33 -22.5 -64.5t-55 -55.5t-69.5 -38.5t-67 -14.5q-4 0 -5.5 4t-1 9.5t2 9.5t3.5 4q27 8 51.5 20t43 28.5t29 38t10.5 48.5q0 60 -60 72q-12 2 -25 3t-25 -5
q-4 -2 -11.5 -7t-10.5 -5q-2 0 -3.5 4t-2.5 9t-1.5 10t-0.5 7q0 5 7.5 9l11.5 6q13 7 28 18.5t28 23.5t21.5 24t8.5 20q0 28 -12.5 33t-31.5 2q-18 -3 -29.5 -10.5t-24.5 -23.5q-1 -1 -2.5 2.5t-3 8t-2.5 9.5t-1 7zM623 646q-28 -42 -59 -81.5l-63 -79.5l-187 -237
t-181 -241q-5 2 -18 11t-36 17l245 318l244 321q11 0 27.5 -11t27.5 -17zM668 114q0 -18 -17 -18q-11 0 -21 1t-21 1q-8 0 -12.5 -1t-11.5 -3q-2 -10 -2 -17v-63q0 -3 0.5 -6t1.5 -7q-1 -12 -11.5 -17.5t-22.5 -6.5t-22 2.5t-10 9.5q1 15 1.5 21.5t0.5 10.5v27q0 16 0.5 31
t-13.5 17q-12 1 -23.5 1.5t-22.5 0.5q-24 0 -34.5 -0.5t-18.5 -0.5q-7 0 -17.5 -0.5t-34.5 -0.5q-6 0 -9.5 7t1.5 14q32 48 59.5 93.5t59.5 88.5q12 16 17 24.5t8.5 15.5t8.5 15.5t16 24.5q6 9 16.5 12.5t21 3t18 -4.5t7.5 -11q0 -2 0 -1q0 2 1 4v-228q0 -3 2 -9
q15 -4 27.5 -3t27.5 1q13 0 21 -8.5t8 -20.5z" />
    <glyph glyph-name="questiondown" unicode="&#xbf;" horiz-adv-x="335" 
d="M179 458q0 25 19.5 42t44.5 12q23 -2 35.5 -19t12.5 -39q0 -25 -15 -41.5t-41 -16.5q-25 0 -40.5 19.5t-15.5 42.5zM29 29q0 38 12.5 64t32 44.5t43 31.5l44.5 24.5t37.5 24t22.5 30.5q4 3 4 15v26q0 14 3.5 25t14.5 13q13 -3 14 -16q1 -7 1.5 -19.5t0.5 -26.5
q0 -13 -0.5 -25.5t-0.5 -19.5q0 -37 1.5 -56.5t-12.5 -27.5q-27 -11 -55 -24.5t-51.5 -32.5t-38 -44t-14.5 -59q0 -24 8 -47t23 -41.5t36 -30t47 -11.5q17 0 34 6t34 6t29.5 -10.5t12.5 -27.5q0 -15 -6 -24t-16 -14.5t-22 -7t-24 -1.5q-42 0 -81 25.5t-69 63.5t-47.5 83
t-17.5 84z" />
    <glyph glyph-name="Agrave" unicode="&#xc0;" horiz-adv-x="778" 
d="M264 961l8.5 7t5.5 4l7.5 5t13.5 10q5 8 12 4.5t9 -8.5q5 -10 20.5 -34.5l32.5 -51l30.5 -49.5t14.5 -30q3 -10 -4.5 -15t-16.5 4l-29 26.5l-39.5 37.5l-38.5 38t-27 29q-6 7 -6.5 11.5t7.5 11.5zM326 527l-26 -62.5l-43 -103.5h27q17 0 51.5 0.5t97.5 0.5q0 1 3.5 1.5
t5.5 1.5l-27 74.5l-26 74l-20.5 58.5t-11.5 28q-3 3 -7.5 -7.5t-9.5 -24.5t-9 -27t-5 -14zM10 11q0 13 8 17t19 6t24 6t22 18q3 4 9 17.5l12.5 28.5t12 29.5t8.5 21.5l42.5 106.5l43.5 106.5l74 181l74 181q2 6 4.5 9.5t10.5 3.5q7 0 11 -5.5t6 -10.5l47 -116l47 -116
q42 -108 88 -215.5t97 -213.5q9 -19 25.5 -25t32.5 -9t28 -6.5t12 -16.5q0 -9 -10.5 -12.5t-20.5 -3.5h-11q-24 0 -48 3t-48 3q-35 0 -69.5 -3t-69.5 -3q-9 0 -16 6t-7 15q0 11 14 13t31.5 3t31.5 5t14 21q0 3 -1 6.5t-2 6.5q-3 10 -11 30.5l-19 48.5l-25 62l-29 70
q-5 10 -8.5 18t-5.5 10q-8 8 -24 9.5t-33 1.5h-19q-12 0 -31.5 0.5t-40.5 0.5q-20 0 -39.5 -1t-32.5 -4q-18 -42 -33.5 -83.5t-26.5 -75.5t-17.5 -57t-6.5 -28q0 -21 16 -27t35.5 -8t35.5 -5.5t16 -18.5q0 -8 -6 -13.5t-14 -5.5q-32 0 -65 3.5t-65 3.5q-23 0 -41.5 -2.5
t-41.5 -2.5q-7 0 -10.5 5t-3.5 11z" />
    <glyph glyph-name="Aacute" unicode="&#xc1;" horiz-adv-x="778" 
d="M466 997q6 -5 9 -6.5t5.5 -3.5t7 -5l13.5 -9q8 -3 7.5 -10.5t-5.5 -11.5q-7 -8 -25 -30.5l-38 -47l-37.5 -44.5t-22.5 -23q-9 -6 -16.5 -0.5t-1.5 16.5q5 13 16 36.5l23 49l23.5 48.5t18.5 35q5 8 9.5 10t13.5 -4zM326 527l-26 -62.5l-43 -103.5h27q17 0 51.5 0.5
t97.5 0.5q0 1 3.5 1.5t5.5 1.5l-27 74.5l-26 74l-20.5 58.5t-11.5 28q-3 3 -7.5 -7.5t-9.5 -24.5t-9 -27t-5 -14zM10 11q0 13 8 17t19 6t24 6t22 18q3 4 9 17.5l12.5 28.5t12 29.5t8.5 21.5l42.5 106.5l43.5 106.5l74 181l74 181q2 6 4.5 9.5t10.5 3.5q7 0 11 -5.5t6 -10.5
l47 -116l47 -116q42 -108 88 -215.5t97 -213.5q9 -19 25.5 -25t32.5 -9t28 -6.5t12 -16.5q0 -9 -10.5 -12.5t-20.5 -3.5h-11q-24 0 -48 3t-48 3q-35 0 -69.5 -3t-69.5 -3q-9 0 -16 6t-7 15q0 11 14 13t31.5 3t31.5 5t14 21q0 3 -1 6.5t-2 6.5q-3 10 -11 30.5l-19 48.5
l-25 62l-29 70q-5 10 -8.5 18t-5.5 10q-8 8 -24 9.5t-33 1.5h-19q-12 0 -31.5 0.5t-40.5 0.5q-20 0 -39.5 -1t-32.5 -4q-18 -42 -33.5 -83.5t-26.5 -75.5t-17.5 -57t-6.5 -28q0 -21 16 -27t35.5 -8t35.5 -5.5t16 -18.5q0 -8 -6 -13.5t-14 -5.5q-32 0 -65 3.5t-65 3.5
q-23 0 -41.5 -2.5t-41.5 -2.5q-7 0 -10.5 5t-3.5 11z" />
    <glyph glyph-name="Acircumflex" unicode="&#xc2;" horiz-adv-x="778" 
d="M296 779q-6 0 -6 7q0 3 6.5 17t17 33l23 41l24 41t21 33t13.5 17q9 -6 10 -8l55.5 -90.5t40.5 -79.5q2 -6 2 -8q0 -9 -9 -7q-5 1 -17 15.5l-27 33.5l-30 36.5t-25 24.5q-11 -8 -24.5 -25.5l-26.5 -35.5t-25.5 -31.5t-22.5 -13.5zM326 527l-26 -62.5l-43 -103.5h27
q17 0 51.5 0.5t97.5 0.5q0 1 3.5 1.5t5.5 1.5l-27 74.5l-26 74l-20.5 58.5t-11.5 28q-3 3 -7.5 -7.5t-9.5 -24.5t-9 -27t-5 -14zM10 11q0 13 8 17t19 6t24 6t22 18q3 4 9 17.5l12.5 28.5t12 29.5t8.5 21.5l42.5 106.5l43.5 106.5l74 181l74 181q2 6 4.5 9.5t10.5 3.5
q7 0 11 -5.5t6 -10.5l47 -116l47 -116q42 -108 88 -215.5t97 -213.5q9 -19 25.5 -25t32.5 -9t28 -6.5t12 -16.5q0 -9 -10.5 -12.5t-20.5 -3.5h-11q-24 0 -48 3t-48 3q-35 0 -69.5 -3t-69.5 -3q-9 0 -16 6t-7 15q0 11 14 13t31.5 3t31.5 5t14 21q0 3 -1 6.5t-2 6.5
q-3 10 -11 30.5l-19 48.5l-25 62l-29 70q-5 10 -8.5 18t-5.5 10q-8 8 -24 9.5t-33 1.5h-19q-12 0 -31.5 0.5t-40.5 0.5q-20 0 -39.5 -1t-32.5 -4q-18 -42 -33.5 -83.5t-26.5 -75.5t-17.5 -57t-6.5 -28q0 -21 16 -27t35.5 -8t35.5 -5.5t16 -18.5q0 -8 -6 -13.5t-14 -5.5
q-32 0 -65 3.5t-65 3.5q-23 0 -41.5 -2.5t-41.5 -2.5q-7 0 -10.5 5t-3.5 11z" />
    <glyph glyph-name="Atilde" unicode="&#xc3;" horiz-adv-x="778" 
d="M543 920q0 -5 -0.5 -9.5t-1.5 -9.5q-3 -18 -13 -34.5t-24 -29t-31.5 -20t-36.5 -7.5q-17 0 -36 7t-38 15t-37.5 15t-34.5 7q-24 0 -34.5 -15.5t-19.5 -33.5q0 -6 -13 -6q-4 0 -8 2t-4 5q4 20 12 39t21 33.5t30.5 23.5t40.5 9q20 0 39 -6.5t37 -15t35 -15t34 -6.5
q23 0 36 15.5t19 35.5q2 8 15 8t13 -7zM326 527l-26 -62.5l-43 -103.5h27q17 0 51.5 0.5t97.5 0.5q0 1 3.5 1.5t5.5 1.5l-27 74.5l-26 74l-20.5 58.5t-11.5 28q-3 3 -7.5 -7.5t-9.5 -24.5t-9 -27t-5 -14zM10 11q0 13 8 17t19 6t24 6t22 18q3 4 9 17.5l12.5 28.5t12 29.5
t8.5 21.5l42.5 106.5l43.5 106.5l74 181l74 181q2 6 4.5 9.5t10.5 3.5q7 0 11 -5.5t6 -10.5l47 -116l47 -116q42 -108 88 -215.5t97 -213.5q9 -19 25.5 -25t32.5 -9t28 -6.5t12 -16.5q0 -9 -10.5 -12.5t-20.5 -3.5h-11q-24 0 -48 3t-48 3q-35 0 -69.5 -3t-69.5 -3
q-9 0 -16 6t-7 15q0 11 14 13t31.5 3t31.5 5t14 21q0 3 -1 6.5t-2 6.5q-3 10 -11 30.5l-19 48.5l-25 62l-29 70q-5 10 -8.5 18t-5.5 10q-8 8 -24 9.5t-33 1.5h-19q-12 0 -31.5 0.5t-40.5 0.5q-20 0 -39.5 -1t-32.5 -4q-18 -42 -33.5 -83.5t-26.5 -75.5t-17.5 -57t-6.5 -28
q0 -21 16 -27t35.5 -8t35.5 -5.5t16 -18.5q0 -8 -6 -13.5t-14 -5.5q-32 0 -65 3.5t-65 3.5q-23 0 -41.5 -2.5t-41.5 -2.5q-7 0 -10.5 5t-3.5 11z" />
    <glyph glyph-name="Adieresis" unicode="&#xc4;" horiz-adv-x="778" 
d="M349 854q0 -23 -16.5 -37t-38.5 -14t-38 14.5t-16 37.5t17 38.5t40 15.5q22 0 37 -17t15 -38zM554 857q0 -25 -16.5 -40t-40.5 -15q-3 0 -4 1q-21 2 -33.5 17.5t-12.5 35.5q0 23 15 38t39 15q23 0 38 -14.5t15 -37.5zM326 527l-26 -62.5l-43 -103.5h27q17 0 51.5 0.5
t97.5 0.5q0 1 3.5 1.5t5.5 1.5l-27 74.5l-26 74l-20.5 58.5t-11.5 28q-3 3 -7.5 -7.5t-9.5 -24.5t-9 -27t-5 -14zM10 11q0 13 8 17t19 6t24 6t22 18q3 4 9 17.5l12.5 28.5t12 29.5t8.5 21.5l42.5 106.5l43.5 106.5l74 181l74 181q2 6 4.5 9.5t10.5 3.5q7 0 11 -5.5t6 -10.5
l47 -116l47 -116q42 -108 88 -215.5t97 -213.5q9 -19 25.5 -25t32.5 -9t28 -6.5t12 -16.5q0 -9 -10.5 -12.5t-20.5 -3.5h-11q-24 0 -48 3t-48 3q-35 0 -69.5 -3t-69.5 -3q-9 0 -16 6t-7 15q0 11 14 13t31.5 3t31.5 5t14 21q0 3 -1 6.5t-2 6.5q-3 10 -11 30.5l-19 48.5
l-25 62l-29 70q-5 10 -8.5 18t-5.5 10q-8 8 -24 9.5t-33 1.5h-19q-12 0 -31.5 0.5t-40.5 0.5q-20 0 -39.5 -1t-32.5 -4q-18 -42 -33.5 -83.5t-26.5 -75.5t-17.5 -57t-6.5 -28q0 -21 16 -27t35.5 -8t35.5 -5.5t16 -18.5q0 -8 -6 -13.5t-14 -5.5q-32 0 -65 3.5t-65 3.5
q-23 0 -41.5 -2.5t-41.5 -2.5q-7 0 -10.5 5t-3.5 11z" />
    <glyph glyph-name="Aring" unicode="&#xc5;" horiz-adv-x="778" 
d="M446 868q0 25 -18.5 42.5t-42.5 17.5q-22 0 -38 -17t-16 -39q0 -10 4 -20.5t11 -19.5t16 -15t19 -7q1 -1 5 -1q25 0 42.5 17t17.5 42zM326 527l-26 -62.5l-43 -103.5h27q17 0 51.5 0.5t97.5 0.5q0 1 3.5 1.5t5.5 1.5l-27 74.5l-26 74l-20.5 58.5t-11.5 28q-3 3 -7.5 -7.5
t-9.5 -24.5t-9 -27t-5 -14zM478 868q0 -20 -7.5 -37t-20.5 -29.5t-30.5 -20t-36.5 -7.5q-6 0 -8 2q-16 1 -30.5 10.5t-25.5 23.5t-17.5 30.5t-6.5 32.5q0 17 7 33t19 28.5t27.5 20t32.5 7.5q43 0 70 -27t27 -67zM10 11q0 13 8 17t19 6t24 6t22 18q3 4 9 17.5l12.5 28.5
t12 29.5t8.5 21.5l42.5 106.5l43.5 106.5l74 181l74 181q2 6 4.5 9.5t10.5 3.5q7 0 11 -5.5t6 -10.5l47 -116l47 -116q42 -108 88 -215.5t97 -213.5q9 -19 25.5 -25t32.5 -9t28 -6.5t12 -16.5q0 -9 -10.5 -12.5t-20.5 -3.5h-11q-24 0 -48 3t-48 3q-35 0 -69.5 -3t-69.5 -3
q-9 0 -16 6t-7 15q0 11 14 13t31.5 3t31.5 5t14 21q0 3 -1 6.5t-2 6.5q-3 10 -11 30.5l-19 48.5l-25 62l-29 70q-5 10 -8.5 18t-5.5 10q-8 8 -24 9.5t-33 1.5h-19q-12 0 -31.5 0.5t-40.5 0.5q-20 0 -39.5 -1t-32.5 -4q-18 -42 -33.5 -83.5t-26.5 -75.5t-17.5 -57t-6.5 -28
q0 -21 16 -27t35.5 -8t35.5 -5.5t16 -18.5q0 -8 -6 -13.5t-14 -5.5q-32 0 -65 3.5t-65 3.5q-23 0 -41.5 -2.5t-41.5 -2.5q-7 0 -10.5 5t-3.5 11z" />
    <glyph glyph-name="AE" unicode="&#xc6;" horiz-adv-x="1060" 
d="M537 623q0 16 -1.5 30.5t-9.5 13.5q-5 0 -12 -11t-15 -26l-16 -31.5t-15 -26.5q-22 -34 -41 -68.5t-41 -68.5q-5 -7 -7 -10.5t-3 -7t-2 -8t-4 -11.5q5 -3 20 -3.5t26 -0.5h13q27 0 46 1t46 1q5 0 10.5 1.5t5.5 8.5v217zM950 568q-10 0 -16 12.5t-12 29.5t-13.5 33.5
t-21.5 24.5q-9 5 -26 8.5t-38 5.5t-43.5 2.5t-42.5 0.5h-44q-23 0 -35 -9.5t-17.5 -24.5t-6.5 -33.5t-1 -35.5q0 -34 0.5 -71t0.5 -88v-12t1 -9q4 -5 12 -7t18 -2.5t19 0t15 0.5q27 0 55 0.5t55 4.5q30 5 43 25t15 49q3 6 6.5 11.5t11.5 5.5q11 0 12 -10t1 -21q0 -21 -1 -42
t-1 -42t1 -41.5t1 -41.5q0 -5 0.5 -12.5t-0.5 -14.5t-4.5 -11.5t-10.5 -4.5t-11 9t-6.5 20.5t-4.5 23t-5 16.5q-4 19 -20.5 28.5t-39 13t-47 3t-43.5 -0.5q-5 0 -13 -0.5t-17 -1t-17.5 -1.5t-12.5 -2q-6 -1 -8 -9t-3 -18t-0.5 -20t0.5 -14v-158q0 -11 0.5 -24.5t3 -27t8 -25
t16.5 -17.5q8 -4 28 -6.5t42.5 -3.5t43.5 -1.5t30 -0.5h31q13 0 29 1t30.5 2.5t27 4.5t20.5 8q14 9 26 28t22.5 38t20 33.5t17.5 14.5q12 0 13.5 -8t-2.5 -16q0 -1 -2 -10t-3 -11q-1 -3 -5 -20.5l-8.5 -37l-8 -35.5l-3.5 -16q-8 -12 -25 -12h-484q-6 0 -19.5 -1.5t-27.5 -1
t-24.5 4t-10.5 13.5q0 8 12.5 12t29.5 8t34 10.5t26 19.5q7 12 10 41t4 67t0.5 79.5t-0.5 79.5q0 13 -3 27q-6 0 -12.5 1t-12.5 1q-42 0 -75.5 -1.5t-75.5 -1.5q-5 0 -10.5 -3.5t-8.5 -7.5q-9 -11 -19.5 -26.5t-20.5 -32l-19.5 -32.5l-16.5 -28l-42 -72t-37 -75
q-2 -5 -4 -8.5t-2 -8.5q0 -15 15 -20t32.5 -7t32.5 -6.5t15 -17.5q0 -11 -9 -13t-14 -2q-28 0 -55 2.5t-55 2.5q-29 0 -57.5 -2t-57.5 -2q-11 0 -13 5t-2 10q0 9 9.5 12t23.5 7t30 12t30 26l12.5 16t11.5 16l147.5 235l144.5 238l20.5 33.5t18.5 34.5l4 10t2 10
q0 21 -17 26.5t-37 6.5t-37 2.5t-17 15.5q0 11 11.5 12.5t19.5 1.5q32 0 56.5 -0.5l47 -1l47 -1t56.5 -0.5q34 0 75.5 0.5t84.5 1.5t84.5 1.5t75.5 0.5h11q11 0 22 -2t13 -10q4 -20 4 -37q0 -9 -0.5 -21.5t-0.5 -30.5q0 -20 -2.5 -37.5t-10.5 -18.5z" />
    <glyph glyph-name="Ccedilla" unicode="&#xc7;" horiz-adv-x="727" 
d="M497 -177q0 -24 -12 -41t-31.5 -28t-44.5 -16.5t-50 -5.5q-24 0 -49.5 6.5t-46.5 18.5q2 8 6 18t9 15q18 0 39.5 -9.5t43.5 -9.5q21 0 40.5 12.5t19.5 35.5q0 21 -15.5 32t-34.5 11q-8 0 -16.5 -1.5t-16.5 -1.5q-6 0 -9 3t-8 7q8 23 21 54.5t26 58.5q-72 13 -129 49.5
t-96.5 89t-61 118t-21.5 137.5q0 87 27.5 154.5t76 114t116.5 70.5t149 24q34 0 67.5 -4t67.5 -11q8 -2 18.5 -5.5t21.5 -6.5q7 -6 12 0.5t11 16.5t15 19.5t24 9.5q7 0 9 -10t2 -24t-1.5 -29t-1.5 -26q0 -26 -1 -52t-3 -52q-2 -9 -5 -12t-7 -3t-7.5 1t-6.5 1q-6 0 -10 9
t-7 21.5l-6.5 26t-9.5 23.5q-32 35 -78.5 53.5t-95.5 18.5q-69 0 -118 -27t-80 -72t-45.5 -104.5t-14.5 -123.5q0 -69 14.5 -134t46.5 -115.5t83 -81.5t124 -31q24 0 50 5.5t50.5 16t46 25.5t37.5 35q5 7 11.5 19l13.5 24t13 21t11 9q11 0 15.5 -4t4.5 -15q0 -8 -2.5 -26
t-6.5 -37.5t-9 -35.5t-10 -21q-17 -15 -45 -25.5t-60 -17.5t-65.5 -10t-60.5 -3q-8 0 -16 0.5t-16 1.5q-8 -20 -17 -38.5t-17 -38.5q8 0 17 1.5t17 1.5q38 0 63 -20.5t25 -59.5z" />
    <glyph glyph-name="Egrave" unicode="&#xc8;" horiz-adv-x="671" 
d="M268 937l8.5 7t5.5 4l7.5 5t13.5 10q5 8 12 4.5t9 -8.5q5 -10 20.5 -34.5l32.5 -51l30.5 -49.5t14.5 -30q3 -10 -4.5 -15t-16.5 4l-29 26.5l-39.5 37.5l-38.5 38t-27 29q-6 7 -6.5 11.5t7.5 11.5zM561 568q-10 0 -16 12.5t-12 29.5t-13.5 33.5t-21.5 24.5q-9 5 -26 8.5
t-38 5.5t-43.5 2.5t-42.5 0.5h-44q-23 0 -35 -9.5t-17.5 -24.5t-6.5 -33.5t-1 -35.5q0 -34 0.5 -68t0.5 -68v-23q0 -13 2 -21q4 -5 12 -7t17.5 -2.5t18.5 0t15 0.5q27 0 55 0.5t55 4.5q30 5 43 25t15 49q3 6 6.5 11.5t11.5 5.5q11 0 12 -10t1 -21q0 -21 -1 -42t-1 -42
t1 -41.5t1 -41.5q0 -5 0.5 -12.5t-0.5 -14.5t-4.5 -11.5t-10.5 -4.5t-11 9t-6.5 20.5t-4.5 23t-5 16.5q-4 19 -20.5 28.5t-39 13t-47 3t-43.5 -0.5q-5 0 -13 -0.5t-17 -1t-17.5 -1.5t-12.5 -2q-6 -1 -8 -9t-3 -18t-0.5 -20t0.5 -14v-158q0 -11 0.5 -24.5t3 -27t8 -25
t16.5 -17.5q8 -4 28 -6.5t42.5 -3.5t43.5 -1.5t30 -0.5h31q13 0 29 1t30.5 2.5t27 4.5t20.5 8q14 9 26 28t22.5 38t20 33.5t17.5 14.5q12 0 13.5 -8t-2.5 -16q0 -1 -2 -10t-3 -11q-1 -3 -5 -20.5l-8.5 -37l-8 -35.5l-3.5 -16q-8 -12 -25 -12h-472q-14 0 -28.5 -1t-29.5 -1
q-11 0 -22 1t-11 16q0 8 12.5 12t30 8t34.5 10.5t26 19.5q8 12 11 39t3 59q0 33 -1 66.5t-1 58.5q0 81 -1 161t-1 161v18v9t-1 9q-2 26 -18.5 34.5t-36 11t-35 5t-15.5 15.5q0 9 8.5 12.5t20 5t24.5 1t22 -0.5q34 0 68 -1.5t69 -1.5q69 0 135.5 1.5t135.5 1.5h11q11 0 22 -2
t13 -10q4 -20 4 -37q0 -9 -0.5 -21.5t-0.5 -30.5q0 -20 -2.5 -37.5t-10.5 -18.5z" />
    <glyph glyph-name="Eacute" unicode="&#xc9;" horiz-adv-x="671" 
d="M465 981q6 -5 9 -6.5t5.5 -3.5t7 -5l13.5 -9q8 -3 7.5 -10.5t-5.5 -11.5q-7 -8 -25 -30.5l-38 -47l-37.5 -44.5t-22.5 -23q-9 -6 -16.5 -0.5t-1.5 16.5q5 13 16 36.5l23 49l23.5 48.5t18.5 35q5 8 9.5 10t13.5 -4zM561 568q-10 0 -16 12.5t-12 29.5t-13.5 33.5
t-21.5 24.5q-9 5 -26 8.5t-38 5.5t-43.5 2.5t-42.5 0.5h-44q-23 0 -35 -9.5t-17.5 -24.5t-6.5 -33.5t-1 -35.5q0 -34 0.5 -68t0.5 -68v-23q0 -13 2 -21q4 -5 12 -7t17.5 -2.5t18.5 0t15 0.5q27 0 55 0.5t55 4.5q30 5 43 25t15 49q3 6 6.5 11.5t11.5 5.5q11 0 12 -10t1 -21
q0 -21 -1 -42t-1 -42t1 -41.5t1 -41.5q0 -5 0.5 -12.5t-0.5 -14.5t-4.5 -11.5t-10.5 -4.5t-11 9t-6.5 20.5t-4.5 23t-5 16.5q-4 19 -20.5 28.5t-39 13t-47 3t-43.5 -0.5q-5 0 -13 -0.5t-17 -1t-17.5 -1.5t-12.5 -2q-6 -1 -8 -9t-3 -18t-0.5 -20t0.5 -14v-158
q0 -11 0.5 -24.5t3 -27t8 -25t16.5 -17.5q8 -4 28 -6.5t42.5 -3.5t43.5 -1.5t30 -0.5h31q13 0 29 1t30.5 2.5t27 4.5t20.5 8q14 9 26 28t22.5 38t20 33.5t17.5 14.5q12 0 13.5 -8t-2.5 -16q0 -1 -2 -10t-3 -11q-1 -3 -5 -20.5l-8.5 -37l-8 -35.5l-3.5 -16q-8 -12 -25 -12
h-472q-14 0 -28.5 -1t-29.5 -1q-11 0 -22 1t-11 16q0 8 12.5 12t30 8t34.5 10.5t26 19.5q8 12 11 39t3 59q0 33 -1 66.5t-1 58.5q0 81 -1 161t-1 161v18v9t-1 9q-2 26 -18.5 34.5t-36 11t-35 5t-15.5 15.5q0 9 8.5 12.5t20 5t24.5 1t22 -0.5q34 0 68 -1.5t69 -1.5
q69 0 135.5 1.5t135.5 1.5h11q11 0 22 -2t13 -10q4 -20 4 -37q0 -9 -0.5 -21.5t-0.5 -30.5q0 -20 -2.5 -37.5t-10.5 -18.5z" />
    <glyph glyph-name="Ecircumflex" unicode="&#xca;" horiz-adv-x="671" 
d="M261 798q-6 0 -6 7q0 3 6.5 17t17 33l23 41l24 41t21 33t13.5 17q9 -6 10 -8l55.5 -90.5t40.5 -79.5q2 -6 2 -8q0 -9 -9 -7q-5 1 -17 15.5l-27 33.5l-30 36.5t-25 24.5q-11 -8 -24.5 -25.5l-26.5 -35.5t-25.5 -31.5t-22.5 -13.5zM561 568q-10 0 -16 12.5t-12 29.5
t-13.5 33.5t-21.5 24.5q-9 5 -26 8.5t-38 5.5t-43.5 2.5t-42.5 0.5h-44q-23 0 -35 -9.5t-17.5 -24.5t-6.5 -33.5t-1 -35.5q0 -34 0.5 -68t0.5 -68v-23q0 -13 2 -21q4 -5 12 -7t17.5 -2.5t18.5 0t15 0.5q27 0 55 0.5t55 4.5q30 5 43 25t15 49q3 6 6.5 11.5t11.5 5.5
q11 0 12 -10t1 -21q0 -21 -1 -42t-1 -42t1 -41.5t1 -41.5q0 -5 0.5 -12.5t-0.5 -14.5t-4.5 -11.5t-10.5 -4.5t-11 9t-6.5 20.5t-4.5 23t-5 16.5q-4 19 -20.5 28.5t-39 13t-47 3t-43.5 -0.5q-5 0 -13 -0.5t-17 -1t-17.5 -1.5t-12.5 -2q-6 -1 -8 -9t-3 -18t-0.5 -20t0.5 -14
v-158q0 -11 0.5 -24.5t3 -27t8 -25t16.5 -17.5q8 -4 28 -6.5t42.5 -3.5t43.5 -1.5t30 -0.5h31q13 0 29 1t30.5 2.5t27 4.5t20.5 8q14 9 26 28t22.5 38t20 33.5t17.5 14.5q12 0 13.5 -8t-2.5 -16q0 -1 -2 -10t-3 -11q-1 -3 -5 -20.5l-8.5 -37l-8 -35.5l-3.5 -16
q-8 -12 -25 -12h-472q-14 0 -28.5 -1t-29.5 -1q-11 0 -22 1t-11 16q0 8 12.5 12t30 8t34.5 10.5t26 19.5q8 12 11 39t3 59q0 33 -1 66.5t-1 58.5q0 81 -1 161t-1 161v18v9t-1 9q-2 26 -18.5 34.5t-36 11t-35 5t-15.5 15.5q0 9 8.5 12.5t20 5t24.5 1t22 -0.5q34 0 68 -1.5
t69 -1.5q69 0 135.5 1.5t135.5 1.5h11q11 0 22 -2t13 -10q4 -20 4 -37q0 -9 -0.5 -21.5t-0.5 -30.5q0 -20 -2.5 -37.5t-10.5 -18.5z" />
    <glyph glyph-name="Edieresis" unicode="&#xcb;" horiz-adv-x="671" 
d="M307 861q0 -23 -16.5 -37t-38.5 -14t-38 14.5t-16 37.5t17 38.5t40 15.5q22 0 37 -17t15 -38zM512 864q0 -25 -16.5 -40t-40.5 -15q-3 0 -4 1q-21 2 -33.5 17.5t-12.5 35.5q0 23 15 38t39 15q23 0 38 -14.5t15 -37.5zM561 568q-10 0 -16 12.5t-12 29.5t-13.5 33.5
t-21.5 24.5q-9 5 -26 8.5t-38 5.5t-43.5 2.5t-42.5 0.5h-44q-23 0 -35 -9.5t-17.5 -24.5t-6.5 -33.5t-1 -35.5q0 -34 0.5 -68t0.5 -68v-23q0 -13 2 -21q4 -5 12 -7t17.5 -2.5t18.5 0t15 0.5q27 0 55 0.5t55 4.5q30 5 43 25t15 49q3 6 6.5 11.5t11.5 5.5q11 0 12 -10t1 -21
q0 -21 -1 -42t-1 -42t1 -41.5t1 -41.5q0 -5 0.5 -12.5t-0.5 -14.5t-4.5 -11.5t-10.5 -4.5t-11 9t-6.5 20.5t-4.5 23t-5 16.5q-4 19 -20.5 28.5t-39 13t-47 3t-43.5 -0.5q-5 0 -13 -0.5t-17 -1t-17.5 -1.5t-12.5 -2q-6 -1 -8 -9t-3 -18t-0.5 -20t0.5 -14v-158
q0 -11 0.5 -24.5t3 -27t8 -25t16.5 -17.5q8 -4 28 -6.5t42.5 -3.5t43.5 -1.5t30 -0.5h31q13 0 29 1t30.5 2.5t27 4.5t20.5 8q14 9 26 28t22.5 38t20 33.5t17.5 14.5q12 0 13.5 -8t-2.5 -16q0 -1 -2 -10t-3 -11q-1 -3 -5 -20.5l-8.5 -37l-8 -35.5l-3.5 -16q-8 -12 -25 -12
h-472q-14 0 -28.5 -1t-29.5 -1q-11 0 -22 1t-11 16q0 8 12.5 12t30 8t34.5 10.5t26 19.5q8 12 11 39t3 59q0 33 -1 66.5t-1 58.5q0 81 -1 161t-1 161v18v9t-1 9q-2 26 -18.5 34.5t-36 11t-35 5t-15.5 15.5q0 9 8.5 12.5t20 5t24.5 1t22 -0.5q34 0 68 -1.5t69 -1.5
q69 0 135.5 1.5t135.5 1.5h11q11 0 22 -2t13 -10q4 -20 4 -37q0 -9 -0.5 -21.5t-0.5 -30.5q0 -20 -2.5 -37.5t-10.5 -18.5z" />
    <glyph glyph-name="Igrave" unicode="&#xcc;" horiz-adv-x="380" 
d="M85 962l8.5 7t5.5 4l7.5 5t13.5 10q5 8 12 4.5t9 -8.5q5 -10 20.5 -34.5l32.5 -51l30.5 -49.5t14.5 -30q3 -10 -4.5 -15t-16.5 4l-29 26.5l-39.5 37.5l-38.5 38t-27 29q-6 7 -6.5 11.5t7.5 11.5zM345 706q0 -14 -10.5 -17t-24.5 -3q-27 0 -42 -4t-22 -13t-8 -22t-1 -31
q0 -63 -1.5 -125t-1.5 -125v-255q0 -16 2.5 -36t14.5 -31q9 -8 24.5 -11t30 -5.5t25.5 -5.5t11 -12q0 -15 -14.5 -16.5t-29.5 -1.5q-28 0 -56 3t-56 3q-30 0 -54 -3.5t-54 -3.5h-14q-10 0 -19.5 3.5t-9.5 15.5q0 9 10 12.5t23.5 6t28.5 6t25 12.5q10 8 12.5 28.5t2.5 39.5
v21l1 350q0 26 0.5 51t0.5 50v19q0 17 -3 37t-9 28q-11 11 -26 13.5t-29 3.5t-23.5 5t-9.5 18q0 10 9.5 11.5t17.5 1.5h11q29 0 58.5 -3t58.5 -3q14 0 29 1.5t29 1.5h87q2 -2 4 -7t2 -8z" />
    <glyph glyph-name="Iacute" unicode="&#xcd;" horiz-adv-x="380" 
d="M263 988q6 -5 9 -6.5t5.5 -3.5t7 -5l13.5 -9q8 -3 7.5 -10.5t-5.5 -11.5q-7 -8 -25 -30.5l-38 -47l-37.5 -44.5t-22.5 -23q-9 -6 -16.5 -0.5t-1.5 16.5q5 13 16 36.5l23 49l23.5 48.5t18.5 35q5 8 9.5 10t13.5 -4zM345 706q0 -14 -10.5 -17t-24.5 -3q-27 0 -42 -4
t-22 -13t-8 -22t-1 -31q0 -63 -1.5 -125t-1.5 -125v-255q0 -16 2.5 -36t14.5 -31q9 -8 24.5 -11t30 -5.5t25.5 -5.5t11 -12q0 -15 -14.5 -16.5t-29.5 -1.5q-28 0 -56 3t-56 3q-30 0 -54 -3.5t-54 -3.5h-14q-10 0 -19.5 3.5t-9.5 15.5q0 9 10 12.5t23.5 6t28.5 6t25 12.5
q10 8 12.5 28.5t2.5 39.5v21l1 350q0 26 0.5 51t0.5 50v19q0 17 -3 37t-9 28q-11 11 -26 13.5t-29 3.5t-23.5 5t-9.5 18q0 10 9.5 11.5t17.5 1.5h11q29 0 58.5 -3t58.5 -3q14 0 29 1.5t29 1.5h87q2 -2 4 -7t2 -8z" />
    <glyph glyph-name="Icircumflex" unicode="&#xce;" horiz-adv-x="380" 
d="M90 791q-6 0 -6 7q0 3 6.5 17t17 33l23 41l24 41t21 33t13.5 17q9 -6 10 -8l55.5 -90.5t40.5 -79.5q2 -6 2 -8q0 -9 -9 -7q-5 1 -17 15.5l-27 33.5l-30 36.5t-25 24.5q-11 -8 -24.5 -25.5l-26.5 -35.5t-25.5 -31.5t-22.5 -13.5zM345 706q0 -14 -10.5 -17t-24.5 -3
q-27 0 -42 -4t-22 -13t-8 -22t-1 -31q0 -63 -1.5 -125t-1.5 -125v-255q0 -16 2.5 -36t14.5 -31q9 -8 24.5 -11t30 -5.5t25.5 -5.5t11 -12q0 -15 -14.5 -16.5t-29.5 -1.5q-28 0 -56 3t-56 3q-30 0 -54 -3.5t-54 -3.5h-14q-10 0 -19.5 3.5t-9.5 15.5q0 9 10 12.5t23.5 6
t28.5 6t25 12.5q10 8 12.5 28.5t2.5 39.5v21l1 350q0 26 0.5 51t0.5 50v19q0 17 -3 37t-9 28q-11 11 -26 13.5t-29 3.5t-23.5 5t-9.5 18q0 10 9.5 11.5t17.5 1.5h11q29 0 58.5 -3t58.5 -3q14 0 29 1.5t29 1.5h87q2 -2 4 -7t2 -8z" />
    <glyph glyph-name="Idieresis" unicode="&#xcf;" horiz-adv-x="384" 
d="M144 854q0 -23 -16.5 -37t-38.5 -14t-38 14.5t-16 37.5t17 38.5t40 15.5q22 0 37 -17t15 -38zM349 857q0 -25 -16.5 -40t-40.5 -15q-3 0 -4 1q-21 2 -33.5 17.5t-12.5 35.5q0 23 15 38t39 15q23 0 38 -14.5t15 -37.5zM347 706q0 -14 -10.5 -17t-24.5 -3q-27 0 -42 -4
t-22 -13t-8 -22t-1 -31q0 -63 -1.5 -125t-1.5 -125v-255q0 -16 2.5 -36t14.5 -31q9 -8 24.5 -11t30 -5.5t25.5 -5.5t11 -12q0 -15 -14.5 -16.5t-29.5 -1.5q-28 0 -56 3t-56 3q-30 0 -54 -3.5t-54 -3.5h-14q-10 0 -19.5 3.5t-9.5 15.5q0 9 10 12.5t23.5 6t28.5 6t25 12.5
q10 8 12.5 28.5t2.5 39.5v21l1 350q0 26 0.5 51t0.5 50v19q0 17 -3 37t-9 28q-11 11 -26 13.5t-29 3.5t-23.5 5t-9.5 18q0 10 9.5 11.5t17.5 1.5h11q29 0 58.5 -3t58.5 -3q14 0 29 1.5t29 1.5h87q2 -2 4 -7t2 -8z" />
    <glyph glyph-name="Eth" unicode="&#xd0;" horiz-adv-x="833" 
d="M659 359q0 121 -61.5 206.5t-179.5 120.5q-21 6 -43 10.5t-45 4.5h-28q1 0 -5.5 -0.5t-15.5 -3.5t-18.5 -9.5t-14.5 -18.5q-3 -10 -4 -19.5t-1 -19.5q0 -26 0.5 -53t0.5 -53v-67v-34t-1 -33q26 0 57 0.5l61 1t55.5 1t39.5 0.5q6 0 6 -13v-35q0 -5 -10.5 -6.5t-22.5 -1.5
h-187v-162q0 -44 5.5 -73t18 -46t31.5 -24t46 -7q70 0 128.5 26t100 71.5t64.5 106.5t23 130zM47 385q0 5 15 6.5t29 1.5h17q10 0 19.5 -0.5t19.5 -0.5v150q0 16 -0.5 35t-1.5 36.5t-2.5 31t-3.5 18.5q-7 15 -21.5 18.5t-29.5 3.5q-8 0 -16 -0.5t-16 -0.5q-9 0 -17 5
q-5 4 -3.5 12t5.5 12t24 7.5t48.5 6t61 4t63 2.5t54.5 1.5t34 0.5q100 0 182.5 -26t141.5 -75.5t91 -120.5t32 -161q0 -86 -36 -153t-95 -113t-135 -70t-155 -24q-24 0 -39.5 1t-29.5 2t-29.5 2t-39.5 1q-42 0 -80.5 -2.5t-80.5 -2.5q-9 0 -9 9q0 10 5.5 15t13 8t16 4
t15.5 3q32 7 39.5 21.5t9.5 44.5q1 10 2 25t1.5 41t0.5 67v106h-64q-12 0 -24 1t-12 4v43v0z" />
    <glyph glyph-name="Ntilde" unicode="&#xd1;" horiz-adv-x="901" 
d="M627 912q0 -5 -0.5 -9.5t-1.5 -9.5q-3 -18 -13 -34.5t-24 -29t-31.5 -20t-36.5 -7.5q-17 0 -36 7t-38 15t-37.5 15t-34.5 7q-24 0 -34.5 -15.5t-19.5 -33.5q0 -6 -13 -6q-4 0 -8 2t-4 5q4 20 12 39t21 33.5t30.5 23.5t40.5 9q20 0 39 -6.5t37 -15t35 -15t34 -6.5
q23 0 36 15.5t19 35.5q2 8 15 8t13 -7zM186 -4q-33 0 -66 -2t-67 -2q-8 0 -18.5 3t-10.5 14q0 9 7.5 13t18.5 5.5t23 2t20 1.5q17 3 26.5 12t14 22t5.5 28t1 29l4 236.5t2 236.5q0 16 -1.5 30.5t-8.5 25.5t-20 19t-36 12q-6 1 -17 1.5t-22 2.5t-19 6t-8 12q0 9 10.5 14
t17.5 5q22 0 43 -1t43 -1q17 0 32.5 1t32.5 1q18 0 27.5 -4.5t18 -13.5t18.5 -22t29 -31l81.5 -96.5l92 -107l113 -132l145.5 -172.5q14 1 13 22v121q1 78 0.5 156t-0.5 156q0 14 -0.5 27t-3.5 26q-5 22 -23.5 27.5t-39 6t-37 2.5t-16.5 18q0 10 7 13.5t15 3.5q32 0 64 -2
t64 -2q26 0 52.5 1.5t52.5 1.5q22 0 22 -17q0 -12 -12.5 -15.5t-28.5 -5t-32 -4t-23 -11.5q-6 -8 -10 -28t-5.5 -42.5t-2 -43.5t-0.5 -31v-207q0 -58 -0.5 -131t-0.5 -172q0 -17 -1.5 -31.5t-14.5 -16.5q-5 -1 -10 2.5t-9.5 8.5l-9 10.5t-7.5 9.5l-57.5 68l-56.5 69
q-1 1 -3.5 4l-12.5 14.5l-31 36l-59 68.5l-95.5 111l-141.5 165q-17 20 -34.5 43.5t-39.5 41.5q-3 -17 -3 -34q0 -54 1 -101.5t1.5 -98.5t1.5 -110.5t1 -137.5q0 -46 6 -67t18.5 -28.5t32 -8.5t47.5 -7q8 -2 15.5 -7.5t7.5 -15.5q0 -6 -6 -8t-11 -2q-29 0 -58 2t-58 2z" />
    <glyph glyph-name="Ograve" unicode="&#xd2;" horiz-adv-x="885" 
d="M313 940l8.5 7t5.5 4l7.5 5t13.5 10q5 8 12 4.5t9 -8.5q5 -10 20.5 -34.5l32.5 -51l30.5 -49.5t14.5 -30q3 -10 -4.5 -15t-16.5 4l-29 26.5l-39.5 37.5l-38.5 38t-27 29q-6 7 -6.5 11.5t7.5 11.5zM701 410q-12 64 -39 122t-68.5 99.5t-97.5 61t-126 6.5q-75 -14 -118 -54
t-62.5 -94t-20 -115.5t10.5 -118.5q10 -59 34.5 -118t64.5 -104t97 -68t133 -9q74 13 117 54.5t63 98t21 119.5t-9 120zM825 365q0 -80 -30.5 -151.5t-84 -125t-125.5 -85t-154 -31.5q-81 0 -149.5 28.5t-117.5 79.5t-76.5 120.5t-27.5 152.5t28 154t78.5 123t119.5 81.5
t151 29.5q79 0 149.5 -27.5t123.5 -77t84 -118.5t31 -153z" />
    <glyph glyph-name="Oacute" unicode="&#xd3;" horiz-adv-x="885" 
d="M528 984q6 -5 9 -6.5t5.5 -3.5t7 -5l13.5 -9q8 -3 7.5 -10.5t-5.5 -11.5q-7 -8 -25 -30.5l-38 -47l-37.5 -44.5t-22.5 -23q-9 -6 -16.5 -0.5t-1.5 16.5q5 13 16 36.5l23 49l23.5 48.5t18.5 35q5 8 9.5 10t13.5 -4zM701 410q-12 64 -39 122t-68.5 99.5t-97.5 61t-126 6.5
q-75 -14 -118 -54t-62.5 -94t-20 -115.5t10.5 -118.5q10 -59 34.5 -118t64.5 -104t97 -68t133 -9q74 13 117 54.5t63 98t21 119.5t-9 120zM825 365q0 -80 -30.5 -151.5t-84 -125t-125.5 -85t-154 -31.5q-81 0 -149.5 28.5t-117.5 79.5t-76.5 120.5t-27.5 152.5t28 154
t78.5 123t119.5 81.5t151 29.5q79 0 149.5 -27.5t123.5 -77t84 -118.5t31 -153z" />
    <glyph glyph-name="Ocircumflex" unicode="&#xd4;" horiz-adv-x="885" 
d="M342 792q-6 0 -6 7q0 3 6.5 17t17 33l23 41l24 41t21 33t13.5 17q9 -6 10 -8l55.5 -90.5t40.5 -79.5q2 -6 2 -8q0 -9 -9 -7q-5 1 -17 15.5l-27 33.5l-30 36.5t-25 24.5q-11 -8 -24.5 -25.5l-26.5 -35.5t-25.5 -31.5t-22.5 -13.5zM701 410q-12 64 -39 122t-68.5 99.5
t-97.5 61t-126 6.5q-75 -14 -118 -54t-62.5 -94t-20 -115.5t10.5 -118.5q10 -59 34.5 -118t64.5 -104t97 -68t133 -9q74 13 117 54.5t63 98t21 119.5t-9 120zM825 365q0 -80 -30.5 -151.5t-84 -125t-125.5 -85t-154 -31.5q-81 0 -149.5 28.5t-117.5 79.5t-76.5 120.5
t-27.5 152.5t28 154t78.5 123t119.5 81.5t151 29.5q79 0 149.5 -27.5t123.5 -77t84 -118.5t31 -153z" />
    <glyph glyph-name="Otilde" unicode="&#xd5;" horiz-adv-x="885" 
d="M609 929q0 -5 -0.5 -9.5t-1.5 -9.5q-3 -18 -13 -34.5t-24 -29t-31.5 -20t-36.5 -7.5q-17 0 -36 7t-38 15t-37.5 15t-34.5 7q-24 0 -34.5 -15.5t-19.5 -33.5q0 -6 -13 -6q-4 0 -8 2t-4 5q4 20 12 39t21 33.5t30.5 23.5t40.5 9q20 0 39 -6.5t37 -15t35 -15t34 -6.5
q23 0 36 15.5t19 35.5q2 8 15 8t13 -7zM701 410q-12 64 -39 122t-68.5 99.5t-97.5 61t-126 6.5q-75 -14 -118 -54t-62.5 -94t-20 -115.5t10.5 -118.5q10 -59 34.5 -118t64.5 -104t97 -68t133 -9q74 13 117 54.5t63 98t21 119.5t-9 120zM825 365q0 -80 -30.5 -151.5t-84 -125
t-125.5 -85t-154 -31.5q-81 0 -149.5 28.5t-117.5 79.5t-76.5 120.5t-27.5 152.5t28 154t78.5 123t119.5 81.5t151 29.5q79 0 149.5 -27.5t123.5 -77t84 -118.5t31 -153z" />
    <glyph glyph-name="Odieresis" unicode="&#xd6;" horiz-adv-x="885" 
d="M394 862q0 -23 -16.5 -37t-38.5 -14t-38 14.5t-16 37.5t17 38.5t40 15.5q22 0 37 -17t15 -38zM599 865q0 -25 -16.5 -40t-40.5 -15q-3 0 -4 1q-21 2 -33.5 17.5t-12.5 35.5q0 23 15 38t39 15q23 0 38 -14.5t15 -37.5zM701 410q-12 64 -39 122t-68.5 99.5t-97.5 61
t-126 6.5q-75 -14 -118 -54t-62.5 -94t-20 -115.5t10.5 -118.5q10 -59 34.5 -118t64.5 -104t97 -68t133 -9q74 13 117 54.5t63 98t21 119.5t-9 120zM825 365q0 -80 -30.5 -151.5t-84 -125t-125.5 -85t-154 -31.5q-81 0 -149.5 28.5t-117.5 79.5t-76.5 120.5t-27.5 152.5
t28 154t78.5 123t119.5 81.5t151 29.5q79 0 149.5 -27.5t123.5 -77t84 -118.5t31 -153z" />
    <glyph glyph-name="multiply" unicode="&#xd7;" horiz-adv-x="393" 
d="M56 105q-5 6 -11.5 13t-7.5 15q19 17 45.5 44l70.5 71l-112 113q5 19 13 28.5t32 16.5l57 -58l54 -54l113 112q19 -5 28.5 -13t16.5 -32l-59 -57.5l-55 -55.5l120 -119q-4 -6 -9 -11.5l-10 -10.5q-6 -5 -13 -11.5t-15 -7.5q-17 19 -44.5 46l-72.5 72l-119 -120
q-6 4 -11.5 9z" />
    <glyph glyph-name="Oslash" unicode="&#xd8;" horiz-adv-x="885" 
d="M701 410q-13 69 -43.5 131t-78.5 104q-5 -12 -9 -23.5t-9 -22.5l-47 -125l-53.5 -143l-55 -150l-51.5 -145q32 -16 70.5 -21.5t84.5 3.5q74 13 117 54.5t63 98t21 119.5t-9 120zM180 317q6 -36 17.5 -73t29 -71.5t40.5 -64t52 -51.5l56 151.5l58 157.5l57 156.5l53 148.5
q-36 21 -79 29t-94 -1q-75 -14 -118 -54t-62.5 -94t-20 -115.5t10.5 -118.5zM629 789q-10 -39 -27 -82q49 -21 90 -54.5t70.5 -77.5t46 -97t16.5 -113q0 -80 -30.5 -151.5t-84 -125t-125.5 -85t-154 -31.5q-47 0 -96 11l-15 -44t-13 -41q-5 0 -12.5 -1t-32.5 1l17 47.5
l18 49.5q-54 19 -98 53t-74.5 80.5t-47.5 103t-17 121.5q0 83 28 154t78.5 123t119.5 81.5t151 29.5q32 0 63.5 -5t60.5 -14l11.5 33.5l10.5 32.5q20 6 46 1z" />
    <glyph glyph-name="Ugrave" unicode="&#xd9;" horiz-adv-x="812" 
d="M312 931l8.5 7t5.5 4l7.5 5t13.5 10q5 8 12 4.5t9 -8.5q5 -10 20.5 -34.5l32.5 -51l30.5 -49.5t14.5 -30q3 -10 -4.5 -15t-16.5 4l-29 26.5l-39.5 37.5l-38.5 38t-27 29q-6 7 -6.5 11.5t7.5 11.5zM795 707q0 -11 -12 -17t-28 -9.5t-30.5 -5.5t-19.5 -5q-7 -4 -10 -31.5
t-3.5 -64.5t0 -77t0.5 -70q0 -27 0.5 -54t0.5 -54q0 -44 -2.5 -92t-15.5 -91.5t-39 -78.5t-74 -54q-42 -16 -87 -22.5t-88 -6.5q-51 0 -97 9.5t-82 32.5t-59 61t-29 96q-1 9 -1.5 18t-0.5 18v37q0 85 2 168t2 168q0 14 -0.5 32t-5 33.5t-15 26.5t-30.5 11h-11
q-5 0 -12.5 0.5t-15 2t-13 5.5t-5.5 11q0 19 20 19q32 0 63.5 -3t63.5 -3q35 0 68.5 3t68.5 3q8 0 20 -2t12 -13q0 -14 -13.5 -18t-30.5 -7t-33.5 -8t-23.5 -21q-3 -7 -5 -20t-3.5 -29t-2 -33t-0.5 -32v-184q0 -31 0.5 -62t2.5 -62q4 -62 19.5 -102t41 -63t60.5 -32t78 -9
q51 0 87.5 9.5t62 31.5t41.5 56.5t25 85.5q6 28 6 58v214q0 23 1 52t1 56t-3 48.5t-12 29.5t-23 10t-27.5 4.5t-23 8t-9.5 19.5q0 10 7 12t15 2q26 0 52.5 -2t52.5 -2q27 0 54 1.5t54 1.5q14 -5 14 -15z" />
    <glyph glyph-name="Uacute" unicode="&#xda;" horiz-adv-x="812" 
d="M531 967q6 -5 9 -6.5t5.5 -3.5t7 -5l13.5 -9q8 -3 7.5 -10.5t-5.5 -11.5q-7 -8 -25 -30.5l-38 -47l-37.5 -44.5t-22.5 -23q-9 -6 -16.5 -0.5t-1.5 16.5q5 13 16 36.5l23 49l23.5 48.5t18.5 35q5 8 9.5 10t13.5 -4zM795 707q0 -11 -12 -17t-28 -9.5t-30.5 -5.5t-19.5 -5
q-7 -4 -10 -31.5t-3.5 -64.5t0 -77t0.5 -70q0 -27 0.5 -54t0.5 -54q0 -44 -2.5 -92t-15.5 -91.5t-39 -78.5t-74 -54q-42 -16 -87 -22.5t-88 -6.5q-51 0 -97 9.5t-82 32.5t-59 61t-29 96q-1 9 -1.5 18t-0.5 18v37q0 85 2 168t2 168q0 14 -0.5 32t-5 33.5t-15 26.5t-30.5 11
h-11q-5 0 -12.5 0.5t-15 2t-13 5.5t-5.5 11q0 19 20 19q32 0 63.5 -3t63.5 -3q35 0 68.5 3t68.5 3q8 0 20 -2t12 -13q0 -14 -13.5 -18t-30.5 -7t-33.5 -8t-23.5 -21q-3 -7 -5 -20t-3.5 -29t-2 -33t-0.5 -32v-184q0 -31 0.5 -62t2.5 -62q4 -62 19.5 -102t41 -63t60.5 -32
t78 -9q51 0 87.5 9.5t62 31.5t41.5 56.5t25 85.5q6 28 6 58v214q0 23 1 52t1 56t-3 48.5t-12 29.5t-23 10t-27.5 4.5t-23 8t-9.5 19.5q0 10 7 12t15 2q26 0 52.5 -2t52.5 -2q27 0 54 1.5t54 1.5q14 -5 14 -15z" />
    <glyph glyph-name="Ucircumflex" unicode="&#xdb;" horiz-adv-x="812" 
d="M349 792q-6 0 -6 7q0 3 6.5 17t17 33l23 41l24 41t21 33t13.5 17q9 -6 10 -8l55.5 -90.5t40.5 -79.5q2 -6 2 -8q0 -9 -9 -7q-5 1 -17 15.5l-27 33.5l-30 36.5t-25 24.5q-11 -8 -24.5 -25.5l-26.5 -35.5t-25.5 -31.5t-22.5 -13.5zM795 707q0 -11 -12 -17t-28 -9.5
t-30.5 -5.5t-19.5 -5q-7 -4 -10 -31.5t-3.5 -64.5t0 -77t0.5 -70q0 -27 0.5 -54t0.5 -54q0 -44 -2.5 -92t-15.5 -91.5t-39 -78.5t-74 -54q-42 -16 -87 -22.5t-88 -6.5q-51 0 -97 9.5t-82 32.5t-59 61t-29 96q-1 9 -1.5 18t-0.5 18v37q0 85 2 168t2 168q0 14 -0.5 32t-5 33.5
t-15 26.5t-30.5 11h-11q-5 0 -12.5 0.5t-15 2t-13 5.5t-5.5 11q0 19 20 19q32 0 63.5 -3t63.5 -3q35 0 68.5 3t68.5 3q8 0 20 -2t12 -13q0 -14 -13.5 -18t-30.5 -7t-33.5 -8t-23.5 -21q-3 -7 -5 -20t-3.5 -29t-2 -33t-0.5 -32v-184q0 -31 0.5 -62t2.5 -62q4 -62 19.5 -102
t41 -63t60.5 -32t78 -9q51 0 87.5 9.5t62 31.5t41.5 56.5t25 85.5q6 28 6 58v214q0 23 1 52t1 56t-3 48.5t-12 29.5t-23 10t-27.5 4.5t-23 8t-9.5 19.5q0 10 7 12t15 2q26 0 52.5 -2t52.5 -2q27 0 54 1.5t54 1.5q14 -5 14 -15z" />
    <glyph glyph-name="Udieresis" unicode="&#xdc;" horiz-adv-x="812" 
d="M392 855q0 -23 -16.5 -37t-38.5 -14t-38 14.5t-16 37.5t17 38.5t40 15.5q22 0 37 -17t15 -38zM597 858q0 -25 -16.5 -40t-40.5 -15q-3 0 -4 1q-21 2 -33.5 17.5t-12.5 35.5q0 23 15 38t39 15q23 0 38 -14.5t15 -37.5zM795 707q0 -11 -12 -17t-28 -9.5t-30.5 -5.5
t-19.5 -5q-7 -4 -10 -31.5t-3.5 -64.5t0 -77t0.5 -70q0 -27 0.5 -54t0.5 -54q0 -44 -2.5 -92t-15.5 -91.5t-39 -78.5t-74 -54q-42 -16 -87 -22.5t-88 -6.5q-51 0 -97 9.5t-82 32.5t-59 61t-29 96q-1 9 -1.5 18t-0.5 18v37q0 85 2 168t2 168q0 14 -0.5 32t-5 33.5t-15 26.5
t-30.5 11h-11q-5 0 -12.5 0.5t-15 2t-13 5.5t-5.5 11q0 19 20 19q32 0 63.5 -3t63.5 -3q35 0 68.5 3t68.5 3q8 0 20 -2t12 -13q0 -14 -13.5 -18t-30.5 -7t-33.5 -8t-23.5 -21q-3 -7 -5 -20t-3.5 -29t-2 -33t-0.5 -32v-184q0 -31 0.5 -62t2.5 -62q4 -62 19.5 -102t41 -63
t60.5 -32t78 -9q51 0 87.5 9.5t62 31.5t41.5 56.5t25 85.5q6 28 6 58v214q0 23 1 52t1 56t-3 48.5t-12 29.5t-23 10t-27.5 4.5t-23 8t-9.5 19.5q0 10 7 12t15 2q26 0 52.5 -2t52.5 -2q27 0 54 1.5t54 1.5q14 -5 14 -15z" />
    <glyph glyph-name="Yacute" unicode="&#xdd;" horiz-adv-x="783" 
d="M525 950q6 -5 9 -6.5t5.5 -3.5t7 -5l13.5 -9q8 -3 7.5 -10.5t-5.5 -11.5q-7 -8 -25 -30.5l-38 -47l-37.5 -44.5t-22.5 -23q-9 -6 -16.5 -0.5t-1.5 16.5q5 13 16 36.5l23 49l23.5 48.5t18.5 35q5 8 9.5 10t13.5 -4zM32 724q28 0 55 -4t55 -4q38 0 76.5 3.5t77.5 3.5
q5 0 12.5 -5t7.5 -10q0 -15 -14 -17.5t-30.5 -3t-30.5 -3t-14 -16.5q0 -11 9.5 -28t22 -35.5t26 -36l22.5 -29.5l48 -69.5t50 -66.5l5.5 -7.5t7.5 -5.5q3 1 6.5 4t5.5 5q6 6 21.5 26.5l36 48l42.5 59l40.5 58.5l30.5 46t12 23q0 17 -14 21.5t-30.5 5.5t-30.5 3.5t-14 16.5
q0 12 5.5 13.5t15.5 1.5q23 0 46 -3t46 -3q26 0 51.5 3.5t51.5 3.5q14 0 25.5 -5t5.5 -18q-4 -8 -14 -10.5t-22 -4.5t-25 -7t-24 -18q-37 -43 -71.5 -88l-69.5 -90l-35.5 -42.5t-37 -46t-29 -47.5t-11.5 -46v-199q0 -27 8 -41.5t20 -20.5t26.5 -7t28 -1.5t23.5 -3t14 -12.5
q0 -9 -4 -16t-15 -7q-39 0 -78.5 3.5t-78.5 3.5q-36 0 -71.5 -3.5t-71.5 -3.5q-3 0 -7 1t-4 6q-5 15 6 20.5t28.5 8t36 5.5t29.5 15q5 6 8 19.5t4.5 31t2 37.5t0.5 38v88q0 31 -1 52t-13 38l-107.5 152.5l-107.5 152.5q-11 16 -28 23t-32.5 10.5t-26.5 7t-11 14.5q0 10 7 11
t15 1z" />
    <glyph glyph-name="Thorn" unicode="&#xde;" horiz-adv-x="614" 
d="M466 344q0 34 -6 66.5t-24 58t-51.5 41t-88.5 16.5q-11 0 -24 -4t-22 -12q-10 -9 -13 -29.5t-3 -38.5v-331q0 -16 2.5 -36t14.5 -31q9 -8 24.5 -11t30 -5.5t25.5 -5.5t11 -12q0 -15 -14.5 -16.5t-29.5 -1.5q-28 0 -56 3t-56 3q-30 0 -54 -3.5t-54 -3.5h-14
q-10 0 -19.5 3.5t-9.5 15.5q0 9 10 12.5t23.5 6t28.5 6t25 12.5q10 8 12.5 28.5t2.5 39.5v21l1 338q0 26 0.5 51t0.5 50v21q0 20 -3 43.5t-9 31.5q-11 11 -26 13.5t-29 3.5t-23.5 5t-9.5 18q0 10 9.5 11.5t17.5 1.5h11q29 0 58.5 -3t58.5 -3q14 0 29 1.5t29 1.5h87
q2 -2 4 -7t2 -8q0 -14 -10.5 -17t-24.5 -3q-27 0 -42 -4t-22 -13t-8 -22t-1 -31v-57l63 6q135 12 202.5 -47.5t67.5 -171.5q0 -47 -19 -85.5t-51 -66.5t-75.5 -43.5t-91.5 -15.5q-17 0 -20.5 2.5l-10.5 7.5q-2 2 -4.5 7.5t-3 11.5t1 10.5t6.5 4.5q3 -1 5 -1q36 1 65.5 13.5
t50 34.5t32 52t11.5 66z" />
    <glyph glyph-name="germandbls" unicode="&#xdf;" horiz-adv-x="624" 
d="M281 72q0 11 -0.5 22t-0.5 25q1 5 5.5 6t8.5 1q6 0 8.5 -4t4.5 -9l15.5 -36t19.5 -31.5t31 -22t51 -8.5q19 0 32.5 9.5t21.5 23.5t12 31.5t4 33.5q0 40 -10.5 80.5t-28 76.5t-40 65.5t-47.5 47.5q-11 7 -22.5 12.5t-19.5 11.5t-9.5 13.5t8.5 19.5l9 7l20 15l21 16t13 11
q28 26 44 61.5t16 73.5q0 27 -6 51t-19.5 41.5t-35 27.5t-51.5 10q-51 0 -78 -27t-39 -66.5t-13.5 -83.5t-1.5 -77q0 -34 -0.5 -88t-0.5 -114t-0.5 -117.5t-0.5 -97.5q0 -18 1.5 -28t3 -16.5l3 -13t1.5 -17.5q0 -7 -12.5 -9t-32.5 -2q-19 0 -44 0.5t-50 -2.5
q-5 -1 -15.5 0.5t-10.5 9.5q0 14 12 17l27 6.5t27 14t12 39.5v278q0 13 -3 27q-5 1 -10 1h-12q-18 0 -35.5 2.5t-17.5 14.5q0 22 16.5 26t35.5 4q14 0 25 6q2 49 7 96.5t20 95.5q24 73 80.5 118.5t134.5 45.5q33 0 62.5 -11t51.5 -31t35 -48.5t13 -63.5q0 -37 -14 -68
t-35.5 -56.5t-47.5 -47t-50 -38.5q33 -17 68 -42t64 -57t47.5 -70t18.5 -81q0 -40 -12 -76t-34 -63.5t-52.5 -44t-67.5 -16.5q-12 0 -34 2.5t-44 9t-38 17t-16 26.5z" />
    <glyph glyph-name="agrave" unicode="&#xe0;" 
d="M114 684l8.5 7t5.5 4l7.5 5t13.5 10q5 8 12 4.5t9 -8.5q5 -10 20.5 -34.5l32.5 -51l30.5 -49.5t14.5 -30q3 -10 -4.5 -15t-16.5 4l-29 26.5l-39.5 37.5l-38.5 38t-27 29q-6 7 -6.5 11.5t7.5 11.5zM292 181q0 10 -0.5 17.5t-1.5 12.5q-9 -2 -21 -5.5t-24.5 -8l-24 -9
t-20.5 -7.5q-27 -10 -49.5 -29t-22.5 -50q0 -28 13 -46t45 -18q21 0 42.5 10.5t35.5 25.5q8 8 17 23.5t10 26.5q0 7 0.5 9.5t0.5 3.5v44v0zM460 70q0 -1 -2 -9q-8 -32 -34 -51.5t-59 -19.5t-52 21t-27 51q-11 -15 -27.5 -29t-36.5 -25.5t-41.5 -18t-41.5 -6.5
q-51 0 -71.5 29.5t-20.5 74.5q0 22 11.5 40.5t29 33.5t38 26t38.5 18q35 13 63.5 22.5t64.5 18.5v77q0 42 -15.5 67.5t-60.5 25.5q-30 0 -48 -10.5t-28.5 -25t-14.5 -28.5l-6 -21q-5 -16 -21 -27t-35 -11q-11 0 -13 9.5t-2 17.5q0 24 20 49.5t49 47.5t63 36t62 14
q7 0 17.5 -1.5t21.5 -3.5t21 -5t16 -6q33 -17 41 -44.5t8 -61.5q0 -38 -1 -80.5t-1 -80.5q0 -9 -0.5 -26.5t0 -36t2 -35t5.5 -22.5q4 -7 12 -9.5t16 -2.5q11 0 18 3.5t12 8t9 8.5t9 5q12 3 12 -7z" />
    <glyph glyph-name="aacute" unicode="&#xe1;" 
d="M287 715q6 -5 9 -6.5t5.5 -3.5t7 -5l13.5 -9q8 -3 7.5 -10.5t-5.5 -11.5q-7 -8 -25 -30.5l-38 -47l-37.5 -44.5t-22.5 -23q-9 -6 -16.5 -0.5t-1.5 16.5q5 13 16 36.5l23 49l23.5 48.5t18.5 35q5 8 9.5 10t13.5 -4zM292 181q0 10 -0.5 17.5t-1.5 12.5q-9 -2 -21 -5.5
t-24.5 -8l-24 -9t-20.5 -7.5q-27 -10 -49.5 -29t-22.5 -50q0 -28 13 -46t45 -18q21 0 42.5 10.5t35.5 25.5q8 8 17 23.5t10 26.5q0 7 0.5 9.5t0.5 3.5v44v0zM460 70q0 -1 -2 -9q-8 -32 -34 -51.5t-59 -19.5t-52 21t-27 51q-11 -15 -27.5 -29t-36.5 -25.5t-41.5 -18
t-41.5 -6.5q-51 0 -71.5 29.5t-20.5 74.5q0 22 11.5 40.5t29 33.5t38 26t38.5 18q35 13 63.5 22.5t64.5 18.5v77q0 42 -15.5 67.5t-60.5 25.5q-30 0 -48 -10.5t-28.5 -25t-14.5 -28.5l-6 -21q-5 -16 -21 -27t-35 -11q-11 0 -13 9.5t-2 17.5q0 24 20 49.5t49 47.5t63 36
t62 14q7 0 17.5 -1.5t21.5 -3.5t21 -5t16 -6q33 -17 41 -44.5t8 -61.5q0 -38 -1 -80.5t-1 -80.5q0 -9 -0.5 -26.5t0 -36t2 -35t5.5 -22.5q4 -7 12 -9.5t16 -2.5q11 0 18 3.5t12 8t9 8.5t9 5q12 3 12 -7z" />
    <glyph glyph-name="acircumflex" unicode="&#xe2;" 
d="M122 536q-6 0 -6 7q0 3 6.5 17t17 33l23 41l24 41t21 33t13.5 17q9 -6 10 -8l55.5 -90.5t40.5 -79.5q2 -6 2 -8q0 -9 -9 -7q-5 1 -17 15.5l-27 33.5l-30 36.5t-25 24.5q-11 -8 -24.5 -25.5l-26.5 -35.5t-25.5 -31.5t-22.5 -13.5zM292 181q0 10 -0.5 17.5t-1.5 12.5
q-9 -2 -21 -5.5t-24.5 -8l-24 -9t-20.5 -7.5q-27 -10 -49.5 -29t-22.5 -50q0 -28 13 -46t45 -18q21 0 42.5 10.5t35.5 25.5q8 8 17 23.5t10 26.5q0 7 0.5 9.5t0.5 3.5v44v0zM460 70q0 -1 -2 -9q-8 -32 -34 -51.5t-59 -19.5t-52 21t-27 51q-11 -15 -27.5 -29t-36.5 -25.5
t-41.5 -18t-41.5 -6.5q-51 0 -71.5 29.5t-20.5 74.5q0 22 11.5 40.5t29 33.5t38 26t38.5 18q35 13 63.5 22.5t64.5 18.5v77q0 42 -15.5 67.5t-60.5 25.5q-30 0 -48 -10.5t-28.5 -25t-14.5 -28.5l-6 -21q-5 -16 -21 -27t-35 -11q-11 0 -13 9.5t-2 17.5q0 24 20 49.5t49 47.5
t63 36t62 14q7 0 17.5 -1.5t21.5 -3.5t21 -5t16 -6q33 -17 41 -44.5t8 -61.5q0 -38 -1 -80.5t-1 -80.5q0 -9 -0.5 -26.5t0 -36t2 -35t5.5 -22.5q4 -7 12 -9.5t16 -2.5q11 0 18 3.5t12 8t9 8.5t9 5q12 3 12 -7z" />
    <glyph glyph-name="atilde" unicode="&#xe3;" 
d="M386 654q0 -5 -0.5 -9.5t-1.5 -9.5q-3 -18 -13 -34.5t-24 -29t-31.5 -20t-36.5 -7.5q-17 0 -36 7t-38 15t-37.5 15t-34.5 7q-24 0 -34.5 -15.5t-19.5 -33.5q0 -6 -13 -6q-4 0 -8 2t-4 5q4 20 12 39t21 33.5t30.5 23.5t40.5 9q20 0 39 -6.5t37 -15t35 -15t34 -6.5
q23 0 36 15.5t19 35.5q2 8 15 8t13 -7zM292 181q0 10 -0.5 17.5t-1.5 12.5q-9 -2 -21 -5.5t-24.5 -8l-24 -9t-20.5 -7.5q-27 -10 -49.5 -29t-22.5 -50q0 -28 13 -46t45 -18q21 0 42.5 10.5t35.5 25.5q8 8 17 23.5t10 26.5q0 7 0.5 9.5t0.5 3.5v44v0zM460 70q0 -1 -2 -9
q-8 -32 -34 -51.5t-59 -19.5t-52 21t-27 51q-11 -15 -27.5 -29t-36.5 -25.5t-41.5 -18t-41.5 -6.5q-51 0 -71.5 29.5t-20.5 74.5q0 22 11.5 40.5t29 33.5t38 26t38.5 18q35 13 63.5 22.5t64.5 18.5v77q0 42 -15.5 67.5t-60.5 25.5q-30 0 -48 -10.5t-28.5 -25t-14.5 -28.5
l-6 -21q-5 -16 -21 -27t-35 -11q-11 0 -13 9.5t-2 17.5q0 24 20 49.5t49 47.5t63 36t62 14q7 0 17.5 -1.5t21.5 -3.5t21 -5t16 -6q33 -17 41 -44.5t8 -61.5q0 -38 -1 -80.5t-1 -80.5q0 -9 -0.5 -26.5t0 -36t2 -35t5.5 -22.5q4 -7 12 -9.5t16 -2.5q11 0 18 3.5t12 8t9 8.5
t9 5q12 3 12 -7z" />
    <glyph glyph-name="adieresis" unicode="&#xe4;" 
d="M168 590q0 -23 -16.5 -37t-38.5 -14t-38 14.5t-16 37.5t17 38.5t40 15.5q22 0 37 -17t15 -38zM373 593q0 -25 -16.5 -40t-40.5 -15q-3 0 -4 1q-21 2 -33.5 17.5t-12.5 35.5q0 23 15 38t39 15q23 0 38 -14.5t15 -37.5zM292 181q0 10 -0.5 17.5t-1.5 12.5q-9 -2 -21 -5.5
t-24.5 -8l-24 -9t-20.5 -7.5q-27 -10 -49.5 -29t-22.5 -50q0 -28 13 -46t45 -18q21 0 42.5 10.5t35.5 25.5q8 8 17 23.5t10 26.5q0 7 0.5 9.5t0.5 3.5v44v0zM460 70q0 -1 -2 -9q-8 -32 -34 -51.5t-59 -19.5t-52 21t-27 51q-11 -15 -27.5 -29t-36.5 -25.5t-41.5 -18
t-41.5 -6.5q-51 0 -71.5 29.5t-20.5 74.5q0 22 11.5 40.5t29 33.5t38 26t38.5 18q35 13 63.5 22.5t64.5 18.5v77q0 42 -15.5 67.5t-60.5 25.5q-30 0 -48 -10.5t-28.5 -25t-14.5 -28.5l-6 -21q-5 -16 -21 -27t-35 -11q-11 0 -13 9.5t-2 17.5q0 24 20 49.5t49 47.5t63 36
t62 14q7 0 17.5 -1.5t21.5 -3.5t21 -5t16 -6q33 -17 41 -44.5t8 -61.5q0 -38 -1 -80.5t-1 -80.5q0 -9 -0.5 -26.5t0 -36t2 -35t5.5 -22.5q4 -7 12 -9.5t16 -2.5q11 0 18 3.5t12 8t9 8.5t9 5q12 3 12 -7z" />
    <glyph glyph-name="aring" unicode="&#xe5;" 
d="M289 589q0 25 -18.5 42.5t-42.5 17.5q-22 0 -38 -17t-16 -39q0 -10 4 -20.5t11 -19.5t16 -15t19 -7q1 -1 5 -1q25 0 42.5 17t17.5 42zM321 589q0 -20 -7.5 -37t-20.5 -29.5t-30.5 -20t-36.5 -7.5q-6 0 -8 2q-16 1 -30.5 10.5t-25.5 23.5t-17.5 30.5t-6.5 32.5q0 17 7 33
t19 28.5t27.5 20t32.5 7.5q43 0 70 -27t27 -67zM292 180q0 9 -0.5 16t-1.5 12q-9 -2 -21 -5.5t-24.5 -8l-24 -9t-20.5 -7.5q-27 -10 -49.5 -29t-22.5 -50q0 -28 13 -44.5t45 -16.5q21 0 42.5 10.5t35.5 25.5q8 8 17 23.5t10 26.5q0 7 0.5 9.5t0.5 3.5v43v0zM460 70
q0 -1 -2 -9q-8 -32 -34 -51.5t-59 -19.5t-52 21t-27 51q-11 -15 -27.5 -29t-36.5 -25.5t-41.5 -18t-41.5 -6.5q-51 0 -71.5 28t-20.5 73q0 22 11.5 40.5t29 33.5t38 26t38.5 18q35 13 63.5 22.5t64.5 18.5v73q0 42 -15.5 68t-60.5 26q-30 0 -48 -9.5t-28.5 -22.5t-14.5 -26
l-6 -20q-5 -16 -21 -27.5t-35 -11.5q-11 0 -13 9.5t-2 17.5q0 24 20 48.5t49 45t63 33.5t62 13q7 0 17.5 -1.5t21.5 -3.5t21 -5t16 -6q33 -17 41 -44.5t8 -61.5q0 -38 -1 -77t-1 -77q0 -9 -0.5 -26.5t0 -36t2 -35t5.5 -22.5q4 -7 12 -9.5t16 -2.5q11 0 18 3.5t12 8t9 8.5
t9 5q12 3 12 -7z" />
    <glyph glyph-name="ae" unicode="&#xe6;" horiz-adv-x="699" 
d="M574 350q0 17 -7.5 33t-19.5 28t-27.5 19t-31.5 7q-21 0 -41 -10.5t-35.5 -27.5t-24.5 -38.5t-9 -42.5q0 -4 6.5 -5.5t15 -2t16.5 0t10 0.5q28 0 46.5 -0.5t45.5 1.5q12 1 22 2t17.5 4t12 10.5t4.5 21.5zM291 201q0 2 -0.5 3.5t-0.5 3.5q-9 -2 -21 -5.5t-24.5 -8l-24 -9
t-20.5 -7.5q-27 -10 -49.5 -29t-22.5 -50q0 -28 13 -44.5t45 -16.5q21 0 42.5 10.5t35.5 25.5q8 8 17 23.5t10 26.5v77zM657 301q0 -13 -4 -20q-5 -1 -10.5 -1.5t-10.5 -0.5h-249q-4 0 -10 -2q-3 0 -4 -8t-1 -16v-8q1 -41 9.5 -78t27.5 -65t50 -44.5t77 -16.5q19 0 33.5 3
t27 9t25 15l27.5 20q1 1 8 1t7 -6q0 -5 -5.5 -13t-12.5 -16t-14.5 -15t-11.5 -10q-31 -26 -60 -37.5t-69 -11.5q-64 0 -107.5 29.5t-66.5 80.5l-27 -28q-11 -15 -27.5 -29t-36.5 -25.5t-41.5 -18t-41.5 -6.5q-51 0 -71.5 28t-20.5 73q0 22 11.5 40.5t29 33.5t38 26t38.5 18
q35 13 63.5 22.5t64.5 18.5v73q0 42 -15.5 68t-60.5 26q-30 0 -48 -9.5t-28.5 -22.5t-14.5 -26l-6 -20q-5 -16 -21 -27.5t-35 -11.5q-11 0 -13 9.5t-2 17.5q0 24 20 48.5t49 45t63 33.5t62 13q7 0 17.5 -1.5t21.5 -3.5t21 -5t16 -6q27 -15 37 -37q23 26 55 41.5t74 15.5
q60 0 102.5 -25.5t60.5 -85.5q4 -13 6.5 -26t3.5 -26z" />
    <glyph glyph-name="ccedilla" unicode="&#xe7;" horiz-adv-x="458" 
d="M348 -156q0 -24 -12 -41t-31.5 -28t-44.5 -16.5t-50 -5.5q-24 0 -49.5 6.5t-46.5 18.5q2 8 6 18t9 15q18 0 39.5 -9.5t43.5 -9.5q21 0 40.5 12.5t19.5 35.5q0 21 -15.5 32t-34.5 11q-8 0 -16.5 -1.5t-16.5 -1.5q-6 0 -9 3t-8 7q6 19 16.5 44l21.5 49q-38 7 -68 28
t-50.5 51t-31 67.5t-10.5 77.5q-1 51 15 97t46.5 81.5t73 56.5t94.5 21q16 0 40.5 -3t46.5 -11t38 -22t16 -36q1 -17 -10 -26.5t-27 -9.5t-29 12t-26 26.5t-28 26.5t-35 12q-38 0 -64 -18.5t-42.5 -47.5t-23.5 -63.5t-7 -67.5q0 -36 9 -71t28 -62.5t48 -44.5t69 -17h22
q26 0 49 11t43 27l9.5 7.5t9.5 6.5q6 -5 6 -12q0 -9 -7 -18t-12 -16q-6 -8 -16.5 -16.5t-23 -16.5t-25 -14t-21.5 -9q-35 -11 -64 -11l-13.5 -28t-12.5 -30q8 0 17 1.5t17 1.5q38 0 63 -20.5t25 -59.5z" />
    <glyph glyph-name="egrave" unicode="&#xe8;" horiz-adv-x="459" 
d="M162 694l8.5 7t5.5 4l7.5 5t13.5 10q5 8 12 4.5t9 -8.5q5 -10 20.5 -34.5l32.5 -51l30.5 -49.5t14.5 -30q3 -10 -4.5 -15t-16.5 4l-29 26.5l-39.5 37.5l-38.5 38t-27 29q-6 7 -6.5 11.5t7.5 11.5zM334 350q0 17 -7.5 33t-19.5 28t-27.5 19t-31.5 7q-21 0 -41 -10.5
t-35.5 -27.5t-24.5 -38.5t-9 -42.5q0 -4 6.5 -5.5t15 -2t16.5 0t10 0.5q28 0 46.5 -0.5t45.5 1.5q12 1 22 2t17.5 4t12 10.5t4.5 21.5zM417 301q0 -13 -4 -20q-5 -1 -10.5 -1.5t-10.5 -0.5h-249q-4 0 -10 -2q-3 0 -4 -8t-1 -16v-8q1 -41 9.5 -78t27.5 -65t50 -44.5t77 -16.5
q19 0 33.5 3t27 9t25 15l27.5 20q1 1 8 1t7 -6q0 -5 -5.5 -13t-12.5 -16t-14.5 -15t-11.5 -10q-31 -26 -60 -37.5t-69 -11.5q-47 0 -83 16.5t-61 46t-38 68.5t-14 84q-1 47 9 95t33 86.5t60.5 63t90.5 24.5q60 0 102.5 -25.5t60.5 -85.5q4 -13 6.5 -26t3.5 -26z" />
    <glyph glyph-name="eacute" unicode="&#xe9;" horiz-adv-x="459" 
d="M333 718q6 -5 9 -6.5t5.5 -3.5t7 -5l13.5 -9q8 -3 7.5 -10.5t-5.5 -11.5q-7 -8 -25 -30.5l-38 -47l-37.5 -44.5t-22.5 -23q-9 -6 -16.5 -0.5t-1.5 16.5q5 13 16 36.5l23 49l23.5 48.5t18.5 35q5 8 9.5 10t13.5 -4zM334 350q0 17 -7.5 33t-19.5 28t-27.5 19t-31.5 7
q-21 0 -41 -10.5t-35.5 -27.5t-24.5 -38.5t-9 -42.5q0 -4 6.5 -5.5t15 -2t16.5 0t10 0.5q28 0 46.5 -0.5t45.5 1.5q12 1 22 2t17.5 4t12 10.5t4.5 21.5zM417 301q0 -13 -4 -20q-5 -1 -10.5 -1.5t-10.5 -0.5h-249q-4 0 -10 -2q-3 0 -4 -8t-1 -16v-8q1 -41 9.5 -78t27.5 -65
t50 -44.5t77 -16.5q19 0 33.5 3t27 9t25 15l27.5 20q1 1 8 1t7 -6q0 -5 -5.5 -13t-12.5 -16t-14.5 -15t-11.5 -10q-31 -26 -60 -37.5t-69 -11.5q-47 0 -83 16.5t-61 46t-38 68.5t-14 84q-1 47 9 95t33 86.5t60.5 63t90.5 24.5q60 0 102.5 -25.5t60.5 -85.5q4 -13 6.5 -26
t3.5 -26z" />
    <glyph glyph-name="ecircumflex" unicode="&#xea;" horiz-adv-x="459" 
d="M153 538q-6 0 -6 7q0 3 6.5 17t17 33l23 41l24 41t21 33t13.5 17q9 -6 10 -8l55.5 -90.5t40.5 -79.5q2 -6 2 -8q0 -9 -9 -7q-5 1 -17 15.5l-27 33.5l-30 36.5t-25 24.5q-11 -8 -24.5 -25.5l-26.5 -35.5t-25.5 -31.5t-22.5 -13.5zM334 350q0 17 -7.5 33t-19.5 28t-27.5 19
t-31.5 7q-21 0 -41 -10.5t-35.5 -27.5t-24.5 -38.5t-9 -42.5q0 -4 6.5 -5.5t15 -2t16.5 0t10 0.5q28 0 46.5 -0.5t45.5 1.5q12 1 22 2t17.5 4t12 10.5t4.5 21.5zM417 301q0 -13 -4 -20q-5 -1 -10.5 -1.5t-10.5 -0.5h-249q-4 0 -10 -2q-3 0 -4 -8t-1 -16v-8q1 -41 9.5 -78
t27.5 -65t50 -44.5t77 -16.5q19 0 33.5 3t27 9t25 15l27.5 20q1 1 8 1t7 -6q0 -5 -5.5 -13t-12.5 -16t-14.5 -15t-11.5 -10q-31 -26 -60 -37.5t-69 -11.5q-47 0 -83 16.5t-61 46t-38 68.5t-14 84q-1 47 9 95t33 86.5t60.5 63t90.5 24.5q60 0 102.5 -25.5t60.5 -85.5
q4 -13 6.5 -26t3.5 -26z" />
    <glyph glyph-name="edieresis" unicode="&#xeb;" horiz-adv-x="459" 
d="M194 600q0 -23 -16.5 -37t-38.5 -14t-38 14.5t-16 37.5t17 38.5t40 15.5q22 0 37 -17t15 -38zM399 603q0 -25 -16.5 -40t-40.5 -15q-3 0 -4 1q-21 2 -33.5 17.5t-12.5 35.5q0 23 15 38t39 15q23 0 38 -14.5t15 -37.5zM334 350q0 17 -7.5 33t-19.5 28t-27.5 19t-31.5 7
q-21 0 -41 -10.5t-35.5 -27.5t-24.5 -38.5t-9 -42.5q0 -4 6.5 -5.5t15 -2t16.5 0t10 0.5q28 0 46.5 -0.5t45.5 1.5q12 1 22 2t17.5 4t12 10.5t4.5 21.5zM417 301q0 -13 -4 -20q-5 -1 -10.5 -1.5t-10.5 -0.5h-249q-4 0 -10 -2q-3 0 -4 -8t-1 -16v-8q1 -41 9.5 -78t27.5 -65
t50 -44.5t77 -16.5q19 0 33.5 3t27 9t25 15l27.5 20q1 1 8 1t7 -6q0 -5 -5.5 -13t-12.5 -16t-14.5 -15t-11.5 -10q-31 -26 -60 -37.5t-69 -11.5q-47 0 -83 16.5t-61 46t-38 68.5t-14 84q-1 47 9 95t33 86.5t60.5 63t90.5 24.5q60 0 102.5 -25.5t60.5 -85.5q4 -13 6.5 -26
t3.5 -26z" />
    <glyph glyph-name="igrave" unicode="&#xec;" horiz-adv-x="313" 
d="M67 669l8.5 7t5.5 4l7.5 5t13.5 10q5 8 12 4.5t9 -8.5q5 -10 20.5 -34.5l32.5 -51l30.5 -49.5t14.5 -30q3 -10 -4.5 -15t-16.5 4l-29 26.5l-39.5 37.5l-38.5 38t-27 29q-6 7 -6.5 11.5t7.5 11.5zM274 5q0 -11 -10.5 -12t-17.5 -1q-18 0 -35.5 2.5t-34.5 2.5
q-26 0 -53 -2.5t-53 -2.5h-11q-8 0 -15 2t-7 13q0 3 2 5l4 4q9 7 20.5 8.5l22.5 3t19.5 7t11.5 21.5q2 10 2 14v15q1 32 0.5 62.5t0.5 62.5q1 24 2.5 47.5t1.5 47.5q0 12 -1.5 29t-9.5 27q-5 6 -14 10l-17.5 7.5t-15 7t-6.5 8.5t6 9t14.5 7.5t16.5 6t12 3.5q7 2 20 9
l26.5 14.5l24.5 13.5t15 6q6 0 6 -5q0 -15 -0.5 -29.5t-1.5 -29.5q-1 -30 -1.5 -60.5t-0.5 -60.5q0 -37 0.5 -73.5t1.5 -73.5q0 -17 -0.5 -34.5t1.5 -34.5q2 -21 13.5 -28t25 -9.5t24.5 -5t11 -14.5z" />
    <glyph glyph-name="iacute" unicode="&#xed;" horiz-adv-x="313" 
d="M224 699q6 -5 9 -6.5t5.5 -3.5t7 -5l13.5 -9q8 -3 7.5 -10.5t-5.5 -11.5q-7 -8 -25 -30.5l-38 -47l-37.5 -44.5t-22.5 -23q-9 -6 -16.5 -0.5t-1.5 16.5q5 13 16 36.5l23 49l23.5 48.5t18.5 35q5 8 9.5 10t13.5 -4zM274 5q0 -11 -10.5 -12t-17.5 -1q-18 0 -35.5 2.5
t-34.5 2.5q-26 0 -53 -2.5t-53 -2.5h-11q-8 0 -15 2t-7 13q0 3 2 5l4 4q9 7 20.5 8.5l22.5 3t19.5 7t11.5 21.5q2 10 2 14v15q1 32 0.5 62.5t0.5 62.5q1 24 2.5 47.5t1.5 47.5q0 12 -1.5 29t-9.5 27q-5 6 -14 10l-17.5 7.5t-15 7t-6.5 8.5t6 9t14.5 7.5t16.5 6t12 3.5
q7 2 20 9l26.5 14.5l24.5 13.5t15 6q6 0 6 -5q0 -15 -0.5 -29.5t-1.5 -29.5q-1 -30 -1.5 -60.5t-0.5 -60.5q0 -37 0.5 -73.5t1.5 -73.5q0 -17 -0.5 -34.5t1.5 -34.5q2 -21 13.5 -28t25 -9.5t24.5 -5t11 -14.5z" />
    <glyph glyph-name="icircumflex" unicode="&#xee;" horiz-adv-x="313" 
d="M59 499q-6 0 -6 7q0 3 6.5 17t17 33l23 41l24 41t21 33t13.5 17q9 -6 10 -8l55.5 -90.5t40.5 -79.5q2 -6 2 -8q0 -9 -9 -7q-5 1 -17 15.5l-27 33.5l-30 36.5t-25 24.5q-11 -8 -24.5 -25.5l-26.5 -35.5t-25.5 -31.5t-22.5 -13.5zM274 5q0 -11 -10.5 -12t-17.5 -1
q-18 0 -35.5 2.5t-34.5 2.5q-26 0 -53 -2.5t-53 -2.5h-11q-8 0 -15 2t-7 13q0 3 2 5l4 4q9 7 20.5 8.5l22.5 3t19.5 7t11.5 21.5q2 10 2 14v15q1 32 0.5 62.5t0.5 62.5q1 24 2.5 47.5t1.5 47.5q0 12 -1.5 29t-9.5 27q-5 6 -14 10l-17.5 7.5t-15 7t-6.5 8.5t6 9t14.5 7.5
t16.5 6t12 3.5q7 2 20 9l26.5 14.5l24.5 13.5t15 6q6 0 6 -5q0 -15 -0.5 -29.5t-1.5 -29.5q-1 -30 -1.5 -60.5t-0.5 -60.5q0 -37 0.5 -73.5t1.5 -73.5q0 -17 -0.5 -34.5t1.5 -34.5q2 -21 13.5 -28t25 -9.5t24.5 -5t11 -14.5z" />
    <glyph glyph-name="idieresis" unicode="&#xef;" horiz-adv-x="313" 
d="M108 572q0 -23 -16.5 -37t-38.5 -14t-38 14.5t-16 37.5t17 38.5t40 15.5q22 0 37 -17t15 -38zM313 575q0 -25 -16.5 -40t-40.5 -15q-3 0 -4 1q-21 2 -33.5 17.5t-12.5 35.5q0 23 15 38t39 15q23 0 38 -14.5t15 -37.5zM272 5q0 -11 -10.5 -12t-17.5 -1q-18 0 -35.5 2.5
t-34.5 2.5q-26 0 -53 -2.5t-53 -2.5h-11q-8 0 -15 2t-7 13q0 3 2 5l4 4q9 7 20.5 8.5l22.5 3t19.5 7t11.5 21.5q2 10 2 14v15q1 32 0.5 62.5t0.5 62.5q1 24 2.5 47.5t1.5 47.5q0 12 -1.5 29t-9.5 27q-5 6 -14 10l-17.5 7.5t-15 7t-6.5 8.5t6 9t14.5 7.5t16.5 6t12 3.5
q7 2 20 9l26.5 14.5l24.5 13.5t15 6q6 0 6 -5q0 -15 -0.5 -29.5t-1.5 -29.5q-1 -30 -1.5 -60.5t-0.5 -60.5q0 -37 0.5 -73.5t1.5 -73.5q0 -17 -0.5 -34.5t1.5 -34.5q2 -21 13.5 -28t25 -9.5t24.5 -5t11 -14.5z" />
    <glyph glyph-name="eth" unicode="&#xf0;" horiz-adv-x="584" 
d="M389 764q5 -8 12.5 -14t7.5 -14q0 -4 -6 -10.5t-14 -14l-16.5 -15t-13.5 -13.5q46 -41 78.5 -91.5t52.5 -106.5t29.5 -116t9.5 -121q0 -50 -17 -98.5t-48 -86t-75 -60.5t-98 -23q-53 0 -97 17t-76 48t-50 75t-18 97q0 51 17.5 96.5t49 79t75 53.5t95.5 20q73 0 131 -37
q-12 60 -36.5 114t-64.5 102l-52 -47q-1 -1 -8 -1q-5 0 -10 6t-5 11q0 2 1 5.5t2 5.5l42 53q-14 18 -33.5 33.5t-37 28t-29.5 22t-12 16.5q0 8 6 12t13 6q10 -3 25.5 -11.5t33 -20.5l35.5 -25l34 -25l43 46q2 3 4.5 6t5.5 3q9 0 14 -5zM435 211q0 33 -6.5 71.5t-23.5 71.5
t-46 55.5t-74 22.5q-39 0 -66 -18t-44.5 -46.5t-25.5 -62.5t-8 -67q0 -34 8 -73t26 -72t47.5 -55t71.5 -22q38 0 65 17.5t44 45.5t24.5 61.5t7.5 65.5v5z" />
    <glyph glyph-name="ntilde" unicode="&#xf1;" horiz-adv-x="586" 
d="M463 680q0 -5 -0.5 -9.5t-1.5 -9.5q-3 -18 -13 -34.5t-24 -29t-31.5 -20t-36.5 -7.5q-17 0 -36 7t-38 15t-37.5 15t-34.5 7q-24 0 -34.5 -15.5t-19.5 -33.5q0 -6 -13 -6q-4 0 -8 2t-4 5q4 20 12 39t21 33.5t30.5 23.5t40.5 9q20 0 39 -6.5t37 -15t35 -15t34 -6.5
q23 0 36 15.5t19 35.5q2 8 15 8t13 -7zM177 471q4 0 7.5 -5t3.5 -8q0 -4 -1 -8t-1 -8v-54l2 -1q3 1 8 6q34 29 69 49.5t81 20.5q40 0 66.5 -13t42.5 -35.5t22 -54t6 -67.5q0 -20 -1 -39t-1 -39v-146q0 -34 20 -42t49 -8q5 0 6.5 -4.5t1.5 -9.5q0 -4 -1.5 -8t-8.5 -4
q-14 0 -27.5 1.5t-27.5 1.5h-75q-8 0 -16 -0.5t-16 -1.5t-16 -1.5t-16 -0.5q-6 0 -17.5 1.5t-11.5 10.5q0 10 8 13.5t19.5 5t23 4t18.5 11.5q8 10 9 27t1 29q1 22 1 43v43v86q0 26 -2.5 51t-12 44.5t-28.5 31.5t-51 12q-23 0 -41.5 -6.5t-38.5 -17.5l-22.5 -13t-18.5 -18
q-2 -6 -3.5 -18.5t-2.5 -28.5t-1 -33v-32v-163q0 -20 9 -33q11 -15 25.5 -17t28.5 -2q8 0 16 -3q6 -2 6 -11q0 -8 -4 -12q-8 -3 -10.5 -3.5t-11.5 -0.5q-22 0 -43 2.5t-42 2.5q-26 0 -50.5 -2.5t-50.5 -2.5q-8 0 -13.5 2.5t-5.5 11.5q0 6 7 9.5t17 6t19.5 6t14.5 9.5
q8 11 10.5 30.5t2.5 33.5v206q0 24 -4 41q-2 11 -10.5 17t-18 9.5t-17 6t-7.5 8.5v2q4 7 11 12q4 3 21.5 14t38 22.5l37 21t18.5 9.5z" />
    <glyph glyph-name="ograve" unicode="&#xf2;" horiz-adv-x="578" 
d="M435 209q0 28 -4.5 58t-14.5 58t-27 51.5t-42 39.5q-14 10 -31 12t-34 2q-38 0 -65 -18.5t-44 -47t-24.5 -63t-7.5 -65.5q0 -35 8 -74t26 -72t47.5 -54.5t71.5 -21.5q40 0 67 18t43.5 46.5t23.5 63t7 67.5zM528 228q0 -51 -17.5 -96.5t-48.5 -79.5t-75 -54t-96 -20
q-53 0 -97.5 17t-76.5 48.5t-49.5 75t-17.5 97.5q0 51 17.5 96t49 78.5t75 53.5t95.5 20q75 0 134.5 -39t88.5 -109q8 -21 13 -43t5 -45zM161 667l8.5 7t5.5 4l7.5 5t13.5 10q5 8 12 4.5t9 -8.5q5 -10 20.5 -34.5l32.5 -51l30.5 -49.5t14.5 -30q3 -10 -4.5 -15t-16.5 4
l-29 26.5l-39.5 37.5l-38.5 38t-27 29q-6 7 -6.5 11.5t7.5 11.5z" />
    <glyph glyph-name="oacute" unicode="&#xf3;" horiz-adv-x="578" 
d="M435 209q0 28 -4.5 58t-14.5 58t-27 51.5t-42 39.5q-14 10 -31 12t-34 2q-38 0 -65 -18.5t-44 -47t-24.5 -63t-7.5 -65.5q0 -35 8 -74t26 -72t47.5 -54.5t71.5 -21.5q40 0 67 18t43.5 46.5t23.5 63t7 67.5zM528 228q0 -51 -17.5 -96.5t-48.5 -79.5t-75 -54t-96 -20
q-53 0 -97.5 17t-76.5 48.5t-49.5 75t-17.5 97.5q0 51 17.5 96t49 78.5t75 53.5t95.5 20q75 0 134.5 -39t88.5 -109q8 -21 13 -43t5 -45zM359 710q6 -5 9 -6.5t5.5 -3.5t7 -5l13.5 -9q8 -3 7.5 -10.5t-5.5 -11.5q-7 -8 -25 -30.5l-38 -47l-37.5 -44.5t-22.5 -23
q-9 -6 -16.5 -0.5t-1.5 16.5q5 13 16 36.5l23 49l23.5 48.5t18.5 35q5 8 9.5 10t13.5 -4z" />
    <glyph glyph-name="ocircumflex" unicode="&#xf4;" horiz-adv-x="578" 
d="M435 209q0 28 -4.5 58t-14.5 58t-27 51.5t-42 39.5q-14 10 -31 12t-34 2q-38 0 -65 -18.5t-44 -47t-24.5 -63t-7.5 -65.5q0 -35 8 -74t26 -72t47.5 -54.5t71.5 -21.5q40 0 67 18t43.5 46.5t23.5 63t7 67.5zM528 228q0 -51 -17.5 -96.5t-48.5 -79.5t-75 -54t-96 -20
q-53 0 -97.5 17t-76.5 48.5t-49.5 75t-17.5 97.5q0 51 17.5 96t49 78.5t75 53.5t95.5 20q75 0 134.5 -39t88.5 -109q8 -21 13 -43t5 -45zM174 540q-6 0 -6 7q0 3 6.5 17t17 33l23 41l24 41t21 33t13.5 17q9 -6 10 -8l55.5 -90.5t40.5 -79.5q2 -6 2 -8q0 -9 -9 -7
q-5 1 -17 15.5l-27 33.5l-30 36.5t-25 24.5q-11 -8 -24.5 -25.5l-26.5 -35.5t-25.5 -31.5t-22.5 -13.5z" />
    <glyph glyph-name="otilde" unicode="&#xf5;" horiz-adv-x="578" 
d="M449 680q0 -5 -0.5 -9.5t-1.5 -9.5q-3 -18 -13 -34.5t-24 -29t-31.5 -20t-36.5 -7.5q-17 0 -36 7t-38 15t-37.5 15t-34.5 7q-24 0 -34.5 -15.5t-19.5 -33.5q0 -6 -13 -6q-4 0 -8 2t-4 5q4 20 12 39t21 33.5t30.5 23.5t40.5 9q20 0 39 -6.5t37 -15t35 -15t34 -6.5
q23 0 36 15.5t19 35.5q2 8 15 8t13 -7zM435 209q0 28 -4.5 58t-14.5 58t-27 51.5t-42 39.5q-14 10 -31 12t-34 2q-38 0 -65 -18.5t-44 -47t-24.5 -63t-7.5 -65.5q0 -35 8 -74t26 -72t47.5 -54.5t71.5 -21.5q40 0 67 18t43.5 46.5t23.5 63t7 67.5zM528 228q0 -51 -17.5 -96.5
t-48.5 -79.5t-75 -54t-96 -20q-53 0 -97.5 17t-76.5 48.5t-49.5 75t-17.5 97.5q0 51 17.5 96t49 78.5t75 53.5t95.5 20q75 0 134.5 -39t88.5 -109q8 -21 13 -43t5 -45z" />
    <glyph glyph-name="odieresis" unicode="&#xf6;" horiz-adv-x="578" 
d="M435 209q0 28 -4.5 58t-14.5 58t-27 51.5t-42 39.5q-14 10 -31 12t-34 2q-38 0 -65 -18.5t-44 -47t-24.5 -63t-7.5 -65.5q0 -35 8 -74t26 -72t47.5 -54.5t71.5 -21.5q40 0 67 18t43.5 46.5t23.5 63t7 67.5zM528 228q0 -51 -17.5 -96.5t-48.5 -79.5t-75 -54t-96 -20
q-53 0 -97.5 17t-76.5 48.5t-49.5 75t-17.5 97.5q0 51 17.5 96t49 78.5t75 53.5t95.5 20q75 0 134.5 -39t88.5 -109q8 -21 13 -43t5 -45zM233 599q0 -23 -16.5 -37t-38.5 -14t-38 14.5t-16 37.5t17 38.5t40 15.5q22 0 37 -17t15 -38zM438 602q0 -25 -16.5 -40t-40.5 -15
q-3 0 -4 1q-21 2 -33.5 17.5t-12.5 35.5q0 23 15 38t39 15q23 0 38 -14.5t15 -37.5z" />
    <glyph glyph-name="divide" unicode="&#xf7;" 
d="M307 426q0 -27 -19.5 -46t-46.5 -19q-4 0 -5 1q-11 1 -21 7.5t-17.5 16t-12 21t-4.5 22.5q0 23 18 42t41 19q26 0 46.5 -19t20.5 -45zM307 80q0 -26 -19 -47t-46 -21q-13 0 -24.5 6t-19.5 15.5t-13 21.5t-5 25q0 26 18.5 43.5t44.5 17.5q24 0 44 -18t20 -43zM440 250
q0 -8 -0.5 -17.5t-5.5 -15.5q-11 1 -24 1h-27h-75q-45 0 -108.5 -0.5t-151.5 -0.5q-11 17 -12 29.5t12 34.5q92 0 175.5 -1t144.5 -1h70q2 -10 2 -15v-14v0z" />
    <glyph glyph-name="oslash" unicode="&#xf8;" horiz-adv-x="578" 
d="M435 209q0 23 -3 47t-9.5 47.5t-17 45t-25.5 39.5l-70.5 -184.5t-68.5 -184.5q12 -5 25 -6t28 -1q40 0 67 18.5t43.5 47t23.5 63.5t7 68zM141 236q0 -24 3.5 -50.5t12 -52.5t21 -49.5t30.5 -40.5l69 185.5l69 187.5q-14 10 -30.5 12t-33.5 2q-38 0 -65 -18.5t-44 -47
t-24.5 -63t-7.5 -65.5zM437 544q-7 -24 -10 -33t-5 -14.5t-6 -14t-13 -32.5q-2 -3 -2.5 -6t-2.5 -6q78 -40 112 -122q8 -21 13 -43t5 -45q0 -51 -17.5 -96.5t-48.5 -79.5t-75 -54t-96 -20q-17 0 -32 2t-30 5l-17.5 -51t-16.5 -51q-5 0 -12.5 -1t-32.5 1l20.5 58t20.5 55
q-66 26 -103.5 82.5t-37.5 137.5q0 51 17.5 96t49 78.5t75 53.5t95.5 20q39 0 72 -10q9 26 15.5 43t16.5 46q20 6 46 1z" />
    <glyph glyph-name="ugrave" unicode="&#xf9;" horiz-adv-x="567" 
d="M156 697l8.5 7t5.5 4l7.5 5t13.5 10q5 8 12 4.5t9 -8.5q5 -10 20.5 -34.5l32.5 -51l30.5 -49.5t14.5 -30q3 -10 -4.5 -15t-16.5 4l-29 26.5l-39.5 37.5l-38.5 38t-27 29q-6 7 -6.5 11.5t7.5 11.5zM28 429q0 6 7 10q3 1 12 2t19 1q11 0 21 0.5t15 0.5l35 4t35 2
q8 0 9 -11.5t1 -16.5v-160q0 -30 -0.5 -60t-0.5 -60q0 -49 18.5 -76.5t69.5 -27.5q21 0 37 3.5t29 11.5t24.5 20t24.5 29q1 10 1.5 20.5t1 25t0.5 34.5v51v99q0 14 -1 28t-4 28q-2 9 -11.5 14t-21 7t-21.5 3.5t-13 3.5q-5 0 -12 2.5t-7 9.5q0 5 9 10q2 1 21 2.5t42 3.5
t43.5 3.5t25.5 1.5q20 0 25.5 -5.5t5.5 -26.5q0 -43 -1 -86l-2 -86q0 -42 -0.5 -84t-0.5 -84q0 -13 6.5 -22t20.5 -9q23 0 40 4q5 1 11 0t6 -10q0 -5 -6 -9.5t-10 -6.5q-2 -1 -16.5 -5.5l-32 -10t-33.5 -10t-20 -5.5q-2 0 -7 -1.5t-11.5 -3t-13 -2.5t-9.5 0t-4 7.5t-1 14.5
t0.5 15.5t0.5 10.5v17q0 13 -4 9l-32 -28t-33.5 -25.5t-37 -19t-41.5 -7.5h-19q-37 0 -60 14t-36 37t-18 52.5t-5 61.5q0 54 1 107.5t1 107.5q0 26 -6.5 39t-36.5 13q-4 2 -9.5 3t-10 2t-7.5 4t-3 9z" />
    <glyph glyph-name="uacute" unicode="&#xfa;" horiz-adv-x="567" 
d="M363 705q6 -5 9 -6.5t5.5 -3.5t7 -5l13.5 -9q8 -3 7.5 -10.5t-5.5 -11.5q-7 -8 -25 -30.5l-38 -47l-37.5 -44.5t-22.5 -23q-9 -6 -16.5 -0.5t-1.5 16.5q5 13 16 36.5l23 49l23.5 48.5t18.5 35q5 8 9.5 10t13.5 -4zM28 429q0 6 7 10q3 1 12 2t19 1q11 0 21 0.5t15 0.5
l35 4t35 2q8 0 9 -11.5t1 -16.5v-160q0 -30 -0.5 -60t-0.5 -60q0 -49 18.5 -76.5t69.5 -27.5q21 0 37 3.5t29 11.5t24.5 20t24.5 29q1 10 1.5 20.5t1 25t0.5 34.5v51v99q0 14 -1 28t-4 28q-2 9 -11.5 14t-21 7t-21.5 3.5t-13 3.5q-5 0 -12 2.5t-7 9.5q0 5 9 10q2 1 21 2.5
t42 3.5t43.5 3.5t25.5 1.5q20 0 25.5 -5.5t5.5 -26.5q0 -43 -1 -86l-2 -86q0 -42 -0.5 -84t-0.5 -84q0 -13 6.5 -22t20.5 -9q23 0 40 4q5 1 11 0t6 -10q0 -5 -6 -9.5t-10 -6.5q-2 -1 -16.5 -5.5l-32 -10t-33.5 -10t-20 -5.5q-2 0 -7 -1.5t-11.5 -3t-13 -2.5t-9.5 0t-4 7.5
t-1 14.5t0.5 15.5t0.5 10.5v17q0 13 -4 9l-32 -28t-33.5 -25.5t-37 -19t-41.5 -7.5h-19q-37 0 -60 14t-36 37t-18 52.5t-5 61.5q0 54 1 107.5t1 107.5q0 26 -6.5 39t-36.5 13q-4 2 -9.5 3t-10 2t-7.5 4t-3 9z" />
    <glyph glyph-name="ucircumflex" unicode="&#xfb;" horiz-adv-x="567" 
d="M173 542q-6 0 -6 7q0 3 6.5 17t17 33l23 41l24 41t21 33t13.5 17q9 -6 10 -8l55.5 -90.5t40.5 -79.5q2 -6 2 -8q0 -9 -9 -7q-5 1 -17 15.5l-27 33.5l-30 36.5t-25 24.5q-11 -8 -24.5 -25.5l-26.5 -35.5t-25.5 -31.5t-22.5 -13.5zM28 429q0 6 7 10q3 1 12 2t19 1
q11 0 21 0.5t15 0.5l35 4t35 2q8 0 9 -11.5t1 -16.5v-160q0 -30 -0.5 -60t-0.5 -60q0 -49 18.5 -76.5t69.5 -27.5q21 0 37 3.5t29 11.5t24.5 20t24.5 29q1 10 1.5 20.5t1 25t0.5 34.5v51v99q0 14 -1 28t-4 28q-2 9 -11.5 14t-21 7t-21.5 3.5t-13 3.5q-5 0 -12 2.5t-7 9.5
q0 5 9 10q2 1 21 2.5t42 3.5t43.5 3.5t25.5 1.5q20 0 25.5 -5.5t5.5 -26.5q0 -43 -1 -86l-2 -86q0 -42 -0.5 -84t-0.5 -84q0 -13 6.5 -22t20.5 -9q23 0 40 4q5 1 11 0t6 -10q0 -5 -6 -9.5t-10 -6.5q-2 -1 -16.5 -5.5l-32 -10t-33.5 -10t-20 -5.5q-2 0 -7 -1.5t-11.5 -3
t-13 -2.5t-9.5 0t-4 7.5t-1 14.5t0.5 15.5t0.5 10.5v17q0 13 -4 9l-32 -28t-33.5 -25.5t-37 -19t-41.5 -7.5h-19q-37 0 -60 14t-36 37t-18 52.5t-5 61.5q0 54 1 107.5t1 107.5q0 26 -6.5 39t-36.5 13q-4 2 -9.5 3t-10 2t-7.5 4t-3 9z" />
    <glyph glyph-name="udieresis" unicode="&#xfc;" horiz-adv-x="567" 
d="M225 616q0 -23 -16.5 -37t-38.5 -14t-38 14.5t-16 37.5t17 38.5t40 15.5q22 0 37 -17t15 -38zM430 619q0 -25 -16.5 -40t-40.5 -15q-3 0 -4 1q-21 2 -33.5 17.5t-12.5 35.5q0 23 15 38t39 15q23 0 38 -14.5t15 -37.5zM28 429q0 6 7 10q3 1 12 2t19 1q11 0 21 0.5t15 0.5
l35 4t35 2q8 0 9 -11.5t1 -16.5v-160q0 -30 -0.5 -60t-0.5 -60q0 -49 18.5 -76.5t69.5 -27.5q21 0 37 3.5t29 11.5t24.5 20t24.5 29q1 10 1.5 20.5t1 25t0.5 34.5v51v99q0 14 -1 28t-4 28q-2 9 -11.5 14t-21 7t-21.5 3.5t-13 3.5q-5 0 -12 2.5t-7 9.5q0 5 9 10q2 1 21 2.5
t42 3.5t43.5 3.5t25.5 1.5q20 0 25.5 -5.5t5.5 -26.5q0 -43 -1 -86l-2 -86q0 -42 -0.5 -84t-0.5 -84q0 -13 6.5 -22t20.5 -9q23 0 40 4q5 1 11 0t6 -10q0 -5 -6 -9.5t-10 -6.5q-2 -1 -16.5 -5.5l-32 -10t-33.5 -10t-20 -5.5q-2 0 -7 -1.5t-11.5 -3t-13 -2.5t-9.5 0t-4 7.5
t-1 14.5t0.5 15.5t0.5 10.5v17q0 13 -4 9l-32 -28t-33.5 -25.5t-37 -19t-41.5 -7.5h-19q-37 0 -60 14t-36 37t-18 52.5t-5 61.5q0 54 1 107.5t1 107.5q0 26 -6.5 39t-36.5 13q-4 2 -9.5 3t-10 2t-7.5 4t-3 9z" />
    <glyph glyph-name="yacute" unicode="&#xfd;" horiz-adv-x="537" 
d="M400 720q6 -5 9 -6.5t5.5 -3.5t7 -5l13.5 -9q8 -3 7.5 -10.5t-5.5 -11.5q-7 -8 -25 -30.5l-38 -47l-37.5 -44.5t-22.5 -23q-9 -6 -16.5 -0.5t-1.5 16.5q5 13 16 36.5l23 49l23.5 48.5t18.5 35q5 8 9.5 10t13.5 -4zM527 433q0 -12 -12.5 -14t-26.5 -10q-12 -7 -19.5 -20.5
t-12.5 -25.5l-31 -66l-31 -66l-70.5 -153.5l-68.5 -153.5q-21 -51 -45.5 -105t-51.5 -105q-3 -5 -10.5 -4.5t-15 4.5t-12 10t-2.5 11l57 124l56 124q2 10 -3.5 24t-8.5 23l-63.5 178.5t-71.5 173.5q-7 15 -19.5 22.5t-24.5 11t-21 6.5t-9 11q0 16 19 16q24 0 48 -2.5
t48 -2.5q25 0 50 2t50 1h15q7 -4 7 -12q0 -11 -7.5 -13.5t-15.5 -2.5q-7 0 -15.5 -1t-16.5 -4t-13.5 -8.5t-5.5 -14.5q0 -7 6.5 -27l16 -47.5l21.5 -59.5l23 -61l20 -52.5l13 -34.5q2 -4 3 -7.5t4 -5.5q6 3 9 12q5 12 15.5 34l23.5 49.5l26 57l24 56t18 47t7 30.5
q0 18 -11 24.5t-24 9.5l-24 5.5t-11 13.5q0 8 3.5 10t9.5 2q18 0 35.5 -0.5t34.5 -0.5q20 0 39.5 1t39.5 1q10 0 21 -0.5t11 -14.5z" />
    <glyph glyph-name="thorn" unicode="&#xfe;" horiz-adv-x="604" 
d="M476 206q0 38 -13 72t-36.5 60t-56 41t-71.5 15q-9 0 -25 -2t-31 -6.5t-26.5 -12.5t-11.5 -20v-117q0 -12 -0.5 -36.5t0 -51.5t2.5 -50t6 -31q6 -11 17.5 -19t25 -13.5t28 -8.5t25.5 -3q40 0 71 14.5t52.5 39t32.5 58t11 71.5zM554 240q0 -51 -17.5 -96t-48.5 -79.5
t-74 -55t-93 -21.5q-20 0 -33 2t-23 4.5t-20 4.5t-24 2q-12 0 -14.5 -10.5t-2.5 -22.5v-13q0 -36 1 -72.5t1 -72.5v-9q0 -6 1 -9q1 -5 1.5 -8.5t3.5 -7.5q5 -8 17.5 -11t26.5 -4.5t25.5 -2t14.5 -2.5q5 -5 5 -11q0 -11 -10.5 -13.5t-18.5 -2.5q-24 0 -48.5 3t-48.5 3
q-27 0 -53.5 -3.5t-53.5 -3.5q-13 0 -22 1.5t-9 17.5q0 5 9.5 8t21.5 6t24.5 7t18.5 11q10 5 11.5 16.5t1.5 24.5v13q0 39 0.5 102t1 137.5l1 155l1 155t1 137.5t0.5 102v18v9q0 5 -1 10q-2 24 -12.5 33.5t-22.5 13t-21.5 6t-9.5 13.5q0 3 6.5 6t8.5 5q20 9 40 15.5t40 16.5
q3 2 9.5 6l13.5 8.5t13 8t9 3.5q6 0 7.5 -6.5t1.5 -10.5q0 -11 -2 -21.5t-2 -21.5v-26q0 -25 0.5 -62t0.5 -80v-60q0 -29 0.5 -52.5t1 -38t1.5 -15.5q1 0 1.5 -0.5t2.5 -0.5q5 0 8.5 2.5t7.5 4.5q12 8 27.5 15.5t32 13.5t33 10t30.5 4q44 0 81 -16.5t63.5 -45t41 -66.5
t14.5 -81z" />
    <glyph glyph-name="ydieresis" unicode="&#xff;" horiz-adv-x="537" 
d="M236 616q0 -23 -16.5 -37t-38.5 -14t-38 14.5t-16 37.5t17 38.5t40 15.5q22 0 37 -17t15 -38zM441 619q0 -25 -16.5 -40t-40.5 -15q-3 0 -4 1q-21 2 -33.5 17.5t-12.5 35.5q0 23 15 38t39 15q23 0 38 -14.5t15 -37.5zM527 433q0 -12 -12.5 -14t-26.5 -10
q-12 -7 -19.5 -20.5t-12.5 -25.5l-31 -66l-31 -66l-70.5 -153.5l-68.5 -153.5q-21 -51 -45.5 -105t-51.5 -105q-3 -5 -10.5 -4.5t-15 4.5t-12 10t-2.5 11l57 124l56 124q2 10 -3.5 24t-8.5 23l-63.5 178.5t-71.5 173.5q-7 15 -19.5 22.5t-24.5 11t-21 6.5t-9 11q0 16 19 16
q24 0 48 -2.5t48 -2.5q25 0 50 2t50 1h15q7 -4 7 -12q0 -11 -7.5 -13.5t-15.5 -2.5q-7 0 -15.5 -1t-16.5 -4t-13.5 -8.5t-5.5 -14.5q0 -7 6.5 -27l16 -47.5l21.5 -59.5l23 -61l20 -52.5l13 -34.5q2 -4 3 -7.5t4 -5.5q6 3 9 12q5 12 15.5 34l23.5 49.5l26 57l24 56t18 47
t7 30.5q0 18 -11 24.5t-24 9.5l-24 5.5t-11 13.5q0 8 3.5 10t9.5 2q18 0 35.5 -0.5t34.5 -0.5q20 0 39.5 1t39.5 1q10 0 21 -0.5t11 -14.5z" />
    <glyph glyph-name="notequal" horiz-adv-x="512" 
d="M452 332q0 -8 -0.5 -17.5t-5.5 -15.5q-12 1 -27 1h-33h-91q-11 -31 -20 -54l-17 -42h189q13 -18 10.5 -32.5t-10.5 -31.5q-45 -1 -100.5 -1.5t-112.5 -0.5l-22 -62l-30 -92q-5 0 -17.5 -1t-37.5 1l30 85l25 69q-38 1 -71 1.5t-56 1.5q0 9 -2.5 16t-2.5 16q0 6 2.5 15
t3.5 15q22 0 62.5 0.5t86.5 0.5l17.5 47.5l16.5 47.5h-179q-11 17 -12 29.5t12 34.5q27 -1 53 -1h51h50q25 0 48 -1l29.5 80.5l35.5 98.5q11 3 28 1t28 -4q-13 -48 -30 -89.5l-34 -86.5q40 -1 73.5 -0.5t57.5 0.5q2 -10 2 -15v-14v0z" />
    <glyph glyph-name="approxequal" horiz-adv-x="551" 
d="M517 214q-8 -19 -20.5 -37t-29.5 -31.5t-39.5 -22t-50.5 -8.5q-29 0 -53 10t-46.5 22.5t-46 22.5t-52.5 10q-24 0 -38.5 -5.5t-25.5 -13.5t-20.5 -18t-24.5 -20q-8 5 -14.5 10.5l-12.5 10.5l9 15q37 78 138 78q26 0 51.5 -10t50 -22.5t48 -22.5t46.5 -10q35 0 57 18.5
t36 40.5q12 -2 20.5 -7zM504 397q-8 -20 -20 -38.5t-29 -33t-39 -23.5t-49 -9q-29 0 -52 11t-45 23.5t-45.5 23.5t-51.5 11q-24 0 -38 -5.5t-24.5 -14.5t-20 -19.5t-24.5 -20.5q-8 5 -14 10.5l-13 11.5q4 5 7 16q18 39 52.5 60t85.5 21q26 0 51 -10.5t49 -23.5t47 -23.5
t45 -10.5q34 0 55.5 19.5t36.5 42.5q11 -2 19.5 -7t16.5 -11z" />
    <glyph glyph-name="summation" horiz-adv-x="747" 
d="M21 -199q0 1 15.5 24l41 59.5l59 82.5l69.5 94l72 94.5l67 83.5l-67 86l-71.5 92l-68.5 88.5l-58.5 75.5l-40.5 53t-15 21q0 6 8.5 9t20.5 4t25.5 0.5t24.5 -0.5q45 0 100.5 -1t113 -1.5t112.5 -1.5t100 -1h18q17 0 35 2t27 8q11 1 16.5 3l9.5 3.5t9 2.5t16 1
q14 0 19.5 -17.5t13.5 -39.5l16 -52t14 -52q3 -8 -6.5 -10.5t-14.5 -2.5q-6 0 -13 8.5t-14 20l-14 24t-14 20.5q-23 25 -49 33t-58 10q-23 1 -51 1.5l-58.5 1l-62 1t-60.5 0.5h-69q-3 0 -13 0.5t-21 0.5q-10 0 -17.5 -1.5t-6.5 -5.5q3 -10 20.5 -36l39 -56l42 -57.5
l29.5 -39.5q3 -5 11 -17t20 -28.5l27.5 -36.5t33.5 -41q17 -9 36 -23t27.5 -31.5t0 -37.5t-46.5 -41q-57 -66 -88.5 -109t-42.5 -57l-24.5 -34l-34 -48t-31 -48t-15.5 -34q0 -8 6.5 -12t15.5 -5t19 -0.5t18 0.5q45 0 97.5 0.5t97.5 0.5q35 0 76 1.5t76 11.5q25 10 38.5 27.5
t27.5 40.5q6 11 10 24.5t9.5 23.5t13 12.5t19.5 -7.5q3 -17 3 -32q0 -17 -4.5 -34.5t-7.5 -34.5q-2 -12 -3.5 -25.5t-5.5 -25t-12 -18.5t-24 -7q-38 0 -76 2t-76 2h-87q-91 0 -189.5 -3.5t-189.5 -3.5q-16 0 -16 15z" />
    <glyph glyph-name="lessequal" horiz-adv-x="443" 
d="M120 339l82 -63l65 -48l63.5 -44.5l77.5 -53.5q0 -9 -1.5 -13t-3.5 -7.5t-3.5 -7.5t-1.5 -13q-58 30 -98.5 53.5l-79 47.5l-81 51.5l-103.5 65.5v62l73.5 43.5l57.5 37l49.5 34l49 33l56 35t71.5 40.5q0 -9 1 -13t2 -7t2 -6.5t1 -12.5l-81.5 -61l-67 -52l-62.5 -49z
M408 27v11q0 6 -2 12q-57 0 -145.5 0.5t-212.5 1.5q-13 -17 -12 -27.5t12 -23.5q88 0 146 0.5t97 0.5h64h24q12 0 23 -1q5 5 5.5 12.5t0.5 13.5z" />
    <glyph glyph-name="greaterequal" horiz-adv-x="443" 
d="M324 339l-68.5 52l-62 48.5l-67 52l-81.5 61.5q0 9 1 12.5t2 6.5t2 7t1 13l71.5 -41.5l56 -35l48.5 -32.5l49.5 -33l58 -37t73.5 -44v-62l-73 -45.5l-59.5 -38l-52.5 -33.5l-51.5 -31.5l-56.5 -32.5t-69 -37q0 9 -1.5 13t-3.5 7.5t-3.5 7.5t-1.5 13l77.5 53.5l63 44.5
l65 48zM36 27q0 -6 0.5 -13.5t5.5 -12.5q11 1 22 1h24h65q39 0 97 -0.5t146 -0.5q11 13 12 23.5t-12 27.5q-124 -1 -212.5 -1.5t-145.5 -0.5q-2 -6 -2 -12v-11z" />
    <glyph glyph-name="partialdiff" horiz-adv-x="584" 
d="M435 211q0 29 -4 58.5t-14 57t-27 51t-43 40.5q-14 9 -29.5 11.5t-32.5 2.5q-39 0 -66 -18t-44.5 -46.5t-25.5 -62.5t-8 -67q0 -35 8 -73.5t26 -71t47.5 -54.5t71.5 -23q38 0 65 17.5t44 45.5t24.5 61.5t7.5 65.5v5v0zM50 217q0 51 17.5 96.5t49 79t75 53.5t95.5 20
q73 0 131 -37q-6 30 -15.5 59.5t-25 59.5t-37.5 62t-53 68q-14 16 -33 31l-36.5 28.5t-30 24t-12.5 16.5q0 8 6 12t13 6q22 -6 62 -32.5t103 -80.5q46 -41 78.5 -91.5t52.5 -106.5t29.5 -116t9.5 -121q0 -51 -17 -99t-48 -85t-75 -60t-98 -24q-53 0 -97 17t-76 48t-50 75
t-18 97z" />
    <glyph glyph-name="Delta" horiz-adv-x="644" 
d="M113 72q-1 -15 7 -21.5t29.5 -8t57.5 -0.5t92 1q47 0 84 -2t61 -1t34.5 7.5t5.5 23.5q-5 16 -19.5 56.5l-33.5 92.5l-40.5 108l-40.5 104.5l-33.5 82.5t-19.5 40q-3 3 -6.5 -2t-7 -12.5l-6.5 -14.5t-4 -8q-6 -14 -20 -50.5l-32 -83.5l-37 -99l-35 -97t-26 -77t-10 -39z
M321 734q7 0 11 -5.5t6 -10.5l47 -116l47 -116l81.5 -213.5t82.5 -205.5q12 -23 18 -36.5t3 -20.5t-17.5 -8.5t-43.5 -1.5h-53h-91q-52 0 -107.5 0.5t-107.5 0.5h-86h-45q-5 0 -15 -0.5t-17.5 4t-8.5 17t13 37.5q3 5 8.5 18l12 28t12 29.5t8.5 21.5l41 101.5l42 101.5
l72 181l72 181q2 6 4.5 9.5t10.5 3.5z" />
    <glyph glyph-name="product" horiz-adv-x="807" 
d="M780 660q0 -14 -10.5 -17t-24.5 -3q-27 0 -42 -4t-22 -13t-8 -22t-1 -31q0 -63 -1.5 -125t-1.5 -125v-395q0 -16 2.5 -36t14.5 -31q9 -8 24.5 -11t30 -5.5t25.5 -5.5t11 -12q0 -15 -14.5 -16.5t-29.5 -1.5q-28 0 -56 3t-56 3q-30 0 -54 -3.5t-54 -3.5h-14
q-10 0 -19.5 3.5t-9.5 15.5q0 9 10 12.5t23.5 6t28.5 6t25 12.5q10 8 12.5 28.5t2.5 39.5v21l1 478q0 26 0.5 51t0.5 50v19q0 17 -3 37t-9 28q-14 13 -32.5 14.5t-32.5 3.5q-49 -3 -97.5 -3.5t-76.5 -0.5h-22q-27 0 -42 -4t-22 -13t-8 -22t-1 -31q0 -63 -1.5 -125t-1.5 -125
v-383q0 -16 2.5 -36t14.5 -31q9 -8 24.5 -11t30 -5.5t25.5 -5.5t11 -12q0 -15 -14.5 -16.5t-29.5 -1.5q-28 0 -56 3t-56 3q-30 0 -54 -3.5t-54 -3.5h-14q-10 0 -19.5 3.5t-9.5 15.5q0 9 10 12.5t23.5 6t28.5 6t25 12.5q10 8 12.5 28.5t2.5 39.5v21l1 490q0 26 0.5 51t0.5 50
v19q0 17 -3 37t-9 28q-11 11 -26 13.5t-29 3.5t-23.5 5t-9.5 18q0 10 9.5 11.5t17.5 1.5h11q29 0 58.5 -3t58.5 -3h4h1q1 0 3 0.5t7 0.5q8 0 29 0.5t59 0.5h103q16 0 46 0.5t76.5 1t110.5 1t150 0.5q2 -2 4 -7.5t2 -8.5z" />
    <glyph glyph-name="infinity" horiz-adv-x="865" 
d="M403 605q3 13 7 25.5t9 25.5q-20 2 -28.5 9t-13.5 17t-9 20.5t-14.5 19.5t-30 15t-55.5 6q-21 0 -36 -13t-25 -33.5t-16 -46.5t-9 -52.5t-4 -50.5t-1 -41v-14q0 -12 0.5 -28.5t5.5 -21.5l203 5q3 39 5 79.5t12 78.5zM826 5q0 -11 -10.5 -12t-17.5 -1q-18 0 -35.5 2.5
t-34.5 2.5q-26 0 -53 -2.5t-53 -2.5h-11q-8 0 -15 2t-7 13q0 3 2 5l4 4q9 7 20.5 8.5l22.5 3t19.5 7t11.5 21.5q2 10 2 14v15q1 32 0.5 62.5t0.5 62.5q1 24 2.5 47.5t1.5 47.5q0 16 -2.5 32t-9.5 29t-19.5 21.5t-32.5 9.5l-140 -1q-7 -7 -6.5 -22t0.5 -24q0 -69 -0.5 -135
t-0.5 -135q0 -22 7 -33t18 -16.5t26 -7t32 -4.5q4 -4 4 -11t-5 -9l-1 -3q-7 -4 -19 -4q-19 0 -38 3t-38 3q-29 0 -58 -3t-58 -3q-5 0 -15.5 1t-10.5 9q0 14 12 17l27 6.5t27 14t12 39.5v287q0 13 -3 27q-24 3 -47 3q-9 0 -31.5 0.5t-47.5 0.5h-45q-23 0 -27 -1
q-7 -7 -6.5 -22t0.5 -24q0 -69 -0.5 -135t-0.5 -135q0 -22 7 -33t18 -16.5t26 -7t32 -4.5q4 -4 4 -11t-5 -9l-1 -3q-7 -4 -19 -4q-19 0 -38 3t-38 3q-29 0 -58 -3t-58 -3q-5 0 -15.5 1t-10.5 9q0 14 12 17l27 6.5t27 14t12 39.5v287q0 13 -3 27q-24 3 -47 3q-8 0 -18 2
t-10 13q0 4 0.5 9.5t2.5 9.5q3 5 12.5 7t21 3.5t23 2.5t17.5 4q3 39 5 79.5t12 78.5q9 38 27 72t44 60t60 41t75 15q68 -1 97 -21t34 -56q28 35 66 56.5t89 20.5q21 0 42.5 -3t38.5 -11.5t28 -22.5t12 -35q3 -12 -3.5 -23t-17.5 -17.5t-23.5 -7.5t-20.5 6q-6 4 -9.5 15
t-13 21.5t-29.5 19t-59 8.5q-21 0 -36 -13t-25 -33.5t-16 -46.5t-9 -52.5t-4 -50.5t-1 -41v-14q0 -12 0.5 -28.5t5.5 -21.5h198q16 0 29 4.5t23.5 9.5t17.5 7.5t10 -0.5q2 -2 4 -2.5t2 -2.5q0 -15 -0.5 -29.5t-1.5 -29.5q-1 -30 -1.5 -60.5t-0.5 -60.5q0 -37 0.5 -73.5
t1.5 -73.5q0 -17 -0.5 -34.5t1.5 -34.5q2 -21 13.5 -28t25 -9.5t24.5 -5t11 -14.5z" />
    <glyph glyph-name="Omega" horiz-adv-x="902" 
d="M386 447q3 39 5 79.5t12 78.5q3 13 7 25.5t9 25.5q-20 2 -28.5 9t-13.5 17t-9 20.5t-14.5 19.5t-30 15t-55.5 6q-21 0 -36 -13t-25 -33.5t-16 -46.5t-9 -52.5t-4 -50.5t-1 -41v-14q0 -12 0.5 -28.5t5.5 -21.5zM862 8q0 -11 -10 -14q-1 -1 -5 -1h-4q-23 0 -46.5 2.5
t-46.5 2.5q-29 0 -57 -3t-57 -3q-5 0 -15 1.5t-10 9.5q0 13 6 14.5t19 5.5q17 5 32 11.5t22 24.5q3 8 4 20t1 21q0 135 0.5 265.5t0.5 265.5q0 37 -12 62t-32 38.5t-45.5 16t-52.5 -4.5q-32 -8 -50 -36.5t-27 -64.5t-11.5 -73.5t-2.5 -62.5v-14q0 -12 0.5 -28.5t5.5 -21.5
h112q13 0 19 -6q0 -5 0.5 -9t0.5 -9q0 -11 -5 -19q-5 -1 -11 -1.5t-12 -0.5h-62h-20q-9 0 -19 -1q-7 -7 -6.5 -22t0.5 -24q0 -69 -0.5 -135t-0.5 -135q0 -22 7 -33t18 -16.5t26 -7t32 -4.5q4 -4 4 -11t-5 -9l-1 -3q-7 -4 -19 -4q-19 0 -38 3t-38 3q-29 0 -58 -3t-58 -3
q-5 0 -15.5 1t-10.5 9v2q0 1 2 7q0 1 2 3q3 3 6 4q8 4 19.5 5.5t22.5 6.5t18.5 15.5t7.5 33.5v287q0 13 -3 27q-24 3 -47 3h-151q-7 -7 -6.5 -22t0.5 -24q0 -69 -0.5 -135t-0.5 -135q0 -22 7 -33t18 -16.5t26 -7t32 -4.5q4 -4 4 -11t-5 -9l-1 -3q-7 -4 -19 -4q-19 0 -38 3
t-38 3q-29 0 -58 -3t-58 -3q-5 0 -15.5 1t-10.5 9q0 14 12 17l27 6.5t27 14t12 39.5v287q0 13 -3 27q-24 3 -47 3q-8 0 -18 2t-10 13q0 4 0.5 9.5t2.5 9.5q3 5 12.5 7t21 3.5t23 2.5t17.5 4q3 39 5 79.5t12 78.5q9 38 27 72t44 60t60 41t75 15q68 -1 97 -21t34 -56
q2 2 3 3.5t3 2.5q27 32 64 52t85 19q30 -1 54 -7.5t41 -25.5l41 14.5l25 8.5l6 -4v-54q0 -164 -0.5 -324t-0.5 -324q0 -33 17.5 -41.5t44.5 -11.5q2 -2 4.5 -1.5t4.5 0.5q16 0 16 -15z" />
    <glyph glyph-name="pi" horiz-adv-x="817" 
d="M420 391q1 -17 -10 -26.5t-27 -9.5t-29 12t-26 26.5t-28 26.5t-35 12q-38 0 -64 -18.5t-42.5 -47.5t-23.5 -63.5t-7 -67.5q0 -36 9 -71t28 -62.5t48 -44.5t69 -17h22q26 0 49 11t43 27l9.5 7.5t9.5 6.5q6 -5 6 -12q0 -9 -7 -18t-12 -16q-6 -8 -16.5 -16.5t-23 -16.5
t-25 -14t-21.5 -9q-35 -11 -65 -11q-47 0 -84.5 18.5t-63.5 50t-39.5 72.5t-13.5 87q-1 51 15 97t46.5 81.5t73 56.5t94.5 21h3q-32 21 -46.5 43.5t-15.5 50.5t8.5 60.5t33 59.5t62.5 45t97 18q61 0 101 -21.5t64 -52.5t34 -65t11 -59q1 -18 1.5 -20.5t0.5 -6.5v-72
q9 -2 21 -2.5t25 0l25.5 1t21.5 0.5h10q11 0 25.5 -1t16.5 -3q6 -2 7.5 -8t1.5 -11t-2 -10t-3 -10q-4 -5 -15 -5.5t-16 -0.5q-20 0 -38.5 1t-37.5 1q-7 0 -19.5 -0.5t-17.5 -5.5q-5 0 -5 -4q-4 -7 -4 -18q-2 -34 -1.5 -68t0.5 -68q0 -30 -0.5 -60t-0.5 -60q0 -32 19.5 -51
t51.5 -19q27 0 41.5 9.5l35.5 22.5q11 0 11 -10q0 -16 -10.5 -28.5t-22.5 -21.5q-19 -14 -43.5 -20.5t-48.5 -6.5q-62 0 -88 35t-26 93q0 63 1.5 122.5t1.5 122.5q0 18 -11 23.5t-23.5 6t-23.5 1t-11 9.5q0 2 0.5 3t0.5 3q3 2 14.5 6.5t23.5 11.5t21.5 17t9.5 23q0 10 1 10
q0 34 -4 75t-18 76t-41 59t-72 24q-35 0 -60.5 -13t-42 -34t-24 -47.5t-7.5 -53.5q0 -7 1.5 -19t7 -25.5t16 -27.5t29.5 -25q8 -2 16.5 -5.5t17.5 -8.5q20 -8 34.5 -22t14.5 -35z" />
    <glyph glyph-name="lozenge" horiz-adv-x="714" 
d="M684 419q0 -5 -2 -10t-3 -10q-4 -5 -15 -5.5t-16 -0.5q-20 0 -38.5 1t-37.5 1q-7 0 -19.5 -0.5t-17.5 -5.5q-5 0 -5 -4q-4 -7 -4 -18q-2 -34 -1.5 -68t0.5 -68q0 -30 -0.5 -60t-0.5 -60q0 -32 19.5 -51t51.5 -19q27 0 41.5 9.5l35.5 22.5q11 0 11 -10q0 -16 -10.5 -28.5
t-22.5 -21.5q-19 -14 -43.5 -20.5t-48.5 -6.5q-62 0 -88 35t-26 93q0 63 1.5 122.5t1.5 122.5q0 18 -11 23.5t-23.5 6t-23.5 1t-11 9.5q0 2 0.5 3t0.5 3q3 2 14.5 6.5t23.5 11.5t21.5 17t9.5 23v10l1 -1q0 34 -4 75.5t-18 76.5t-40.5 59t-72.5 24q-35 0 -60.5 -13t-42 -34
t-24 -47.5t-7.5 -53.5q0 -7 1.5 -19t7 -25.5t16 -27.5t29.5 -25q12 -4 26.5 -10.5t28.5 -20.5q4 -4 7 -8.5t3 -10.5q0 -34 -3 -65q-1 -6 -2.5 -11.5t-9.5 -5.5q-6 0 -11 16t-15.5 34.5t-30 34.5t-54.5 16q-30 0 -45.5 -22t-15.5 -52q0 -22 16.5 -39.5t42 -33.5t54.5 -32.5
t54.5 -36t42 -43.5t16.5 -55q0 -22 -11 -49q-20 -48 -58 -69t-87 -21q-12 0 -34 2.5t-44 9t-38 17t-16 26.5l1 34q0 11 -0.5 22t-0.5 25q1 5 5.5 6t8.5 1q6 0 8.5 -4t4.5 -9l16.5 -36t20 -31.5t27 -22t38.5 -8.5q36 0 58 22t22 60q0 25 -16 42.5t-40 32.5t-52 28.5t-52 31.5
t-40 41.5t-16 57.5q0 61 34.5 98t106.5 36q-35 22 -50.5 45t-16.5 52q-1 28 8.5 60.5t33 59.5t62.5 45t97 18q61 0 101 -21.5t64 -52.5t34 -65t11 -59q1 -18 1.5 -20.5t0.5 -6.5v-72q9 -2 21 -2.5t25 0l25.5 1t21.5 0.5h10q11 0 25.5 -1t16.5 -3q6 -2 7.5 -8t1.5 -11z" />
    <glyph glyph-name="apple" horiz-adv-x="1127" 
d="M933 642q18 0 40.5 -12.5t44 -33.5t39 -49t26.5 -59q25 -89 9.5 -156t-58.5 -118q-46 -47 -106.5 -86t-131.5 -61.5t-150 -25t-162 23.5q-12 5 -29 15t-30.5 24.5t-20 32t2.5 36.5q4 22 24.5 37.5t44 31.5t42.5 36.5t19 52.5q0 26 -19 63q-32 64 -23.5 109.5t46.5 87.5
q34 32 61.5 36t52.5 -10t50 -41l53.5 -56.5t62 -56.5t77.5 -41q30 -10 50.5 -2.5t31 26t12 45t-4.5 54.5t-20 54t-34 43zM508 341l-24 -51q-37 2 -57.5 3.5t-33.5 3t-22.5 2.5t-24.5 2q6 -42 -17 -83q-18 -25 -36 -42t-41.5 -29t-54.5 -20.5t-75 -16.5q-16 -2 -28.5 4
t-35.5 19l70.5 23t64 25t51.5 33t34 48q2 4 3.5 12.5t1.5 16.5q0 9 -2.5 15.5t-8.5 7.5l-84.5 14t-77.5 21.5t-52.5 41t-8.5 72.5q-1 15 14 7t37 -23.5t46.5 -31t43.5 -15.5q10 0 4 14t-20.5 36.5l-33.5 50.5t-34.5 56t-23 53t0.5 41q9 24 28.5 38.5t45 23.5t54 13.5t56 8
t51.5 8t40 13.5q6 3 -1.5 -5.5l-23 -25l-35 -38.5t-36 -47t-28 -50t-10.5 -47q0 -24 0.5 -51t4 -50.5t11.5 -40t22 -19.5q31 -14 61.5 -21.5t61 -11t61 -5t62.5 -3.5z" />
    <glyph glyph-name="integral" horiz-adv-x="291" 
d="M444 721q3 -12 -3.5 -23t-17.5 -17.5t-23.5 -7.5t-20.5 6q-6 4 -9.5 15t-13 21.5t-29.5 19t-59 8.5q-21 0 -35.5 -13t-24.5 -33.5t-15.5 -46.5t-8.5 -52.5t-3.5 -50.5t-0.5 -41v-127q0 -38 -0.5 -79.5t-0.5 -81.5v-138q0 -22 7 -33t18 -16.5t26 -7t32 -4.5q4 -4 4 -11
t-5 -9l-1 -3q-7 -4 -19 -4q-19 0 -38 3t-38 3q-29 0 -58 -3t-58 -3q-5 0 -15.5 1t-10.5 9q0 14 12 17l27 6.5t27 14t12 39.5v287q0 13 -3 27q-24 3 -47 3q-8 0 -18 2t-10 13q0 4 0.5 9.5t2.5 9.5q3 5 12.5 7t21 3.5t23 2.5t17.5 4q3 39 5 79.5t12 78.5q9 38 27 72.5t44 60.5
t60 41t75 14q21 0 42.5 -3t38.5 -11.5t28 -22.5t12 -35z" />
    <glyph glyph-name="radical" horiz-adv-x="616" 
d="M389 447q1 52 1.5 82.5t1 52.5t1.5 41.5t3 49.5q-6 5 -9 16.5t-14.5 23.5t-35 21t-69.5 9q-21 0 -36 -13t-25 -33.5t-16 -46.5t-9 -52.5t-4 -50.5t-1 -41v-14q0 -12 0.5 -28.5t5.5 -21.5l206 5v0zM733 861q3 -12 -3.5 -23t-17.5 -17.5t-23.5 -7.5t-20.5 6q-6 4 -9.5 15
t-13 21.5t-29.5 19t-59 8.5q-21 0 -36 -13t-25 -33.5t-16 -46.5t-9 -52.5t-4 -50.5t-1 -41v-56v-47t1 -47t2 -37t3 -17h112q13 0 19 -6q0 -5 0.5 -9t0.5 -9q0 -11 -5 -19q-5 -1 -11 -1.5t-12 -0.5h-62h-20q-9 0 -19 -1q-7 -7 -6.5 -22t0.5 -24q0 -69 -0.5 -135t-0.5 -135
q0 -22 7 -33t18 -16.5t26 -7t32 -4.5q4 -4 4 -11t-5 -9l-1 -3q-7 -4 -19 -4q-19 0 -38 3t-38 3q-29 0 -58 -3t-58 -3q-5 0 -15.5 1t-10.5 9q0 14 12 17l27 6.5t27 14t12 39.5v287q0 13 -3 27q-8 1 -34.5 1.5t-58.5 0.5q-31 0 -61.5 0.5t-46.5 0.5q-7 -7 -6.5 -22t0.5 -24
q0 -69 -0.5 -135t-0.5 -135q0 -22 7 -33t18 -16.5t26 -7t32 -4.5q4 -4 4 -11t-5 -9l-1 -3q-7 -4 -19 -4q-19 0 -38 3t-38 3q-29 0 -58 -3t-58 -3q-5 0 -15.5 1t-10.5 9q0 14 12 17l27 6.5t27 14t12 39.5v287q0 13 -3 27q-24 3 -47 3q-8 0 -18 2t-10 13q0 4 0.5 9.5t2.5 9.5
q3 5 12.5 7t21 3.5t23 2.5t17.5 4q3 39 5 79.5t12 78.5q9 38 27 72.5t44 60.5t60 41t75 14q25 -1 49 -5t42 -15q11 33 29.5 62.5t43.5 51.5t56.5 34.5t68.5 11.5q21 0 42.5 -3t38.5 -11.5t28 -22.5t12 -35z" />
    </font>
</defs>
</svg>
